<?xml version="1.0" encoding="UTF-8"?>
<svg width="27px" height="24px" viewBox="0 0 27 24" version="1.1" xmlns="http://www.w3.org/2000/svg" xmlns:xlink="http://www.w3.org/1999/xlink">
    <!-- Generator: Sketch 43.2 (39069) - http://www.bohemiancoding.com/sketch -->
    <title>Group 2</title>
    <desc>Created with Sketch.</desc>
    <defs></defs>
    <g id="Page-1" stroke="none" stroke-width="1" fill="none" fill-rule="evenodd">
        <g id="Group-2" transform="translate(1.000000, 1.000000)">
            <g id="icon-heart"></g>
            <g id="Group" stroke="#803BDD">
                <g id="icon-heart" fill="#979797">
                    <path d="M12.5,3.214602 C8.332586,-3.034277 0,0.623987 0,7.431361 C0,12.038395 4.160685,15.322084 7.291854,17.798309 C10.541898,20.370981 11.457025,20.922748 12.5,21.963481 C13.540732,20.922748 14.413242,20.314907 17.708146,17.796066 C20.884174,15.37143 25,11.984564 25,7.379773 C24.997757,0.623987 16.665171,-3.034277 12.5,3.214602 Z" id="Heart"></path>
                </g>
                <path d="M12.5,3.214602 C8.332586,-3.034277 0,0.623987 0,7.431361 C0,12.038395 4.160685,15.322084 7.291854,17.798309 C10.541898,20.370981 11.457025,20.922748 12.5,21.963481 C13.540732,20.922748 14.413242,20.314907 17.708146,17.796066 C20.884174,15.37143 25,11.984564 25,7.379773 C24.997757,0.623987 16.665171,-3.034277 12.5,3.214602 Z" id="Heart"></path>
            </g>
        </g>
    </g>
</svg>