<?xml version="1.0" encoding="UTF-8"?>
<svg width="180px" height="123px" viewBox="0 0 180 123" version="1.1" xmlns="http://www.w3.org/2000/svg" xmlns:xlink="http://www.w3.org/1999/xlink">
    <!-- Generator: Sketch 42 (36781) - http://www.bohemiancoding.com/sketch -->
    <title>Cart Icon</title>
    <desc>Created with Sketch.</desc>
    <defs></defs>
    <g id="Real-Thing" stroke="none" stroke-width="1" fill="none" fill-rule="evenodd">
        <g id="Cart-Icon" fill="#4A4A4A">
            <path d="M157.458177,69.2698936 L150.165205,74.8708913 L151.759735,69.2698936 L157.458177,69.2698936 Z M8.02220856,16.1813614 C3.8268176,16.1813614 0.42578125,12.6993885 0.42578125,8.40415726 C0.42578125,4.10892602 3.8268176,0.626953125 8.02220856,0.626953125 L54.7283671,0.626953125 C58.1345358,0.626953125 61.1243048,2.94820211 62.0431674,6.30614534 L79.2724751,69.2698936 L151.759735,69.2698936 L162.27223,32.3433638 L99.8989198,32.3433638 C95.7035288,32.3433638 92.3024924,28.8613909 92.3024924,24.5661596 C92.3024924,20.2709284 95.7035288,16.7889555 99.8989198,16.7889555 L172.398807,16.7889555 C177.462493,16.7889555 181.108692,21.7652689 179.691779,26.742366 L164.751149,79.2233041 C163.80628,82.5422832 160.834899,84.8243018 157.458177,84.8243018 L73.5117206,84.8243018 C70.1055519,84.8243018 67.1157829,82.5030529 66.1969203,79.1451096 L48.9676126,16.1813614 L8.02220856,16.1813614 Z" id="Path-2" fill-rule="nonzero"></path>
            <ellipse id="Oval-2" cx="83.3804076" cy="106.931768" rx="15.1928546" ry="15.5544083"></ellipse>
            <ellipse id="Oval-2-Copy" cx="144.292921" cy="106.931768" rx="15.1928546" ry="15.5544083"></ellipse>
        </g>
    </g>
</svg>