<?xml version="1.0" encoding="UTF-8"?>
<svg xmlns="http://www.w3.org/2000/svg" xmlns:xlink="http://www.w3.org/1999/xlink" style="opacity: 0; height: 0; width: 0; display: block;">
  <defs>
    <svg xmlns="http://www.w3.org/2000/svg" xmlns:xlink="http://www.w3.org/1999/xlink" viewBox="0 0 147 25" version="1.1" id="archadon-logo">
    <!-- Generator: Sketch 42 (36781) - http://www.bohemiancoding.com/sketch -->
    <title>archadon copy</title>
    <desc>Created with Sketch.</desc>
    <defs/>
    <g id="--ss-0" stroke="none" stroke-width="1" fill="none" fill-rule="evenodd">
        <g id="--ss-1" transform="translate(-21.000000, -22.000000)" fill-rule="nonzero" fill="currentColor">
            <path d="M38.625,42.5625 C38.541666,43.0416689 38.3958345,43.5416641 38.1875,44.0625 C37.9791655,44.5833359 37.687502,45.062498 37.3125,45.5 C36.937498,45.937502 36.4583364,46.2968735 35.875,46.578125 C35.2916636,46.8593765 34.5729209,47 33.71875,47 C33.0937471,47 32.5468774,46.921876 32.078125,46.765625 C31.6093726,46.609374 31.208335,46.4062515 30.875,46.15625 C30.541665,45.9062485 30.2708345,45.6250015 30.0625,45.3125 C29.8541655,44.9999985 29.697917,44.6875015 29.59375,44.375 C29.1770811,45.2083374 28.5885454,45.8541646 27.828125,46.3125 C27.0677046,46.7708354 26.1770884,47 25.15625,47 C23.9270771,47 22.9270874,46.6666699 22.15625,46 C21.3854126,45.3333301 21,44.3854229 21,43.15625 C21,42.3437461 21.18229,41.6145864 21.546875,40.96875 C21.91146,40.3229136 22.4062471,39.7760439 23.03125,39.328125 C23.6562529,38.8802061 24.3749961,38.5208345 25.1875,38.25 C26.0000039,37.9791655 26.8541621,37.8125005 27.75,37.75 L29.46875,37.625 L29.46875,37.03125 C29.46875,36.1562456 29.453125,35.3229204 29.421875,34.53125 C29.390625,33.7395796 29.3125005,33.0520864 29.1875,32.46875 C29.0624995,31.8854136 28.8645845,31.421877 28.59375,31.078125 C28.3229155,30.734373 27.9479189,30.5625 27.46875,30.5625 C27.322916,30.5625 27.156251,30.583333 26.96875,30.625 C26.885416,30.6458335 26.8125005,30.6666665 26.75,30.6875 L25.09375,36.0625 C25.0312495,36.0833335 24.958334,36.09375 24.875,36.09375 C24.791666,36.09375 24.708334,36.0989585 24.625,36.109375 C24.541666,36.1197915 24.447917,36.125 24.34375,36.125 C24.0937485,36.125 23.8333345,36.0989585 23.5625,36.046875 C23.2916655,35.9947915 23.041668,35.895834 22.8125,35.75 C22.583332,35.604166 22.390626,35.3958345 22.234375,35.125 C22.078124,34.8541655 22,34.5104189 22,34.09375 C22,33.4687471 22.187498,32.8750029 22.5625,32.3125 C22.937502,31.7499971 23.4531216,31.2604189 24.109375,30.84375 C24.7656284,30.4270811 25.5572871,30.0989595 26.484375,29.859375 C27.4114629,29.6197905 28.4166611,29.5 29.5,29.5 C31.6666777,29.5 33.3489521,30.0572861 34.546875,31.171875 C35.7447979,32.2864639 36.34375,34.1458203 36.34375,36.75 L36.34375,43.46875 C36.34375,43.656251 36.359375,43.8489575 36.390625,44.046875 C36.421875,44.2447925 36.510416,44.34375 36.65625,44.34375 C36.760417,44.34375 36.869791,44.2812505 36.984375,44.15625 C37.098959,44.0312495 37.2031245,43.8697925 37.296875,43.671875 C37.3906255,43.4739575 37.4687495,43.260418 37.53125,43.03125 C37.5937505,42.802082 37.6354165,42.5833345 37.65625,42.375 L38.625,42.5625 Z M28.59375,44.375 C28.8020845,44.375 28.999999,44.1354189 29.1875,43.65625 C29.375001,43.1770811 29.46875,42.4479214 29.46875,41.46875 L29.46875,38.34375 L29.40625,38.375 C29.0104146,38.520834 28.6718765,38.8593726 28.390625,39.390625 C28.1093735,39.9218774 27.96875,40.7812441 27.96875,41.96875 C27.96875,42.5520864 28.0156245,43.0989556 28.109375,43.609375 C28.2031255,44.1197944 28.364582,44.375 28.59375,44.375 Z M51.09375,29.5 C52.1562554,29.5 53.0156216,29.8020801 53.671875,30.40625 C54.3281284,31.0104199 54.65625,31.8229116 54.65625,32.84375 C54.65625,33.8437549 54.3541699,34.6458301 53.75,35.25 C53.1458301,35.8541699 52.3437549,36.15625 51.34375,36.15625 C51.2187495,36.15625 51.0937505,36.1510415 50.96875,36.140625 C50.8437495,36.1302085 50.729167,36.1145835 50.625,36.09375 C50.520833,36.09375 50.416667,36.0833335 50.3125,36.0625 L50,31.15625 C49.9791665,31.15625 49.9583335,31.1458335 49.9375,31.125 L49.75,31.125 C49.458332,31.125 49.1875015,31.3020815 48.9375,31.65625 C48.6874985,32.0104185 48.468751,32.4947886 48.28125,33.109375 C48.093749,33.7239614 47.947917,34.4427041 47.84375,35.265625 C47.739583,36.0885459 47.6875,36.9791621 47.6875,37.9375 L47.6875,46.0625 L50.3125,46.0625 L50.3125,46.6875 L38.875,46.6875 L38.875,46.0625 L40.8125,46.0625 L40.8125,30.4375 L38.875,30.4375 L38.875,29.8125 C40.3333408,29.8125 41.6979102,29.7864585 42.96875,29.734375 C44.2395898,29.6822915 45.3541621,29.604167 46.3125,29.5 L46.75,29.6875 L46.90625,35.375 C47.0312505,34.2499941 47.2187485,33.3125039 47.46875,32.5625 C47.7187515,31.8124961 48.0208315,31.2135439 48.375,30.765625 C48.7291685,30.3177061 49.1354146,29.9947925 49.59375,29.796875 C50.0520854,29.5989575 50.5520806,29.5 51.09375,29.5 Z M54.90625,38.625 C54.90625,37.3124937 55.0989565,36.0989639 55.484375,34.984375 C55.8697935,33.8697861 56.4479126,32.9062539 57.21875,32.09375 C57.9895874,31.2812461 58.9583276,30.6458354 60.125,30.1875 C61.2916724,29.7291646 62.6562422,29.5 64.21875,29.5 C66.1979268,29.5 67.7083281,29.8541631 68.75,30.5625 C69.7916719,31.2708369 70.3125,32.2291606 70.3125,33.4375 C70.3125,34.3125044 70.0572944,35.0260391 69.546875,35.578125 C69.0364556,36.1302109 68.3645874,36.40625 67.53125,36.40625 C67.343749,36.40625 67.1458345,36.385417 66.9375,36.34375 C66.854166,36.34375 66.770834,36.3333335 66.6875,36.3125 L65.15625,30.53125 C65.0937495,30.5104165 65.041667,30.5 65,30.5 C64.854166,30.4791665 64.729167,30.46875 64.625,30.46875 C64.0833306,30.46875 63.645835,30.7031226 63.3125,31.171875 C62.979165,31.6406274 62.718751,32.2135381 62.53125,32.890625 C62.343749,33.5677119 62.213542,34.2916626 62.140625,35.0625 C62.067708,35.8333374 62.03125,36.5208301 62.03125,37.125 C62.03125,39.0833433 62.3229136,40.5937446 62.90625,41.65625 C63.4895864,42.7187554 64.3958271,43.25 65.625,43.25 C66.4166704,43.25 67.1562466,43.0260439 67.84375,42.578125 C68.5312534,42.1302061 69.0520815,41.4375049 69.40625,40.5 L70.3125,40.875 C70.083332,41.6250039 69.7395854,42.3697881 69.28125,43.109375 C68.8229146,43.8489619 68.2552119,44.5052056 67.578125,45.078125 C66.9010381,45.6510444 66.1197959,46.1145815 65.234375,46.46875 C64.3489541,46.8229185 63.3645889,47 62.28125,47 C61.1979111,47 60.2031294,46.8072935 59.296875,46.421875 C58.3906206,46.0364565 57.6145864,45.4843784 56.96875,44.765625 C56.3229136,44.0468716 55.81771,43.1718804 55.453125,42.140625 C55.08854,41.1093696 54.90625,39.9375063 54.90625,38.625 Z M91,46.0625 L91,46.6875 L82.40625,46.6875 L82.40625,34.96875 C82.40625,34.1979126 82.3437505,33.5833354 82.21875,33.125 C82.0937495,32.6666646 81.885418,32.4375 81.59375,32.4375 C81.3854155,32.4375 81.192709,32.552082 81.015625,32.78125 C80.838541,33.010418 80.6875005,33.3229146 80.5625,33.71875 C80.4374995,34.1145854 80.3437505,34.5624976 80.28125,35.0625 C80.2187495,35.5625024 80.1875,36.0833306 80.1875,36.625 L80.1875,46.0625 L81.5,46.0625 L81.5,46.6875 L71.375,46.6875 L71.375,46.0625 L73.3125,46.0625 L73.3125,25.4375 L71.375,25.4375 L71.375,24.8125 C72.8750073,24.6874995 74.3124932,24.4166689 75.6875,24 C77.0625068,23.5833311 78.3645771,22.9166714 79.59375,22 L80.1875,22.21875 L80.1875,28.6875 C80.1875,29.3541699 80.1770835,30.0364551 80.15625,30.734375 C80.1354165,31.4322949 80.0416675,32.1354131 79.875,32.84375 C80.5000029,31.5520767 81.2291626,30.6718774 82.0625,30.203125 C82.8958374,29.7343726 83.7812451,29.5 84.71875,29.5 C86.4062583,29.5 87.5885381,30.1249937 88.265625,31.375 C88.9427119,32.6250063 89.28125,34.4166548 89.28125,36.75 L89.28125,46.0625 L91,46.0625 Z M109.4375,42.5625 C109.354166,43.0416689 109.208334,43.5416641 109,44.0625 C108.791666,44.5833359 108.500002,45.062498 108.125,45.5 C107.749998,45.937502 107.270836,46.2968735 106.6875,46.578125 C106.104164,46.8593765 105.385421,47 104.53125,47 C103.906247,47 103.359377,46.921876 102.890625,46.765625 C102.421873,46.609374 102.020835,46.4062515 101.6875,46.15625 C101.354165,45.9062485 101.083334,45.6250015 100.875,45.3125 C100.666666,44.9999985 100.510417,44.6875015 100.40625,44.375 C99.9895811,45.2083374 99.4010454,45.8541646 98.640625,46.3125 C97.8802046,46.7708354 96.9895884,47 95.96875,47 C94.7395771,47 93.7395874,46.6666699 92.96875,46 C92.1979126,45.3333301 91.8125,44.3854229 91.8125,43.15625 C91.8125,42.3437461 91.99479,41.6145864 92.359375,40.96875 C92.72396,40.3229136 93.2187471,39.7760439 93.84375,39.328125 C94.4687529,38.8802061 95.1874961,38.5208345 96,38.25 C96.8125039,37.9791655 97.6666621,37.8125005 98.5625,37.75 L100.28125,37.625 L100.28125,37.03125 C100.28125,36.1562456 100.265625,35.3229204 100.234375,34.53125 C100.203125,33.7395796 100.125,33.0520864 100,32.46875 C99.8749995,31.8854136 99.6770845,31.421877 99.40625,31.078125 C99.1354155,30.734373 98.7604189,30.5625 98.28125,30.5625 C98.135416,30.5625 97.968751,30.583333 97.78125,30.625 C97.697916,30.6458335 97.6250005,30.6666665 97.5625,30.6875 L95.90625,36.0625 C95.8437495,36.0833335 95.770834,36.09375 95.6875,36.09375 C95.604166,36.09375 95.520834,36.0989585 95.4375,36.109375 C95.354166,36.1197915 95.260417,36.125 95.15625,36.125 C94.9062485,36.125 94.6458345,36.0989585 94.375,36.046875 C94.1041655,35.9947915 93.854168,35.895834 93.625,35.75 C93.395832,35.604166 93.203126,35.3958345 93.046875,35.125 C92.890624,34.8541655 92.8125,34.5104189 92.8125,34.09375 C92.8125,33.4687471 92.999998,32.8750029 93.375,32.3125 C93.750002,31.7499971 94.2656216,31.2604189 94.921875,30.84375 C95.5781284,30.4270811 96.3697871,30.0989595 97.296875,29.859375 C98.2239629,29.6197905 99.2291611,29.5 100.3125,29.5 C102.479178,29.5 104.161452,30.0572861 105.359375,31.171875 C106.557298,32.2864639 107.15625,34.1458203 107.15625,36.75 L107.15625,43.46875 C107.15625,43.656251 107.171875,43.8489575 107.203125,44.046875 C107.234375,44.2447925 107.322916,44.34375 107.46875,44.34375 C107.572917,44.34375 107.682291,44.2812505 107.796875,44.15625 C107.911459,44.0312495 108.015625,43.8697925 108.109375,43.671875 C108.203125,43.4739575 108.28125,43.260418 108.34375,43.03125 C108.40625,42.802082 108.447917,42.5833345 108.46875,42.375 L109.4375,42.5625 Z M99.40625,44.375 C99.6145845,44.375 99.812499,44.1354189 100,43.65625 C100.187501,43.1770811 100.28125,42.4479214 100.28125,41.46875 L100.28125,38.34375 L100.21875,38.375 C99.8229146,38.520834 99.4843765,38.8593726 99.203125,39.390625 C98.9218735,39.9218774 98.78125,40.7812441 98.78125,41.96875 C98.78125,42.5520864 98.8281245,43.0989556 98.921875,43.609375 C99.0156255,44.1197944 99.177082,44.375 99.40625,44.375 Z M128.375,46.0625 L128.375,46.6875 L120.75,46.6875 L120.28125,42.875 C119.927082,44.0625059 119.35417,45.0468711 118.5625,45.828125 C117.77083,46.6093789 116.750006,47 115.5,47 C114.749996,47 114.046878,46.833335 113.390625,46.5 C112.734372,46.166665 112.161461,45.6770864 111.671875,45.03125 C111.182289,44.3854136 110.796876,43.5729214 110.515625,42.59375 C110.234374,41.6145786 110.09375,40.4895898 110.09375,39.21875 C110.09375,37.8229097 110.27604,36.5312559 110.640625,35.34375 C111.00521,34.1562441 111.541663,33.1302129 112.25,32.265625 C112.958337,31.4010371 113.843745,30.7239609 114.90625,30.234375 C115.968755,29.7447891 117.187493,29.5 118.5625,29.5 C118.729167,29.5 118.895833,29.5052085 119.0625,29.515625 C119.229167,29.5260415 119.395833,29.53125 119.5625,29.53125 L119.5625,25.4375 L117.625,25.4375 L117.625,24.8125 C119.125007,24.6874995 120.562493,24.4166689 121.9375,24 C123.312507,23.5833311 124.614577,22.9166714 125.84375,22 L126.4375,22.21875 L126.4375,46.0625 L128.375,46.0625 Z M118.3125,44.125 C118.645835,44.125 118.937499,43.7916699 119.1875,43.125 C119.437501,42.4583301 119.5625,41.5104229 119.5625,40.28125 L119.5625,30.46875 C119.020831,30.5312505 118.583335,30.7604146 118.25,31.15625 C117.916665,31.5520854 117.661459,32.0677051 117.484375,32.703125 C117.307291,33.3385449 117.192708,34.0781206 117.140625,34.921875 C117.088542,35.7656294 117.0625,36.6562451 117.0625,37.59375 C117.0625,38.8645898 117.098958,39.9218706 117.171875,40.765625 C117.244792,41.6093794 117.338541,42.2812476 117.453125,42.78125 C117.567709,43.2812524 117.697916,43.6302075 117.84375,43.828125 C117.989584,44.0260425 118.145833,44.125 118.3125,44.125 Z M137.875,47 C135.14582,47 133.08334,46.3072988 131.6875,44.921875 C130.29166,43.5364512 129.59375,41.4062642 129.59375,38.53125 C129.59375,35.6145688 130.328118,33.3802163 131.796875,31.828125 C133.265632,30.2760337 135.479152,29.5 138.4375,29.5 C141.16668,29.5 143.22916,30.1927012 144.625,31.578125 C146.02084,32.9635488 146.71875,35.0937358 146.71875,37.96875 C146.71875,40.8854312 145.984382,43.1197837 144.515625,44.671875 C143.046868,46.2239663 140.833348,47 137.875,47 Z M138.28125,46.0625 C138.697919,46.0625 139.005208,45.5260469 139.203125,44.453125 C139.401042,43.3802031 139.5,41.5625127 139.5,39 C139.5,36.2083193 139.385418,34.0833408 139.15625,32.625 C138.927082,31.1666592 138.552086,30.4375 138.03125,30.4375 C137.614581,30.4375 137.307292,30.9739531 137.109375,32.046875 C136.911458,33.1197969 136.8125,34.9374873 136.8125,37.5 C136.8125,40.2916807 136.927082,42.4166592 137.15625,43.875 C137.385418,45.3333408 137.760414,46.0625 138.28125,46.0625 Z M167.5625,46.0625 L167.5625,46.6875 L158.96875,46.6875 L158.96875,34.96875 C158.96875,34.1979126 158.90625,33.5833354 158.78125,33.125 C158.65625,32.6666646 158.447918,32.4375 158.15625,32.4375 C157.947916,32.4375 157.755209,32.552082 157.578125,32.78125 C157.401041,33.010418 157.25,33.3229146 157.125,33.71875 C157,34.1145854 156.90625,34.5624976 156.84375,35.0625 C156.78125,35.5625024 156.75,36.0833306 156.75,36.625 L156.75,46.0625 L157.5,46.0625 L157.5,46.6875 L147.9375,46.6875 L147.9375,46.0625 L149.875,46.0625 L149.875,30.4375 L147.9375,30.4375 L147.9375,29.8125 C149.437507,29.8125 150.833327,29.7864585 152.125,29.734375 C153.416673,29.6822915 154.562495,29.604167 155.5625,29.5 L156,29.6875 L156.15625,33.84375 C156.385418,32.9895791 156.671873,32.2864609 157.015625,31.734375 C157.359377,31.1822891 157.749998,30.739585 158.1875,30.40625 C158.625002,30.072915 159.098956,29.8385425 159.609375,29.703125 C160.119794,29.5677075 160.645831,29.5 161.1875,29.5 C162.916675,29.5 164.124997,30.1145771 164.8125,31.34375 C165.500003,32.5729229 165.84375,34.3749883 165.84375,36.75 L165.84375,46.0625 L167.5625,46.0625 Z" id="--ss-2"/>
        </g>
    </g>
</svg>
    <svg xmlns="http://www.w3.org/2000/svg" xmlns:xlink="http://www.w3.org/1999/xlink" viewBox="0 0 180 123" version="1.1" id="icon-cart">
    <!-- Generator: Sketch 42 (36781) - http://www.bohemiancoding.com/sketch -->
    <title>Cart Icon</title>
    <desc>Created with Sketch.</desc>
    <defs/>
    <g id="--ss-3" stroke="none" stroke-width="1" fill="none" fill-rule="evenodd">
        <g id="--ss-4" fill="currentColor">
            <path d="M157.458177,69.2698936 L150.165205,74.8708913 L151.759735,69.2698936 L157.458177,69.2698936 Z M8.02220856,16.1813614 C3.8268176,16.1813614 0.42578125,12.6993885 0.42578125,8.40415726 C0.42578125,4.10892602 3.8268176,0.626953125 8.02220856,0.626953125 L54.7283671,0.626953125 C58.1345358,0.626953125 61.1243048,2.94820211 62.0431674,6.30614534 L79.2724751,69.2698936 L151.759735,69.2698936 L162.27223,32.3433638 L99.8989198,32.3433638 C95.7035288,32.3433638 92.3024924,28.8613909 92.3024924,24.5661596 C92.3024924,20.2709284 95.7035288,16.7889555 99.8989198,16.7889555 L172.398807,16.7889555 C177.462493,16.7889555 181.108692,21.7652689 179.691779,26.742366 L164.751149,79.2233041 C163.80628,82.5422832 160.834899,84.8243018 157.458177,84.8243018 L73.5117206,84.8243018 C70.1055519,84.8243018 67.1157829,82.5030529 66.1969203,79.1451096 L48.9676126,16.1813614 L8.02220856,16.1813614 Z" id="--ss-5" fill-rule="nonzero"/>
            <ellipse id="--ss-6" cx="83.3804076" cy="106.931768" rx="15.1928546" ry="15.5544083"/>
            <ellipse id="--ss-7" cx="144.292921" cy="106.931768" rx="15.1928546" ry="15.5544083"/>
        </g>
    </g>
</svg>
    <svg xmlns="http://www.w3.org/2000/svg" xmlns:xlink="http://www.w3.org/1999/xlink" viewBox="0 0 27 24" version="1.1" id="icon-heart-filled">
    <!-- Generator: Sketch 43.2 (39069) - http://www.bohemiancoding.com/sketch -->
    <title>Group 2</title>
    <desc>Created with Sketch.</desc>
    <defs/>
    <g id="--ss-8" stroke="none" stroke-width="1" fill="none" fill-rule="evenodd">
        <g id="--ss-9" transform="translate(1.000000, 1.000000)">
            <g id="--ss-10"/>
            <g id="--ss-11" stroke="currentColor">
                <g id="--ss-12" fill="currentColor">
                    <path d="M12.5,3.214602 C8.332586,-3.034277 0,0.623987 0,7.431361 C0,12.038395 4.160685,15.322084 7.291854,17.798309 C10.541898,20.370981 11.457025,20.922748 12.5,21.963481 C13.540732,20.922748 14.413242,20.314907 17.708146,17.796066 C20.884174,15.37143 25,11.984564 25,7.379773 C24.997757,0.623987 16.665171,-3.034277 12.5,3.214602 Z" id="--ss-13"/>
                </g>
                <path d="M12.5,3.214602 C8.332586,-3.034277 0,0.623987 0,7.431361 C0,12.038395 4.160685,15.322084 7.291854,17.798309 C10.541898,20.370981 11.457025,20.922748 12.5,21.963481 C13.540732,20.922748 14.413242,20.314907 17.708146,17.796066 C20.884174,15.37143 25,11.984564 25,7.379773 C24.997757,0.623987 16.665171,-3.034277 12.5,3.214602 Z" id="--ss-14"/>
            </g>
        </g>
    </g>
</svg>
    <svg xmlns="http://www.w3.org/2000/svg" xmlns:xlink="http://www.w3.org/1999/xlink" viewBox="0 0 27 24" version="1.1" id="icon-heart">
    <!-- Generator: Sketch 42 (36781) - http://www.bohemiancoding.com/sketch -->
    <title>Heart</title>
    <desc>Created with Sketch.</desc>
    <defs/>
    <g id="--ss-15" stroke="none" stroke-width="1" fill="none" fill-rule="evenodd">
        <g id="--ss-16" transform="translate(-416.000000, -1351.000000)" stroke="currentColor">
            <g id="--ss-17" transform="translate(10.000000, 1065.000000)">
                <path d="M419.5,290.214602 C415.332586,283.965723 407,287.623987 407,294.431361 C407,299.038395 411.160685,302.322084 414.291854,304.798309 C417.541898,307.370981 418.457025,307.922748 419.5,308.963481 C420.540732,307.922748 421.413242,307.314907 424.708146,304.796066 C427.884174,302.37143 432,298.984564 432,294.379773 C431.997757,287.623987 423.665171,283.965723 419.5,290.214602 Z" id="--ss-18"/>
            </g>
        </g>
    </g>
</svg>
  </defs>
</svg>

