<?xml version="1.0" encoding="UTF-8"?>
<svg xmlns="http://www.w3.org/2000/svg" xmlns:xlink="http://www.w3.org/1999/xlink" style="opacity: 0; height: 0; width: 0; display: block;">
  <defs>
    <svg xmlns="http://www.w3.org/2000/svg" xmlns:xlink="http://www.w3.org/1999/xlink" viewBox="0 0 206 35" version="1.1" id="archadon-logo">
    <!-- Generator: Sketch 42 (36781) - http://www.bohemiancoding.com/sketch -->
    <title>archadon copy</title>
    <desc>Created with Sketch.</desc>
    <defs>
        <linearGradient x1="100%" y1="50%" x2="0%" y2="50%" id="--ss-0">
            <stop stop-color="#6037FF" offset="0%"/>
            <stop stop-color="#E85059" offset="100%"/>
        </linearGradient>
    </defs>
    <g id="--ss-1" stroke="none" stroke-width="1" fill="none" fill-rule="evenodd">
        <g id="--ss-2" transform="translate(-12.000000, -46.000000)" fill-rule="nonzero" fill="currentColor">
            <path d="M36.675,74.7875 C36.5583324,75.4583365 36.3541683,76.1583297 36.0625,76.8875 C35.7708317,77.6166703 35.3625027,78.2874973 34.8375,78.9 C34.3124973,79.5125027 33.641671,80.0156229 32.825,80.409375 C32.008329,80.8031271 31.0020893,81 29.80625,81 C28.9312459,81 28.1656284,80.8906264 27.509375,80.671875 C26.8531216,80.4531236 26.2916689,80.1687521 25.825,79.81875 C25.3583311,79.4687479 24.9791683,79.0750021 24.6875,78.6375 C24.3958317,78.1999979 24.1770838,77.7625021 24.03125,77.325 C23.4479135,78.4916724 22.6239636,79.3958304 21.559375,80.0375 C20.4947864,80.6791696 19.2479237,81 17.81875,81 C16.097908,81 14.6979224,80.5333379 13.61875,79.6 C12.5395776,78.6666621 12,77.339592 12,75.61875 C12,74.4812445 12.2552061,73.460421 12.765625,72.55625 C13.2760439,71.652079 13.9687459,70.8864615 14.84375,70.259375 C15.7187541,69.6322885 16.7249945,69.1291683 17.8625,68.75 C19.0000055,68.3708317 20.195827,68.1375007 21.45,68.05 L23.85625,67.875 L23.85625,67.04375 C23.85625,65.8187438 23.834375,64.6520886 23.790625,63.54375 C23.746875,62.4354114 23.6375007,61.472921 23.4625,60.65625 C23.2874993,59.839579 23.0104183,59.1906277 22.63125,58.709375 C22.2520817,58.2281223 21.7270865,57.9875 21.05625,57.9875 C20.8520824,57.9875 20.6187514,58.0166662 20.35625,58.075 C20.2395824,58.1041669 20.1375007,58.1333331 20.05,58.1625 L17.73125,65.6875 C17.6437493,65.7166669 17.5416676,65.73125 17.425,65.73125 C17.3083324,65.73125 17.1916676,65.7385419 17.075,65.753125 C16.9583324,65.7677081 16.8270838,65.775 16.68125,65.775 C16.3312479,65.775 15.9666683,65.7385419 15.5875,65.665625 C15.2083317,65.5927081 14.8583352,65.4541676 14.5375,65.25 C14.2166648,65.0458324 13.9468764,64.7541683 13.728125,64.375 C13.5093736,63.9958317 13.4,63.5145865 13.4,62.93125 C13.4,62.0562459 13.6624973,61.2250041 14.1875,60.4375 C14.7125027,59.6499959 15.4343702,58.9645865 16.353125,58.38125 C17.2718798,57.7979135 18.380202,57.3385433 19.678125,57.003125 C20.976048,56.6677067 22.3833256,56.5 23.9,56.5 C26.9333488,56.5 29.288533,57.2802006 30.965625,58.840625 C32.642717,60.4010494 33.48125,63.0041484 33.48125,66.65 L33.48125,76.05625 C33.48125,76.3187514 33.503125,76.5885405 33.546875,76.865625 C33.590625,77.1427095 33.7145824,77.28125 33.91875,77.28125 C34.0645838,77.28125 34.2177074,77.1937507 34.378125,77.01875 C34.5385426,76.8437493 34.6843743,76.6177095 34.815625,76.340625 C34.9468757,76.0635405 35.0562493,75.7645852 35.14375,75.44375 C35.2312507,75.1229148 35.2895831,74.8166683 35.31875,74.525 L36.675,74.7875 Z M22.63125,77.325 C22.9229183,77.325 23.1999986,76.9895865 23.4625,76.31875 C23.7250014,75.6479135 23.85625,74.6270899 23.85625,73.25625 L23.85625,68.88125 L23.76875,68.925 C23.2145804,69.1291676 22.7406271,69.6031216 22.346875,70.346875 C21.9531229,71.0906284 21.75625,72.2937418 21.75625,73.95625 C21.75625,74.772921 21.8218743,75.5385378 21.953125,76.253125 C22.0843757,76.9677122 22.3104148,77.325 22.63125,77.325 Z M54.13125,56.5 C55.6187575,56.5 56.8218702,56.9229121 57.740625,57.76875 C58.6593798,58.6145879 59.11875,59.7520763 59.11875,61.18125 C59.11875,62.5812568 58.6958379,63.7041621 57.85,64.55 C57.0041621,65.3958379 55.8812568,65.81875 54.48125,65.81875 C54.3062493,65.81875 54.1312507,65.8114581 53.95625,65.796875 C53.7812493,65.7822919 53.6208338,65.7604169 53.475,65.73125 C53.3291662,65.73125 53.1833338,65.7166669 53.0375,65.6875 L52.6,58.81875 C52.5708331,58.81875 52.5416669,58.8041669 52.5125,58.775 L52.25,58.775 C51.8416648,58.775 51.4625021,59.0229142 51.1125,59.51875 C50.7624979,60.0145858 50.4562514,60.692704 50.19375,61.553125 C49.9312486,62.413546 49.7270838,63.4197857 49.58125,64.571875 C49.4354162,65.7239643 49.3625,66.970827 49.3625,68.3125 L49.3625,79.6875 L53.0375,79.6875 L53.0375,80.5625 L37.025,80.5625 L37.025,79.6875 L39.7375,79.6875 L39.7375,57.8125 L37.025,57.8125 L37.025,56.9375 C39.0666771,56.9375 40.9770742,56.9010419 42.75625,56.828125 C44.5354258,56.7552081 46.095827,56.6458338 47.4375,56.5 L48.05,56.7625 L48.26875,64.725 C48.4437507,63.1499918 48.7062479,61.8375055 49.05625,60.7875 C49.4062521,59.7374945 49.8291642,58.8989615 50.325,58.271875 C50.8208358,57.6447885 51.3895804,57.1927095 52.03125,56.915625 C52.6729196,56.6385405 53.3729128,56.5 54.13125,56.5 Z M59.46875,69.275 C59.46875,67.4374911 59.7385392,65.7385494 60.278125,64.178125 C60.8177108,62.6177006 61.6270776,61.2687555 62.70625,60.13125 C63.7854224,58.9937445 65.1416587,58.1041696 66.775,57.4625 C68.4083413,56.8208304 70.3187391,56.5 72.50625,56.5 C75.2770975,56.5 77.3916594,56.9958283 78.85,57.9875 C80.3083406,58.9791717 81.0375,60.3208249 81.0375,62.0125 C81.0375,63.2375062 80.6802122,64.2364547 79.965625,65.009375 C79.2510378,65.7822953 78.3104224,66.16875 77.14375,66.16875 C76.8812486,66.16875 76.6041683,66.1395838 76.3125,66.08125 C76.1958324,66.08125 76.0791676,66.0666669 75.9625,66.0375 L73.81875,57.94375 C73.7312493,57.9145831 73.6583338,57.9 73.6,57.9 C73.3958324,57.8708331 73.2208338,57.85625 73.075,57.85625 C72.3166628,57.85625 71.7041689,58.1843716 71.2375,58.840625 C70.7708311,59.4968784 70.4062514,60.2989533 70.14375,61.246875 C69.8812486,62.1947967 69.6989588,63.2083276 69.596875,64.2875 C69.4947912,65.3666724 69.44375,66.3291621 69.44375,67.175 C69.44375,69.9166806 69.852079,72.0312425 70.66875,73.51875 C71.485421,75.0062575 72.754158,75.75 74.475,75.75 C75.5833386,75.75 76.6187452,75.4364615 77.58125,74.809375 C78.5437548,74.1822885 79.2729142,73.2125068 79.76875,71.9 L81.0375,72.425 C80.7166648,73.4750055 80.2354196,74.5177033 79.59375,75.553125 C78.9520804,76.5885467 78.1572967,77.5072878 77.209375,78.309375 C76.2614533,79.1114622 75.1677143,79.7604142 73.928125,80.25625 C72.6885357,80.7520858 71.3104244,81 69.79375,81 C68.2770756,81 66.8843812,80.7302108 65.615625,80.190625 C64.3468688,79.6510392 63.260421,78.8781298 62.35625,77.871875 C61.452079,76.8656202 60.7447939,75.6406325 60.234375,74.196875 C59.7239561,72.7531175 59.46875,71.1125089 59.46875,69.275 Z M110,79.6875 L110,80.5625 L97.96875,80.5625 L97.96875,64.15625 C97.96875,63.0770776 97.8812507,62.2166696 97.70625,61.575 C97.5312493,60.9333304 97.2395852,60.6125 96.83125,60.6125 C96.5395817,60.6125 96.2697926,60.7729148 96.021875,61.09375 C95.7739574,61.4145852 95.5625007,61.8520804 95.3875,62.40625 C95.2124993,62.9604196 95.0812507,63.5874966 94.99375,64.2875 C94.9062493,64.9875034 94.8625,65.7166628 94.8625,66.475 L94.8625,79.6875 L96.7,79.6875 L96.7,80.5625 L82.525,80.5625 L82.525,79.6875 L85.2375,79.6875 L85.2375,50.8125 L82.525,50.8125 L82.525,49.9375 C84.6250103,49.7624993 86.6374904,49.3833365 88.5625,48.8 C90.4875096,48.2166635 92.310408,47.2833399 94.03125,46 L94.8625,46.30625 L94.8625,55.3625 C94.8625,56.2958379 94.8479169,57.2510371 94.81875,58.228125 C94.7895831,59.2052129 94.6583345,60.1895783 94.425,61.18125 C95.3000041,59.3729073 96.3208276,58.1406284 97.4875,57.484375 C98.6541724,56.8281216 99.8937432,56.5 101.20625,56.5 C103.568762,56.5 105.223953,57.3749911 106.171875,59.125 C107.119797,60.8750089 107.59375,63.3833167 107.59375,66.65 L107.59375,79.6875 L110,79.6875 Z M135.8125,74.7875 C135.695832,75.4583365 135.491668,76.1583297 135.2,76.8875 C134.908332,77.6166703 134.500003,78.2874973 133.975,78.9 C133.449997,79.5125027 132.779171,80.0156229 131.9625,80.409375 C131.145829,80.8031271 130.139589,81 128.94375,81 C128.068746,81 127.303128,80.8906264 126.646875,80.671875 C125.990622,80.4531236 125.429169,80.1687521 124.9625,79.81875 C124.495831,79.4687479 124.116668,79.0750021 123.825,78.6375 C123.533332,78.1999979 123.314584,77.7625021 123.16875,77.325 C122.585413,78.4916724 121.761464,79.3958304 120.696875,80.0375 C119.632286,80.6791696 118.385424,81 116.95625,81 C115.235408,81 113.835422,80.5333379 112.75625,79.6 C111.677078,78.6666621 111.1375,77.339592 111.1375,75.61875 C111.1375,74.4812445 111.392706,73.460421 111.903125,72.55625 C112.413544,71.652079 113.106246,70.8864615 113.98125,70.259375 C114.856254,69.6322885 115.862495,69.1291683 117,68.75 C118.137505,68.3708317 119.333327,68.1375007 120.5875,68.05 L122.99375,67.875 L122.99375,67.04375 C122.99375,65.8187438 122.971875,64.6520886 122.928125,63.54375 C122.884375,62.4354114 122.775001,61.472921 122.6,60.65625 C122.424999,59.839579 122.147918,59.1906277 121.76875,58.709375 C121.389582,58.2281223 120.864587,57.9875 120.19375,57.9875 C119.989582,57.9875 119.756251,58.0166662 119.49375,58.075 C119.377082,58.1041669 119.275001,58.1333331 119.1875,58.1625 L116.86875,65.6875 C116.781249,65.7166669 116.679168,65.73125 116.5625,65.73125 C116.445832,65.73125 116.329168,65.7385419 116.2125,65.753125 C116.095832,65.7677081 115.964584,65.775 115.81875,65.775 C115.468748,65.775 115.104168,65.7385419 114.725,65.665625 C114.345832,65.5927081 113.995835,65.4541676 113.675,65.25 C113.354165,65.0458324 113.084376,64.7541683 112.865625,64.375 C112.646874,63.9958317 112.5375,63.5145865 112.5375,62.93125 C112.5375,62.0562459 112.799997,61.2250041 113.325,60.4375 C113.850003,59.6499959 114.57187,58.9645865 115.490625,58.38125 C116.40938,57.7979135 117.517702,57.3385433 118.815625,57.003125 C120.113548,56.6677067 121.520826,56.5 123.0375,56.5 C126.070849,56.5 128.426033,57.2802006 130.103125,58.840625 C131.780217,60.4010494 132.61875,63.0041484 132.61875,66.65 L132.61875,76.05625 C132.61875,76.3187514 132.640625,76.5885405 132.684375,76.865625 C132.728125,77.1427095 132.852082,77.28125 133.05625,77.28125 C133.202084,77.28125 133.355207,77.1937507 133.515625,77.01875 C133.676043,76.8437493 133.821874,76.6177095 133.953125,76.340625 C134.084376,76.0635405 134.193749,75.7645852 134.28125,75.44375 C134.368751,75.1229148 134.427083,74.8166683 134.45625,74.525 L135.8125,74.7875 Z M121.76875,77.325 C122.060418,77.325 122.337499,76.9895865 122.6,76.31875 C122.862501,75.6479135 122.99375,74.6270899 122.99375,73.25625 L122.99375,68.88125 L122.90625,68.925 C122.35208,69.1291676 121.878127,69.6031216 121.484375,70.346875 C121.090623,71.0906284 120.89375,72.2937418 120.89375,73.95625 C120.89375,74.772921 120.959374,75.5385378 121.090625,76.253125 C121.221876,76.9677122 121.447915,77.325 121.76875,77.325 Z M162.325,79.6875 L162.325,80.5625 L151.65,80.5625 L150.99375,75.225 C150.497914,76.8875082 149.695839,78.2656195 148.5875,79.359375 C147.479161,80.4531305 146.050009,81 144.3,81 C143.249995,81 142.26563,80.7666689 141.346875,80.3 C140.42812,79.8333311 139.626045,79.147921 138.940625,78.24375 C138.255205,77.339579 137.715627,76.2020899 137.321875,74.83125 C136.928123,73.4604101 136.73125,71.8854258 136.73125,70.10625 C136.73125,68.1520735 136.986456,66.3437582 137.496875,64.68125 C138.007294,63.0187418 138.758328,61.582298 139.75,60.371875 C140.741672,59.161452 141.981242,58.2135453 143.46875,57.528125 C144.956258,56.8427047 146.66249,56.5 148.5875,56.5 C148.820834,56.5 149.054166,56.5072919 149.2875,56.521875 C149.520834,56.5364581 149.754166,56.54375 149.9875,56.54375 L149.9875,50.8125 L147.275,50.8125 L147.275,49.9375 C149.37501,49.7624993 151.38749,49.3833365 153.3125,48.8 C155.23751,48.2166635 157.060408,47.2833399 158.78125,46 L159.6125,46.30625 L159.6125,79.6875 L162.325,79.6875 Z M148.2375,76.975 C148.704169,76.975 149.112498,76.5083379 149.4625,75.575 C149.812502,74.6416621 149.9875,73.314592 149.9875,71.59375 L149.9875,57.85625 C149.229163,57.9437507 148.616669,58.2645804 148.15,58.81875 C147.683331,59.3729196 147.326043,60.0947871 147.078125,60.984375 C146.830207,61.8739629 146.669792,62.9093688 146.596875,64.090625 C146.523958,65.2718812 146.4875,66.5187432 146.4875,67.83125 C146.4875,69.6104258 146.538541,71.0906188 146.640625,72.271875 C146.742709,73.4531312 146.873957,74.3937466 147.034375,75.09375 C147.194793,75.7937534 147.377082,76.2822905 147.58125,76.559375 C147.785418,76.8364595 148.004166,76.975 148.2375,76.975 Z M175.625,81 C171.804148,81 168.916676,80.0302184 166.9625,78.090625 C165.008324,76.1510316 164.03125,73.1687698 164.03125,69.14375 C164.03125,65.0603964 165.059365,61.9323028 167.115625,59.759375 C169.171885,57.5864472 172.270813,56.5 176.4125,56.5 C180.233352,56.5 183.120824,57.4697816 185.075,59.409375 C187.029176,61.3489684 188.00625,64.3312302 188.00625,68.35625 C188.00625,72.4396036 186.978135,75.5676972 184.921875,77.740625 C182.865615,79.9135528 179.766687,81 175.625,81 Z M176.19375,79.6875 C176.777087,79.6875 177.207291,78.9364656 177.484375,77.434375 C177.761459,75.9322844 177.9,73.3875178 177.9,69.8 C177.9,65.8916471 177.739585,62.9166771 177.41875,60.875 C177.097915,58.8333229 176.57292,57.8125 175.84375,57.8125 C175.260413,57.8125 174.830209,58.5635344 174.553125,60.065625 C174.276041,61.5677156 174.1375,64.1124822 174.1375,67.7 C174.1375,71.6083529 174.297915,74.5833229 174.61875,76.625 C174.939585,78.6666771 175.46458,79.6875 176.19375,79.6875 Z M217.1875,79.6875 L217.1875,80.5625 L205.15625,80.5625 L205.15625,64.15625 C205.15625,63.0770776 205.068751,62.2166696 204.89375,61.575 C204.718749,60.9333304 204.427085,60.6125 204.01875,60.6125 C203.727082,60.6125 203.457293,60.7729148 203.209375,61.09375 C202.961457,61.4145852 202.750001,61.8520804 202.575,62.40625 C202.399999,62.9604196 202.268751,63.5874966 202.18125,64.2875 C202.093749,64.9875034 202.05,65.7166628 202.05,66.475 L202.05,79.6875 L203.1,79.6875 L203.1,80.5625 L189.7125,80.5625 L189.7125,79.6875 L192.425,79.6875 L192.425,57.8125 L189.7125,57.8125 L189.7125,56.9375 C191.81251,56.9375 193.766657,56.9010419 195.575,56.828125 C197.383343,56.7552081 198.987493,56.6458338 200.3875,56.5 L201,56.7625 L201.21875,62.58125 C201.539585,61.3854107 201.940622,60.4010453 202.421875,59.628125 C202.903128,58.8552047 203.449997,58.2354189 204.0625,57.76875 C204.675003,57.3020811 205.338538,56.9739595 206.053125,56.784375 C206.767712,56.5947905 207.504163,56.5 208.2625,56.5 C210.683345,56.5 212.374995,57.360408 213.3375,59.08125 C214.300005,60.802092 214.78125,63.3249836 214.78125,66.65 L214.78125,79.6875 L217.1875,79.6875 Z" id="--ss-3"/>
        </g>
    </g>
</svg>
    <svg xmlns="http://www.w3.org/2000/svg" xmlns:xlink="http://www.w3.org/1999/xlink" viewBox="0 0 180 123" version="1.1" id="icon-cart">
    <!-- Generator: Sketch 42 (36781) - http://www.bohemiancoding.com/sketch -->
    <title>Cart Icon</title>
    <desc>Created with Sketch.</desc>
    <defs/>
    <g id="--ss-4" stroke="none" stroke-width="1" fill="none" fill-rule="evenodd">
        <g id="--ss-5" fill="currentColor">
            <path d="M157.458177,69.2698936 L150.165205,74.8708913 L151.759735,69.2698936 L157.458177,69.2698936 Z M8.02220856,16.1813614 C3.8268176,16.1813614 0.42578125,12.6993885 0.42578125,8.40415726 C0.42578125,4.10892602 3.8268176,0.626953125 8.02220856,0.626953125 L54.7283671,0.626953125 C58.1345358,0.626953125 61.1243048,2.94820211 62.0431674,6.30614534 L79.2724751,69.2698936 L151.759735,69.2698936 L162.27223,32.3433638 L99.8989198,32.3433638 C95.7035288,32.3433638 92.3024924,28.8613909 92.3024924,24.5661596 C92.3024924,20.2709284 95.7035288,16.7889555 99.8989198,16.7889555 L172.398807,16.7889555 C177.462493,16.7889555 181.108692,21.7652689 179.691779,26.742366 L164.751149,79.2233041 C163.80628,82.5422832 160.834899,84.8243018 157.458177,84.8243018 L73.5117206,84.8243018 C70.1055519,84.8243018 67.1157829,82.5030529 66.1969203,79.1451096 L48.9676126,16.1813614 L8.02220856,16.1813614 Z" id="--ss-6" fill-rule="nonzero"/>
            <ellipse id="--ss-7" cx="83.3804076" cy="106.931768" rx="15.1928546" ry="15.5544083"/>
            <ellipse id="--ss-8" cx="144.292921" cy="106.931768" rx="15.1928546" ry="15.5544083"/>
        </g>
    </g>
</svg>
    <svg xmlns="http://www.w3.org/2000/svg" xmlns:xlink="http://www.w3.org/1999/xlink" viewBox="0 0 27 24" version="1.1" id="icon-heart">
    <!-- Generator: Sketch 42 (36781) - http://www.bohemiancoding.com/sketch -->
    <title>Heart</title>
    <desc>Created with Sketch.</desc>
    <defs/>
    <g id="--ss-9" stroke="none" stroke-width="1" fill="none" fill-rule="evenodd">
        <g id="--ss-10" transform="translate(-416.000000, -1351.000000)" stroke="currentColor">
            <g id="--ss-11" transform="translate(10.000000, 1065.000000)">
                <path d="M419.5,290.214602 C415.332586,283.965723 407,287.623987 407,294.431361 C407,299.038395 411.160685,302.322084 414.291854,304.798309 C417.541898,307.370981 418.457025,307.922748 419.5,308.963481 C420.540732,307.922748 421.413242,307.314907 424.708146,304.796066 C427.884174,302.37143 432,298.984564 432,294.379773 C431.997757,287.623987 423.665171,283.965723 419.5,290.214602 Z" id="--ss-12"/>
            </g>
        </g>
    </g>
</svg>
  </defs>
</svg>

