<?xml version="1.0" standalone="no"?>
<!DOCTYPE svg PUBLIC "-//W3C//DTD SVG 1.1//EN" "http://www.w3.org/Graphics/SVG/1.1/DTD/svg11.dtd" >
<svg xmlns="http://www.w3.org/2000/svg" xmlns:xlink="http://www.w3.org/1999/xlink" version="1.1">
<metadata>
Created by FontForge 20161003 at Wed Jun 28 18:16:51 2017
 By www-data
Copyright (c) 2016 by Ufuk Aracoglu. All rights reserved.
</metadata>
<defs>
<font id="acherus_grotesque_medium" horiz-adv-x="718" >
  <font-face 
    font-family="acherus_grotesque_medium"
    font-weight="500"
    font-stretch="normal"
    units-per-em="1000"
    panose-1="2 0 5 5 0 0 0 2 0 4"
    ascent="800"
    descent="-200"
    x-height="509"
    cap-height="700"
    bbox="-42.9091 -390.273 1223 1194.62"
    underline-thickness="50"
    underline-position="-150"
    unicode-range="U+000D-FB03"
  />
<missing-glyph horiz-adv-x="253" 
 />
    <glyph glyph-name="f_f" unicode="ff" horiz-adv-x="746" 
d="M202 506h244v32q0 223 186 223q50 0 88 -21q12 -7 9 -22l-8 -38q-2 -11 -6.5 -12.5t-15.5 3.5q-24 10 -59 10q-56 0 -81 -34t-25 -114v-27h171q10 0 14 -3.5t4 -13.5v-37q0 -10 -4 -13.5t-14 -3.5h-171v-418q0 -10 -4 -13.5t-14 -3.5h-52q-10 0 -14 3.5t-4 13.5v418h-244
v-418q0 -10 -3.5 -13.5t-13.5 -3.5h-53q-10 0 -13.5 3.5t-3.5 13.5v418h-70q-10 0 -14 3.5t-4 13.5v37q0 10 4 13.5t14 3.5h70v32q0 223 185 223q51 0 89 -21q12 -7 8 -22l-7 -38q-2 -12 -6.5 -13.5t-15.5 4.5q-25 10 -59 10q-56 0 -81.5 -34t-25.5 -114v-27z" />
    <glyph glyph-name="f_i" unicode="fi" horiz-adv-x="672" 
d="M472 436h-270v-419q0 -10 -3.5 -13.5t-13.5 -3.5h-53q-10 0 -13.5 3.5t-3.5 13.5v419h-70q-18 0 -18 18v37q0 11 3.5 14.5t14.5 3.5h70v29q0 223 185 223q51 0 89 -21q12 -7 8 -22l-7 -38q-3 -12 -7 -13.5t-15 4.5q-25 10 -59 10q-56 0 -81.5 -34t-25.5 -114v-24h340
q18 0 18 -18v-474q0 -10 -4 -13.5t-14 -3.5h-53q-10 0 -13.5 3.5t-3.5 13.5v419zM457 673q0 24 17 41.5t41 17.5t41 -17.5t17 -41.5t-17 -41t-41 -17q-25 0 -41.5 17t-16.5 41z" />
    <glyph glyph-name="f_f_i" unicode="ffi" horiz-adv-x="1003" 
d="M803 436h-269v-419q0 -10 -4 -13.5t-14 -3.5h-52q-10 0 -14 3.5t-4 13.5v419h-244v-419q0 -10 -3.5 -13.5t-13.5 -3.5h-53q-10 0 -13.5 3.5t-3.5 13.5v419h-70q-18 0 -18 18v37q0 11 3.5 14.5t14.5 3.5h70v29q0 223 185 223q51 0 89 -21q12 -7 8 -22l-7 -38
q-3 -12 -7 -13.5t-15 4.5q-25 10 -59 10q-56 0 -81.5 -34t-25.5 -114v-24h244v29q0 223 186 223q50 0 88 -21q12 -7 9 -22l-8 -38q-2 -12 -6.5 -13.5t-15.5 4.5q-24 10 -58 10q-56 0 -81.5 -34t-25.5 -114v-24h340q10 0 13.5 -4t3.5 -14v-474q0 -10 -3.5 -13.5t-13.5 -3.5
h-53q-10 0 -14 3.5t-4 13.5v419zM788 673q0 24 17 41.5t41 17.5t41.5 -17.5t17.5 -41.5t-17.5 -41t-41.5 -17t-41 17t-17 41z" />
    <glyph glyph-name="f_j" unicode="fj" horiz-adv-x="691" 
d="M202 508l366 1q10 0 13.5 -4t3.5 -14v-504q0 -223 -186 -223q-58 0 -99 26q-11 8 -8 22l8 38q2 12 6 13.5t15 -3.5q29 -17 70 -17q56 0 81.5 34.5t25.5 114.5v424v20h-296v-419q0 -10 -3.5 -13.5t-13.5 -3.5h-53q-10 0 -13.5 3.5t-3.5 13.5v419h-70q-18 0 -18 18v36
q0 10 3.5 14t14.5 4h70v30q0 223 185 223q51 0 89 -21q12 -7 8 -22l-7 -38q-3 -12 -7 -13.5t-15 4.5q-25 10 -59 10q-56 0 -81.5 -34t-25.5 -114v-25zM482 673q0 24 17 41.5t41 17.5t41 -17.5t17 -41.5t-17 -41t-41 -17q-25 0 -41.5 17t-16.5 41z" />
    <glyph glyph-name="f_f_j" unicode="ffj" horiz-adv-x="1022" 
d="M534 508l365 1q18 0 18 -18v-504q0 -223 -186 -223q-59 0 -99 26q-7 4 -8.5 8t0.5 14l7 38q3 12 7 13.5t15 -3.5q28 -17 69 -17q56 0 81.5 34.5t25.5 114.5v444h-295v-419q0 -10 -4 -13.5t-14 -3.5h-52q-10 0 -14 3.5t-4 13.5v419h-244v-419q0 -10 -3.5 -13.5t-13.5 -3.5
h-53q-10 0 -13.5 3.5t-3.5 13.5v419h-70q-18 0 -18 18v36q0 10 3.5 14t14.5 4h70v30q0 223 185 223q51 0 89 -21q12 -7 8 -22l-7 -38q-3 -12 -7 -13.5t-15 4.5q-25 10 -59 10q-56 0 -81.5 -34t-25.5 -114v-25h244v30q0 223 186 223q50 0 88 -21q12 -7 9 -22l-8 -38
q-2 -12 -6.5 -13.5t-15.5 4.5q-24 10 -58 10q-56 0 -81.5 -34t-25.5 -114v-25zM813 673q0 24 17 41.5t41 17.5t41 -17.5t17 -41.5t-17 -41t-41 -17q-25 0 -41.5 17t-16.5 41z" />
    <glyph glyph-name=".notdef" horiz-adv-x="253" 
 />
    <glyph glyph-name=".null" horiz-adv-x="0" 
 />
    <glyph glyph-name="nonmarkingreturn" horiz-adv-x="333" 
 />
    <glyph glyph-name="NULL" horiz-adv-x="0" 
 />
    <glyph glyph-name="NULL" horiz-adv-x="0" 
 />
    <glyph glyph-name="CR" unicode="&#xd;" horiz-adv-x="253" 
 />
    <glyph glyph-name="space" unicode=" " horiz-adv-x="253" 
 />
    <glyph glyph-name="exclam" unicode="!" horiz-adv-x="340" 
d="M128 256l-11 426q0 10 3.5 14t13.5 4h72q10 0 13.5 -4t3.5 -14l-11 -426q0 -10 -3.5 -13.5t-13.5 -3.5h-50q-10 0 -13.5 3.5t-3.5 13.5zM106 52q0 27 18.5 45.5t44.5 18.5q27 0 46 -18.5t19 -45.5q0 -26 -19 -44.5t-46 -18.5q-26 0 -44.5 18.5t-18.5 44.5z" />
    <glyph glyph-name="quotedbl" unicode="&#x22;" horiz-adv-x="378" 
d="M62 460v222q0 10 3.5 14t13.5 4h48q22 0 17 -21l-27 -224q-3 -12 -16 -12h-22q-10 0 -13.5 3.5t-3.5 13.5zM240 460v222q0 10 3.5 14t13.5 4h48q22 0 17 -21l-27 -224q-3 -12 -16 -12h-22q-10 0 -13.5 3.5t-3.5 13.5z" />
    <glyph glyph-name="numbersign" unicode="#" horiz-adv-x="834" 
d="M118 517h176l42 168q5 15 23 15h31q22 0 15 -18l-42 -165h195l43 168q5 15 23 15h31q22 0 15 -18l-42 -165h158q10 0 14 -3.5t4 -13.5v-33q0 -10 -4 -13.5t-14 -3.5h-175l-50 -197h164q10 0 13.5 -4t3.5 -14v-32q0 -10 -3.5 -14t-13.5 -4h-182l-43 -170q-6 -15 -23 -15
h-32q-20 0 -14 17l42 168h-195l-43 -170q-6 -15 -23 -15h-32q-20 0 -14 17l42 168h-151q-11 0 -14.5 3.5t-3.5 14.5v32q0 11 3.5 14.5t14.5 3.5h169l50 197h-158q-10 0 -14 3.5t-4 13.5v33q0 10 4 13.5t14 3.5zM347 450l-52 -197h196l50 197h-194z" />
    <glyph glyph-name="dollar" unicode="$" horiz-adv-x="615" 
d="M276 -74v64q-131 10 -228 75q-14 8 -5 25l23 38q5 9 10 11t15 -4q86 -58 185 -63v243q-46 7 -81.5 17t-71.5 30t-56 54.5t-20 81.5q0 77 60 141.5t169 70.5v58q0 10 4 13.5t14 3.5h18q10 0 14 -3.5t4 -13.5v-58q101 -5 217 -75q13 -8 5 -25l-23 -37q-9 -18 -24 -8
q-91 59 -175 63v-237q49 -6 86 -16.5t74.5 -31t58 -57.5t20.5 -89q0 -84 -62.5 -144t-176.5 -64v-63q0 -10 -4 -14t-14 -4h-18q-10 0 -14 4t-4 14zM479 193q0 49 -37 74.5t-112 39.5v-235q62 4 105.5 32t43.5 89zM137 501q0 -79 139 -102v227q-39 -3 -67.5 -16t-43.5 -32.5
t-21.5 -38.5t-6.5 -38z" />
    <glyph glyph-name="percent" unicode="%" horiz-adv-x="863" 
d="M205 355q-76 0 -122 46.5t-46 132.5t46 132.5t122 46.5t122 -46.5t46 -132.5t-46 -132.5t-122 -46.5zM205 410q48 0 75 33.5t27 90.5t-27 90t-75 33t-75 -33t-27 -90t27 -90.5t75 -33.5zM705 682l-471 -669q-9 -13 -23 -13h-41q-25 0 -12 17l471 669q10 14 23 14h42
q23 0 11 -18zM657 -2q-76 0 -122 46.5t-46 132.5t46 132.5t122 46.5t122.5 -46.5t46.5 -132.5t-46.5 -132.5t-122.5 -46.5zM657 53q48 0 75.5 33.5t27.5 90.5t-27.5 90t-75.5 33t-75 -33t-27 -90t27 -90.5t75 -33.5z" />
    <glyph glyph-name="ampersand" unicode="&#x26;" horiz-adv-x="760" 
d="M437 183l-134 135q-163 -49 -163 -129q0 -58 36.5 -90.5t99.5 -32.5q12 0 23.5 2t23 7.5t20 10t19.5 14.5l16.5 15t17 18t14.5 16.5t14.5 17.5t12.5 16zM316 407l4 -3q47 16 87.5 54t40.5 81q0 42 -32.5 70t-83.5 28q-50 0 -77.5 -27.5t-27.5 -70.5q0 -52 89 -132z
M705 308q-116 -80 -156 -123l172 -167q18 -18 -6 -18h-82q-14 0 -32 18l-112 109q-31 -35 -47.5 -52.5t-46.5 -42t-61.5 -35t-68.5 -10.5q-104 0 -162.5 55.5t-58.5 144.5q0 41 17.5 73.5t49.5 54t61.5 34.5t69.5 25v1q-104 97 -105 177q0 61 50 111t145 50t150 -50.5
t55 -110.5q0 -39 -16.5 -74t-44 -59.5t-51.5 -39.5t-49 -27l117 -112q44 48 162 130q14 10 24 -2l31 -36q12 -14 -5 -24z" />
    <glyph glyph-name="quotesingle" unicode="'" horiz-adv-x="196" 
d="M56 460v222q0 10 3.5 14t13.5 4h48q22 0 17 -21l-27 -224q-3 -12 -16 -12h-22q-10 0 -13.5 3.5t-3.5 13.5z" />
    <glyph glyph-name="parenleft" unicode="(" horiz-adv-x="392" 
d="M35 288q0 143 68.5 250t188.5 170q17 9 26 -8l23 -41q11 -20 -11 -29q-94 -45 -150 -136t-56 -206q0 -116 56 -207t150 -135q22 -11 11 -30l-23 -41q-10 -16 -26 -7q-119 62 -188 169.5t-69 250.5z" />
    <glyph glyph-name="parenright" unicode=")" horiz-adv-x="392" 
d="M377 288q0 -143 -68.5 -250.5t-187.5 -169.5q-16 -9 -26 7l-24 41q-11 18 11 30q94 44 150 135t56 207q0 115 -56 206t-150 136q-22 10 -11 29l24 41q9 17 26 8q119 -63 187.5 -170t68.5 -250z" />
    <glyph glyph-name="asterisk" unicode="*" horiz-adv-x="437" 
d="M50 461l112 52l-110 50q-16 7 -8 24l13 25q9 16 24 7l112 -63l-5 128q-1 18 17 18h28q18 0 17 -18l-6 -127l112 65q14 9 23 -8l13 -25q10 -17 -7 -23l-108 -52l111 -50q17 -6 8 -24l-13 -25q-9 -16 -24 -8l-115 64l6 -133q1 -17 -17 -17h-27q-11 0 -15 3.5t-3 13.5l5 133
l-114 -67q-16 -9 -24 8l-12 24q-8 17 7 25z" />
    <glyph glyph-name="plus" unicode="+" horiz-adv-x="496" 
d="M284 486v-143h144q10 0 14 -3.5t4 -14.5v-38q0 -10 -4 -13.5t-14 -3.5h-144v-145q0 -10 -3.5 -14t-13.5 -4h-38q-11 0 -14.5 3.5t-3.5 14.5v145h-144q-10 0 -13.5 3.5t-3.5 13.5v38q0 10 3.5 14t13.5 4h144v143q0 10 4 13.5t14 3.5h38q10 0 13.5 -3.5t3.5 -13.5z" />
    <glyph glyph-name="comma" unicode="," horiz-adv-x="273" 
d="M140 -7h-7q-26 1 -44.5 19.5t-18.5 44.5q0 27 18.5 46t45.5 19q30 0 49 -22.5t19 -61.5q0 -136 -122 -200q-8 -5 -12 1l-16 25q-4 7 3 12q73 48 85 117z" />
    <glyph glyph-name="hyphen" unicode="-" horiz-adv-x="429" 
d="M352 249h-276q-10 0 -13.5 3.5t-3.5 13.5v35q0 10 3.5 14t13.5 4h276q10 0 14 -3.5t4 -13.5v-36q0 -10 -4 -13.5t-14 -3.5z" />
    <glyph glyph-name="period" unicode="." horiz-adv-x="270" 
d="M70 53q0 27 18.5 46t45.5 19t46 -19t19 -46t-19 -45.5t-46 -18.5t-45.5 18.5t-18.5 45.5z" />
    <glyph glyph-name="slash" unicode="/" horiz-adv-x="389" 
d="M355 682l-230 -667q-6 -15 -22 -15h-50q-20 0 -14 17l230 668q5 15 22 15h48q22 0 16 -18z" />
    <glyph glyph-name="zero" unicode="0" horiz-adv-x="655" 
d="M142 350q0 -55 9.5 -103t30 -89t58 -65t87.5 -24q51 0 88 24t57.5 65t30 89t9.5 103t-9.5 102.5t-30 89t-57.5 65.5t-88 24q-50 0 -87.5 -24t-58 -65.5t-30 -89t-9.5 -102.5zM48 350q0 159 71 261t208 102t208 -102t71 -261t-71 -261t-208 -102t-208 102t-71 261z" />
    <glyph glyph-name="one" unicode="1" horiz-adv-x="372" 
d="M41 604l136 80q27 16 36 16h37q10 0 13.5 -4t3.5 -14v-665q0 -10 -3.5 -13.5t-13.5 -3.5h-58q-10 0 -14 3.5t-4 13.5v567l-125 -45q-17 -1 -17 15v32q0 12 9 18z" />
    <glyph glyph-name="two" unicode="2" horiz-adv-x="560" 
d="M458 399l-269 -319h313q10 0 13.5 -3.5t3.5 -13.5v-46q0 -10 -3.5 -13.5t-13.5 -3.5h-453q-9 0 -9 8v11q0 8 9 18l337 403q25 30 31 64t-6.5 62t-46.5 46.5t-82 18.5q-104 0 -180 -80q-11 -13 -25 1l-32 35q-12 13 -1 24q104 102 238 102q61 0 109.5 -19.5t76 -52
t38.5 -73t-1.5 -85t-46.5 -84.5z" />
    <glyph glyph-name="three" unicode="3" horiz-adv-x="584" 
d="M296 317h-104q-10 0 -14 3.5t-4 14.5v41q0 10 4 14t14 4h102q70 0 102 32.5t32 70.5q0 63 -41.5 98.5t-111.5 35.5q-89 0 -162 -79q-11 -13 -25 1l-31 34q-11 13 -1 24q52 51 101.5 76.5t117.5 25.5q45 0 87 -12t78 -36.5t58 -65.5t22 -94t-32 -93.5t-73 -55.5v-1
q49 -16 87 -55t38 -104q0 -104 -72.5 -156.5t-192.5 -52.5q-130 0 -232 102q-11 10 1 24l31 33q12 14 25 1q76 -78 175 -78q173 0 173 135q0 48 -42 80.5t-110 32.5z" />
    <glyph glyph-name="four" unicode="4" horiz-adv-x="647" 
d="M397 700h72q10 0 13.5 -4t3.5 -14v-448h105q10 0 13.5 -3.5t3.5 -13.5v-39q0 -10 -3.5 -13.5t-13.5 -3.5h-105v-144q0 -10 -3.5 -13.5t-13.5 -3.5h-53q-10 0 -14 3.5t-4 13.5v144h-337q-10 0 -13.5 3.5t-3.5 13.5v42q0 16 11 31l326 441q8 8 16 8zM398 585l-260 -351h260
v351z" />
    <glyph glyph-name="five" unicode="5" horiz-adv-x="579" 
d="M132 700h339q10 0 13.5 -4t3.5 -14v-45q0 -10 -3.5 -14t-13.5 -4h-283l-27 -196h120q253 0 253 -207q0 -115 -72.5 -172t-190.5 -57q-130 0 -233 103q-10 10 1 22l32 34q12 13 23 2q38 -37 78.5 -58t98.5 -21q85 0 128 33.5t43 110.5q0 128 -167 128h-187q-20 0 -17 18
l43 323q2 11 5 14.5t13 3.5z" />
    <glyph glyph-name="six" unicode="6" horiz-adv-x="613" 
d="M343 457q95 0 159.5 -57.5t64.5 -161.5q0 -106 -67 -178.5t-178 -72.5q-65 0 -114.5 18.5t-78.5 48.5t-47 74t-24.5 88t-6.5 97q0 400 278 400q66 0 117 -20t100 -65q11 -11 -1 -25l-32 -35q-14 -14 -27 -1q-39 37 -75.5 50.5t-88.5 13.5q-91 0 -135 -79t-44 -210
q24 51 74 83t126 32zM318 66q74 0 115.5 48t41.5 118q0 67 -45.5 108.5t-111.5 41.5t-117 -47.5t-51 -109.5q0 -23 7.5 -47.5t25 -51t52.5 -43.5t83 -17z" />
    <glyph glyph-name="seven" unicode="7" horiz-adv-x="563" 
d="M549 686v-4q0 -8 -9 -25l-377 -641q-9 -16 -26 -16h-65q-22 0 -15 17l352 597h-361q-10 1 -13.5 4t-3.5 13v51q0 10 3.5 14t13.5 4h486q15 0 15 -14z" />
    <glyph glyph-name="eight" unicode="8" horiz-adv-x="601" 
d="M300 -13q-125 0 -189.5 55.5t-64.5 143.5q0 39 16.5 72t41 53t43.5 30.5t34 15.5v3q-13 5 -28.5 14.5t-38 28t-37 49t-14.5 66.5q0 86 62.5 140.5t175.5 54.5q112 0 174.5 -54.5t62.5 -140.5q0 -36 -14.5 -66.5t-37 -49t-38 -28t-28.5 -14.5v-3q15 -5 34 -15.5
t43.5 -30.5t41 -53t16.5 -72q0 -88 -64.5 -143.5t-190.5 -55.5zM301 323q-69 -7 -117 -41.5t-48 -90.5q0 -54 42 -89.5t122 -35.5q83 0 123.5 35t40.5 90q0 56 -47.5 90.5t-115.5 41.5zM301 633q-67 0 -107.5 -34t-40.5 -86q0 -51 42 -82.5t106 -36.5q64 5 105 36.5t41 82.5
q0 53 -40 86.5t-106 33.5z" />
    <glyph glyph-name="nine" unicode="9" horiz-adv-x="611" 
d="M271 243q-95 0 -159.5 57.5t-64.5 161.5q0 106 66.5 178.5t177.5 72.5q81 0 137 -27t84 -76t39.5 -102.5t11.5 -120.5q0 -400 -278 -400q-124 0 -224 89q-7 7 -6.5 11.5t8.5 13.5l32 34q13 15 26 2q75 -68 170 -68q91 0 135.5 78.5t44.5 209.5q-24 -51 -74 -82.5
t-126 -31.5zM296 633q-75 0 -116 -47.5t-41 -118.5q0 -66 45.5 -107.5t111.5 -41.5t116.5 47t50.5 110q0 22 -7.5 46.5t-24.5 51t-52 43.5t-83 17z" />
    <glyph glyph-name="colon" unicode=":" horiz-adv-x="270" 
d="M70 53q0 27 18.5 46t45.5 19t46 -19.5t19 -45.5q0 -27 -19 -45.5t-46 -18.5t-45.5 18t-18.5 46zM70 393q0 28 18.5 47t45.5 19t46 -19t19 -47q0 -27 -19 -45t-46 -18t-45.5 18t-18.5 45z" />
    <glyph glyph-name="semicolon" unicode=";" horiz-adv-x="273" 
d="M70 394q0 27 18.5 46t45.5 19t46 -19t19 -46t-19 -45.5t-46 -18.5t-45.5 18.5t-18.5 45.5zM140 -11h-7q-26 0 -44.5 18.5t-18.5 45.5t18.5 46t45.5 19q30 0 49 -22.5t19 -61.5q0 -136 -122 -201q-9 -3 -12 2l-16 25q-4 7 3 12q73 46 85 117z" />
    <glyph glyph-name="less" unicode="&#x3c;" horiz-adv-x="550" 
d="M15 351v2q0 13 15 20l452 250q18 8 18 -8v-50q0 -15 -18 -24l-343 -190l343 -190q18 -7 18 -24v-50q0 -15 -18 -7l-452 250q-15 8 -15 21z" />
    <glyph glyph-name="equal" unicode="=" horiz-adv-x="477" 
d="M400 367h-324q-10 0 -13.5 4t-3.5 14v35q0 10 3.5 14t13.5 4h324q10 0 14 -4t4 -14v-36q0 -10 -4 -13.5t-14 -3.5zM400 170h-324q-10 0 -13.5 4t-3.5 14v35q0 10 3.5 14t13.5 4h324q18 0 18 -18v-36q0 -10 -4 -13.5t-14 -3.5z" />
    <glyph glyph-name="greater" unicode="&#x3e;" horiz-adv-x="550" 
d="M535 353v-2q-1 -14 -16 -21l-452 -250q-17 -8 -17 7v50q0 17 17 24l344 190l-344 190q-17 9 -17 24v50q0 16 17 8l452 -250q15 -7 16 -20z" />
    <glyph glyph-name="question" unicode="?" horiz-adv-x="520" 
d="M208 352q102 19 157 52t55 90t-48 96t-131 39q-80 0 -179 -67q-15 -10 -24 7l-23 38q-9 17 5 25q120 79 226 79q68 0 120.5 -19.5t83 -51t45.5 -67.5t15 -74q0 -86 -60.5 -130.5t-171.5 -68.5v-68q0 -10 -3.5 -13.5t-13.5 -3.5h-47q-10 0 -14 3.5t-4 13.5v106q0 12 12 14
zM172 52q0 27 18.5 46t45.5 19t46 -19t19 -46t-19 -45.5t-46 -18.5t-45.5 18.5t-18.5 45.5z" />
    <glyph glyph-name="at" unicode="@" horiz-adv-x="1063" 
d="M936 261q0 124 -56.5 213t-147.5 131.5t-204 43.5q-174 0 -288 -113.5t-114 -281.5q0 -167 112 -280.5t277 -113.5q70 0 123 24q20 10 24 -5l9 -37q3 -10 1 -15.5t-11 -11.5q-66 -29 -146 -29q-201 0 -334 136t-133 332q0 197 135 332.5t345 135.5q137 0 246 -52
t175 -158t66 -251q0 -45 -4.5 -85.5t-16.5 -82t-30.5 -71t-49 -48t-69.5 -17.5q-52 0 -89.5 28t-52.5 83l-10 33q-14 -20 -27 -34.5t-37 -35t-57 -31.5t-72 -11q-102 0 -165 77t-63 188q0 112 63 189t165 77q116 0 182 -111l11 85q5 15 17 15h38q10 0 13.5 -4t3.5 -14v-363
q0 -100 75 -100q29 0 48.5 18t29.5 52t14 72.5t4 90.5zM518 67q71 0 116.5 56t45.5 131t-45.5 130.5t-116.5 55.5t-116 -54.5t-45 -131.5q0 -80 44.5 -133.5t116.5 -53.5z" />
    <glyph glyph-name="A" unicode="A" 
d="M361 556h-1l-137 -300h275zM376 700l330 -683q4 -7 0.5 -12t-11.5 -5h-69q-14 0 -23 17l-74 159h-338l-73 -159q-9 -17 -23 -17h-70q-7 0 -10.5 5t-0.5 12l331 683q8 16 14 16h3q4 0 14 -16z" />
    <glyph glyph-name="B" unicode="B" horiz-adv-x="669" 
d="M379 0h-269q-10 0 -14 3.5t-4 13.5v665q0 10 4 14t14 4h244q46 0 87.5 -10t78.5 -31.5t59 -60.5t22 -92q0 -99 -109 -145v-1q20 -7 39 -17.5t42.5 -30t38 -50.5t14.5 -69q0 -100 -69 -146.5t-178 -46.5zM185 79h188q159 0 159 123q0 49 -43 83t-109 34h-195v-240z
M185 395h183q62 0 100.5 28.5t38.5 73.5q0 124 -158 124h-164v-226z" />
    <glyph glyph-name="C" unicode="C" horiz-adv-x="716" 
d="M407 69q120 0 202 86q12 12 25 -1l35 -38q12 -14 0 -26q-48 -48 -118.5 -75.5t-143.5 -27.5q-148 0 -253.5 107t-105.5 256t105.5 256t253.5 107q73 0 143.5 -28t118.5 -75q11 -11 -1 -25l-35 -38q-13 -14 -26 -1q-80 85 -200 85q-111 0 -188 -85t-77 -196t77 -196
t188 -85z" />
    <glyph glyph-name="D" unicode="D" horiz-adv-x="758" 
d="M112 700h248q148 0 248.5 -100.5t100.5 -249.5t-100.5 -249.5t-248.5 -100.5h-248q-17 0 -17 17v665q0 18 17 18zM359 621h-171v-542h171q114 0 185 79.5t71 191.5t-71 191.5t-185 79.5z" />
    <glyph glyph-name="E" unicode="E" horiz-adv-x="635" 
d="M556 0h-446q-10 0 -14 3.5t-4 13.5v665q0 18 18 18h446q18 0 18 -18v-45q0 -18 -18 -18h-371v-226h355q10 0 13.5 -3.5t3.5 -13.5v-46q0 -10 -3.5 -13.5t-13.5 -3.5h-355v-233h371q10 0 14 -3.5t4 -13.5v-46q0 -10 -4 -13.5t-14 -3.5z" />
    <glyph glyph-name="F" unicode="F" horiz-adv-x="623" 
d="M188 313v-296q0 -10 -3.5 -13.5t-13.5 -3.5h-59q-10 0 -13.5 3.5t-3.5 13.5v665q0 18 17 18h446q18 0 18 -18v-45q0 -18 -18 -18h-370v-226h361q10 0 14 -3.5t4 -13.5v-46q0 -17 -18 -17h-361z" />
    <glyph glyph-name="G" unicode="G" horiz-adv-x="753" 
d="M405 631q-111 0 -187 -85t-76 -196t76 -196t187 -85q112 0 192 69v150h-175q-10 0 -14 3.5t-4 13.5v46q0 10 4 13.5t14 3.5h251q10 0 13.5 -3.5t3.5 -13.5v-223q0 -20 -16 -36q-49 -48 -122 -76.5t-147 -28.5q-148 0 -252.5 107t-104.5 256t104.5 256t252.5 107
q72 0 141.5 -27.5t120.5 -74.5q11 -11 -2 -25l-35 -39q-13 -13 -26 -1q-35 37 -89 61t-110 24z" />
    <glyph glyph-name="H" unicode="H" horiz-adv-x="758" 
d="M566 391v291q0 10 4 14t14 4h58q10 0 13.5 -4t3.5 -14v-665q0 -10 -3.5 -13.5t-13.5 -3.5h-58q-10 0 -14 3.5t-4 13.5v292h-375v-292q0 -10 -3.5 -13.5t-13.5 -3.5h-58q-10 0 -14 3.5t-4 13.5v665q0 10 4 14t14 4h58q10 0 13.5 -4t3.5 -14v-291h375z" />
    <glyph glyph-name="I" unicode="I" horiz-adv-x="290" 
d="M98 17v665q0 10 4 14t14 4h58q10 0 13.5 -4t3.5 -14v-665q0 -10 -3.5 -13.5t-13.5 -3.5h-58q-10 0 -14 3.5t-4 13.5z" />
    <glyph glyph-name="J" unicode="J" horiz-adv-x="454" 
d="M288 627h-152q-10 0 -14 3.5t-4 13.5v38q0 10 4 14t14 4h228q10 0 13.5 -4t3.5 -14v-410q0 -151 -79 -217.5t-236 -67.5q-13 0 -16.5 3.5t-5.5 13.5l-6 48q-1 10 4.5 14t16.5 4q124 0 176.5 47.5t52.5 154.5v355z" />
    <glyph glyph-name="K" unicode="K" horiz-adv-x="657" 
d="M273 366l355 -349q16 -17 -6 -17h-79q-14 0 -28 17l-323 318v-318q0 -10 -4 -13.5t-14 -3.5h-58q-10 0 -14 3.5t-4 13.5v665q0 10 4 14t14 4h58q18 0 18 -18v-289l306 289q17 18 30 18h76q22 0 7 -18z" />
    <glyph glyph-name="L" unicode="L" horiz-adv-x="570" 
d="M188 80h332q10 0 14 -3.5t4 -13.5v-46q0 -10 -4 -13.5t-14 -3.5h-408q-10 0 -13.5 3.5t-3.5 13.5v665q0 10 3.5 14t13.5 4h58q10 0 14 -4t4 -14v-602z" />
    <glyph glyph-name="M" unicode="M" horiz-adv-x="991" 
d="M782 501l-262 -497q-11 -17 -20 -17h-9q-9 0 -20 17l-259 495l-56 -482q-1 -7 -2.5 -10.5t-5 -5t-9.5 -1.5h-59q-20 0 -17 17l84 687q1 9 9 9h7q6 0 12 -9l321 -583l321 583q5 9 12 9h6q8 0 9 -9l84 -687q1 -17 -17 -17h-59q-10 0 -13 3.5t-4 13.5z" />
    <glyph glyph-name="N" unicode="N" horiz-adv-x="776" 
d="M190 525v-508q0 -10 -3.5 -13.5t-13.5 -3.5h-58q-18 0 -18 17v687q0 9 9 9h6q7 0 14 -7l459 -528v504q0 10 3.5 14t14.5 4h58q10 0 13.5 -4t3.5 -14v-687q0 -8 -8 -8h-6q-8 0 -15 8z" />
    <glyph glyph-name="O" unicode="O" horiz-adv-x="814" 
d="M48 350q0 149 105.5 256t253.5 107t253 -107t105 -256t-105 -256t-253 -107t-253.5 107t-105.5 256zM142 350q0 -111 77 -196t188 -85q112 0 188 85t76 196t-76 196t-188 85q-111 0 -188 -85t-77 -196z" />
    <glyph glyph-name="P" unicode="P" horiz-adv-x="620" 
d="M188 354h157q162 0 162 136q0 58 -37 94.5t-125 36.5h-157v-267zM350 275h-162v-258q0 -10 -4 -13.5t-14 -3.5h-58q-10 0 -13.5 3.5t-3.5 13.5v665q0 11 3.5 14.5t13.5 3.5h238q48 0 90 -10.5t78.5 -33.5t58 -65.5t21.5 -100.5t-21.5 -101.5t-58 -67.5t-78.5 -35t-90 -11
z" />
    <glyph glyph-name="Q" unicode="Q" horiz-adv-x="814" 
d="M48 350q0 149 105.5 256t253.5 107t253 -107t105 -256q0 -175 -152 -294l87 -119q10 -14 -4 -24l-47 -34q-14 -9 -24 6l-88 130q-72 -28 -130 -28q-148 0 -253.5 107t-105.5 256zM142 350q0 -111 77 -196t188 -85q112 0 188 85t76 196t-76 195.5t-188 85.5
q-111 0 -188 -85t-77 -196z" />
    <glyph glyph-name="R" unicode="R" horiz-adv-x="666" 
d="M598 490q0 -162 -156 -205l185 -264q13 -21 -14 -21h-56q-18 0 -30 17l-181 258h-158v-258q0 -10 -4 -13.5t-14 -3.5h-58q-10 0 -13.5 3.5t-3.5 13.5v665q0 10 3.5 14t13.5 4h241q46 0 87 -10.5t78 -33.5t58.5 -65.5t21.5 -100.5zM188 354h160q159 0 159 136
q0 131 -159 131h-160v-267z" />
    <glyph glyph-name="S" unicode="S" horiz-adv-x="639" 
d="M328 629q-51 0 -87 -12.5t-54 -33t-25.5 -40.5t-7.5 -42q0 -28 14 -47.5t43.5 -31.5t59.5 -18.5t77 -12.5q52 -7 91 -18t74.5 -32.5t54 -57.5t18.5 -86q0 -87 -67 -147.5t-189 -60.5q-160 0 -270 76q-13 9 -5 25l23 38q5 9 10 11t15 -4q95 -64 217 -64q77 0 126.5 28.5
t49.5 93.5q0 56 -47 81.5t-150 39.5q-48 7 -84 17t-73 30t-57.5 54.5t-20.5 82.5q0 33 13 67.5t40.5 68.5t79.5 55.5t121 21.5q72 0 127 -18.5t119 -57.5q13 -8 5 -25l-23 -37q-9 -18 -24 -8q-95 64 -194 64z" />
    <glyph glyph-name="T" unicode="T" horiz-adv-x="613" 
d="M27 700h558q11 0 14.5 -4t3.5 -14v-49q0 -10 -4 -13.5t-14 -3.5h-232v-599q0 -10 -4 -13.5t-14 -3.5h-58q-10 0 -13.5 3.5t-3.5 13.5v599h-233q-10 0 -13.5 3.5t-3.5 13.5v49q0 10 3.5 14t13.5 4z" />
    <glyph glyph-name="U" unicode="U" 
d="M359 -13q-127 0 -207 78.5t-80 222.5v394q0 18 18 18h58q10 0 13.5 -4t3.5 -14v-389q0 -114 51.5 -169t142.5 -55t142 55t51 169v389q0 10 4 14t14 4h58q10 0 13.5 -3.5t3.5 -14.5v-394q0 -144 -79.5 -222.5t-206.5 -78.5z" />
    <glyph glyph-name="V" unicode="V" 
d="M345 -1l-331 683q-3 7 0.5 12.5t10.5 5.5h70q14 0 23 -18l242 -520l1 -1l242 521q9 18 23 18h69q9 0 12 -6t-1 -12l-330 -683q-10 -16 -14 -16h-3q-4 0 -14 16z" />
    <glyph glyph-name="W" unicode="W" horiz-adv-x="961" 
d="M119 682l178 -502l164 515q7 18 15 18h11q9 0 15 -18l165 -515l177 502q6 18 23 18h73q16 0 8 -18l-260 -683q-8 -16 -13 -16h-7q-5 0 -13 16l-173 537l-174 -537q-6 -16 -12 -16h-8q-5 0 -12 16l-261 683q-7 18 9 18h72q18 0 23 -18z" />
    <glyph glyph-name="X" unicode="X" horiz-adv-x="669" 
d="M336 274l-204 -257q-13 -17 -27 -17h-70q-20 0 -8 17l258 330l-260 335q-12 18 8 18h70q15 0 27 -18l206 -260l206 260q13 18 26 18h70q21 0 8 -18l-259 -335l258 -330q12 -17 -8 -17h-70q-13 0 -27 17z" />
    <glyph glyph-name="Y" unicode="Y" horiz-adv-x="631" 
d="M272 271l-260 411q-11 18 8 18h68q13 0 24 -18l205 -327l206 327q12 18 24 18h67q18 0 8 -18l-260 -411v-254q0 -10 -3.5 -13.5t-13.5 -3.5h-56q-10 0 -13.5 3.5t-3.5 13.5v254z" />
    <glyph glyph-name="Z" unicode="Z" horiz-adv-x="618" 
d="M562 0h-526q-9 0 -9 8v8q0 5 7 15l417 588h-377q-10 0 -13.5 4t-3.5 14v45q0 10 3.5 14t13.5 4h511q8 0 8 -9v-8q0 -5 -6 -15l-417 -588h392q10 0 14 -3.5t4 -13.5v-46q0 -10 -4 -13.5t-14 -3.5z" />
    <glyph glyph-name="bracketleft" unicode="[" horiz-adv-x="384" 
d="M319 -127v-41q0 -10 -4 -13.5t-14 -3.5h-190q-10 0 -14 3.5t-4 13.5v862q0 10 3.5 14t14.5 4h190q11 0 14.5 -4t3.5 -14v-40q0 -10 -3.5 -14t-14.5 -4h-125v-746h125q10 0 14 -3.5t4 -13.5z" />
    <glyph glyph-name="backslash" unicode="\" horiz-adv-x="431" 
d="M290 15l-231 667q-6 18 16 18h47q16 0 21 -15l231 -668q6 -17 -16 -17h-47q-11 0 -14.5 2.5t-6.5 12.5z" />
    <glyph glyph-name="bracketright" unicode="]" horiz-adv-x="381" 
d="M63 -168v41q0 10 3.5 13.5t13.5 3.5h126v746h-126q-10 0 -13.5 4t-3.5 14v40q0 10 3.5 14t13.5 4h191q10 0 13.5 -4t3.5 -14v-862q0 -10 -3.5 -13.5t-13.5 -3.5h-191q-10 0 -13.5 3.5t-3.5 13.5z" />
    <glyph glyph-name="asciicircum" unicode="^" horiz-adv-x="363" 
d="M166 753h34q12 -1 24 -18l101 -145q12 -17 -7 -17h-35q-18 0 -28 17l-72 111l-73 -111q-10 -17 -27 -17h-36q-18 0 -7 17l101 145q12 17 25 18z" />
    <glyph glyph-name="underscore" unicode="_" horiz-adv-x="520" 
d="M460 -86h-398q-10 0 -13.5 3.5t-3.5 13.5v39q0 10 3.5 14t13.5 4h398q10 0 14 -4t4 -14v-39q0 -10 -4 -13.5t-14 -3.5z" />
    <glyph glyph-name="grave" unicode="`" horiz-adv-x="244" 
d="M129 587l-87 79q-12 9 -5 23l22 35q12 19 24 4l124 -132q19 -20 -2 -20h-48q-15 0 -28 11z" />
    <glyph glyph-name="a" unicode="a" horiz-adv-x="569" 
d="M127 427q-10 -1 -14 2.5t-7 14.5l-9 35q-4 18 12 22q76 19 173 19q127 0 172.5 -56t45.5 -185v-262q0 -10 -3.5 -13.5t-13.5 -3.5h-33q-13 0 -18 17l-5 61q-71 -89 -196 -89q-75 0 -126 44t-51 122q0 79 54.5 120.5t146.5 41.5q74 0 157 -32q0 87 -29 122.5t-104 35.5
q-76 0 -152 -16zM274 252q-66 0 -99.5 -25.5t-33.5 -71.5q0 -42 30.5 -70t86.5 -28q44 0 86.5 25.5t67.5 60.5v77q-81 32 -138 32z" />
    <glyph glyph-name="b" unicode="b" horiz-adv-x="634" 
d="M178 720v-309q10 20 27.5 41.5t59.5 44.5t92 23q102 0 166.5 -77t64.5 -189q0 -111 -64.5 -188t-166.5 -77q-39 0 -72 11t-57 31.5t-36.5 34.5t-27.5 35l-10 -84q-8 -17 -20 -17h-27q-10 0 -13.5 3.5t-3.5 13.5v703q0 10 3.5 14t13.5 4h54q17 0 17 -18zM339 67
q72 0 116.5 53.5t44.5 133.5q0 77 -45 131.5t-116 54.5t-116.5 -55.5t-45.5 -130.5t45.5 -131t116.5 -56z" />
    <glyph glyph-name="c" unicode="c" horiz-adv-x="538" 
d="M309 68q79 0 131 52q12 10 25 -3l28 -31q10 -13 1 -22q-75 -75 -185 -75q-109 0 -186 77.5t-77 187.5t77 188t186 78t185 -75q10 -10 -1 -23l-28 -30q-13 -14 -25 -3q-51 51 -131 51q-73 0 -124.5 -54t-51.5 -132t51.5 -132t124.5 -54z" />
    <glyph glyph-name="d" unicode="d" horiz-adv-x="634" 
d="M456 411v309q0 18 17 18h54q10 0 13.5 -4t3.5 -14v-703q0 -10 -3.5 -13.5t-13.5 -3.5h-27q-12 0 -20 17l-10 84q-15 -21 -27.5 -35t-36.5 -34.5t-57 -31.5t-72 -11q-102 0 -166.5 77t-64.5 188q0 112 64.5 189t166.5 77q50 0 92 -23t59.5 -44.5t27.5 -41.5zM295 67
q71 0 116.5 56t45.5 131t-45.5 130.5t-116.5 55.5t-116 -54.5t-45 -131.5q0 -80 44.5 -133.5t116.5 -53.5z" />
    <glyph glyph-name="e" unicode="e" horiz-adv-x="597" 
d="M492 110l23 -27q11 -14 1 -24q-34 -33 -89.5 -51.5t-112.5 -18.5q-113 0 -190.5 77.5t-77.5 187.5t77 188t186 78q114 0 180.5 -80t66.5 -198q0 -10 -3 -14t-13 -4h-403q6 -65 58 -112t122 -47q82 0 150 46q17 10 25 -1zM139 284h327q-4 65 -47.5 113.5t-111.5 48.5
q-70 0 -117.5 -49t-50.5 -113z" />
    <glyph glyph-name="f" unicode="f" horiz-adv-x="414" 
d="M115 507v31q0 223 185 223q51 0 89 -21q12 -7 8 -22l-7 -38q-3 -12 -7 -13.5t-15 4.5q-25 10 -59 10q-56 0 -81.5 -34t-25.5 -114v-26h172q10 0 13.5 -4t3.5 -14v-36q0 -10 -3.5 -14t-13.5 -4h-172v-418q0 -10 -3.5 -13.5t-13.5 -3.5h-53q-10 0 -13.5 3.5t-3.5 13.5v418
h-70q-18 0 -18 18v36q0 11 3.5 14.5t14.5 3.5h70z" />
    <glyph glyph-name="g" unicode="g" horiz-adv-x="634" 
d="M456 28v70q-6 -14 -18.5 -29.5t-33.5 -35t-54.5 -32t-72.5 -12.5q-102 0 -166.5 76.5t-64.5 188.5q0 111 64.5 188.5t166.5 77.5q39 0 72 -11t57 -31.5t36.5 -34.5t27.5 -35l10 83q8 18 20 18h27q10 0 13.5 -4t3.5 -14v-453q0 -285 -237 -285q-101 0 -199 36
q-8 4 -10 7.5t0 12.5l12 46q2 10 5.5 12t12.5 -2q91 -34 166 -34q162 0 162 197zM295 442q-72 0 -116.5 -54t-44.5 -134q0 -76 45 -131t116 -55q70 0 116 56t46 131q0 74 -45.5 130.5t-116.5 56.5z" />
    <glyph glyph-name="h" unicode="h" horiz-adv-x="601" 
d="M180 720v-297q59 97 155 97q87 0 141.5 -55.5t54.5 -171.5v-276q0 -10 -3.5 -13.5t-13.5 -3.5h-54q-17 0 -17 17v254q0 84 -35 126.5t-95 42.5q-61 0 -97 -49.5t-36 -124.5v-249q0 -10 -3.5 -13.5t-13.5 -3.5h-54q-17 0 -17 17v245v458q0 18 17 18h54q10 0 13.5 -4
t3.5 -14z" />
    <glyph glyph-name="i" unicode="i" horiz-adv-x="313" 
d="M113 17v474q0 11 3.5 14.5t14.5 3.5h53q10 0 13.5 -4t3.5 -14v-474q0 -10 -3.5 -13.5t-13.5 -3.5h-53q-10 0 -14 3.5t-4 13.5zM98 673q0 24 17 41.5t41 17.5t41.5 -17.5t17.5 -41.5t-17.5 -41t-41.5 -17t-41 17t-17 41z" />
    <glyph glyph-name="j" unicode="j" horiz-adv-x="380" 
d="M171 673q0 24 17 41.5t41 17.5t41.5 -17.5t17.5 -41.5t-17.5 -41t-41.5 -17t-41 17t-17 41zM40 454v37q0 18 18 18h200q10 0 13.5 -4t3.5 -14v-504q0 -223 -186 -223q-58 0 -99 26q-11 8 -8 22l8 38q2 12 6 13.5t15 -3.5q29 -17 70 -17q56 0 81.5 34.5t25.5 114.5v424v20
h-130q-18 0 -18 18z" />
    <glyph glyph-name="k" unicode="k" horiz-adv-x="559" 
d="M269 270l251 -253q15 -17 -7 -17h-75q-14 0 -28 17l-230 230v-230q0 -10 -3.5 -13.5t-13.5 -3.5h-53q-10 0 -14 3.5t-4 13.5v703q0 10 4 14t14 4h53q10 0 13.5 -4t3.5 -14v-434l217 205q15 18 28 18h75q8 0 10.5 -5.5t-4.5 -12.5z" />
    <glyph glyph-name="l" unicode="l" horiz-adv-x="285" 
d="M98 17v703q0 10 4 14t14 4h53q10 0 13.5 -4t3.5 -14v-703q0 -10 -3.5 -13.5t-13.5 -3.5h-53q-10 0 -14 3.5t-4 13.5z" />
    <glyph glyph-name="m" unicode="m" horiz-adv-x="917" 
d="M492 405q60 115 165 115q83 0 136.5 -55.5t53.5 -171.5v-276q0 -10 -3.5 -13.5t-13.5 -3.5h-54q-10 0 -13.5 3.5t-3.5 13.5v254q0 83 -34 126t-89 43t-88.5 -45.5t-33.5 -123.5v-254q0 -10 -3.5 -13.5t-13.5 -3.5h-54q-10 0 -13.5 3.5t-3.5 13.5v254q0 78 -32.5 123.5
t-90.5 45.5t-90.5 -47.5t-32.5 -126.5v-249q0 -10 -3.5 -13.5t-13.5 -3.5h-54q-17 0 -17 17v474q0 18 17 18h29q12 0 19 -18l10 -83q59 112 157 112q64 0 106 -34.5t62 -80.5z" />
    <glyph glyph-name="n" unicode="n" horiz-adv-x="604" 
d="M160 491l10 -81q66 110 167 110q88 0 142.5 -55.5t54.5 -171.5v-276q0 -10 -3.5 -13.5t-13.5 -3.5h-54q-10 0 -13.5 3.5t-3.5 13.5v254q0 84 -35 126.5t-96 42.5q-60 0 -96 -49.5t-36 -124.5v-249q0 -10 -3.5 -13.5t-13.5 -3.5h-54q-10 0 -13.5 3.5t-3.5 13.5v245v229
q0 10 3.5 14t13.5 4h28q12 0 20 -18z" />
    <glyph glyph-name="o" unicode="o" horiz-adv-x="620" 
d="M46 254q0 110 77.5 188t186.5 78t186 -78t77 -188t-77 -187.5t-186 -77.5t-186.5 77.5t-77.5 187.5zM310 67q73 0 124.5 54.5t51.5 132.5t-51.5 132t-124.5 54q-74 0 -125 -54t-51 -132q0 -79 51 -133t125 -54z" />
    <glyph glyph-name="p" unicode="p" horiz-adv-x="634" 
d="M178 98v-285q0 -10 -3.5 -13.5t-13.5 -3.5h-54q-10 0 -13.5 3.5t-3.5 13.5v678q0 10 3.5 14t13.5 4h27q12 0 20 -18l10 -83q15 21 27.5 35t36.5 34.5t57 31.5t72 11q102 0 166.5 -77.5t64.5 -188.5q0 -112 -64.5 -188.5t-166.5 -76.5q-39 0 -72.5 12.5t-54.5 32t-33.5 35
t-18.5 29.5zM339 442q-71 0 -116.5 -56.5t-45.5 -130.5q0 -75 45.5 -131t116.5 -56t116 54.5t45 131.5q0 80 -44.5 134t-116.5 54z" />
    <glyph glyph-name="q" unicode="q" horiz-adv-x="634" 
d="M456 -187v285q-6 -14 -18.5 -29.5t-33.5 -35t-54.5 -32t-72.5 -12.5q-102 0 -166.5 76.5t-64.5 188.5q0 111 64.5 188.5t166.5 77.5q39 0 72 -11t57 -31.5t36.5 -34.5t27.5 -35l10 83q8 18 20 18h27q10 0 13.5 -4t3.5 -14v-678q0 -10 -3.5 -13.5t-13.5 -3.5h-54
q-10 0 -13.5 3.5t-3.5 13.5zM295 442q-72 0 -116.5 -54t-44.5 -134q0 -77 45 -131.5t116 -54.5t116.5 56t45.5 131q0 74 -45.5 130.5t-116.5 56.5z" />
    <glyph glyph-name="r" unicode="r" horiz-adv-x="415" 
d="M366 433q-88 0 -135.5 -51t-47.5 -124v-241q0 -10 -3.5 -13.5t-13.5 -3.5h-54q-10 0 -13.5 3.5t-3.5 13.5v474q0 10 3.5 14t13.5 4h28q12 0 20 -18l15 -93q12 23 23.5 39t34.5 38t60 33.5t85 11.5q11 0 14.5 -3.5t1.5 -12.5l-8 -55q-2 -10 -6 -13t-14 -3z" />
    <glyph glyph-name="s" unicode="s" horiz-adv-x="509" 
d="M254 59q64 0 96 23.5t32 61.5q0 54 -134 73q-91 12 -142.5 42.5t-51.5 102.5t53 115t142 43q100 0 192 -56q13 -8 5 -25l-16 -29q-9 -17 -24 -8q-41 25 -74 36.5t-78 11.5q-58 0 -87.5 -22.5t-29.5 -61.5q0 -34 30 -47.5t104 -24.5q195 -25 195 -146q0 -71 -56 -115
t-151 -44q-111 0 -206 64q-13 8 -4 24l17 30q5 10 9 11.5t15 -4.5q75 -55 164 -55z" />
    <glyph glyph-name="t" unicode="t" horiz-adv-x="439" 
d="M389 13q-40 -24 -96 -24q-186 0 -186 222v226h-45q-10 0 -13.5 4t-3.5 14v36q0 10 3.5 14t13.5 4h45v101q0 18 18 18h52q11 0 14.5 -4t3.5 -14v-101h171q18 0 18 -18v-36q0 -11 -4 -14.5t-14 -3.5h-171v-220q0 -80 25.5 -114.5t81.5 -34.5q38 0 66 14q11 6 15 4.5
t7 -13.5l7 -38q4 -15 -8 -22z" />
    <glyph glyph-name="u" unicode="u" horiz-adv-x="604" 
d="M444 17l-10 81q-65 -109 -168 -109q-87 0 -141.5 55.5t-54.5 171.5v275q0 18 17 18h54q17 0 17 -18v-254q0 -83 35 -126t95 -43q61 0 97 49.5t36 125.5v248q0 18 17 18h54q17 0 17 -18v-244v-230q0 -17 -17 -17h-29q-12 0 -19 17z" />
    <glyph glyph-name="v" unicode="v" horiz-adv-x="518" 
d="M244 -1l-237 492q-3 7 0 12.5t10 5.5h60q14 0 23 -18l159 -338l1 -1l158 339q9 18 23 18h59q8 0 11 -6t0 -12l-236 -492q-10 -16 -14 -16h-3q-4 0 -14 16z" />
    <glyph glyph-name="w" unicode="w" horiz-adv-x="736" 
d="M109 494l99 -324l140 337q10 16 16 16h7q7 0 16 -16l141 -337l98 321q5 18 23 18h65q16 0 8 -18l-156 -485q-6 -17 -14 -17h-7q-9 0 -17 17l-160 381l-161 -381q-9 -17 -17 -17h-6q-8 0 -15 17l-156 485q-7 18 9 18h65q17 0 22 -15z" />
    <glyph glyph-name="x" unicode="x" horiz-adv-x="490" 
d="M247 199l-131 -182q-10 -17 -25 -17h-68q-20 0 -8 17l172 237l-172 237q-12 18 8 18h68q15 0 25 -18l131 -183l126 183q11 18 26 18h67q20 0 8 -18l-168 -237l168 -237q12 -17 -8 -17h-67q-15 0 -26 17z" />
    <glyph glyph-name="y" unicode="y" horiz-adv-x="522" 
d="M262 132l157 359q9 18 23 18h62q17 0 9 -18l-303 -678q-8 -17 -23 -17h-62q-17 0 -9 17l98 219l-206 459q-8 18 9 18h62q14 0 23 -18l159 -360z" />
    <glyph glyph-name="z" unicode="z" horiz-adv-x="489" 
d="M439 0h-401q-8 0 -8 8v7q0 7 6 16l285 400h-249q-10 0 -13.5 3.5t-3.5 13.5v43q0 10 3.5 14t13.5 4h375q8 0 8 -9v-7q0 -5 -6 -16l-283 -399h273q10 0 13.5 -4t3.5 -14v-43q0 -10 -3.5 -13.5t-13.5 -3.5z" />
    <glyph glyph-name="braceleft" unicode="{" horiz-adv-x="450" 
d="M35 225v47q0 14 17 20q32 9 58.5 34t26.5 57v79q0 64 18 112t44 73.5t62 41t64.5 20t59.5 4.5q11 0 14.5 -3.5t3.5 -14.5v-47q0 -10 -3.5 -13.5t-14.5 -3.5q-26 0 -50 -7t-50 -24t-41.5 -52.5t-15.5 -85.5v-79q0 -52 -27.5 -87t-62.5 -45v-4q35 -10 62.5 -45t27.5 -87
v-79q0 -50 15.5 -85.5t41.5 -52.5t50 -24t50 -7q11 0 14.5 -3.5t3.5 -14.5v-47q0 -10 -4 -13.5t-14 -3.5q-31 0 -59.5 4.5t-64.5 20t-62 41t-44 73.5t-18 112v79q0 32 -26.5 57t-58.5 34q-17 4 -17 19z" />
    <glyph glyph-name="bar" unicode="|" horiz-adv-x="260" 
d="M92 -82v863q0 11 4 14.5t14 3.5h40q10 0 13.5 -4t3.5 -14v-863q0 -10 -3.5 -13.5t-13.5 -3.5h-40q-10 0 -14 3.5t-4 13.5z" />
    <glyph glyph-name="braceright" unicode="}" horiz-adv-x="450" 
d="M414 272v-47q0 -15 -16 -19q-33 -9 -59.5 -34t-26.5 -57v-79q0 -64 -18 -112t-44 -73.5t-62 -41t-64.5 -20t-59.5 -4.5q-10 0 -13.5 3.5t-3.5 13.5v47q0 11 3.5 14.5t13.5 3.5q26 0 50.5 7t50 24t41.5 52.5t16 85.5v79q0 52 27 87t62 45v4q-35 10 -62 45t-27 87v79
q0 50 -16 85.5t-41.5 52.5t-50 24t-50.5 7q-10 0 -13.5 3.5t-3.5 13.5v47q0 10 3.5 14t13.5 4q31 0 59.5 -4.5t64.5 -20t62 -41t44 -73.5t18 -112v-79q0 -32 26.5 -57t59.5 -34q16 -5 16 -20z" />
    <glyph glyph-name="asciitilde" unicode="~" horiz-adv-x="553" 
d="M267 369q-44 38 -73 38q-41 0 -78 -59q-13 -14 -26 -3l-24 24q-13 13 0 27q20 25 33.5 39t38 26.5t53.5 12.5q45 0 96 -45q25 -21 39 -28.5t33 -7.5q41 0 78 59q12 14 26 2l23 -24q13 -12 0 -26q-19 -24 -33 -38.5t-38.5 -27t-53.5 -12.5q-46 0 -94 43z" />
    <glyph glyph-name="exclamdown" unicode="&#xa1;" horiz-adv-x="340" 
d="M117 -308l11 426q0 10 3.5 14t13.5 4h50q10 0 13.5 -4t3.5 -14l11 -426q0 -10 -3.5 -13.5t-13.5 -3.5h-72q-10 0 -13.5 3.5t-3.5 13.5zM106 323q0 26 18.5 44.5t44.5 18.5q27 0 46 -18.5t19 -44.5q0 -27 -19 -46t-46 -19q-26 0 -44.5 19t-18.5 46z" />
    <glyph glyph-name="cent" unicode="&#xa2;" horiz-adv-x="533" 
d="M237 -133l17 127q-92 19 -150 93t-58 167q0 109 78.5 188.5t184.5 77.5l16 -1l13 94q3 19 20 16l15 -2q17 -1 16 -19l-14 -97q67 -16 119 -66q10 -10 -1 -23l-28 -30q-13 -14 -25 -3q-30 31 -75 43l-50 -363q74 0 125 51q12 10 25 -3l28 -31q10 -13 1 -22
q-76 -76 -190 -76l-16 -127q-2 -11 -6.5 -13.5t-14.5 -1.5l-15 1q-10 2 -13 6t-2 14zM133 254q0 -68 40 -117.5t92 -60.5l50 363q-77 1 -129.5 -53t-52.5 -132z" />
    <glyph glyph-name="sterling" unicode="&#xa3;" horiz-adv-x="533" 
d="M69 355h58q-2 4 -19.5 31.5t-24 41t-14.5 41t-8 55.5q0 75 51.5 132t150.5 57q96 0 209 -73q12 -7 4 -24l-24 -38q-10 -18 -24 -7q-33 25 -80 42.5t-80 17.5q-59 0 -88.5 -36.5t-29.5 -82.5q0 -17 8 -39.5t15.5 -37.5t24 -43.5t21.5 -36.5h194q10 0 13.5 -4t3.5 -14v-10
q0 -10 -3.5 -14t-13.5 -4h-183q2 -30 1.5 -49.5t-7.5 -50.5t-12 -48.5t-13.5 -44t-11.5 -36.5h279q10 0 13.5 -3.5t3.5 -13.5v-45q0 -10 -3.5 -14t-13.5 -4h-375q-10 0 -14 3.5t-4 13.5q0 13 22 64t39.5 114.5t8.5 113.5h-74q-10 0 -13.5 4t-3.5 14v10q0 10 3.5 14t13.5 4z
" />
    <glyph glyph-name="currency" unicode="&#xa4;" horiz-adv-x="527" 
d="M92 342q0 54 29 98l-68 68q-11 12 0 25l19 20q13 13 25 -1l68 -68q44 30 98 30q55 0 98 -31l69 69q12 13 25 0l19 -19q12 -12 0 -25l-70 -69q32 -44 32 -97t-32 -98l69 -69q13 -11 0 -24l-19 -20q-12 -12 -24 0l-69 69q-44 -30 -98 -30t-97 31l-69 -69q-12 -12 -24 0
l-19 20q-13 13 0 24l68 68q-30 45 -30 98zM156 342q0 -46 29.5 -78t77.5 -32t78 32t30 78t-30 78t-78 32q-47 0 -77 -32t-30 -78z" />
    <glyph glyph-name="yen" unicode="&#xa5;" horiz-adv-x="648" 
d="M322 355l206 327q12 18 24 18h67q15 0 15 -1t-7 -17l-195 -307h127q10 0 13.5 -3.5t3.5 -13.5v-25q0 -10 -3.5 -14t-13.5 -4h-156l-23 -23l-13 -38v-47h192q10 0 13.5 -3.5t3.5 -13.5v-25q0 -10 -3.5 -14t-13.5 -4h-192v-130q0 -10 -3.5 -13.5t-13.5 -3.5h-56
q-10 0 -13.5 3.5t-3.5 13.5v130h-188q-11 0 -14.5 3.5t-3.5 14.5v25q0 10 4 13.5t14 3.5h188v64l-29 44h-159q-11 0 -14.5 3.5t-3.5 14.5v25q0 10 4 13.5t14 3.5h123l-195 307q-11 18 8 18h68q13 0 24 -18z" />
    <glyph glyph-name="brokenbar" unicode="&#xa6;" horiz-adv-x="258" 
d="M97 -68v363q0 10 4 13.5t14 3.5h28q10 0 14 -3.5t4 -13.5v-363q0 -10 -3.5 -14t-14.5 -4h-28q-11 0 -14.5 4t-3.5 14zM97 437v317q0 10 3.5 14t14.5 4h28q18 0 18 -18v-317q0 -11 -3.5 -14.5t-14.5 -3.5h-28q-11 0 -14.5 3.5t-3.5 14.5z" />
    <glyph glyph-name="section" unicode="&#xa7;" horiz-adv-x="633" 
d="M581 197q0 -36 -15.5 -74.5t-41.5 -63.5q57 -49 57 -130q0 -90 -67 -149t-190 -59q-150 0 -263 75q-16 10 -6 26l23 38q10 17 24 7q96 -64 212 -64q77 0 126.5 28.5t49.5 93.5q0 56 -47 82t-149 39q-49 7 -85.5 17t-73.5 29.5t-57 54.5t-20 83q0 78 62 142
q-62 45 -62 126q0 33 13 67.5t40.5 68.5t79.5 55.5t121 21.5q73 0 128 -18t117 -57q15 -9 6 -26l-22 -37q-10 -18 -25 -8q-95 64 -194 64q-94 0 -133.5 -41t-39.5 -87q0 -28 14 -47.5t43.5 -31.5t59 -18t76.5 -13q52 -7 91 -18t74.5 -32.5t54.5 -57.5t19 -86zM294 314
q-23 4 -89 20q-25 -15 -40.5 -44t-15.5 -57t14 -47.5t43.5 -31.5t59 -18t76.5 -13q49 -7 96 -23q21 9 36.5 34.5t15.5 58.5q0 56 -47 81.5t-149 39.5z" />
    <glyph glyph-name="dieresis" unicode="&#xa8;" horiz-adv-x="406" 
d="M55 674q0 21 14 35.5t35 14.5t35.5 -15t14.5 -35q0 -21 -14.5 -35.5t-35.5 -14.5t-35 14.5t-14 35.5zM251 674q0 20 14.5 35t35.5 15q20 0 35 -15t15 -35q0 -21 -15 -35.5t-35 -14.5q-21 0 -35.5 14.5t-14.5 35.5z" />
    <glyph glyph-name="copyright" unicode="&#xa9;" horiz-adv-x="819" 
d="M46 350q0 150 106 256.5t257 106.5q85 0 154 -31t111.5 -82t65.5 -116.5t23 -133.5t-23 -133.5t-65.5 -116.5t-111.5 -82t-154 -31q-151 0 -257 106t-106 257zM80 350q0 -137 96.5 -233.5t233.5 -96.5q102 0 177 49t108.5 122t33.5 158.5t-33.5 158.5t-108.5 122t-177 49
q-137 0 -233.5 -96.5t-96.5 -232.5zM408 214q-55 0 -91 40t-36 95q0 56 35.5 96.5t91.5 40.5q58 0 97 -41q6 -5 14 0l19 22q6 6 0 14q-54 52 -130 52q-75 0 -127.5 -54t-52.5 -130q0 -75 52.5 -128.5t127.5 -53.5q77 0 130 51q6 7 0 15l-19 21q-7 6 -14 1q-38 -41 -97 -41z
" />
    <glyph glyph-name="ordfeminine" unicode="&#xaa;" horiz-adv-x="395" 
d="M97 650q-10 -1 -13 11l-7 27q-4 10 7 14q77 11 107 11q79 0 107.5 -35t28.5 -115v-162q0 -11 -11 -11h-24q-8 0 -12 11l-2 38q-43 -56 -118 -56q-47 0 -78.5 27.5t-31.5 75.5q0 49 33.5 75t90.5 26q47 0 95 -20q0 52 -17.5 73t-62.5 21q-39 0 -92 -11zM186 542
q-78 0 -78 -56q0 -25 18 -41t51 -16q51 0 92 56v38q-45 19 -83 19z" />
    <glyph glyph-name="guillemotleft" unicode="&#xab;" horiz-adv-x="549" 
d="M52 290l166 185q12 12 24 4l35 -20q13 -8 3 -23l-153 -182l153 -183q10 -14 -3 -23l-35 -20q-13 -7 -24 4l-166 185q-16 17 -16 34v6q0 16 16 33zM272 290l167 185q12 12 23 4l35 -20q15 -8 3 -23l-152 -182l152 -183q11 -13 -3 -23l-35 -20q-12 -7 -23 4l-167 185
q-16 19 -16 34v6q0 16 16 33z" />
    <glyph glyph-name="logicalnot" unicode="&#xac;" horiz-adv-x="520" 
d="M394 78v193h-327q-10 0 -13.5 4t-3.5 14v35q0 10 3.5 14t13.5 4h380q11 0 14.5 -4t3.5 -14v-245q0 -11 -3.5 -14.5t-14.5 -3.5h-36q-10 0 -13.5 3.5t-3.5 13.5z" />
    <glyph glyph-name="uni00AD" unicode="&#xad;" horiz-adv-x="411" 
d="M343 248h-276q-10 0 -13.5 4t-3.5 14v35q0 10 3.5 14t13.5 4h276q11 0 14.5 -3.5t3.5 -14.5v-36q0 -10 -4 -13.5t-14 -3.5z" />
    <glyph glyph-name="registered" unicode="&#xae;" horiz-adv-x="819" 
d="M543 423q0 -44 -23 -71t-58 -36l97 -138q5 -11 -10 -11h-34q-11 0 -16 8l-95 136h-69v-136q0 -8 -10 -8h-35q-10 0 -10 8v349q0 9 10 9h126q54 0 90.5 -25.5t36.5 -84.5zM335 357h80q75 0 75 66q0 63 -77 63h-78v-129zM46 350q0 150 106 256.5t257 106.5
q150 0 256.5 -106.5t106.5 -256.5q0 -151 -106.5 -257t-256.5 -106q-151 0 -257 106t-106 257zM79 350q0 -137 96.5 -233.5t233.5 -96.5t233.5 96.5t96.5 233.5q0 136 -97 232.5t-233 96.5q-137 0 -233.5 -96.5t-96.5 -232.5z" />
    <glyph glyph-name="macron" unicode="&#xaf;" horiz-adv-x="377" 
d="M309 648h-242q-10 0 -13.5 3.5t-3.5 13.5v30q0 10 3.5 14t13.5 4h242q11 0 14.5 -3.5t3.5 -14.5v-30q0 -10 -4 -13.5t-14 -3.5z" />
    <glyph glyph-name="degree" unicode="&#xb0;" horiz-adv-x="397" 
d="M46 560q0 64 44 107.5t108 43.5q63 0 107.5 -44t44.5 -107q0 -64 -44.5 -108.5t-107.5 -44.5q-64 0 -108 44.5t-44 108.5zM108 560q0 -38 25.5 -64t63.5 -26q37 0 63 26t26 64q0 36 -26 62t-63 26t-63 -26t-26 -62z" />
    <glyph glyph-name="plusminus" unicode="&#xb1;" horiz-adv-x="564" 
d="M319 650v-143h144q10 0 13.5 -4t3.5 -14v-38q0 -10 -3.5 -13.5t-13.5 -3.5h-144v-130q0 -10 -3.5 -14t-14.5 -4h-37q-10 0 -14 4t-4 14v130h-144q-10 0 -14 3.5t-4 13.5v38q0 11 4 14.5t14 3.5h144v143q0 10 3.5 13.5t13.5 3.5h39q10 0 13.5 -3.5t3.5 -13.5zM472 83h-380
q-10 0 -13.5 3.5t-3.5 13.5v39q0 10 3.5 14t13.5 4h380q10 0 13.5 -4t3.5 -14v-39q0 -10 -3.5 -13.5t-13.5 -3.5z" />
    <glyph glyph-name="acute" unicode="&#xb4;" horiz-adv-x="264" 
d="M216 666l-87 -79q-13 -11 -28 -11h-48q-21 0 -2 20l124 132q12 15 24 -4l22 -35q7 -14 -5 -23z" />
    <glyph glyph-name="mu" unicode="&#xb5;" horiz-adv-x="620" 
d="M460 17l-10 84q-3 -3 -15.5 -20.5t-17.5 -23t-17.5 -19.5t-22.5 -20t-25 -14.5t-31.5 -11.5t-35.5 -3q-72 0 -102 52v-228q0 -17 -17 -17h-54q-10 0 -13.5 3.5t-3.5 13.5v678q0 18 17 18h54q17 0 17 -18v-253q0 -170 122 -170q59 0 95.5 53.5t36.5 133.5v236q0 18 17 18
h54q17 0 17 -18v-474q0 -17 -17 -17h-29q-12 0 -19 17z" />
    <glyph glyph-name="paragraph" unicode="&#xb6;" horiz-adv-x="778" 
d="M304 -220v448q-114 0 -188.5 67t-74.5 175q0 105 69.5 167.5t166.5 62.5h440q11 0 14.5 -4t3.5 -14v-47q0 -10 -4 -13.5t-14 -3.5h-110v-839q0 -10 -3.5 -13.5t-13.5 -3.5h-43q-10 0 -13.5 3.5t-3.5 13.5v839h-149v-838q0 -10 -3.5 -13.5t-13.5 -3.5h-43q-10 0 -13.5 3.5
t-3.5 13.5z" />
    <glyph glyph-name="periodcentered" unicode="&#xb7;" horiz-adv-x="246" 
d="M52 342q0 30 20.5 50.5t50.5 20.5q29 0 50 -20.5t21 -50.5q0 -29 -21 -49.5t-50 -20.5q-30 0 -50.5 20.5t-20.5 49.5z" />
    <glyph glyph-name="cedilla" unicode="&#xb8;" horiz-adv-x="290" 
d="M99 -10l42 -3l-7 -52q112 0 112 -93q0 -42 -27 -66.5t-75 -24.5q-45 0 -93 38q-11 8 -3 18l12 15q6 7 17 2q34 -23 73 -23q45 0 45 41q0 47 -60 47h-41q-13 0 -13 15z" />
    <glyph glyph-name="ordmasculine" unicode="&#xba;" horiz-adv-x="334" 
d="M36 545q0 74 33 121t98 47t98 -47t33 -121t-33 -121t-98 -47t-98 47t-33 121zM96 545q0 -112 71 -112t71 112t-71 112t-71 -112z" />
    <glyph glyph-name="guillemotright" unicode="&#xbb;" horiz-adv-x="549" 
d="M330 475l167 -185q16 -17 16 -33v-6q0 -15 -16 -34l-167 -185q-11 -11 -23 -4l-35 20q-14 10 -3 23l152 183l-152 182q-12 15 3 23l35 20q11 8 23 -4zM110 475l166 -185q16 -17 16 -33v-6q0 -17 -16 -34l-166 -185q-12 -11 -24 -4l-35 20q-13 9 -3 23l153 183l-153 182
q-10 15 3 23l35 20q12 8 24 -4z" />
    <glyph glyph-name="onequarter" unicode="&#xbc;" horiz-adv-x="654" 
d="M513 682l-343 -667q-7 -15 -22 -15h-30q-22 0 -14 17l342 668q8 15 23 15h29q24 0 15 -18zM50 655l68 37q14 8 21 8h26q10 0 10 -10v-290q0 -10 -10 -10h-37q-10 0 -10 10v229l-64 -22q-9 -1 -9 8v30q0 6 5 10zM504 310h40q10 0 10 -10v-175h45q10 0 10 -10v-25
q0 -10 -10 -10h-45v-70q0 -10 -10 -10h-30q-10 0 -10 10v70h-133q-10 0 -10 10v18q0 8 7 19l124 177q6 6 12 6zM504 244l-85 -119h85v119z" />
    <glyph glyph-name="onehalf" unicode="&#xbd;" horiz-adv-x="688" 
d="M534 682l-343 -667q-7 -15 -22 -15h-30q-23 0 -14 17l342 668q7 15 23 15h29q24 0 15 -18zM50 655l68 37q14 8 21 8h26q10 0 10 -10v-290q0 -10 -10 -10h-37q-10 0 -10 10v229l-64 -22q-9 -1 -9 8v30q0 6 5 10zM521 53l90 124q36 48 13 97t-90 49q-58 0 -106 -43
q-6 -6 0 -14l22 -23q7 -7 15 0q28 29 69 29q31 0 41.5 -25t-16.5 -63l-127 -167q-4 -7 -4 -10v-4q0 -3 4 -3h201q10 0 10 9v34q0 10 -10 10h-112z" />
    <glyph glyph-name="threequarters" unicode="&#xbe;" horiz-adv-x="702" 
d="M557 682l-342 -667q-7 -15 -23 -15h-29q-23 0 -15 17l343 668q7 15 22 15h30q23 0 14 -18zM155 382q-62 0 -106 44q-7 6 0 14l20 21q7 7 15 0q32 -32 71 -32q67 0 67 53q0 19 -18.5 32t-48.5 13h-29q-10 0 -10 10v21q0 11 10 11h29q30 0 48.5 13t18.5 32q0 23 -16 38
t-51 15q-38 0 -71 -33q-8 -7 -15 0l-20 22q-7 7 0 13q45 45 106 45q46 0 81.5 -24t35.5 -71q0 -51 -52 -71v-1q22 -8 37 -26.5t15 -45.5q0 -46 -35.5 -69.5t-81.5 -23.5zM547 310h41q9 0 9 -10v-175h46q9 0 9 -10v-25q0 -10 -9 -10h-46v-70q0 -10 -9 -10h-31q-9 0 -9 10v70
h-134q-10 0 -10 10v18q0 8 8 19l124 177q4 6 11 6zM548 244l-86 -119h86v119z" />
    <glyph glyph-name="questiondown" unicode="&#xbf;" horiz-adv-x="520" 
d="M312 23q12 1 12 14v106q0 10 -4 13.5t-14 3.5h-47q-10 0 -13.5 -3.5t-3.5 -13.5v-68q-111 -24 -171.5 -68.5t-60.5 -130.5q0 -38 15 -74t45.5 -67.5t83 -51t120.5 -19.5q106 0 226 79q14 8 5 25l-23 38q-9 17 -24 7q-99 -67 -179 -67q-83 0 -131 39t-48 96t55 90t157 52z
M348 323q0 -27 -18.5 -46t-45.5 -19t-46 19t-19 46t19 45.5t46 18.5t45.5 -18.5t18.5 -45.5z" />
    <glyph glyph-name="Agrave" unicode="&#xc0;" 
d="M361 556h-1l-137 -300h275zM376 700l330 -683q4 -7 0.5 -12t-11.5 -5h-69q-14 0 -23 17l-74 159h-338l-73 -159q-9 -17 -23 -17h-70q-7 0 -10.5 5t-0.5 12l331 683q8 16 14 16h3q4 0 14 -16zM332 778l-87 79q-12 9 -5 23l22 35q12 19 24 4l124 -132q19 -20 -2 -20h-48
q-15 0 -28 11z" />
    <glyph glyph-name="Aacute" unicode="&#xc1;" 
d="M361 556h-1l-137 -300h275zM376 700l330 -683q4 -7 0.5 -12t-11.5 -5h-69q-14 0 -23 17l-74 159h-338l-73 -159q-9 -17 -23 -17h-70q-7 0 -10.5 5t-0.5 12l331 683q8 16 14 16h3q4 0 14 -16zM484 857l-87 -79q-13 -11 -28 -11h-48q-21 0 -2 20l124 132q12 15 24 -4
l22 -35q7 -14 -5 -23z" />
    <glyph glyph-name="Acircumflex" unicode="&#xc2;" 
d="M361 556h-1l-137 -300h275zM376 700l330 -683q4 -7 0.5 -12t-11.5 -5h-69q-14 0 -23 17l-74 159h-338l-73 -159q-9 -17 -23 -17h-70q-7 0 -10.5 5t-0.5 12l331 683q8 16 14 16h3q4 0 14 -16zM344 944h34q12 -1 24 -18l101 -145q12 -17 -7 -17h-35q-18 0 -28 17l-72 111
l-73 -111q-10 -17 -27 -17h-36q-18 0 -7 17l101 145q12 17 25 18z" />
    <glyph glyph-name="Atilde" unicode="&#xc3;" 
d="M361 556h-1l-137 -300h275zM376 700l330 -683q4 -7 0.5 -12t-11.5 -5h-69q-14 0 -23 17l-74 159h-338l-73 -159q-9 -17 -23 -17h-70q-7 0 -10.5 5t-0.5 12l331 683q8 16 14 16h3q4 0 14 -16zM432 869q39 0 57 44q4 10 9 12.5t15 -1.5l22 -10q17 -6 9 -25
q-34 -82 -106 -82q-45 0 -86 32q-42 32 -65 32q-39 0 -57 -44q-5 -10 -9 -12t-15 1l-23 10q-10 4 -11.5 9.5t2.5 15.5q34 82 107 82q43 0 87 -33q25 -19 36.5 -25t27.5 -6z" />
    <glyph glyph-name="Adieresis" unicode="&#xc4;" 
d="M361 556h-1l-137 -300h275zM376 700l330 -683q4 -7 0.5 -12t-11.5 -5h-69q-14 0 -23 17l-74 159h-338l-73 -159q-9 -17 -23 -17h-70q-7 0 -10.5 5t-0.5 12l331 683q8 16 14 16h3q4 0 14 -16zM213 865q0 21 14 35.5t35 14.5t35.5 -15t14.5 -35q0 -21 -14.5 -35.5
t-35.5 -14.5t-35 14.5t-14 35.5zM409 865q0 20 14.5 35t35.5 15q20 0 35 -15t15 -35q0 -21 -15 -35.5t-35 -14.5q-21 0 -35.5 14.5t-14.5 35.5z" />
    <glyph glyph-name="Aring" unicode="&#xc5;" 
d="M361 556h-1l-137 -300h275zM376 700l330 -683q4 -7 0.5 -12t-11.5 -5h-69q-14 0 -23 17l-74 159h-338l-73 -159q-9 -17 -23 -17h-70q-7 0 -10.5 5t-0.5 12l331 683q8 16 14 16h3q4 0 14 -16zM359 769q-46 0 -76.5 31.5t-30.5 78.5t30.5 78.5t76.5 31.5t77 -31.5t31 -78.5
t-31 -78.5t-77 -31.5zM359 814q27 0 43 19.5t16 45.5t-15.5 45t-42.5 19t-43.5 -19t-16.5 -45t16.5 -45.5t42.5 -19.5z" />
    <glyph glyph-name="AE" unicode="&#xc6;" horiz-adv-x="977" 
d="M445 0q-10 0 -14 3.5t-4 13.5v159h-218l-91 -159q-8 -17 -23 -17h-70q-7 0 -10.5 5t-0.5 12l378 656q14 27 24 27h483q17 0 17 -18v-45q0 -18 -17 -18h-371v-226h348q10 0 13.5 -3.5t3.5 -13.5v-46q0 -10 -3.5 -13.5t-13.5 -3.5h-348v-233h371q10 0 13.5 -3.5t3.5 -13.5
v-46q0 -10 -3.5 -13.5t-13.5 -3.5h-454zM427 570l-176 -314h176v314z" />
    <glyph glyph-name="Ccedilla" unicode="&#xc7;" horiz-adv-x="716" 
d="M340 -96l18 86q-130 20 -220 124t-90 236q0 149 105.5 256t253.5 107q73 0 143.5 -28t118.5 -75q11 -11 -1 -25l-35 -38q-13 -14 -26 -1q-80 85 -200 85q-111 0 -188 -85t-77 -196t77 -196t188 -85q118 0 202 86q12 12 25 -1l35 -38q12 -14 0 -26q-48 -47 -119.5 -74.5
t-149.5 -28.5l-7 -52q112 0 112 -93q0 -42 -27 -66.5t-75 -24.5q-45 0 -93 38q-11 8 -3 18l12 15q6 7 17 2q34 -23 73 -23q45 0 45 41q0 47 -60 47h-41q-13 0 -13 15z" />
    <glyph glyph-name="Egrave" unicode="&#xc8;" horiz-adv-x="635" 
d="M551 0h-446q-10 0 -14 3.5t-4 13.5v665q0 18 18 18h446q18 0 18 -18v-45q0 -18 -18 -18h-371v-226h355q10 0 13.5 -3.5t3.5 -13.5v-46q0 -10 -3.5 -13.5t-13.5 -3.5h-355v-233h371q10 0 14 -3.5t4 -13.5v-46q0 -10 -4 -13.5t-14 -3.5zM312 778l-87 79q-12 9 -5 23l22 35
q12 19 24 4l124 -132q19 -20 -2 -20h-48q-15 0 -28 11z" />
    <glyph glyph-name="Eacute" unicode="&#xc9;" horiz-adv-x="635" 
d="M551 0h-446q-10 0 -14 3.5t-4 13.5v665q0 18 18 18h446q18 0 18 -18v-45q0 -18 -18 -18h-371v-226h355q10 0 13.5 -3.5t3.5 -13.5v-46q0 -10 -3.5 -13.5t-13.5 -3.5h-355v-233h371q10 0 14 -3.5t4 -13.5v-46q0 -10 -4 -13.5t-14 -3.5zM421 857l-87 -79q-13 -11 -28 -11
h-48q-21 0 -2 20l124 132q12 15 24 -4l22 -35q7 -14 -5 -23z" />
    <glyph glyph-name="Ecircumflex" unicode="&#xca;" horiz-adv-x="618" 
d="M311 944h34q12 -1 24 -18l101 -145q12 -17 -7 -17h-35q-18 0 -28 17l-72 111l-73 -111q-10 -17 -27 -17h-36q-18 0 -7 17l101 145q12 17 25 18zM549 0h-446q-10 0 -14 3.5t-4 13.5v665q0 18 18 18h446q18 0 18 -18v-45q0 -18 -18 -18h-371v-226h355q10 0 13.5 -3.5
t3.5 -13.5v-46q0 -10 -3.5 -13.5t-13.5 -3.5h-355v-233h371q10 0 14 -3.5t4 -13.5v-46q0 -10 -4 -13.5t-14 -3.5z" />
    <glyph glyph-name="Edieresis" unicode="&#xcb;" horiz-adv-x="635" 
d="M551 0h-446q-10 0 -14 3.5t-4 13.5v665q0 18 18 18h446q18 0 18 -18v-45q0 -18 -18 -18h-371v-226h355q10 0 13.5 -3.5t3.5 -13.5v-46q0 -10 -3.5 -13.5t-13.5 -3.5h-355v-233h371q10 0 14 -3.5t4 -13.5v-46q0 -10 -4 -13.5t-14 -3.5zM184 865q0 21 14 35.5t35 14.5
t35.5 -15t14.5 -35q0 -21 -14.5 -35.5t-35.5 -14.5t-35 14.5t-14 35.5zM380 865q0 20 14.5 35t35.5 15q20 0 35 -15t15 -35q0 -21 -15 -35.5t-35 -14.5q-21 0 -35.5 14.5t-14.5 35.5z" />
    <glyph glyph-name="Igrave" unicode="&#xcc;" horiz-adv-x="307" 
d="M102 17v665q0 10 4 14t14 4h58q10 0 13.5 -4t3.5 -14v-665q0 -10 -3.5 -13.5t-13.5 -3.5h-58q-10 0 -14 3.5t-4 13.5zM120 778l-87 79q-12 9 -5 23l22 35q12 19 24 4l124 -132q19 -20 -2 -20h-48q-15 0 -28 11z" />
    <glyph glyph-name="Iacute" unicode="&#xcd;" horiz-adv-x="299" 
d="M102 17v665q0 10 4 14t14 4h58q10 0 13.5 -4t3.5 -14v-665q0 -10 -3.5 -13.5t-13.5 -3.5h-58q-10 0 -14 3.5t-4 13.5zM261 857l-87 -79q-13 -11 -28 -11h-48q-21 0 -2 20l124 132q12 15 24 -4l22 -35q7 -14 -5 -23z" />
    <glyph glyph-name="Icircumflex" unicode="&#xce;" horiz-adv-x="299" 
d="M102 17v665q0 10 4 14t14 4h58q10 0 13.5 -4t3.5 -14v-665q0 -10 -3.5 -13.5t-13.5 -3.5h-58q-10 0 -14 3.5t-4 13.5zM133 944h34q12 -1 24 -18l101 -145q12 -17 -7 -17h-35q-18 0 -28 17l-72 111l-73 -111q-10 -17 -27 -17h-36q-18 0 -7 17l101 145q12 17 25 18z" />
    <glyph glyph-name="Idieresis" unicode="&#xcf;" horiz-adv-x="299" 
d="M102 17v665q0 10 4 14t14 4h58q10 0 13.5 -4t3.5 -14v-665q0 -10 -3.5 -13.5t-13.5 -3.5h-58q-10 0 -14 3.5t-4 13.5zM-7 865q0 21 14 35.5t35 14.5t35.5 -15t14.5 -35q0 -21 -14.5 -35.5t-35.5 -14.5t-35 14.5t-14 35.5zM189 865q0 20 14.5 35t35.5 15q20 0 35 -15
t15 -35q0 -21 -15 -35.5t-35 -14.5q-21 0 -35.5 14.5t-14.5 35.5z" />
    <glyph glyph-name="Eth" unicode="&#xd0;" horiz-adv-x="801" 
d="M37 393h101v289q0 18 18 18h247q148 0 249 -100.5t101 -249.5t-101 -249.5t-249 -100.5h-247q-18 0 -18 17v299h-101q-17 0 -17 18v41q0 18 17 18zM402 621h-171v-228h159q18 0 18 -18v-41q0 -18 -18 -18h-159v-237h171q114 0 185.5 79.5t71.5 191.5t-71.5 191.5
t-185.5 79.5z" />
    <glyph glyph-name="Ntilde" unicode="&#xd1;" horiz-adv-x="776" 
d="M190 524v-507q0 -10 -3.5 -13.5t-13.5 -3.5h-58q-18 0 -18 17v687q0 9 9 9h6q7 0 14 -7l459 -528v504q0 10 3.5 14t14.5 4h58q10 0 13.5 -4t3.5 -14v-687q0 -8 -8 -8h-6q-8 0 -15 8zM451 869q39 0 57 44q4 10 9 12.5t15 -1.5l22 -10q17 -6 9 -25q-34 -82 -106 -82
q-45 0 -86 32q-42 32 -65 32q-39 0 -57 -44q-5 -10 -9 -12t-15 1l-23 10q-10 4 -11.5 9.5t2.5 15.5q34 82 107 82q43 0 87 -33q25 -19 36.5 -25t27.5 -6z" />
    <glyph glyph-name="Ograve" unicode="&#xd2;" horiz-adv-x="814" 
d="M48 350q0 149 105.5 256t253.5 107t253 -107t105 -256t-105 -256t-253 -107t-253.5 107t-105.5 256zM142 350q0 -111 77 -196t188 -85q112 0 188 85t76 196t-76 196t-188 85q-111 0 -188 -85t-77 -196zM384 778l-87 79q-12 9 -5 23l22 35q12 19 24 4l124 -132
q19 -20 -2 -20h-48q-15 0 -28 11z" />
    <glyph glyph-name="Oacute" unicode="&#xd3;" horiz-adv-x="814" 
d="M48 350q0 149 105.5 256t253.5 107t253 -107t105 -256t-105 -256t-253 -107t-253.5 107t-105.5 256zM142 350q0 -111 77 -196t188 -85q112 0 188 85t76 196t-76 196t-188 85q-111 0 -188 -85t-77 -196zM521 857l-87 -79q-13 -11 -28 -11h-48q-21 0 -2 20l124 132
q12 15 24 -4l22 -35q7 -14 -5 -23z" />
    <glyph glyph-name="Ocircumflex" unicode="&#xd4;" horiz-adv-x="814" 
d="M48 350q0 149 105.5 256t253.5 107t253 -107t105 -256t-105 -256t-253 -107t-253.5 107t-105.5 256zM142 350q0 -111 77 -196t188 -85q112 0 188 85t76 196t-76 196t-188 85q-111 0 -188 -85t-77 -196zM390 944h34q12 -1 24 -18l101 -145q12 -17 -7 -17h-35q-18 0 -28 17
l-72 111l-73 -111q-10 -17 -27 -17h-36q-18 0 -7 17l101 145q12 17 25 18z" />
    <glyph glyph-name="Otilde" unicode="&#xd5;" horiz-adv-x="814" 
d="M48 350q0 149 105.5 256t253.5 107t253 -107t105 -256t-105 -256t-253 -107t-253.5 107t-105.5 256zM142 350q0 -111 77 -196t188 -85q112 0 188 85t76 196t-76 196t-188 85q-111 0 -188 -85t-77 -196zM474 869q39 0 57 44q4 10 9 12.5t15 -1.5l22 -10q17 -6 9 -25
q-34 -82 -106 -82q-45 0 -86 32q-42 32 -65 32q-39 0 -57 -44q-5 -10 -9 -12t-15 1l-23 10q-10 4 -11.5 9.5t2.5 15.5q34 82 107 82q43 0 87 -33q25 -19 36.5 -25t27.5 -6z" />
    <glyph glyph-name="Odieresis" unicode="&#xd6;" horiz-adv-x="814" 
d="M48 350q0 149 105.5 256t253.5 107t253 -107t105 -256t-105 -256t-253 -107t-253.5 107t-105.5 256zM142 350q0 -111 77 -196t188 -85q112 0 188 85t76 196t-76 196t-188 85q-111 0 -188 -85t-77 -196zM253 865q0 21 14 35.5t35 14.5t35.5 -15t14.5 -35
q0 -21 -14.5 -35.5t-35.5 -14.5t-35 14.5t-14 35.5zM449 865q0 20 14.5 35t35.5 15q20 0 35 -15t15 -35q0 -21 -15 -35.5t-35 -14.5q-21 0 -35.5 14.5t-14.5 35.5z" />
    <glyph glyph-name="multiply" unicode="&#xd7;" horiz-adv-x="422" 
d="M315 148l-103 103l-103 -103q-12 -12 -25 0l-27 27q-12 12 0 25l103 103l-103 103q-12 12 0 24l27 27q13 13 25 0l103 -103l103 103q12 13 25 0l27 -27q12 -12 0 -24l-103 -103l103 -103q12 -13 0 -25l-27 -27q-13 -13 -25 0z" />
    <glyph glyph-name="Oslash" unicode="&#xd8;" horiz-adv-x="814" 
d="M48 350q0 149 105.5 256t253.5 107q68 0 134 -27l23 43q6 14 22 14h31q23 0 14 -19l-36 -67q42 -28 77 -65t64 -102.5t29 -139.5q0 -149 -105 -256t-253 -107q-77 0 -144 31l-25 -47q-6 -14 -22 -14h-31q-23 0 -15 18l39 72q-73 51 -117 130.5t-44 172.5zM671 350
q0 133 -116 229l-253 -486q48 -24 105 -24q112 0 188 85t76 196zM142 350q1 -128 110 -223l251 483q-50 21 -96 21q-110 0 -188 -85.5t-77 -195.5z" />
    <glyph glyph-name="Ugrave" unicode="&#xd9;" 
d="M359 -13q-127 0 -207 78.5t-80 222.5v394q0 18 18 18h58q10 0 13.5 -4t3.5 -14v-389q0 -114 51.5 -169t142.5 -55t142 55t51 169v389q0 10 4 14t14 4h58q10 0 13.5 -3.5t3.5 -14.5v-394q0 -144 -79.5 -222.5t-206.5 -78.5zM333 778l-87 79q-12 9 -5 23l22 35q12 19 24 4
l124 -132q19 -20 -2 -20h-48q-15 0 -28 11z" />
    <glyph glyph-name="Uacute" unicode="&#xda;" 
d="M359 -13q-127 0 -207 78.5t-80 222.5v394q0 18 18 18h58q10 0 13.5 -4t3.5 -14v-389q0 -114 51.5 -169t142.5 -55t142 55t51 169v389q0 10 4 14t14 4h58q10 0 13.5 -3.5t3.5 -14.5v-394q0 -144 -79.5 -222.5t-206.5 -78.5zM448 857l-87 -79q-13 -11 -28 -11h-48
q-21 0 -2 20l124 132q12 15 24 -4l22 -35q7 -14 -5 -23z" />
    <glyph glyph-name="Ucircumflex" unicode="&#xdb;" 
d="M359 -13q-127 0 -207 78.5t-80 222.5v394q0 18 18 18h58q10 0 13.5 -4t3.5 -14v-389q0 -114 51.5 -169t142.5 -55t142 55t51 169v389q0 10 4 14t14 4h58q10 0 13.5 -3.5t3.5 -14.5v-394q0 -144 -79.5 -222.5t-206.5 -78.5zM342 944h34q12 -1 24 -18l101 -145
q12 -17 -7 -17h-35q-18 0 -28 17l-72 111l-73 -111q-10 -17 -27 -17h-36q-18 0 -7 17l101 145q12 17 25 18z" />
    <glyph glyph-name="Udieresis" unicode="&#xdc;" 
d="M359 -13q-127 0 -207 78.5t-80 222.5v394q0 18 18 18h58q10 0 13.5 -4t3.5 -14v-389q0 -114 51.5 -169t142.5 -55t142 55t51 169v389q0 10 4 14t14 4h58q10 0 13.5 -3.5t3.5 -14.5v-394q0 -144 -79.5 -222.5t-206.5 -78.5zM212 865q0 21 14 35.5t35 14.5t35.5 -15
t14.5 -35q0 -21 -14.5 -35.5t-35.5 -14.5t-35 14.5t-14 35.5zM408 865q0 20 14.5 35t35.5 15q20 0 35 -15t15 -35q0 -21 -15 -35.5t-35 -14.5q-21 0 -35.5 14.5t-14.5 35.5z" />
    <glyph glyph-name="Yacute" unicode="&#xdd;" horiz-adv-x="634" 
d="M274 271l-260 411q-11 18 8 18h68q13 0 24 -18l205 -327l206 327q12 18 24 18h67q18 0 8 -18l-260 -411v-254q0 -10 -3.5 -13.5t-13.5 -3.5h-56q-10 0 -13.5 3.5t-3.5 13.5v254zM412 857l-87 -79q-13 -11 -28 -11h-48q-21 0 -2 20l124 132q12 15 24 -4l22 -35
q7 -14 -5 -23z" />
    <glyph glyph-name="Thorn" unicode="&#xde;" horiz-adv-x="640" 
d="M362 0h-188v-187q0 -10 -3.5 -13.5t-13.5 -3.5h-53q-10 0 -14 3.5t-4 13.5v882q0 11 4 14.5t14 3.5h53q10 0 13.5 -4t3.5 -14v-186h188q100 0 167 -73.5t67 -181.5q0 -109 -67 -181.5t-167 -72.5zM174 79h168q69 0 118 48t49 127q0 80 -49 128.5t-118 48.5h-168v-352z
" />
    <glyph glyph-name="germandbls" unicode="&#xdf;" horiz-adv-x="645" 
d="M323 395h32q62 0 100.5 28.5t38.5 73.5q0 124 -162 124q-155 0 -155 -123v-210v-271q0 -10 -4 -13.5t-14 -3.5h-57q-10 0 -13.5 3.5t-3.5 13.5v489q0 53 21.5 92t57.5 60.5t76.5 31.5t86.5 10h7q48 0 90.5 -10t80.5 -31.5t60 -60.5t22 -92q0 -99 -109 -145v-1
q20 -7 39 -17.5t43 -30t38.5 -50.5t14.5 -69q0 -70 -37.5 -115t-90.5 -61.5t-120 -16.5h-73q-10 0 -13.5 3.5t-3.5 13.5v44q0 10 3.5 14t13.5 4h67q160 0 160 123q0 49 -43.5 83t-108.5 34h-44q-10 0 -13.5 3.5t-3.5 13.5v41q0 10 3.5 14t13.5 4z" />
    <glyph glyph-name="agrave" unicode="&#xe0;" horiz-adv-x="562" 
d="M119 427q-10 -1 -14 2.5t-7 14.5l-9 35q-4 18 12 22q76 19 173 19q127 0 172.5 -56t45.5 -185v-262q0 -10 -3.5 -13.5t-13.5 -3.5h-33q-13 0 -18 17l-5 61q-71 -89 -196 -89q-75 0 -126 44t-51 122q0 79 54.5 120.5t146.5 41.5q74 0 157 -32q0 87 -29 122.5t-104 35.5
q-76 0 -152 -16zM266 252q-66 0 -99.5 -25.5t-33.5 -71.5q0 -42 30.5 -70t86.5 -28q44 0 86.5 25.5t67.5 60.5v77q-81 32 -138 32zM280 587l-87 79q-12 9 -5 23l22 35q12 19 24 4l124 -132q19 -20 -2 -20h-48q-15 0 -28 11z" />
    <glyph glyph-name="aacute" unicode="&#xe1;" horiz-adv-x="562" 
d="M119 427q-10 -1 -14 2.5t-7 14.5l-9 35q-4 18 12 22q76 19 173 19q127 0 172.5 -56t45.5 -185v-262q0 -10 -3.5 -13.5t-13.5 -3.5h-33q-13 0 -18 17l-5 61q-71 -89 -196 -89q-75 0 -126 44t-51 122q0 79 54.5 120.5t146.5 41.5q74 0 157 -32q0 87 -29 122.5t-104 35.5
q-76 0 -152 -16zM266 252q-66 0 -99.5 -25.5t-33.5 -71.5q0 -42 30.5 -70t86.5 -28q44 0 86.5 25.5t67.5 60.5v77q-81 32 -138 32zM383 666l-87 -79q-13 -11 -28 -11h-48q-21 0 -2 20l124 132q12 15 24 -4l22 -35q7 -14 -5 -23z" />
    <glyph glyph-name="acircumflex" unicode="&#xe2;" horiz-adv-x="562" 
d="M119 427q-10 -1 -14 2.5t-7 14.5l-9 35q-4 18 12 22q76 19 173 19q127 0 172.5 -56t45.5 -185v-262q0 -10 -3.5 -13.5t-13.5 -3.5h-33q-13 0 -18 17l-5 61q-71 -89 -196 -89q-75 0 -126 44t-51 122q0 79 54.5 120.5t146.5 41.5q74 0 157 -32q0 87 -29 122.5t-104 35.5
q-76 0 -152 -16zM266 252q-66 0 -99.5 -25.5t-33.5 -71.5q0 -42 30.5 -70t86.5 -28q44 0 86.5 25.5t67.5 60.5v77q-81 32 -138 32zM262 753h34q12 -1 24 -18l101 -145q12 -17 -7 -17h-35q-18 0 -28 17l-72 111l-73 -111q-10 -17 -27 -17h-36q-18 0 -7 17l101 145
q12 17 25 18z" />
    <glyph glyph-name="atilde" unicode="&#xe3;" horiz-adv-x="562" 
d="M119 427q-10 -1 -14 2.5t-7 14.5l-9 35q-4 18 12 22q76 19 173 19q127 0 172.5 -56t45.5 -185v-262q0 -10 -3.5 -13.5t-13.5 -3.5h-33q-13 0 -18 17l-5 61q-71 -89 -196 -89q-75 0 -126 44t-51 122q0 79 54.5 120.5t146.5 41.5q74 0 157 -32q0 87 -29 122.5t-104 35.5
q-76 0 -152 -16zM266 252q-66 0 -99.5 -25.5t-33.5 -71.5q0 -42 30.5 -70t86.5 -28q44 0 86.5 25.5t67.5 60.5v77q-81 32 -138 32zM352 678q39 0 57 44q4 10 9 12.5t15 -1.5l22 -10q17 -6 9 -25q-34 -82 -106 -82q-45 0 -86 32q-42 32 -65 32q-39 0 -57 -44q-5 -10 -9 -12
t-15 1l-23 10q-10 4 -11.5 9.5t2.5 15.5q34 82 107 82q43 0 87 -33q25 -19 36.5 -25t27.5 -6z" />
    <glyph glyph-name="adieresis" unicode="&#xe4;" horiz-adv-x="562" 
d="M119 427q-10 -1 -14 2.5t-7 14.5l-9 35q-4 18 12 22q76 19 173 19q127 0 172.5 -56t45.5 -185v-262q0 -10 -3.5 -13.5t-13.5 -3.5h-33q-13 0 -18 17l-5 61q-71 -89 -196 -89q-75 0 -126 44t-51 122q0 79 54.5 120.5t146.5 41.5q74 0 157 -32q0 87 -29 122.5t-104 35.5
q-76 0 -152 -16zM266 252q-66 0 -99.5 -25.5t-33.5 -71.5q0 -42 30.5 -70t86.5 -28q44 0 86.5 25.5t67.5 60.5v77q-81 32 -138 32zM125 674q0 21 14 35.5t35 14.5t35.5 -15t14.5 -35q0 -21 -14.5 -35.5t-35.5 -14.5t-35 14.5t-14 35.5zM321 674q0 20 14.5 35t35.5 15
q20 0 35 -15t15 -35q0 -21 -15 -35.5t-35 -14.5q-21 0 -35.5 14.5t-14.5 35.5z" />
    <glyph glyph-name="aring" unicode="&#xe5;" horiz-adv-x="562" 
d="M119 427q-10 -1 -14 2.5t-7 14.5l-9 35q-4 18 12 22q76 19 173 19q127 0 172.5 -56t45.5 -185v-262q0 -10 -3.5 -13.5t-13.5 -3.5h-33q-13 0 -18 17l-5 61q-71 -89 -196 -89q-75 0 -126 44t-51 122q0 79 54.5 120.5t146.5 41.5q74 0 157 -32q0 87 -29 122.5t-104 35.5
q-76 0 -152 -16zM266 252q-66 0 -99.5 -25.5t-33.5 -71.5q0 -42 30.5 -70t86.5 -28q44 0 86.5 25.5t67.5 60.5v77q-81 32 -138 32zM281 578q-46 0 -76.5 31.5t-30.5 78.5t30.5 78.5t76.5 31.5t77 -31.5t31 -78.5t-31 -78.5t-77 -31.5zM281 623q27 0 43 19.5t16 45.5
t-15.5 45t-42.5 19t-43.5 -19t-16.5 -45t16.5 -45.5t42.5 -19.5z" />
    <glyph glyph-name="ae" unicode="&#xe6;" horiz-adv-x="932" 
d="M410 285v69q-9 49 -42 69t-95 20q-77 0 -151 -16q-18 -3 -21 16l-9 36q-6 18 12 22t73 11.5t102 7.5q65 0 106.5 -17t68.5 -60q84 77 192 77q61 0 110 -24.5t77.5 -65t43 -88t14.5 -98.5v-4q0 -9 -3 -12.5t-13 -3.5h-375v-54q17 -43 58.5 -74t91.5 -31q85 0 152 46
q17 10 25 -1l23 -27q11 -14 2 -23q-33 -33 -90 -52t-116 -19q-65 0 -116.5 33t-75.5 76q-34 -40 -96.5 -74.5t-133.5 -34.5q-75 0 -126.5 43t-51.5 121q0 81 53 122.5t144 41.5q84 0 167 -32zM410 143v77q-81 32 -147 32t-101 -26t-35 -74q0 -41 29.5 -68t84.5 -27
q46 0 95.5 26t73.5 60zM502 356v-72h299q-4 68 -43.5 115t-113.5 47q-92 0 -142 -90z" />
    <glyph glyph-name="ccedilla" unicode="&#xe7;" horiz-adv-x="538" 
d="M251 -94l17 85q-96 18 -159 89.5t-63 173.5q0 110 77 188t186 78t185 -75q10 -10 -1 -23l-28 -30q-13 -14 -25 -3q-51 51 -131 51q-73 0 -124.5 -54t-51.5 -132t51.5 -132t124.5 -54q79 0 131 52q12 10 25 -3l28 -31q10 -13 1 -22q-73 -73 -183 -75l-7 -52q54 0 83 -24
t29 -69q0 -42 -27 -66.5t-75 -24.5q-43 0 -94 38q-11 8 -2 18l11 15q6 7 18 2q34 -23 72 -23q45 0 45 41q0 47 -60 47h-41q-12 0 -12 15z" />
    <glyph glyph-name="egrave" unicode="&#xe8;" horiz-adv-x="597" 
d="M515 83l-23 27q-8 11 -25 1q-68 -46 -150 -46q-70 0 -122 47t-58 112h403q10 0 13 4t3 14q0 118 -66.5 198t-180.5 80q-109 0 -186 -78t-77 -188t77.5 -187.5t190.5 -77.5q57 0 112.5 18.5t89.5 51.5q10 10 -1 24zM466 284h-327q3 64 50.5 113t117.5 49q68 0 111.5 -48.5
t47.5 -113.5zM284 587l-87 79q-12 9 -5 23l22 35q12 19 24 4l124 -132q19 -20 -2 -20h-48q-15 0 -28 11z" />
    <glyph glyph-name="eacute" unicode="&#xe9;" horiz-adv-x="597" 
d="M492 110l23 -27q11 -14 1 -24q-34 -33 -89.5 -51.5t-112.5 -18.5q-113 0 -190.5 77.5t-77.5 187.5t77 188t186 78q114 0 180.5 -80t66.5 -198q0 -10 -3 -14t-13 -4h-403q6 -65 58 -112t122 -47q82 0 150 46q17 10 25 -1zM139 284h327q-4 65 -47.5 113.5t-111.5 48.5
q-70 0 -117.5 -49t-50.5 -113zM417 666l-87 -79q-13 -11 -28 -11h-48q-21 0 -2 20l124 132q12 15 24 -4l22 -35q7 -14 -5 -23z" />
    <glyph glyph-name="ecircumflex" unicode="&#xea;" horiz-adv-x="597" 
d="M515 83l-23 27q-8 11 -25 1q-68 -46 -150 -46q-70 0 -122 47t-58 112h403q10 0 13 4t3 14q0 118 -66.5 198t-180.5 80q-109 0 -186 -78t-77 -188t77.5 -187.5t190.5 -77.5q57 0 112.5 18.5t89.5 51.5q10 10 -1 24zM466 284h-327q3 64 50.5 113t117.5 49q68 0 111.5 -48.5
t47.5 -113.5zM296 753h34q12 -1 24 -18l101 -145q12 -17 -7 -17h-35q-18 0 -28 17l-72 111l-73 -111q-10 -17 -27 -17h-36q-18 0 -7 17l101 145q12 17 25 18z" />
    <glyph glyph-name="edieresis" unicode="&#xeb;" horiz-adv-x="597" 
d="M515 83l-23 27q-8 11 -25 1q-68 -46 -150 -46q-70 0 -122 47t-58 112h403q10 0 13 4t3 14q0 118 -66.5 198t-180.5 80q-109 0 -186 -78t-77 -188t77.5 -187.5t190.5 -77.5q57 0 112.5 18.5t89.5 51.5q10 10 -1 24zM466 284h-327q3 64 50.5 113t117.5 49q68 0 111.5 -48.5
t47.5 -113.5zM159 674q0 21 14 35.5t35 14.5t35.5 -15t14.5 -35q0 -21 -14.5 -35.5t-35.5 -14.5t-35 14.5t-14 35.5zM355 674q0 20 14.5 35t35.5 15q20 0 35 -15t15 -35q0 -21 -15 -35.5t-35 -14.5q-21 0 -35.5 14.5t-14.5 35.5z" />
    <glyph glyph-name="igrave" unicode="&#xec;" horiz-adv-x="294" 
d="M103 17v474q0 11 3.5 14.5t14.5 3.5h53q10 0 13.5 -4t3.5 -14v-474q0 -10 -3.5 -13.5t-13.5 -3.5h-53q-10 0 -14 3.5t-4 13.5zM110 587l-87 79q-12 9 -5 23l22 35q12 19 24 4l124 -132q19 -20 -2 -20h-48q-15 0 -28 11z" />
    <glyph glyph-name="iacute" unicode="&#xed;" horiz-adv-x="292" 
d="M100 17v474q0 11 4 14.5t14 3.5h53q10 0 13.5 -4t3.5 -14v-474q0 -10 -3.5 -13.5t-13.5 -3.5h-53q-10 0 -14 3.5t-4 13.5zM268 666l-87 -79q-13 -11 -28 -11h-48q-21 0 -2 20l124 132q12 15 24 -4l22 -35q7 -14 -5 -23z" />
    <glyph glyph-name="icircumflex" unicode="&#xee;" horiz-adv-x="292" 
d="M101 17v474q0 11 3.5 14.5t14.5 3.5h53q10 0 13.5 -4t3.5 -14v-474q0 -10 -3.5 -13.5t-13.5 -3.5h-53q-10 0 -14 3.5t-4 13.5zM129 753h34q12 -1 24 -18l101 -145q12 -17 -7 -17h-35q-18 0 -28 17l-72 111l-73 -111q-10 -17 -27 -17h-36q-18 0 -7 17l101 145q12 17 25 18
z" />
    <glyph glyph-name="idieresis" unicode="&#xef;" horiz-adv-x="292" 
d="M101 17v474q0 11 3.5 14.5t14.5 3.5h53q10 0 13.5 -4t3.5 -14v-474q0 -10 -3.5 -13.5t-13.5 -3.5h-53q-10 0 -14 3.5t-4 13.5zM-1 674q0 21 14 35.5t35 14.5t35.5 -15t14.5 -35q0 -21 -14.5 -35.5t-35.5 -14.5t-35 14.5t-14 35.5zM195 674q0 20 14.5 35t35.5 15
q20 0 35 -15t15 -35q0 -21 -15 -35.5t-35 -14.5q-21 0 -35.5 14.5t-14.5 35.5z" />
    <glyph glyph-name="eth" unicode="&#xf0;" horiz-adv-x="603" 
d="M436 728l-28 -46q147 -82 147 -369q0 -158 -61.5 -242t-210.5 -84q-111 0 -178 72.5t-67 178.5q0 104 64.5 161.5t159.5 57.5q76 0 126 -32t74 -83q0 203 -97 266l-53 -90q-10 -15 -24 -7l-8 5q-17 8 -7 24l50 83q-44 8 -89 4q-18 -3 -18 18v45q0 20 18 21q5 0 17 0.5
t18 0.5q50 0 98 -13l31 52q7 15 23 7l9 -6q15 -8 6 -24zM287 66q48 0 83 16t52.5 41.5t25 50.5t7.5 51q0 62 -51 109.5t-117 47.5t-111.5 -41.5t-45.5 -108.5q0 -70 41.5 -118t115.5 -48z" />
    <glyph glyph-name="ntilde" unicode="&#xf1;" horiz-adv-x="604" 
d="M170 410l-10 81q-8 18 -20 18h-28q-10 0 -13.5 -4t-3.5 -14v-229v-245q0 -10 3.5 -13.5t13.5 -3.5h54q10 0 13.5 3.5t3.5 13.5v249q0 75 36 124.5t96 49.5q61 0 96 -42.5t35 -126.5v-254q0 -10 3.5 -13.5t13.5 -3.5h54q10 0 13.5 3.5t3.5 13.5v276q0 116 -54.5 171.5
t-142.5 55.5q-101 0 -167 -110zM384 678q39 0 57 44q4 10 9 12.5t15 -1.5l22 -10q17 -6 9 -25q-34 -82 -106 -82q-45 0 -86 32q-42 32 -65 32q-39 0 -57 -44q-5 -10 -9 -12t-15 1l-23 10q-10 4 -11.5 9.5t2.5 15.5q34 82 107 82q43 0 87 -33q25 -19 36.5 -25t27.5 -6z" />
    <glyph glyph-name="ograve" unicode="&#xf2;" horiz-adv-x="620" 
d="M46 254q0 110 77.5 188t186.5 78t186 -78t77 -188t-77 -187.5t-186 -77.5t-186.5 77.5t-77.5 187.5zM310 67q73 0 124.5 54.5t51.5 132.5t-51.5 132t-124.5 54q-74 0 -125 -54t-51 -132q0 -79 51 -133t125 -54zM289 587l-87 79q-12 9 -5 23l22 35q12 19 24 4l124 -132
q19 -20 -2 -20h-48q-15 0 -28 11z" />
    <glyph glyph-name="oacute" unicode="&#xf3;" horiz-adv-x="620" 
d="M46 254q0 110 77.5 188t186.5 78t186 -78t77 -188t-77 -187.5t-186 -77.5t-186.5 77.5t-77.5 187.5zM310 67q73 0 124.5 54.5t51.5 132.5t-51.5 132t-124.5 54q-74 0 -125 -54t-51 -132q0 -79 51 -133t125 -54zM414 666l-87 -79q-13 -11 -28 -11h-48q-21 0 -2 20l124 132
q12 15 24 -4l22 -35q7 -14 -5 -23z" />
    <glyph glyph-name="ocircumflex" unicode="&#xf4;" horiz-adv-x="620" 
d="M46 254q0 110 77.5 188t186.5 78t186 -78t77 -188t-77 -187.5t-186 -77.5t-186.5 77.5t-77.5 187.5zM310 67q73 0 124.5 54.5t51.5 132.5t-51.5 132t-124.5 54q-74 0 -125 -54t-51 -132q0 -79 51 -133t125 -54zM293 753h34q12 -1 24 -18l101 -145q12 -17 -7 -17h-35
q-18 0 -28 17l-72 111l-73 -111q-10 -17 -27 -17h-36q-18 0 -7 17l101 145q12 17 25 18z" />
    <glyph glyph-name="otilde" unicode="&#xf5;" horiz-adv-x="620" 
d="M46 254q0 110 77.5 188t186.5 78t186 -78t77 -188t-77 -187.5t-186 -77.5t-186.5 77.5t-77.5 187.5zM310 67q73 0 124.5 54.5t51.5 132.5t-51.5 132t-124.5 54q-74 0 -125 -54t-51 -132q0 -79 51 -133t125 -54zM382 678q39 0 57 44q4 10 9 12.5t15 -1.5l22 -10
q17 -6 9 -25q-34 -82 -106 -82q-45 0 -86 32q-42 32 -65 32q-39 0 -57 -44q-5 -10 -9 -12t-15 1l-23 10q-10 4 -11.5 9.5t2.5 15.5q34 82 107 82q43 0 87 -33q25 -19 36.5 -25t27.5 -6z" />
    <glyph glyph-name="odieresis" unicode="&#xf6;" horiz-adv-x="620" 
d="M46 254q0 110 77.5 188t186.5 78t186 -78t77 -188t-77 -187.5t-186 -77.5t-186.5 77.5t-77.5 187.5zM310 67q73 0 124.5 54.5t51.5 132.5t-51.5 132t-124.5 54q-74 0 -125 -54t-51 -132q0 -79 51 -133t125 -54zM162 674q0 21 14 35.5t35 14.5t35.5 -15t14.5 -35
q0 -21 -14.5 -35.5t-35.5 -14.5t-35 14.5t-14 35.5zM358 674q0 20 14.5 35t35.5 15q20 0 35 -15t15 -35q0 -21 -15 -35.5t-35 -14.5q-21 0 -35.5 14.5t-14.5 35.5z" />
    <glyph glyph-name="divide" unicode="&#xf7;" horiz-adv-x="543" 
d="M493 273h-441q-10 0 -13.5 4t-3.5 14v30q0 10 3.5 14t13.5 4h441q11 0 14.5 -3.5t3.5 -14.5v-31q0 -10 -4 -13.5t-14 -3.5zM220 112q0 23 14.5 38t36.5 15q23 0 38 -15.5t15 -37.5t-15 -36.5t-38 -14.5q-22 0 -36.5 14.5t-14.5 36.5zM220 493q0 23 14.5 38t36.5 15
t37.5 -15.5t15.5 -37.5t-15 -36.5t-38 -14.5q-22 0 -36.5 14.5t-14.5 36.5z" />
    <glyph glyph-name="oslash" unicode="&#xf8;" horiz-adv-x="617" 
d="M43 254q0 110 77.5 188t186.5 78q50 0 90 -17l20 35q8 16 24 16h30q25 0 15 -18l-34 -61q54 -37 86 -94.5t32 -126.5q0 -110 -77 -187.5t-186 -77.5q-49 0 -98 19l-17 -37q-7 -16 -24 -16h-29q-24 0 -15 18l31 64q-51 35 -81.5 93t-30.5 124zM307 67q73 0 124.5 54.5
t51.5 132.5q0 84 -71 144l-166 -318q30 -13 61 -13zM131 254q0 -35 14 -67.5t23 -43t27 -29.5l165 316q-27 10 -53 10q-74 0 -125 -54t-51 -132z" />
    <glyph glyph-name="ugrave" unicode="&#xf9;" horiz-adv-x="604" 
d="M434 98l10 -81q7 -17 19 -17h29q17 0 17 17v230v244q0 18 -17 18h-54q-17 0 -17 -18v-248q0 -76 -36 -125.5t-97 -49.5q-60 0 -95 43t-35 126v254q0 18 -17 18h-54q-17 0 -17 -18v-275q0 -116 54.5 -171.5t141.5 -55.5q103 0 168 109zM261 587l-87 79q-12 9 -5 23l22 35
q12 19 24 4l124 -132q19 -20 -2 -20h-48q-15 0 -28 11z" />
    <glyph glyph-name="uacute" unicode="&#xfa;" horiz-adv-x="604" 
d="M444 17l-10 81q-65 -109 -168 -109q-87 0 -141.5 55.5t-54.5 171.5v275q0 18 17 18h54q17 0 17 -18v-254q0 -83 35 -126t95 -43q61 0 97 49.5t36 125.5v248q0 18 17 18h54q17 0 17 -18v-244v-230q0 -17 -17 -17h-29q-12 0 -19 17zM392 666l-87 -79q-13 -11 -28 -11h-48
q-21 0 -2 20l124 132q12 15 24 -4l22 -35q7 -14 -5 -23z" />
    <glyph glyph-name="ucircumflex" unicode="&#xfb;" horiz-adv-x="604" 
d="M434 98l10 -81q7 -17 19 -17h29q17 0 17 17v230v244q0 18 -17 18h-54q-17 0 -17 -18v-248q0 -76 -36 -125.5t-97 -49.5q-60 0 -95 43t-35 126v254q0 18 -17 18h-54q-17 0 -17 -18v-275q0 -116 54.5 -171.5t141.5 -55.5q103 0 168 109zM275 753h34q12 -1 24 -18l101 -145
q12 -17 -7 -17h-35q-18 0 -28 17l-72 111l-73 -111q-10 -17 -27 -17h-36q-18 0 -7 17l101 145q12 17 25 18z" />
    <glyph glyph-name="udieresis" unicode="&#xfc;" horiz-adv-x="604" 
d="M434 98l10 -81q7 -17 19 -17h29q17 0 17 17v230v244q0 18 -17 18h-54q-17 0 -17 -18v-248q0 -76 -36 -125.5t-97 -49.5q-60 0 -95 43t-35 126v254q0 18 -17 18h-54q-17 0 -17 -18v-275q0 -116 54.5 -171.5t141.5 -55.5q103 0 168 109zM143 674q0 21 14 35.5t35 14.5
t35.5 -15t14.5 -35q0 -21 -14.5 -35.5t-35.5 -14.5t-35 14.5t-14 35.5zM339 674q0 20 14.5 35t35.5 15q20 0 35 -15t15 -35q0 -21 -15 -35.5t-35 -14.5q-21 0 -35.5 14.5t-14.5 35.5z" />
    <glyph glyph-name="yacute" unicode="&#xfd;" horiz-adv-x="522" 
d="M262 132l157 359q9 18 23 18h62q17 0 9 -18l-303 -678q-8 -17 -23 -17h-62q-17 0 -9 17l98 219l-206 459q-8 18 9 18h62q14 0 23 -18l159 -360zM357 666l-87 -79q-13 -11 -28 -11h-48q-21 0 -2 20l124 132q12 15 24 -4l22 -35q7 -14 -5 -23z" />
    <glyph glyph-name="thorn" unicode="&#xfe;" horiz-adv-x="649" 
d="M368 0h-188v-187q0 -10 -3.5 -13.5t-13.5 -3.5h-53q-10 0 -14 3.5t-4 13.5v882q0 11 4 14.5t14 3.5h53q10 0 13.5 -4t3.5 -14v-186h188q100 0 167 -73.5t67 -181.5q0 -109 -67 -181.5t-167 -72.5zM180 79h168q69 0 118 48t49 127q0 80 -49 128.5t-118 48.5h-168v-352z
" />
    <glyph glyph-name="ydieresis" unicode="&#xff;" horiz-adv-x="522" 
d="M262 132l157 359q9 18 23 18h62q17 0 9 -18l-303 -678q-8 -17 -23 -17h-62q-17 0 -9 17l98 219l-206 459q-8 18 9 18h62q14 0 23 -18l159 -360zM111 674q0 21 14 35.5t35 14.5t35.5 -15t14.5 -35q0 -21 -14.5 -35.5t-35.5 -14.5t-35 14.5t-14 35.5zM307 674q0 20 14.5 35
t35.5 15q20 0 35 -15t15 -35q0 -21 -15 -35.5t-35 -14.5q-21 0 -35.5 14.5t-14.5 35.5z" />
    <glyph glyph-name="Amacron" unicode="&#x100;" 
d="M361 556h-1l-137 -300h275zM376 700l330 -683q4 -7 0.5 -12t-11.5 -5h-69q-14 0 -23 17l-74 159h-338l-73 -159q-9 -17 -23 -17h-70q-7 0 -10.5 5t-0.5 12l331 683q8 16 14 16h3q4 0 14 -16zM482 839h-242q-10 0 -13.5 3.5t-3.5 13.5v30q0 10 3.5 14t13.5 4h242
q10 0 14 -4t4 -14v-30q0 -10 -4 -13.5t-14 -3.5z" />
    <glyph glyph-name="amacron" unicode="&#x101;" horiz-adv-x="562" 
d="M119 427q-10 -1 -14 2.5t-7 14.5l-9 35q-4 18 12 22q76 19 173 19q127 0 172.5 -56t45.5 -185v-262q0 -10 -3.5 -13.5t-13.5 -3.5h-33q-13 0 -18 17l-5 61q-71 -89 -196 -89q-75 0 -126 44t-51 122q0 79 54.5 120.5t146.5 41.5q74 0 157 -32q0 87 -29 122.5t-104 35.5
q-76 0 -152 -16zM266 252q-66 0 -99.5 -25.5t-33.5 -71.5q0 -42 30.5 -70t86.5 -28q44 0 86.5 25.5t67.5 60.5v77q-81 32 -138 32zM402 648h-242q-10 0 -13.5 3.5t-3.5 13.5v30q0 10 3.5 14t13.5 4h242q10 0 14 -3.5t4 -14.5v-30q0 -10 -4 -13.5t-14 -3.5z" />
    <glyph glyph-name="Abreve" unicode="&#x102;" 
d="M361 556h-1l-137 -300h275zM376 700l330 -683q4 -7 0.5 -12t-11.5 -5h-69q-14 0 -23 17l-74 159h-338l-73 -159q-9 -17 -23 -17h-70q-7 0 -10.5 5t-0.5 12l331 683q8 16 14 16h3q4 0 14 -16zM361 801q-105 0 -144 89q-8 21 4 27l28 15q13 7 20 -7q15 -36 35 -50.5
t57 -14.5t57 14.5t35 50.5q7 14 20 7l28 -15q12 -6 4 -27q-39 -89 -144 -89z" />
    <glyph glyph-name="abreve" unicode="&#x103;" horiz-adv-x="562" 
d="M119 427q-10 -1 -14 2.5t-7 14.5l-9 35q-4 18 12 22q76 19 173 19q127 0 172.5 -56t45.5 -185v-262q0 -10 -3.5 -13.5t-13.5 -3.5h-33q-13 0 -18 17l-5 61q-71 -89 -196 -89q-75 0 -126 44t-51 122q0 79 54.5 120.5t146.5 41.5q74 0 157 -32q0 87 -29 122.5t-104 35.5
q-76 0 -152 -16zM266 252q-66 0 -99.5 -25.5t-33.5 -71.5q0 -42 30.5 -70t86.5 -28q44 0 86.5 25.5t67.5 60.5v77q-81 32 -138 32zM283 610q-105 0 -144 89q-8 21 4 27l28 15q13 7 20 -7q15 -36 35 -50.5t57 -14.5t57 14.5t35 50.5q7 14 20 7l28 -15q12 -6 4 -27
q-39 -89 -144 -89z" />
    <glyph glyph-name="Aogonek" unicode="&#x104;" 
d="M606 13l-77 163h-338l-73 -159q-9 -17 -23 -17h-70q-7 0 -10.5 5t-0.5 12l331 683q8 16 14 16h3q5 0 13 -15l331 -684q4 -7 0.5 -12t-11.5 -5h-40q-27 -7 -56 -30t-29 -57q0 -75 57 -75q11 0 45 2q10 0 13.5 -3t3.5 -12v-14q0 -10 -3.5 -13t-13.5 -4q-25 -3 -52 -3
q-44 0 -73 26.5t-29 81.5q0 76 88 114zM360 557l-137 -301h274l-136 301h-1z" />
    <glyph glyph-name="aogonek" unicode="&#x105;" horiz-adv-x="559" 
d="M517 -206q-25 -3 -52 -3q-47 0 -79 27t-32 82q0 70 71 111q-4 14 -6 24l-5 30q-81 -76 -193 -76q-72 0 -123.5 44t-51.5 122q0 79 54 120.5t142 41.5q75 0 158 -32q0 87 -29.5 122.5t-104.5 35.5q-72 0 -146 -16q-11 -1 -15 2.5t-6 14.5l-9 35q-6 18 12 22q76 19 168 19
q127 0 172.5 -56t45.5 -185v-262q0 -17 -16 -17q-67 -34 -67 -87q0 -38 19.5 -56.5t47.5 -18.5q11 0 45 2q10 0 13.5 -3t3.5 -12v-14q0 -10 -3.5 -13t-13.5 -4zM262 252q-62 0 -95 -25.5t-33 -71.5q0 -42 31 -70t83 -28q40 0 82 22.5t70 50.5v90q-83 32 -138 32z" />
    <glyph glyph-name="Cacute" unicode="&#x106;" horiz-adv-x="725" 
d="M402 69q120 0 202 86q12 12 25 -1l35 -38q12 -14 0 -26q-48 -48 -118.5 -75.5t-143.5 -27.5q-148 0 -253.5 107t-105.5 256t105.5 256t253.5 107q73 0 143.5 -28t118.5 -75q11 -11 -1 -25l-35 -38q-13 -14 -26 -1q-80 85 -200 85q-111 0 -188 -85t-77 -196t77 -196
t188 -85zM478 857l-87 -79q-13 -11 -28 -11h-48q-21 0 -2 20l124 132q12 15 24 -4l22 -35q7 -14 -5 -23z" />
    <glyph glyph-name="cacute" unicode="&#x107;" horiz-adv-x="526" 
d="M306 68q79 0 131 52q12 10 25 -3l28 -31q10 -13 1 -22q-75 -75 -185 -75q-109 0 -186 77.5t-77 187.5t77 188t186 78q108 0 185 -75q10 -10 -1 -23l-28 -30q-13 -14 -25 -3q-51 51 -131 51q-73 0 -124.5 -54t-51.5 -132t51.5 -132t124.5 -54zM409 666l-87 -79
q-13 -11 -28 -11h-48q-21 0 -2 20l124 132q12 15 24 -4l22 -35q7 -14 -5 -23z" />
    <glyph glyph-name="Ccircumflex" unicode="&#x108;" horiz-adv-x="725" 
d="M402 69q-111 0 -188 85t-77 196t77 196t188 85q120 0 200 -85q13 -13 26 1l35 38q12 14 1 25q-48 47 -118.5 75t-143.5 28q-148 0 -253.5 -107t-105.5 -256t105.5 -256t253.5 -107q73 0 143.5 27.5t118.5 75.5q12 12 0 26l-35 38q-13 13 -25 1q-82 -86 -202 -86zM383 944
h34q12 -1 24 -18l101 -145q12 -17 -7 -17h-35q-18 0 -28 17l-72 111l-73 -111q-10 -17 -27 -17h-36q-18 0 -7 17l101 145q12 17 25 18z" />
    <glyph glyph-name="ccircumflex" unicode="&#x109;" horiz-adv-x="526" 
d="M306 68q79 0 131 52q12 10 25 -3l28 -31q10 -13 1 -22q-75 -75 -185 -75q-109 0 -186 77.5t-77 187.5t77 188t186 78q108 0 185 -75q10 -10 -1 -23l-28 -30q-13 -14 -25 -3q-51 51 -131 51q-73 0 -124.5 -54t-51.5 -132t51.5 -132t124.5 -54zM280 753h34q12 -1 24 -18
l101 -145q12 -17 -7 -17h-35q-18 0 -28 17l-72 111l-73 -111q-10 -17 -27 -17h-36q-18 0 -7 17l101 145q12 17 25 18z" />
    <glyph glyph-name="Cdotaccent" unicode="&#x10a;" horiz-adv-x="725" 
d="M402 69q-111 0 -188 85t-77 196t77 196t188 85q120 0 200 -85q13 -13 26 1l35 38q12 14 1 25q-48 47 -118.5 75t-143.5 28q-148 0 -253.5 -107t-105.5 -256t105.5 -256t253.5 -107q73 0 143.5 27.5t118.5 75.5q12 12 0 26l-35 38q-13 13 -25 1q-82 -86 -202 -86zM338 864
q0 24 17 41.5t41 17.5t41.5 -17.5t17.5 -41.5t-17.5 -41t-41.5 -17t-41 17t-17 41z" />
    <glyph glyph-name="cdotaccent" unicode="&#x10b;" horiz-adv-x="526" 
d="M306 68q79 0 131 52q12 10 25 -3l28 -31q10 -13 1 -22q-75 -75 -185 -75q-109 0 -186 77.5t-77 187.5t77 188t186 78q108 0 185 -75q10 -10 -1 -23l-28 -30q-13 -14 -25 -3q-51 51 -131 51q-73 0 -124.5 -54t-51.5 -132t51.5 -132t124.5 -54zM243 673q0 24 17 41.5
t41 17.5t41.5 -17.5t17.5 -41.5t-17.5 -41t-41.5 -17t-41 17t-17 41z" />
    <glyph glyph-name="Ccaron" unicode="&#x10c;" horiz-adv-x="725" 
d="M402 69q-111 0 -188 85t-77 196t77 196t188 85q120 0 200 -85q13 -13 26 1l35 38q12 14 1 25q-48 47 -118.5 75t-143.5 28q-148 0 -253.5 -107t-105.5 -256t105.5 -256t253.5 -107q73 0 143.5 27.5t118.5 75.5q12 12 0 26l-35 38q-13 13 -25 1q-82 -86 -202 -86zM410 764
h-34q-11 0 -25 17l-101 145q-11 18 7 18h36q17 0 27 -18l73 -110l72 110q11 18 28 18h35q19 0 7 -18l-101 -145q-14 -17 -24 -17z" />
    <glyph glyph-name="ccaron" unicode="&#x10d;" horiz-adv-x="526" 
d="M306 68q79 0 131 52q12 10 25 -3l28 -31q10 -13 1 -22q-75 -75 -185 -75q-109 0 -186 77.5t-77 187.5t77 188t186 78q108 0 185 -75q10 -10 -1 -23l-28 -30q-13 -14 -25 -3q-51 51 -131 51q-73 0 -124.5 -54t-51.5 -132t51.5 -132t124.5 -54zM313 573h-34q-11 0 -25 17
l-101 145q-11 18 7 18h36q16 0 27 -18l73 -110l72 110q10 18 28 18h35q19 0 7 -18l-101 -145q-14 -17 -24 -17z" />
    <glyph glyph-name="Dcaron" unicode="&#x10e;" horiz-adv-x="752" 
d="M108 700h248q148 0 248.5 -100.5t100.5 -249.5t-100.5 -249.5t-248.5 -100.5h-248q-17 0 -17 17v665q0 18 17 18zM355 621h-171v-542h171q114 0 185 79.5t71 191.5t-71 191.5t-185 79.5zM364 764h-34q-11 0 -25 17l-101 145q-10 18 7 18h36q17 0 27 -18l73 -110l72 110
q11 18 28 18h35q19 0 7 -18l-101 -145q-14 -17 -24 -17z" />
    <glyph glyph-name="dcaron" unicode="&#x10f;" horiz-adv-x="751" 
d="M456 411v309q0 18 17 18h54q10 0 13.5 -4t3.5 -14v-703q0 -10 -3.5 -13.5t-13.5 -3.5h-27q-12 0 -20 17l-10 84q-15 -21 -27.5 -35t-36.5 -34.5t-57 -31.5t-72 -11q-102 0 -166.5 77t-64.5 188q0 112 64.5 189t166.5 77q50 0 92 -23t59.5 -44.5t27.5 -41.5zM295 67
q71 0 116.5 56t45.5 131t-45.5 130.5t-116.5 55.5t-116 -54.5t-45 -131.5q0 -80 44.5 -133.5t116.5 -53.5zM741 609h-7q-26 0 -44.5 18.5t-18.5 45.5t18.5 46t45.5 19q30 0 49 -22.5t19 -61.5q0 -136 -122 -201q-9 -3 -12 2l-16 25q-4 7 3 12q73 46 85 117z" />
    <glyph glyph-name="Dcroat" unicode="&#x110;" horiz-adv-x="794" 
d="M30 393h101v289q0 18 17 18h248q148 0 248.5 -100.5t100.5 -249.5t-100.5 -249.5t-248.5 -100.5h-248q-17 0 -17 17v299h-101q-18 0 -18 18v41q0 18 18 18zM395 621h-171v-228h159q17 0 17 -18v-41q0 -18 -17 -18h-159v-237h171q114 0 185 79.5t71 191.5t-71 191.5
t-185 79.5z" />
    <glyph glyph-name="dcroat" unicode="&#x111;" horiz-adv-x="635" 
d="M589 568h-45v-551q0 -17 -17 -17h-28q-12 0 -19 17l-10 84q-15 -21 -27.5 -35t-36.5 -34.5t-57 -31.5t-72 -11q-102 0 -166.5 77t-64.5 188q0 112 64.5 189t166.5 77q50 0 92 -23t59.5 -44.5t27.5 -41.5v157h-101q-18 0 -18 17v26q0 10 4 13.5t14 3.5h101v77q0 18 17 18
h54q17 0 17 -18v-77h45q10 0 14 -3.5t4 -13.5v-26q0 -17 -18 -17zM295 67q70 0 115.5 56.5t45.5 130.5q0 75 -45.5 130.5t-115.5 55.5q-71 0 -116 -54.5t-45 -131.5q0 -80 44.5 -133.5t116.5 -53.5z" />
    <glyph glyph-name="Emacron" unicode="&#x112;" horiz-adv-x="635" 
d="M551 0h-446q-10 0 -14 3.5t-4 13.5v665q0 18 18 18h446q18 0 18 -18v-45q0 -18 -18 -18h-371v-226h355q10 0 13.5 -3.5t3.5 -13.5v-46q0 -10 -3.5 -13.5t-13.5 -3.5h-355v-233h371q10 0 14 -3.5t4 -13.5v-46q0 -10 -4 -13.5t-14 -3.5zM448 843h-242q-10 0 -13.5 3.5
t-3.5 13.5v30q0 10 3.5 14t13.5 4h242q10 0 14 -4t4 -14v-30q0 -10 -4 -13.5t-14 -3.5z" />
    <glyph glyph-name="emacron" unicode="&#x113;" horiz-adv-x="597" 
d="M515 83l-23 27q-8 11 -25 1q-68 -46 -150 -46q-70 0 -122 47t-58 112h403q10 0 13 4t3 14q0 118 -66.5 198t-180.5 80q-109 0 -186 -78t-77 -188t77.5 -187.5t190.5 -77.5q57 0 112.5 18.5t89.5 51.5q10 10 -1 24zM466 284h-327q3 64 50.5 113t117.5 49q68 0 111.5 -48.5
t47.5 -113.5zM430 648h-242q-10 0 -13.5 3.5t-3.5 13.5v30q0 10 3.5 14t13.5 4h242q10 0 14 -3.5t4 -14.5v-30q0 -10 -4 -13.5t-14 -3.5z" />
    <glyph glyph-name="Ebreve" unicode="&#x114;" horiz-adv-x="635" 
d="M551 0h-446q-10 0 -14 3.5t-4 13.5v665q0 18 18 18h446q18 0 18 -18v-45q0 -18 -18 -18h-371v-226h355q10 0 13.5 -3.5t3.5 -13.5v-46q0 -10 -3.5 -13.5t-13.5 -3.5h-355v-233h371q10 0 14 -3.5t4 -13.5v-46q0 -10 -4 -13.5t-14 -3.5zM328 801q-105 0 -144 89q-8 21 4 27
l28 15q13 7 20 -7q15 -36 35 -50.5t57 -14.5t57 14.5t35 50.5q7 14 20 7l28 -15q12 -6 4 -27q-39 -89 -144 -89z" />
    <glyph glyph-name="ebreve" unicode="&#x115;" horiz-adv-x="597" 
d="M515 83l-23 27q-8 11 -25 1q-68 -46 -150 -46q-70 0 -122 47t-58 112h403q10 0 13 4t3 14q0 118 -66.5 198t-180.5 80q-109 0 -186 -78t-77 -188t77.5 -187.5t190.5 -77.5q57 0 112.5 18.5t89.5 51.5q10 10 -1 24zM466 284h-327q3 64 50.5 113t117.5 49q68 0 111.5 -48.5
t47.5 -113.5zM307 610q-105 0 -144 89q-8 21 4 27l28 15q13 7 20 -7q15 -36 35 -50.5t57 -14.5t57 14.5t35 50.5q7 14 20 7l28 -15q12 -6 4 -27q-39 -89 -144 -89z" />
    <glyph glyph-name="Edotaccent" unicode="&#x116;" horiz-adv-x="635" 
d="M551 0h-446q-10 0 -14 3.5t-4 13.5v665q0 18 18 18h446q18 0 18 -18v-45q0 -18 -18 -18h-371v-226h355q10 0 13.5 -3.5t3.5 -13.5v-46q0 -10 -3.5 -13.5t-13.5 -3.5h-355v-233h371q10 0 14 -3.5t4 -13.5v-46q0 -10 -4 -13.5t-14 -3.5zM277 864q0 24 17 41.5t41 17.5
t41.5 -17.5t17.5 -41.5t-17.5 -41t-41.5 -17t-41 17t-17 41z" />
    <glyph glyph-name="edotaccent" unicode="&#x117;" horiz-adv-x="597" 
d="M515 83l-23 27q-8 11 -25 1q-68 -46 -150 -46q-70 0 -122 47t-58 112h403q10 0 13 4t3 14q0 118 -66.5 198t-180.5 80q-109 0 -186 -78t-77 -188t77.5 -187.5t190.5 -77.5q57 0 112.5 18.5t89.5 51.5q10 10 -1 24zM466 284h-327q3 64 50.5 113t117.5 49q68 0 111.5 -48.5
t47.5 -113.5zM247 673q0 24 17 41.5t41 17.5t41.5 -17.5t17.5 -41.5t-17.5 -41t-41.5 -17t-41 17t-17 41z" />
    <glyph glyph-name="Eogonek" unicode="&#x118;" horiz-adv-x="632" 
d="M567 0q-26 -7 -54 -30t-28 -57q0 -75 57 -75q11 0 45 2q10 0 14 -3t4 -12v-14q0 -16 -18 -17q-25 -3 -52 -3q-45 0 -73.5 26t-28.5 82t58 101h-380q-10 0 -14 3.5t-4 13.5v665q0 18 18 18h446q18 0 18 -18v-45q0 -18 -18 -18h-371v-226h348q10 0 14 -3.5t4 -13.5v-46
q0 -10 -4 -13.5t-14 -3.5h-348v-233h371q10 0 14 -3.5t4 -13.5v-46q0 -14 -8 -17z" />
    <glyph glyph-name="eogonek" unicode="&#x119;" horiz-adv-x="597" 
d="M334 -10q-49 -32 -49 -77q0 -38 19.5 -56.5t47.5 -18.5q11 0 45 2q10 0 13.5 -3t3.5 -12v-14q0 -10 -3.5 -13t-13.5 -4q-23 -3 -50 -3q-48 0 -80.5 27t-32.5 82q0 54 42 91q-96 12 -163 86t-67 177q0 110 77 188t186 78q113 0 180 -78t67 -187v-13q0 -10 -3 -14t-13 -4
h-403q6 -65 58 -112t122 -47q82 0 150 46q17 10 25 -1l23 -27q11 -14 2 -23q-32 -31 -82 -49.5t-101 -20.5zM139 284h327q-4 65 -47.5 113.5t-111.5 48.5q-70 0 -117.5 -49t-50.5 -113z" />
    <glyph glyph-name="Ecaron" unicode="&#x11a;" horiz-adv-x="640" 
d="M551 0h-446q-10 0 -14 3.5t-4 13.5v665q0 18 18 18h446q18 0 18 -18v-45q0 -18 -18 -18h-371v-226h355q10 0 13.5 -3.5t3.5 -13.5v-46q0 -10 -3.5 -13.5t-13.5 -3.5h-355v-233h371q10 0 14 -3.5t4 -13.5v-46q0 -10 -4 -13.5t-14 -3.5zM345 764h-34q-11 0 -25 17l-101 145
q-11 18 7 18h36q16 0 27 -18l73 -110l72 110q10 18 28 18h35q19 0 7 -18l-101 -145q-14 -17 -24 -17z" />
    <glyph glyph-name="ecaron" unicode="&#x11b;" horiz-adv-x="597" 
d="M515 83l-23 27q-8 11 -25 1q-68 -46 -150 -46q-70 0 -122 47t-58 112h403q10 0 13 4t3 14q0 118 -66.5 198t-180.5 80q-109 0 -186 -78t-77 -188t77.5 -187.5t190.5 -77.5q57 0 112.5 18.5t89.5 51.5q10 10 -1 24zM466 284h-327q3 64 50.5 113t117.5 49q68 0 111.5 -48.5
t47.5 -113.5zM317 573h-34q-11 0 -25 17l-101 145q-11 18 7 18h36q16 0 27 -18l73 -110l72 110q10 18 28 18h35q19 0 7 -18l-101 -145q-14 -17 -24 -17z" />
    <glyph glyph-name="Gcircumflex" unicode="&#x11c;" horiz-adv-x="753" 
d="M405 631q56 0 110 -24t89 -61q13 -12 26 1l35 39q13 14 2 25q-51 47 -120.5 74.5t-141.5 27.5q-148 0 -252.5 -107t-104.5 -256t104.5 -256t252.5 -107q74 0 147 28.5t122 76.5q16 16 16 36v223q0 10 -3.5 13.5t-13.5 3.5h-251q-10 0 -14 -3.5t-4 -13.5v-46
q0 -10 4 -13.5t14 -3.5h175v-150q-80 -69 -192 -69q-111 0 -187 85t-76 196t76 196t187 85zM374 944h34q12 -1 24 -18l101 -145q12 -17 -7 -17h-35q-18 0 -28 17l-72 111l-73 -111q-10 -17 -27 -17h-36q-18 0 -7 17l101 145q12 17 25 18z" />
    <glyph glyph-name="gcircumflex" unicode="&#x11d;" horiz-adv-x="634" 
d="M456 98v-70q0 -197 -162 -197q-75 0 -166 34q-9 4 -12.5 2t-5.5 -12l-12 -46q-2 -9 0 -12.5t10 -7.5q98 -36 199 -36q237 0 237 285v453q0 10 -3.5 14t-13.5 4h-27q-12 0 -20 -18l-10 -83q-15 21 -27.5 35t-36.5 34.5t-57 31.5t-72 11q-102 0 -166.5 -77.5t-64.5 -188.5
q0 -112 64.5 -188.5t166.5 -76.5q39 0 72.5 12.5t54.5 32t33.5 35t18.5 29.5zM295 442q71 0 116.5 -56.5t45.5 -130.5q0 -75 -46 -131t-116 -56q-71 0 -116 55t-45 131q0 80 44.5 134t116.5 54zM295 753h34q12 -1 24 -18l101 -145q12 -17 -7 -17h-35q-18 0 -28 17l-72 111
l-73 -111q-10 -17 -27 -17h-36q-18 0 -7 17l101 145q12 17 25 18z" />
    <glyph glyph-name="Gbreve" unicode="&#x11e;" horiz-adv-x="753" 
d="M405 631q56 0 110 -24t89 -61q13 -12 26 1l35 39q13 14 2 25q-51 47 -120.5 74.5t-141.5 27.5q-148 0 -252.5 -107t-104.5 -256t104.5 -256t252.5 -107q74 0 147 28.5t122 76.5q16 16 16 36v223q0 10 -3.5 13.5t-13.5 3.5h-251q-10 0 -14 -3.5t-4 -13.5v-46
q0 -10 4 -13.5t14 -3.5h175v-150q-80 -69 -192 -69q-111 0 -187 85t-76 196t76 196t187 85zM388 801q-105 0 -144 89q-8 21 4 27l28 15q13 7 20 -7q15 -36 35 -50.5t57 -14.5t57 14.5t35 50.5q7 14 20 7l28 -15q12 -6 4 -27q-39 -89 -144 -89z" />
    <glyph glyph-name="gbreve" unicode="&#x11f;" horiz-adv-x="634" 
d="M311 610q-105 0 -144 89q-8 21 4 27l28 15q13 7 20 -7q15 -36 35 -50.5t57 -14.5t57 14.5t35 50.5q7 14 20 7l28 -15q12 -6 4 -27q-39 -89 -144 -89zM456 98v-70q0 -197 -162 -197q-75 0 -166 34q-9 4 -12.5 2t-5.5 -12l-12 -46q-2 -9 0 -12.5t10 -7.5q98 -36 199 -36
q237 0 237 285v453q0 10 -3.5 14t-13.5 4h-27q-12 0 -20 -18l-10 -83q-15 21 -27.5 35t-36.5 34.5t-57 31.5t-72 11q-102 0 -166.5 -77.5t-64.5 -188.5q0 -112 64.5 -188.5t166.5 -76.5q39 0 72.5 12.5t54.5 32t33.5 35t18.5 29.5zM295 442q71 0 116.5 -56.5t45.5 -130.5
q0 -75 -46 -131t-116 -56q-71 0 -116 55t-45 131q0 80 44.5 134t116.5 54z" />
    <glyph glyph-name="Gdotaccent" unicode="&#x120;" horiz-adv-x="753" 
d="M405 631q56 0 110 -24t89 -61q13 -12 26 1l35 39q13 14 2 25q-51 47 -120.5 74.5t-141.5 27.5q-148 0 -252.5 -107t-104.5 -256t104.5 -256t252.5 -107q74 0 147 28.5t122 76.5q16 16 16 36v223q0 10 -3.5 13.5t-13.5 3.5h-251q-10 0 -14 -3.5t-4 -13.5v-46
q0 -10 4 -13.5t14 -3.5h175v-150q-80 -69 -192 -69q-111 0 -187 85t-76 196t76 196t187 85zM331 864q0 24 17 41.5t41 17.5t41.5 -17.5t17.5 -41.5t-17.5 -41t-41.5 -17t-41 17t-17 41z" />
    <glyph glyph-name="gdotaccent" unicode="&#x121;" horiz-adv-x="634" 
d="M456 98v-70q0 -197 -162 -197q-75 0 -166 34q-9 4 -12.5 2t-5.5 -12l-12 -46q-2 -9 0 -12.5t10 -7.5q98 -36 199 -36q237 0 237 285v453q0 10 -3.5 14t-13.5 4h-27q-12 0 -20 -18l-10 -83q-15 21 -27.5 35t-36.5 34.5t-57 31.5t-72 11q-102 0 -166.5 -77.5t-64.5 -188.5
q0 -112 64.5 -188.5t166.5 -76.5q39 0 72.5 12.5t54.5 32t33.5 35t18.5 29.5zM295 442q71 0 116.5 -56.5t45.5 -130.5q0 -75 -46 -131t-116 -56q-71 0 -116 55t-45 131q0 80 44.5 134t116.5 54zM245 673q0 24 17 41.5t41 17.5t41.5 -17.5t17.5 -41.5t-17.5 -41t-41.5 -17
t-41 17t-17 41z" />
    <glyph glyph-name="uni0122" unicode="&#x122;" horiz-adv-x="753" 
d="M413 -233h-6q-27 1 -45 19.5t-18 44.5q0 27 18.5 46t45.5 19q30 0 49 -22.5t19 -61.5q0 -69 -33.5 -120t-89.5 -80q-7 -5 -12 1l-16 25q-4 7 4 12q74 48 84 117zM405 631q-111 0 -187 -85t-76 -196t76 -196t187 -85q112 0 192 69v150h-175q-10 0 -14 3.5t-4 13.5v46
q0 10 4 13.5t14 3.5h251q10 0 13.5 -3.5t3.5 -13.5v-223q0 -20 -16 -36q-49 -48 -122 -76.5t-147 -28.5q-148 0 -252.5 107t-104.5 256t104.5 256t252.5 107q72 0 141.5 -27.5t120.5 -74.5q11 -11 -2 -25l-35 -39q-13 -13 -26 -1q-35 37 -89 61t-110 24z" />
    <glyph glyph-name="uni0123" unicode="&#x123;" horiz-adv-x="634" 
d="M307 720h7q26 0 44.5 -18.5t18.5 -45.5t-18.5 -46t-45.5 -19q-30 0 -49 22.5t-19 61.5q0 136 122 201q9 3 12 -2l16 -25q4 -7 -3 -12q-73 -46 -85 -117zM456 98v-70q0 -197 -162 -197q-75 0 -166 34q-9 4 -12.5 2t-5.5 -12l-12 -46q-2 -9 0 -12.5t10 -7.5q98 -36 199 -36
q237 0 237 285v453q0 10 -3.5 14t-13.5 4h-27q-12 0 -20 -18l-10 -83q-15 21 -27.5 35t-36.5 34.5t-57 31.5t-72 11q-102 0 -166.5 -77.5t-64.5 -188.5q0 -112 64.5 -188.5t166.5 -76.5q39 0 72.5 12.5t54.5 32t33.5 35t18.5 29.5zM295 442q71 0 116.5 -56.5t45.5 -130.5
q0 -75 -46 -131t-116 -56q-71 0 -116 55t-45 131q0 80 44.5 134t116.5 54z" />
    <glyph glyph-name="Hcircumflex" unicode="&#x124;" horiz-adv-x="758" 
d="M566 391v291q0 10 4 14t14 4h58q10 0 13.5 -4t3.5 -14v-665q0 -10 -3.5 -13.5t-13.5 -3.5h-58q-10 0 -14 3.5t-4 13.5v292h-375v-292q0 -10 -3.5 -13.5t-13.5 -3.5h-58q-10 0 -14 3.5t-4 13.5v665q0 10 4 14t14 4h58q10 0 13.5 -4t3.5 -14v-291h375zM362 944h34
q12 -1 24 -18l101 -145q12 -17 -7 -17h-35q-18 0 -28 17l-72 111l-73 -111q-10 -17 -27 -17h-36q-18 0 -7 17l101 145q12 17 25 18z" />
    <glyph glyph-name="hcircumflex" unicode="&#x125;" horiz-adv-x="601" 
d="M180 423v297q0 10 -3.5 14t-13.5 4h-54q-17 0 -17 -18v-458v-245q0 -17 17 -17h54q10 0 13.5 3.5t3.5 13.5v249q0 75 36 124.5t97 49.5q60 0 95 -42.5t35 -126.5v-254q0 -17 17 -17h54q10 0 13.5 3.5t3.5 13.5v276q0 116 -54.5 171.5t-141.5 55.5q-96 0 -155 -97z
M120 944h34q12 -1 24 -18l101 -145q12 -17 -7 -17h-35q-18 0 -28 17l-72 111l-73 -111q-10 -17 -27 -17h-36q-18 0 -7 17l101 145q12 17 25 18z" />
    <glyph glyph-name="Hbar" unicode="&#x126;" horiz-adv-x="742" 
d="M728 505h-77v-488q0 -10 -3.5 -13.5t-13.5 -3.5h-58q-10 0 -14 3.5t-4 13.5v292h-375v-292q0 -10 -3.5 -13.5t-13.5 -3.5h-58q-10 0 -14 3.5t-4 13.5v488h-76q-10 0 -14 3.5t-4 13.5v26q0 10 4 13.5t14 3.5h76v117q0 10 4 14t14 4h58q10 0 13.5 -4t3.5 -14v-117h375v117
q0 10 4 14t14 4h58q10 0 13.5 -4t3.5 -14v-117h77q10 0 13.5 -3.5t3.5 -13.5v-26q0 -10 -3.5 -13.5t-13.5 -3.5zM558 391v114h-375v-114h375z" />
    <glyph glyph-name="hbar" unicode="&#x127;" horiz-adv-x="607" 
d="M111 627v78q0 10 3.5 14t13.5 4h54q17 0 17 -18v-78h115q10 0 13.5 -3.5t3.5 -13.5v-26q0 -10 -3.5 -13.5t-13.5 -3.5h-115v-146q60 99 151 99q191 0 191 -231v-272q0 -10 -3.5 -13.5t-13.5 -3.5h-54q-10 0 -13.5 3.5t-3.5 13.5v250q0 173 -122 173q-58 0 -95 -53.5
t-37 -132.5v-237q0 -10 -3.5 -13.5t-13.5 -3.5h-54q-10 0 -13.5 3.5t-3.5 13.5v550h-52q-10 0 -14 3.5t-4 13.5v26q0 10 4 13.5t14 3.5h52z" />
    <glyph glyph-name="Itilde" unicode="&#x128;" horiz-adv-x="291" 
d="M98 17v665q0 10 4 14t14 4h58q10 0 13.5 -4t3.5 -14v-665q0 -10 -3.5 -13.5t-13.5 -3.5h-58q-10 0 -14 3.5t-4 13.5zM218 869q39 0 57 44q4 10 9 12.5t15 -1.5l22 -10q17 -6 9 -25q-34 -82 -106 -82q-45 0 -86 32q-42 32 -65 32q-39 0 -57 -44q-5 -10 -9 -12t-15 1
l-23 10q-10 4 -11.5 9.5t2.5 15.5q34 82 107 82q43 0 87 -33q25 -19 36.5 -25t27.5 -6z" />
    <glyph glyph-name="itilde" unicode="&#x129;" horiz-adv-x="292" 
d="M101 17v474q0 11 3.5 14.5t14.5 3.5h53q10 0 13.5 -4t3.5 -14v-474q0 -10 -3.5 -13.5t-13.5 -3.5h-53q-10 0 -14 3.5t-4 13.5zM218 678q39 0 57 44q4 10 9 12.5t15 -1.5l22 -10q17 -6 9 -25q-34 -82 -106 -82q-45 0 -86 32q-42 32 -65 32q-39 0 -57 -44q-5 -10 -9 -12
t-15 1l-23 10q-10 4 -11.5 9.5t2.5 15.5q34 82 107 82q43 0 87 -33q25 -19 36.5 -25t27.5 -6z" />
    <glyph glyph-name="Imacron" unicode="&#x12a;" horiz-adv-x="299" 
d="M102 17v665q0 10 4 14t14 4h58q10 0 13.5 -4t3.5 -14v-665q0 -10 -3.5 -13.5t-13.5 -3.5h-58q-10 0 -14 3.5t-4 13.5zM270 839h-242q-10 0 -13.5 3.5t-3.5 13.5v30q0 10 3.5 14t13.5 4h242q10 0 14 -4t4 -14v-30q0 -10 -4 -13.5t-14 -3.5z" />
    <glyph glyph-name="imacron" unicode="&#x12b;" horiz-adv-x="292" 
d="M101 17v474q0 11 3.5 14.5t14.5 3.5h53q10 0 13.5 -4t3.5 -14v-474q0 -10 -3.5 -13.5t-13.5 -3.5h-53q-10 0 -14 3.5t-4 13.5zM267 648h-242q-10 0 -13.5 3.5t-3.5 13.5v30q0 10 3.5 14t13.5 4h242q11 0 14.5 -3.5t3.5 -14.5v-30q0 -10 -4 -13.5t-14 -3.5z" />
    <glyph glyph-name="Ibreve" unicode="&#x12c;" horiz-adv-x="290" 
d="M98 17v665q0 10 4 14t14 4h58q10 0 13.5 -4t3.5 -14v-665q0 -10 -3.5 -13.5t-13.5 -3.5h-58q-10 0 -14 3.5t-4 13.5zM145 801q-105 0 -144 89q-8 21 4 27l28 15q13 7 20 -7q15 -36 35 -50.5t57 -14.5t57 14.5t35 50.5q7 14 20 7l28 -15q12 -6 4 -27q-39 -89 -144 -89z
" />
    <glyph glyph-name="ibreve" unicode="&#x12d;" horiz-adv-x="283" 
d="M97 17v474q0 11 3.5 14.5t14.5 3.5h53q10 0 13.5 -4t3.5 -14v-474q0 -10 -3.5 -13.5t-13.5 -3.5h-53q-10 0 -14 3.5t-4 13.5zM141 610q-105 0 -144 89q-8 21 4 27l28 15q13 7 20 -7q15 -36 35 -50.5t57 -14.5t57 14.5t35 50.5q7 14 20 7l28 -15q12 -6 4 -27
q-39 -89 -144 -89z" />
    <glyph glyph-name="Iogonek" unicode="&#x12e;" horiz-adv-x="299" 
d="M103 24v658q0 10 3.5 14t13.5 4h58q18 0 18 -18v-665q0 -10 -4 -13.5t-14 -3.5h-3q-25 -7 -53 -30t-28 -57q0 -75 57 -75q11 0 45 2q10 0 13.5 -3t3.5 -12v-14q0 -10 -3.5 -13t-13.5 -4q-25 -3 -52 -3q-45 0 -73.5 26t-28.5 82q0 72 83 109h-9q-13 0 -13 16z" />
    <glyph glyph-name="iogonek" unicode="&#x12f;" horiz-adv-x="288" 
d="M103 24v467q0 10 3.5 14t13.5 4h53q18 0 18 -18v-474q0 -17 -16 -17q-25 -7 -53 -30t-28 -57q0 -75 57 -75q11 0 45 2q10 0 13.5 -3t3.5 -12v-14q0 -10 -3.5 -13t-13.5 -4q-25 -3 -52 -3q-45 0 -73.5 26t-28.5 82q0 72 83 109h-9q-8 0 -10.5 3t-2.5 13zM89 673
q0 24 17 41.5t41 17.5t41 -17.5t17 -41.5t-17 -41t-41 -17q-25 0 -41.5 17t-16.5 41z" />
    <glyph glyph-name="Idotaccent" unicode="&#x130;" horiz-adv-x="313" 
d="M109 17v665q0 10 3.5 14t14.5 4h58q10 0 13.5 -4t3.5 -14v-665q0 -10 -3.5 -13.5t-13.5 -3.5h-58q-10 0 -14 3.5t-4 13.5zM98 865q0 24 17 41.5t41 17.5t41.5 -17.5t17.5 -41.5t-17.5 -41t-41.5 -17t-41 17t-17 41z" />
    <glyph glyph-name="dotlessi" unicode="&#x131;" horiz-adv-x="283" 
d="M97 17v474q0 11 3.5 14.5t14.5 3.5h53q10 0 13.5 -4t3.5 -14v-474q0 -10 -3.5 -13.5t-13.5 -3.5h-53q-10 0 -14 3.5t-4 13.5z" />
    <glyph glyph-name="IJ" unicode="&#x132;" horiz-adv-x="734" 
d="M98 17v665q0 10 4 14t14 4h58q10 0 13.5 -4t3.5 -14v-665q0 -10 -3.5 -13.5t-13.5 -3.5h-58q-10 0 -14 3.5t-4 13.5zM416 627h152v-355q0 -107 -52.5 -154.5t-176.5 -47.5q-11 0 -16.5 -4t-4.5 -14l6 -48q2 -10 5.5 -13.5t16.5 -3.5q157 1 236 67.5t79 217.5v410
q0 10 -3.5 14t-13.5 4h-228q-10 0 -14 -4t-4 -14v-38q0 -10 4 -13.5t14 -3.5z" />
    <glyph glyph-name="ij" unicode="&#x133;" horiz-adv-x="700" 
d="M113 17v474q0 11 3.5 14.5t14.5 3.5h53q10 0 13.5 -4t3.5 -14v-474q0 -10 -3.5 -13.5t-13.5 -3.5h-53q-10 0 -14 3.5t-4 13.5zM98 673q0 24 17 41.5t41 17.5t41.5 -17.5t17.5 -41.5t-17.5 -41t-41.5 -17t-41 17t-17 41zM493 673q0 24 17 41.5t41 17.5t41.5 -17.5
t17.5 -41.5t-17.5 -41t-41.5 -17t-41 17t-17 41zM362 454v37q0 18 18 18h200q10 0 13.5 -4t3.5 -14v-504q0 -223 -186 -223q-58 0 -99 26q-11 8 -8 22l8 38q2 12 6 13.5t15 -3.5q29 -17 70 -17q56 0 81.5 34.5t25.5 114.5v424v20h-130q-18 0 -18 18z" />
    <glyph glyph-name="Jcircumflex" unicode="&#x134;" horiz-adv-x="471" 
d="M136 627h152v-355q0 -107 -52.5 -154.5t-176.5 -47.5q-11 0 -16.5 -4t-4.5 -14l6 -48q2 -10 5.5 -13.5t16.5 -3.5q157 1 236 67.5t79 217.5v410q0 10 -3.5 14t-13.5 4h-228q-10 0 -14 -4t-4 -14v-38q0 -10 4 -13.5t14 -3.5zM235 944h34q12 -1 24 -18l101 -145
q12 -17 -7 -17h-35q-18 0 -28 17l-72 111l-73 -111q-10 -17 -27 -17h-36q-18 0 -7 17l101 145q12 17 25 18z" />
    <glyph glyph-name="jcircumflex" unicode="&#x135;" horiz-adv-x="411" 
d="M52 454v37q0 18 18 18h200q10 0 13.5 -4t3.5 -14v-504q0 -223 -186 -223q-58 0 -99 26q-11 8 -8 22l8 38q2 12 6 13.5t15 -3.5q29 -17 70 -17q56 0 81.5 34.5t25.5 114.5v424v20h-130q-18 0 -18 18zM154 753h34q12 -1 24 -18l101 -145q12 -17 -7 -17h-35q-18 0 -28 17
l-72 111l-73 -111q-10 -17 -27 -17h-36q-18 0 -7 17l101 145q12 17 25 18z" />
    <glyph glyph-name="uni0136" unicode="&#x136;" horiz-adv-x="657" 
d="M274 366l354 -349q16 -17 -6 -17h-79q-14 0 -28 17l-323 318v-318q0 -10 -4 -13.5t-14 -3.5h-58q-10 0 -14 3.5t-4 13.5v665q0 10 4 14t14 4h58q18 0 18 -18v-289l306 289q17 18 30 18h76q22 0 7 -18zM351 -233h-6q-27 1 -45 19.5t-18 44.5q0 27 18.5 46t45.5 19
q30 0 49 -22.5t19 -61.5q0 -69 -33.5 -120t-89.5 -80q-7 -5 -12 1l-16 25q-4 7 4 12q74 48 84 117z" />
    <glyph glyph-name="uni0137" unicode="&#x137;" horiz-adv-x="557" 
d="M273 270l245 -253q15 -17 -7 -17h-79q-12 0 -28 17l-224 229v-229q0 -10 -3.5 -13.5t-13.5 -3.5h-53q-10 0 -14 3.5t-4 13.5v688q0 11 4 14.5t14 3.5h53q10 0 13.5 -4t3.5 -14v-418l211 204q15 18 28 18h79q9 0 11 -5.5t-4 -12.5zM299 -233h-6q-27 1 -45 19.5t-18 44.5
q0 27 18.5 46t45.5 19q30 0 49 -22.5t19 -61.5q0 -69 -33.5 -120t-89.5 -80q-7 -5 -12 1l-16 25q-4 7 4 12q74 48 84 117z" />
    <glyph glyph-name="kgreenlandic" unicode="&#x138;" horiz-adv-x="557" 
d="M273 270l245 -253q15 -17 -7 -17h-79q-12 0 -28 17l-224 229v-229q0 -10 -3.5 -13.5t-13.5 -3.5h-53q-10 0 -14 3.5t-4 13.5v474q0 11 4 14.5t14 3.5h53q10 0 13.5 -4t3.5 -14v-204l211 204q15 18 28 18h79q9 0 11 -5.5t-4 -12.5z" />
    <glyph glyph-name="Lacute" unicode="&#x139;" horiz-adv-x="570" 
d="M188 80h332q10 0 14 -3.5t4 -13.5v-46q0 -10 -4 -13.5t-14 -3.5h-408q-10 0 -13.5 3.5t-3.5 13.5v665q0 10 3.5 14t13.5 4h58q10 0 14 -4t4 -14v-602zM293 857l-87 -79q-13 -11 -28 -11h-48q-21 0 -2 20l124 132q12 15 24 -4l22 -35q7 -14 -5 -23z" />
    <glyph glyph-name="lacute" unicode="&#x13a;" horiz-adv-x="280" 
d="M101 17v703q0 10 3.5 14t14.5 4h53q10 0 13.5 -4t3.5 -14v-703q0 -10 -3.5 -13.5t-13.5 -3.5h-53q-10 0 -14 3.5t-4 13.5zM268 857l-87 -79q-13 -11 -28 -11h-48q-21 0 -2 20l124 132q12 15 24 -4l22 -35q7 -14 -5 -23z" />
    <glyph glyph-name="uni013B" unicode="&#x13b;" horiz-adv-x="570" 
d="M329 -233h-7q-26 1 -44.5 19.5t-18.5 44.5q0 27 18.5 46t45.5 19q30 0 49 -22.5t19 -61.5q0 -136 -122 -200q-8 -5 -12 1l-16 25q-4 7 3 12q73 48 85 117zM188 80h332q10 0 14 -3.5t4 -13.5v-46q0 -10 -4 -13.5t-14 -3.5h-408q-10 0 -13.5 3.5t-3.5 13.5v665q0 10 3.5 14
t13.5 4h58q10 0 14 -4t4 -14v-602z" />
    <glyph glyph-name="uni013C" unicode="&#x13c;" horiz-adv-x="269" 
d="M139 -233h-6q-27 1 -45 19.5t-18 44.5q0 27 18.5 46t45.5 19q30 0 49 -22.5t19 -61.5q0 -69 -33.5 -120t-89.5 -80q-7 -5 -12 1l-16 25q-4 7 4 12q74 48 84 117zM90 17v703q0 10 4 14t14 4h53q10 0 13.5 -4t3.5 -14v-703q0 -10 -3.5 -13.5t-13.5 -3.5h-53q-10 0 -14 3.5
t-4 13.5z" />
    <glyph glyph-name="Lcaron" unicode="&#x13d;" horiz-adv-x="582" 
d="M487 574h-6q-27 0 -45 18.5t-18 45.5t18.5 46t45.5 19q30 0 49 -22.5t19 -61.5q0 -135 -123 -201q-8 -4 -12 2l-16 25q-4 7 4 12q74 47 84 117zM188 80h332q10 0 14 -3.5t4 -13.5v-46q0 -10 -4 -13.5t-14 -3.5h-408q-10 0 -13.5 3.5t-3.5 13.5v665q0 10 3.5 14t13.5 4h58
q10 0 14 -4t4 -14v-602z" />
    <glyph glyph-name="lcaron" unicode="&#x13e;" horiz-adv-x="367" 
d="M357 609h-6q-27 0 -45 18.5t-18 45.5t18.5 46t45.5 19q30 0 49 -22.5t19 -61.5q0 -135 -123 -201q-8 -4 -12 2l-16 25q-4 7 4 12q74 47 84 117zM89 17v703q0 10 3.5 14t14.5 4h53q10 0 13.5 -4t3.5 -14v-703q0 -10 -3.5 -13.5t-13.5 -3.5h-53q-10 0 -14 3.5t-4 13.5z" />
    <glyph glyph-name="Ldot" unicode="&#x13f;" horiz-adv-x="572" 
d="M188 80h332q10 0 14 -3.5t4 -13.5v-46q0 -10 -4 -13.5t-14 -3.5h-408q-10 0 -13.5 3.5t-3.5 13.5v665q0 10 3.5 14t13.5 4h58q10 0 14 -4t4 -14v-602zM422 344q0 24 17 41.5t41 17.5t41.5 -17.5t17.5 -41.5t-17.5 -41t-41.5 -17t-41 17t-17 41z" />
    <glyph glyph-name="ldot" unicode="&#x140;" horiz-adv-x="447" 
d="M98 17v703q0 10 4 14t14 4h53q10 0 13.5 -4t3.5 -14v-703q0 -10 -3.5 -13.5t-13.5 -3.5h-53q-10 0 -14 3.5t-4 13.5zM306 354q0 24 17 41.5t41 17.5t41.5 -17.5t17.5 -41.5t-17.5 -41t-41.5 -17t-41 17t-17 41z" />
    <glyph glyph-name="Lslash" unicode="&#x141;" horiz-adv-x="592" 
d="M205 80h337q10 0 13.5 -3.5t3.5 -13.5v-46q0 -10 -3.5 -13.5t-13.5 -3.5h-412q-10 0 -14 3.5t-4 13.5v238l-60 -21q-15 -6 -22 10l-8 23q-5 17 11 22l79 28v365q0 10 4 14t14 4h58q10 0 13.5 -4t3.5 -14v-332l183 67q16 5 23 -11l7 -23q6 -17 -10 -22l-203 -73v-208z" />
    <glyph glyph-name="lslash" unicode="&#x142;" horiz-adv-x="356" 
d="M132 17v261l-87 -31q-16 -6 -23 10l-8 23q-4 17 11 22l107 39v364q0 11 4 14.5t14 3.5h53q10 0 13.5 -4t3.5 -14v-333l91 32q17 5 23 -11l7 -22q6 -16 -10 -23l-111 -39v-292q0 -10 -3.5 -13.5t-13.5 -3.5h-53q-10 0 -14 3.5t-4 13.5z" />
    <glyph glyph-name="Nacute" unicode="&#x143;" horiz-adv-x="776" 
d="M190 525v-508q0 -10 -3.5 -13.5t-13.5 -3.5h-58q-18 0 -18 17v687q0 9 9 9h6q7 0 14 -7l459 -528v504q0 10 3.5 14t14.5 4h58q10 0 13.5 -4t3.5 -14v-687q0 -8 -8 -8h-6q-8 0 -15 8zM485 857l-87 -79q-13 -11 -28 -11h-48q-21 0 -2 20l124 132q12 15 24 -4l22 -35
q7 -14 -5 -23z" />
    <glyph glyph-name="nacute" unicode="&#x144;" horiz-adv-x="604" 
d="M160 491l10 -81q66 110 167 110q88 0 142.5 -55.5t54.5 -171.5v-276q0 -10 -3.5 -13.5t-13.5 -3.5h-54q-10 0 -13.5 3.5t-3.5 13.5v254q0 84 -35 126.5t-96 42.5q-60 0 -96 -49.5t-36 -124.5v-249q0 -10 -3.5 -13.5t-13.5 -3.5h-54q-10 0 -13.5 3.5t-3.5 13.5v245v229
q0 10 3.5 14t13.5 4h28q12 0 20 -18zM395 666l-87 -79q-13 -11 -28 -11h-48q-21 0 -2 20l124 132q12 15 24 -4l22 -35q7 -14 -5 -23z" />
    <glyph glyph-name="uni0145" unicode="&#x145;" horiz-adv-x="776" 
d="M400 -233h-6q-27 1 -45 19.5t-18 44.5q0 27 18.5 46t45.5 19q30 0 49 -22.5t19 -61.5q0 -69 -33.5 -120t-89.5 -80q-7 -5 -12 1l-16 25q-4 7 4 12q74 48 84 117zM190 525v-508q0 -10 -3.5 -13.5t-13.5 -3.5h-58q-18 0 -18 17v687q0 9 9 9h6q7 0 14 -7l459 -528v504
q0 10 3.5 14t14.5 4h58q10 0 13.5 -4t3.5 -14v-687q0 -8 -8 -8h-6q-8 0 -15 8z" />
    <glyph glyph-name="uni0146" unicode="&#x146;" horiz-adv-x="604" 
d="M326 -233h-6q-27 1 -45 19.5t-18 44.5q0 27 18.5 46t45.5 19q30 0 49 -22.5t19 -61.5q0 -69 -33.5 -120t-89.5 -80q-7 -5 -12 1l-16 25q-4 7 4 12q74 48 84 117zM160 491l10 -81q66 110 167 110q88 0 142.5 -55.5t54.5 -171.5v-276q0 -10 -3.5 -13.5t-13.5 -3.5h-54
q-10 0 -13.5 3.5t-3.5 13.5v254q0 84 -35 126.5t-96 42.5q-60 0 -96 -49.5t-36 -124.5v-249q0 -10 -3.5 -13.5t-13.5 -3.5h-54q-10 0 -13.5 3.5t-3.5 13.5v245v229q0 10 3.5 14t13.5 4h28q12 0 20 -18z" />
    <glyph glyph-name="Ncaron" unicode="&#x147;" horiz-adv-x="776" 
d="M190 525v-508q0 -10 -3.5 -13.5t-13.5 -3.5h-58q-18 0 -18 17v687q0 9 9 9h6q7 0 14 -7l459 -528v504q0 10 3.5 14t14.5 4h58q10 0 13.5 -4t3.5 -14v-687q0 -8 -8 -8h-6q-8 0 -15 8zM400 764h-34q-11 0 -25 17l-101 145q-11 18 7 18h36q17 0 27 -18l73 -110l72 110
q11 18 28 18h35q19 0 7 -18l-101 -145q-14 -17 -24 -17z" />
    <glyph glyph-name="ncaron" unicode="&#x148;" horiz-adv-x="604" 
d="M170 410l-10 81q-8 18 -20 18h-28q-10 0 -13.5 -4t-3.5 -14v-229v-245q0 -10 3.5 -13.5t13.5 -3.5h54q10 0 13.5 3.5t3.5 13.5v249q0 75 36 124.5t96 49.5q61 0 96 -42.5t35 -126.5v-254q0 -10 3.5 -13.5t13.5 -3.5h54q10 0 13.5 3.5t3.5 13.5v276q0 116 -54.5 171.5
t-142.5 55.5q-101 0 -167 -110zM328 573h-34q-11 0 -25 17l-101 145q-10 18 7 18h36q17 0 27 -18l73 -110l72 110q11 18 28 18h35q19 0 7 -18l-101 -145q-14 -17 -24 -17z" />
    <glyph glyph-name="napostrophe" unicode="&#x149;" horiz-adv-x="606" 
d="M78 719h-7q-26 1 -44.5 19.5t-18.5 44.5q0 27 18.5 46t45.5 19q30 0 49 -22.5t19 -61.5q0 -136 -122 -200q-8 -5 -12 1l-16 25q-4 7 3 12q73 48 85 117zM172 410l-10 81q-8 18 -20 18h-28q-10 0 -13.5 -4t-3.5 -14v-229v-245q0 -10 3.5 -13.5t13.5 -3.5h54q10 0 13.5 3.5
t3.5 13.5v249q0 75 36 124.5t96 49.5q61 0 96 -42.5t35 -126.5v-254q0 -10 3.5 -13.5t13.5 -3.5h54q10 0 13.5 3.5t3.5 13.5v276q0 116 -54.5 171.5t-142.5 55.5q-101 0 -167 -110z" />
    <glyph glyph-name="Eng" unicode="&#x14a;" horiz-adv-x="776" 
d="M584 54l-394 471v-508q0 -10 -3.5 -13.5t-13.5 -3.5h-58q-18 0 -18 17v687q0 9 9 9h6q7 0 14 -7l459 -528v504q0 10 3.5 14t14.5 4h58q10 0 13.5 -4t3.5 -14v-680q-10 -252 -314 -252q-12 0 -16 3.5t-6 14.5l-6 47q-1 10 4 14.5t17 4.5q123 0 172.5 48t54.5 172z" />
    <glyph glyph-name="eng" unicode="&#x14b;" horiz-adv-x="604" 
d="M534 293v-306q0 -223 -186 -223q-59 0 -99 26q-7 4 -8.5 8t0.5 14l7 38q3 12 7 13.5t15 -3.5q28 -17 69 -17q56 0 81.5 34.5t25.5 114.5v279q0 84 -35 126.5t-96 42.5q-60 0 -96 -49.5t-36 -124.5v-249q0 -10 -3.5 -13.5t-13.5 -3.5h-54q-10 0 -13.5 3.5t-3.5 13.5v245
v229q0 10 3.5 14t13.5 4h28q12 0 20 -18l10 -81q66 110 167 110q88 0 142.5 -55.5t54.5 -171.5z" />
    <glyph glyph-name="Omacron" unicode="&#x14c;" horiz-adv-x="814" 
d="M48 350q0 149 105.5 256t253.5 107t253 -107t105 -256t-105 -256t-253 -107t-253.5 107t-105.5 256zM142 350q0 -111 77 -196t188 -85q112 0 188 85t76 196t-76 196t-188 85q-111 0 -188 -85t-77 -196zM528 839h-242q-10 0 -13.5 3.5t-3.5 13.5v30q0 10 3.5 14t13.5 4
h242q10 0 14 -4t4 -14v-30q0 -10 -4 -13.5t-14 -3.5z" />
    <glyph glyph-name="omacron" unicode="&#x14d;" horiz-adv-x="620" 
d="M46 254q0 110 77.5 188t186.5 78t186 -78t77 -188t-77 -187.5t-186 -77.5t-186.5 77.5t-77.5 187.5zM310 67q73 0 124.5 54.5t51.5 132.5t-51.5 132t-124.5 54q-74 0 -125 -54t-51 -132q0 -79 51 -133t125 -54zM431 648h-242q-10 0 -13.5 3.5t-3.5 13.5v30q0 10 3.5 14
t13.5 4h242q11 0 14.5 -3.5t3.5 -14.5v-30q0 -10 -4 -13.5t-14 -3.5z" />
    <glyph glyph-name="Obreve" unicode="&#x14e;" horiz-adv-x="814" 
d="M48 350q0 149 105.5 256t253.5 107t253 -107t105 -256t-105 -256t-253 -107t-253.5 107t-105.5 256zM142 350q0 -111 77 -196t188 -85q112 0 188 85t76 196t-76 196t-188 85q-111 0 -188 -85t-77 -196zM407 801q-105 0 -144 89q-8 21 4 27l28 15q13 7 20 -7
q15 -36 35 -50.5t57 -14.5t57 14.5t35 50.5q7 14 20 7l28 -15q12 -6 4 -27q-39 -89 -144 -89z" />
    <glyph glyph-name="obreve" unicode="&#x14f;" horiz-adv-x="620" 
d="M46 254q0 110 77.5 188t186.5 78t186 -78t77 -188t-77 -187.5t-186 -77.5t-186.5 77.5t-77.5 187.5zM310 67q73 0 124.5 54.5t51.5 132.5t-51.5 132t-124.5 54q-74 0 -125 -54t-51 -132q0 -79 51 -133t125 -54zM310 610q-105 0 -144 89q-8 21 4 27l28 15q13 7 20 -7
q15 -36 35 -50.5t57 -14.5t57 14.5t35 50.5q7 14 20 7l28 -15q12 -6 4 -27q-39 -89 -144 -89z" />
    <glyph glyph-name="Ohungarumlaut" unicode="&#x150;" horiz-adv-x="814" 
d="M48 350q0 149 105.5 256t253.5 107t253 -107t105 -256t-105 -256t-253 -107t-253.5 107t-105.5 256zM142 350q0 -111 77 -196t188 -85q112 0 188 85t76 196t-76 196t-188 85q-111 0 -188 -85t-77 -196zM448 872l-80 -95q-9 -13 -30 -13h-41q-19 0 -2 20l123 140
q12 15 24 -4l10 -16q9 -15 -4 -32zM587 872l-79 -95q-9 -13 -31 -13h-40q-21 0 -2 20l123 140q12 15 24 -4l10 -16q9 -14 -5 -32z" />
    <glyph glyph-name="ohungarumlaut" unicode="&#x151;" horiz-adv-x="620" 
d="M46 254q0 110 77.5 188t186.5 78t186 -78t77 -188t-77 -187.5t-186 -77.5t-186.5 77.5t-77.5 187.5zM310 67q73 0 124.5 54.5t51.5 132.5t-51.5 132t-124.5 54q-74 0 -125 -54t-51 -132q0 -79 51 -133t125 -54zM349 681l-80 -95q-9 -13 -30 -13h-41q-19 0 -2 20l123 140
q12 15 24 -4l10 -16q9 -15 -4 -32zM488 681l-79 -95q-9 -13 -31 -13h-40q-21 0 -2 20l123 140q12 15 24 -4l10 -16q9 -14 -5 -32z" />
    <glyph glyph-name="OE" unicode="&#x152;" horiz-adv-x="1114" 
d="M144 349q0 -111 74.5 -195.5t184.5 -84.5q111 0 185.5 84.5t74.5 196.5t-74.5 196.5t-185.5 84.5q-110 0 -184.5 -85t-74.5 -197zM1012 313h-257q-12 -148 -129 -233h409q10 0 14 -3.5t4 -13.5v-46q0 -10 -4 -13.5t-14 -3.5h-456q-28 0 -88.5 -6.5t-87.5 -6.5
q-147 0 -251 106t-104 256t104 257t251 107q26 0 87 -6.5t89 -6.5h456q18 0 18 -18v-45q0 -18 -18 -18h-320h-89q53 -34 88 -94.5t40 -131.5h258q10 0 13.5 -3.5t3.5 -13.5v-46q0 -10 -3.5 -13.5t-13.5 -3.5z" />
    <glyph glyph-name="oe" unicode="&#x153;" horiz-adv-x="967" 
d="M539 224v-77q16 -38 59.5 -60t88.5 -22q81 0 150 46q16 10 25 -1l23 -27q11 -14 2 -23q-35 -35 -90 -53t-113 -18q-112 0 -189 75q-77 -75 -185 -75q-109 0 -186.5 77.5t-77.5 187.5t77.5 188t186.5 78q107 0 185 -75q78 75 184 75q81 0 139 -43t83 -104t25 -131
q0 -10 -3 -14t-13 -4h-371zM541 362v-78h295q-4 68 -47 115t-112 47q-87 0 -136 -84zM454 171v166q-17 47 -55 75t-89 28q-74 0 -125 -54t-51 -132q0 -79 51 -133t125 -54q51 0 89 28.5t55 75.5z" />
    <glyph glyph-name="Racute" unicode="&#x154;" horiz-adv-x="666" 
d="M598 490q0 -162 -156 -205l185 -264q13 -21 -14 -21h-56q-18 0 -30 17l-181 258h-158v-258q0 -10 -4 -13.5t-14 -3.5h-58q-10 0 -13.5 3.5t-3.5 13.5v665q0 10 3.5 14t13.5 4h241q46 0 87 -10.5t78 -33.5t58.5 -65.5t21.5 -100.5zM188 354h160q159 0 159 136
q0 131 -159 131h-160v-267zM421 857l-87 -79q-13 -11 -28 -11h-48q-21 0 -2 20l124 132q12 15 24 -4l22 -35q7 -14 -5 -23z" />
    <glyph glyph-name="racute" unicode="&#x155;" horiz-adv-x="415" 
d="M366 433q-88 0 -135.5 -51t-47.5 -124v-241q0 -10 -3.5 -13.5t-13.5 -3.5h-54q-10 0 -13.5 3.5t-3.5 13.5v474q0 10 3.5 14t13.5 4h28q12 0 20 -18l15 -93q12 23 23.5 39t34.5 38t60 33.5t85 11.5q11 0 14.5 -3.5t1.5 -12.5l-8 -55q-2 -10 -6 -13t-14 -3zM357 666
l-87 -79q-13 -11 -28 -11h-48q-21 0 -2 20l124 132q12 15 24 -4l22 -35q7 -14 -5 -23z" />
    <glyph glyph-name="uni0156" unicode="&#x156;" horiz-adv-x="666" 
d="M354 -233h-7q-26 1 -44.5 19.5t-18.5 44.5q0 27 18.5 46t45.5 19q30 0 49 -22.5t19 -61.5q0 -136 -122 -200q-8 -5 -12 1l-16 25q-4 7 3 12q73 48 85 117zM598 490q0 -162 -156 -205l185 -264q13 -21 -14 -21h-56q-18 0 -30 17l-181 258h-158v-258q0 -10 -4 -13.5
t-14 -3.5h-58q-10 0 -13.5 3.5t-3.5 13.5v665q0 10 3.5 14t13.5 4h241q46 0 87 -10.5t78 -33.5t58.5 -65.5t21.5 -100.5zM188 354h160q159 0 159 136q0 131 -159 131h-160v-267z" />
    <glyph glyph-name="uni0157" unicode="&#x157;" horiz-adv-x="399" 
d="M137 -233h-7q-26 1 -44.5 19.5t-18.5 44.5q0 27 18.5 46t45.5 19q30 0 49 -22.5t19 -61.5q0 -136 -122 -200q-8 -5 -12 1l-16 25q-4 7 3 12q73 48 85 117zM349 433q-88 0 -135.5 -51t-47.5 -124v-241q0 -10 -3.5 -13.5t-13.5 -3.5h-54q-10 0 -13.5 3.5t-3.5 13.5v474
q0 10 3.5 14t13.5 4h28q12 0 20 -18l15 -93q12 23 23.5 39t34.5 38t60 33.5t85 11.5q11 0 14.5 -3.5t1.5 -12.5l-8 -55q-2 -10 -6 -13t-14 -3z" />
    <glyph glyph-name="Rcaron" unicode="&#x158;" horiz-adv-x="666" 
d="M598 490q0 -162 -156 -205l185 -264q13 -21 -14 -21h-56q-18 0 -30 17l-181 258h-158v-258q0 -10 -4 -13.5t-14 -3.5h-58q-10 0 -13.5 3.5t-3.5 13.5v665q0 10 3.5 14t13.5 4h241q46 0 87 -10.5t78 -33.5t58.5 -65.5t21.5 -100.5zM188 354h160q159 0 159 136
q0 131 -159 131h-160v-267zM340 764h-34q-11 0 -25 17l-101 145q-11 18 7 18h36q17 0 27 -18l73 -110l72 110q11 18 28 18h35q19 0 7 -18l-101 -145q-14 -17 -24 -17z" />
    <glyph glyph-name="rcaron" unicode="&#x159;" horiz-adv-x="376" 
d="M329 433q-88 0 -135.5 -51t-47.5 -124v-241q0 -10 -3.5 -13.5t-13.5 -3.5h-54q-10 0 -13.5 3.5t-3.5 13.5v474q0 10 3.5 14t13.5 4h28q12 0 20 -18l15 -93q12 23 23.5 39t34.5 38t60 33.5t85 11.5q11 0 14.5 -3.5t1.5 -12.5l-8 -55q-2 -10 -6 -13t-14 -3zM221 573h-34
q-11 0 -25 17l-101 145q-11 18 7 18h36q16 0 27 -18l73 -110l72 110q10 18 28 18h35q19 0 7 -18l-101 -145q-14 -17 -24 -17z" />
    <glyph glyph-name="Sacute" unicode="&#x15a;" horiz-adv-x="639" 
d="M328 629q-51 0 -87 -12.5t-54 -33t-25.5 -40.5t-7.5 -42q0 -28 14 -47.5t43.5 -31.5t59.5 -18.5t77 -12.5q52 -7 91 -18t74.5 -32.5t54 -57.5t18.5 -86q0 -87 -67 -147.5t-189 -60.5q-160 0 -270 76q-13 9 -5 25l23 38q5 9 10 11t15 -4q95 -64 217 -64q77 0 126.5 28.5
t49.5 93.5q0 56 -47 81.5t-150 39.5q-48 7 -84 17t-73 30t-57.5 54.5t-20.5 82.5q0 33 13 67.5t40.5 68.5t79.5 55.5t121 21.5q72 0 127 -18.5t119 -57.5q13 -8 5 -25l-23 -37q-9 -18 -24 -8q-95 64 -194 64zM425 857l-87 -79q-13 -11 -28 -11h-48q-21 0 -2 20l124 132
q12 15 24 -4l22 -35q7 -14 -5 -23z" />
    <glyph glyph-name="sacute" unicode="&#x15b;" horiz-adv-x="509" 
d="M254 59q64 0 96 23.5t32 61.5q0 54 -134 73q-91 12 -142.5 42.5t-51.5 102.5t53 115t142 43q100 0 192 -56q13 -8 5 -25l-16 -29q-9 -17 -24 -8q-41 25 -74 36.5t-78 11.5q-58 0 -87.5 -22.5t-29.5 -61.5q0 -34 30 -47.5t104 -24.5q195 -25 195 -146q0 -71 -56 -115
t-151 -44q-111 0 -206 64q-13 8 -4 24l17 30q5 10 9 11.5t15 -4.5q75 -55 164 -55zM362 666l-87 -79q-13 -11 -28 -11h-48q-21 0 -2 20l124 132q12 15 24 -4l22 -35q7 -14 -5 -23z" />
    <glyph glyph-name="Scircumflex" unicode="&#x15c;" horiz-adv-x="639" 
d="M328 629q-51 0 -87 -12.5t-54 -33t-25.5 -40.5t-7.5 -42q0 -28 14 -47.5t43.5 -31.5t59.5 -18.5t77 -12.5q52 -7 91 -18t74.5 -32.5t54 -57.5t18.5 -86q0 -87 -67 -147.5t-189 -60.5q-160 0 -270 76q-13 9 -5 25l23 38q5 9 10 11t15 -4q95 -64 217 -64q77 0 126.5 28.5
t49.5 93.5q0 56 -47 81.5t-150 39.5q-48 7 -84 17t-73 30t-57.5 54.5t-20.5 82.5q0 33 13 67.5t40.5 68.5t79.5 55.5t121 21.5q72 0 127 -18.5t119 -57.5q13 -8 5 -25l-23 -37q-9 -18 -24 -8q-95 64 -194 64zM302 943h34q12 -1 24 -18l101 -145q12 -17 -7 -17h-35
q-18 0 -28 17l-72 111l-73 -111q-10 -17 -27 -17h-36q-18 0 -7 17l101 145q12 17 25 18z" />
    <glyph glyph-name="scircumflex" unicode="&#x15d;" horiz-adv-x="509" 
d="M254 59q64 0 96 23.5t32 61.5q0 54 -134 73q-91 12 -142.5 42.5t-51.5 102.5t53 115t142 43q100 0 192 -56q13 -8 5 -25l-16 -29q-9 -17 -24 -8q-41 25 -74 36.5t-78 11.5q-58 0 -87.5 -22.5t-29.5 -61.5q0 -34 30 -47.5t104 -24.5q195 -25 195 -146q0 -71 -56 -115
t-151 -44q-111 0 -206 64q-13 8 -4 24l17 30q5 10 9 11.5t15 -4.5q75 -55 164 -55zM237 753h34q12 -1 24 -18l101 -145q12 -17 -7 -17h-35q-18 0 -28 17l-72 111l-73 -111q-10 -17 -27 -17h-36q-18 0 -7 17l101 145q12 17 25 18z" />
    <glyph glyph-name="Scedilla" unicode="&#x15e;" horiz-adv-x="633" 
d="M322 629q-50 0 -86.5 -12.5t-54 -33t-25 -40.5t-7.5 -42q0 -28 14 -47.5t43.5 -31.5t59.5 -18.5t76 -12.5q52 -7 91 -18t74.5 -32.5t54.5 -57.5t19 -86q0 -87 -66.5 -147.5t-193.5 -60.5l-7 -52q54 0 83 -24t29 -69q0 -42 -27 -66.5t-75 -24.5q-44 0 -93 38q-11 8 -3 18
l12 15q6 7 17 2q34 -23 73 -23q45 0 45 41q0 47 -60 47h-41q-13 0 -13 15l18 85q-122 9 -218 73q-16 10 -6 26l23 38q10 17 24 7q95 -64 212 -64q77 0 126.5 28.5t49.5 93.5q0 56 -47 81.5t-149 39.5q-48 7 -84 17t-73.5 30t-58 54.5t-20.5 82.5q0 33 13 67.5t40.5 68.5
t79.5 55.5t121 21.5q72 0 127 -18.5t118 -56.5q15 -9 6 -26l-22 -37q-10 -18 -25 -8q-95 64 -194 64z" />
    <glyph glyph-name="scedilla" unicode="&#x15f;" horiz-adv-x="509" 
d="M204 -93l17 84q-98 14 -168 62q-13 8 -4 24l17 30q5 10 9 11.5t15 -4.5q75 -55 164 -55q64 0 96 23.5t32 61.5q0 54 -134 73q-91 12 -142.5 42.5t-51.5 102.5t53 115t142 43q105 0 198 -60q13 -9 5 -25l-16 -29q-9 -17 -24 -8q-84 52 -158 52q-58 0 -87.5 -22.5
t-29.5 -61.5q0 -34 30 -47.5t104 -24.5q94 -13 144.5 -45t50.5 -101q0 -70 -53.5 -113.5t-148.5 -45.5l-7 -51q112 0 112 -93q0 -42 -27 -66.5t-75 -24.5q-43 0 -94 38q-11 8 -2 18l11 15q6 7 18 2q40 -23 72 -23q45 0 45 41q0 47 -60 47h-41q-12 0 -12 15z" />
    <glyph glyph-name="Scaron" unicode="&#x160;" horiz-adv-x="644" 
d="M333 629q-51 0 -87 -12.5t-54 -33t-25.5 -40.5t-7.5 -42q0 -28 14 -47.5t43.5 -31.5t59.5 -18.5t77 -12.5q52 -7 91 -18t74.5 -32.5t54 -57.5t18.5 -86q0 -87 -67 -147.5t-189 -60.5q-160 0 -270 76q-13 9 -5 25l23 38q5 9 10 11t15 -4q95 -64 217 -64q77 0 126.5 28.5
t49.5 93.5q0 56 -47 81.5t-150 39.5q-48 7 -84 17t-73 30t-57.5 54.5t-20.5 82.5q0 33 13 67.5t40.5 68.5t79.5 55.5t121 21.5q72 0 127 -18.5t119 -57.5q13 -8 5 -25l-23 -37q-9 -18 -24 -8q-95 64 -194 64zM340 764h-34q-11 0 -25 17l-101 145q-11 18 7 18h36q17 0 27 -18
l73 -110l72 110q11 18 28 18h35q19 0 7 -18l-101 -145q-14 -17 -24 -17z" />
    <glyph glyph-name="scaron" unicode="&#x161;" horiz-adv-x="509" 
d="M254 59q64 0 96 23.5t32 61.5q0 54 -134 73q-91 12 -142.5 42.5t-51.5 102.5t53 115t142 43q100 0 192 -56q13 -8 5 -25l-16 -29q-9 -17 -24 -8q-41 25 -74 36.5t-78 11.5q-58 0 -87.5 -22.5t-29.5 -61.5q0 -34 30 -47.5t104 -24.5q195 -25 195 -146q0 -71 -56 -115
t-151 -44q-111 0 -206 64q-13 8 -4 24l17 30q5 10 9 11.5t15 -4.5q75 -55 164 -55zM268 573h-34q-11 0 -25 17l-101 145q-11 18 7 18h36q17 0 27 -18l73 -110l72 110q11 18 28 18h35q19 0 7 -18l-101 -145q-14 -17 -24 -17z" />
    <glyph glyph-name="uni0162" unicode="&#x162;" horiz-adv-x="613" 
d="M308 -233h-6q-27 1 -45 19.5t-18 44.5q0 27 18.5 46t45.5 19q30 0 49 -22.5t19 -61.5q0 -69 -33.5 -120t-89.5 -80q-7 -5 -12 1l-16 25q-4 7 4 12q74 48 84 117zM27 700h558q11 0 14.5 -4t3.5 -14v-49q0 -10 -4 -13.5t-14 -3.5h-232v-599q0 -10 -4 -13.5t-14 -3.5h-58
q-10 0 -13.5 3.5t-3.5 13.5v599h-233q-10 0 -13.5 3.5t-3.5 13.5v49q0 10 3.5 14t13.5 4z" />
    <glyph glyph-name="uni0163" unicode="&#x163;" horiz-adv-x="439" 
d="M194 -233h-7q-26 1 -44.5 19.5t-18.5 44.5q0 27 18.5 46t45.5 19q30 0 49 -22.5t19 -61.5q0 -136 -122 -200q-8 -5 -12 1l-16 25q-4 7 3 12q73 48 85 117zM389 13q-40 -24 -96 -24q-186 0 -186 222v226h-45q-10 0 -13.5 4t-3.5 14v36q0 10 3.5 14t13.5 4h45v101
q0 18 18 18h52q11 0 14.5 -4t3.5 -14v-101h171q18 0 18 -18v-36q0 -11 -4 -14.5t-14 -3.5h-171v-220q0 -80 25.5 -114.5t81.5 -34.5q38 0 66 14q11 6 15 4.5t7 -13.5l7 -38q4 -15 -8 -22z" />
    <glyph glyph-name="Tcaron" unicode="&#x164;" horiz-adv-x="613" 
d="M27 700h558q11 0 14.5 -4t3.5 -14v-49q0 -10 -4 -13.5t-14 -3.5h-232v-599q0 -10 -4 -13.5t-14 -3.5h-58q-10 0 -13.5 3.5t-3.5 13.5v599h-233q-10 0 -13.5 3.5t-3.5 13.5v49q0 10 3.5 14t13.5 4zM323 764h-34q-11 0 -25 17l-101 145q-11 18 7 18h36q16 0 27 -18l73 -110
l72 110q10 18 28 18h35q19 0 7 -18l-101 -145q-14 -17 -24 -17z" />
    <glyph glyph-name="tcaron" unicode="&#x165;" horiz-adv-x="480" 
d="M523 719h-7q-26 0 -44.5 18.5t-18.5 45.5t18.5 46t45.5 19q30 0 49 -22.5t19 -61.5q0 -136 -122 -201q-9 -3 -12 2l-16 25q-4 7 3 12q73 46 85 117zM389 13q-40 -24 -96 -24q-186 0 -186 222v226h-45q-10 0 -13.5 4t-3.5 14v36q0 10 3.5 14t13.5 4h45v101q0 18 18 18h52
q11 0 14.5 -4t3.5 -14v-101h171q18 0 18 -18v-36q0 -11 -4 -14.5t-14 -3.5h-171v-220q0 -80 25.5 -114.5t81.5 -34.5q38 0 66 14q11 6 15 4.5t7 -13.5l7 -38q4 -15 -8 -22z" />
    <glyph glyph-name="Tbar" unicode="&#x166;" horiz-adv-x="621" 
d="M576 342h-219v-325q0 -10 -4 -13.5t-14 -3.5h-58q-10 0 -13.5 3.5t-3.5 13.5v325h-219q-18 0 -18 18v41q0 18 18 18h219v197h-237q-10 0 -13.5 3.5t-3.5 13.5v49q0 10 3.5 14t13.5 4h566q18 0 18 -18v-49q0 -10 -4 -13.5t-14 -3.5h-236v-197h219q17 0 17 -18v-41
q0 -10 -3.5 -14t-13.5 -4z" />
    <glyph glyph-name="tbar" unicode="&#x167;" horiz-adv-x="471" 
d="M394 249h-172q0 -19 4 -59q4 -66 28.5 -94t74.5 -28q35 0 69 16q11 6 15 4.5t7 -13.5l7 -38q4 -15 -8 -22q-40 -26 -99 -26q-86 0 -129 46t-52 135q-3 31 -5 79h-70q-10 0 -13.5 4t-3.5 14v36q0 10 3.5 14t13.5 4h70v116h-70q-10 0 -13.5 4t-3.5 14v36q0 10 3.5 14
t13.5 4h70v91q0 18 18 18h52q18 0 18 -18v-91h172q10 0 13.5 -4t3.5 -14v-36q0 -10 -3.5 -14t-13.5 -4h-172v-116h172q10 0 13.5 -4t3.5 -14v-36q0 -10 -3.5 -14t-13.5 -4z" />
    <glyph glyph-name="Utilde" unicode="&#x168;" 
d="M359 -13q-127 0 -207 78.5t-80 222.5v394q0 18 18 18h58q10 0 13.5 -4t3.5 -14v-389q0 -114 51.5 -169t142.5 -55t142 55t51 169v389q0 10 4 14t14 4h58q10 0 13.5 -3.5t3.5 -14.5v-394q0 -144 -79.5 -222.5t-206.5 -78.5zM431 869q39 0 57 44q4 10 9 12.5t15 -1.5
l22 -10q17 -6 9 -25q-34 -82 -106 -82q-45 0 -86 32q-42 32 -65 32q-39 0 -57 -44q-5 -10 -9 -12t-15 1l-23 10q-10 4 -11.5 9.5t2.5 15.5q34 82 107 82q43 0 87 -33q25 -19 36.5 -25t27.5 -6z" />
    <glyph glyph-name="utilde" unicode="&#x169;" horiz-adv-x="604" 
d="M434 98l10 -81q7 -17 19 -17h29q17 0 17 17v230v244q0 18 -17 18h-54q-17 0 -17 -18v-248q0 -76 -36 -125.5t-97 -49.5q-60 0 -95 43t-35 126v254q0 18 -17 18h-54q-17 0 -17 -18v-275q0 -116 54.5 -171.5t141.5 -55.5q103 0 168 109zM365 678q39 0 57 44q4 10 9 12.5
t15 -1.5l22 -10q17 -6 9 -25q-34 -82 -106 -82q-45 0 -86 32q-42 32 -65 32q-39 0 -57 -44q-5 -10 -9 -12t-15 1l-23 10q-10 4 -11.5 9.5t2.5 15.5q34 82 107 82q43 0 87 -33q25 -19 36.5 -25t27.5 -6z" />
    <glyph glyph-name="Umacron" unicode="&#x16a;" 
d="M359 -13q-127 0 -207 78.5t-80 222.5v394q0 18 18 18h58q10 0 13.5 -4t3.5 -14v-389q0 -114 51.5 -169t142.5 -55t142 55t51 169v389q0 10 4 14t14 4h58q10 0 13.5 -3.5t3.5 -14.5v-394q0 -144 -79.5 -222.5t-206.5 -78.5zM480 839h-242q-10 0 -13.5 3.5t-3.5 13.5v30
q0 10 3.5 14t13.5 4h242q10 0 14 -4t4 -14v-30q0 -10 -4 -13.5t-14 -3.5z" />
    <glyph glyph-name="umacron" unicode="&#x16b;" horiz-adv-x="604" 
d="M434 98l10 -81q7 -17 19 -17h29q17 0 17 17v230v244q0 18 -17 18h-54q-17 0 -17 -18v-248q0 -76 -36 -125.5t-97 -49.5q-60 0 -95 43t-35 126v254q0 18 -17 18h-54q-17 0 -17 -18v-275q0 -116 54.5 -171.5t141.5 -55.5q103 0 168 109zM410 648h-242q-10 0 -13.5 3.5
t-3.5 13.5v30q0 10 3.5 14t13.5 4h242q10 0 14 -3.5t4 -14.5v-30q0 -10 -4 -13.5t-14 -3.5z" />
    <glyph glyph-name="Ubreve" unicode="&#x16c;" 
d="M359 -13q-127 0 -207 78.5t-80 222.5v394q0 18 18 18h58q10 0 13.5 -4t3.5 -14v-389q0 -114 51.5 -169t142.5 -55t142 55t51 169v389q0 10 4 14t14 4h58q10 0 13.5 -3.5t3.5 -14.5v-394q0 -144 -79.5 -222.5t-206.5 -78.5zM359 801q-105 0 -144 89q-8 21 4 27l28 15
q13 7 20 -7q15 -36 35 -50.5t57 -14.5t57 14.5t35 50.5q7 14 20 7l28 -15q12 -6 4 -27q-39 -89 -144 -89z" />
    <glyph glyph-name="ubreve" unicode="&#x16d;" horiz-adv-x="604" 
d="M434 98l10 -81q7 -17 19 -17h29q17 0 17 17v230v244q0 18 -17 18h-54q-17 0 -17 -18v-248q0 -76 -36 -125.5t-97 -49.5q-60 0 -95 43t-35 126v254q0 18 -17 18h-54q-17 0 -17 -18v-275q0 -116 54.5 -171.5t141.5 -55.5q103 0 168 109zM292 610q-105 0 -144 89q-8 21 4 27
l28 15q13 7 20 -7q15 -36 35 -50.5t57 -14.5t57 14.5t35 50.5q7 14 20 7l28 -15q12 -6 4 -27q-39 -89 -144 -89z" />
    <glyph glyph-name="Uring" unicode="&#x16e;" 
d="M359 -13q-127 0 -207 78.5t-80 222.5v394q0 18 18 18h58q10 0 13.5 -4t3.5 -14v-389q0 -114 51.5 -169t142.5 -55t142 55t51 169v389q0 10 4 14t14 4h58q10 0 13.5 -3.5t3.5 -14.5v-394q0 -144 -79.5 -222.5t-206.5 -78.5zM358 769q-46 0 -76.5 31.5t-30.5 78.5
t30.5 78.5t76.5 31.5t77 -31.5t31 -78.5t-31 -78.5t-77 -31.5zM358 814q27 0 43 19.5t16 45.5t-15.5 45t-42.5 19t-43.5 -19t-16.5 -45t16.5 -45.5t42.5 -19.5z" />
    <glyph glyph-name="uring" unicode="&#x16f;" horiz-adv-x="604" 
d="M434 98l10 -81q7 -17 19 -17h29q17 0 17 17v230v244q0 18 -17 18h-54q-17 0 -17 -18v-248q0 -76 -36 -125.5t-97 -49.5q-60 0 -95 43t-35 126v254q0 18 -17 18h-54q-17 0 -17 -18v-275q0 -116 54.5 -171.5t141.5 -55.5q103 0 168 109zM292 578q-46 0 -76.5 31.5
t-30.5 78.5t30.5 78.5t76.5 31.5t77 -31.5t31 -78.5t-31 -78.5t-77 -31.5zM292 623q27 0 43 19.5t16 45.5t-15.5 45t-42.5 19t-43.5 -19t-16.5 -45t16.5 -45.5t42.5 -19.5z" />
    <glyph glyph-name="Uhungarumlaut" unicode="&#x170;" 
d="M359 -13q-127 0 -207 78.5t-80 222.5v394q0 18 18 18h58q10 0 13.5 -4t3.5 -14v-389q0 -114 51.5 -169t142.5 -55t142 55t51 169v389q0 10 4 14t14 4h58q10 0 13.5 -3.5t3.5 -14.5v-394q0 -144 -79.5 -222.5t-206.5 -78.5zM387 872l-80 -95q-9 -13 -30 -13h-41
q-19 0 -2 20l123 140q12 15 24 -4l10 -16q9 -15 -4 -32zM526 872l-79 -95q-9 -13 -31 -13h-40q-21 0 -2 20l123 140q12 15 24 -4l10 -16q9 -14 -5 -32z" />
    <glyph glyph-name="uhungarumlaut" unicode="&#x171;" horiz-adv-x="604" 
d="M434 98l10 -81q7 -17 19 -17h29q17 0 17 17v230v244q0 18 -17 18h-54q-17 0 -17 -18v-248q0 -76 -36 -125.5t-97 -49.5q-60 0 -95 43t-35 126v254q0 18 -17 18h-54q-17 0 -17 -18v-275q0 -116 54.5 -171.5t141.5 -55.5q103 0 168 109zM324 681l-80 -95q-9 -13 -30 -13
h-41q-19 0 -2 20l123 140q12 15 24 -4l10 -16q9 -15 -4 -32zM463 681l-79 -95q-9 -13 -31 -13h-40q-21 0 -2 20l123 140q12 15 24 -4l10 -16q9 -14 -5 -32z" />
    <glyph glyph-name="Uogonek" unicode="&#x172;" 
d="M277 -107q0 55 52 95q-118 9 -187.5 88t-69.5 212v394q0 18 18 18h58q10 0 13.5 -4t3.5 -14v-389q0 -114 51.5 -169t142.5 -55t142 55.5t51 168.5v389q0 10 4 14t14 4h58q10 0 13.5 -3.5t3.5 -14.5v-394q0 -134 -69 -211.5t-182 -87.5q-65 -35 -65 -83q0 -74 57 -74
q11 0 45 2q18 0 18 -16v-13q0 -9 -4 -12.5t-14 -5.5q-25 -2 -52 -2q-45 0 -73.5 26t-28.5 82z" />
    <glyph glyph-name="uogonek" unicode="&#x173;" horiz-adv-x="626" 
d="M449 13l-15 85q-65 -109 -168 -109q-87 0 -141.5 55.5t-54.5 171.5v275q0 18 17 18h54q16 0 17 -18v-254q0 -83 35 -126t95 -43q61 0 97 49.5t36 125.5v248q0 18 17 18h54q17 0 17 -18v-474q0 -17 -16 -17q-16 -5 -32 -13.5t-32.5 -28.5t-16.5 -45q0 -38 16 -56.5
t41 -18.5q8 0 13.5 0.5t14 1t17.5 0.5q10 0 13.5 -3t3.5 -12v-14q0 -10 -3.5 -13t-13.5 -4q-25 -3 -52 -3q-45 0 -73.5 26t-28.5 82q0 42 28 71.5t58 40.5z" />
    <glyph glyph-name="Wcircumflex" unicode="&#x174;" horiz-adv-x="961" 
d="M297 180l-178 502q-5 18 -23 18h-72q-16 0 -9 -18l261 -683q7 -16 12 -16h8q6 0 12 16l174 537l173 -537q8 -16 13 -16h7q5 0 13 16l260 683q8 18 -8 18h-73q-17 0 -23 -18l-177 -502l-165 515q-6 18 -15 18h-11q-8 0 -15 -18zM465 944h34q12 -1 24 -18l101 -145
q12 -17 -7 -17h-35q-18 0 -28 17l-72 111l-73 -111q-10 -17 -27 -17h-36q-18 0 -7 17l101 145q12 17 25 18z" />
    <glyph glyph-name="wcircumflex" unicode="&#x175;" horiz-adv-x="736" 
d="M208 170l-99 324q-5 15 -22 15h-65q-16 0 -9 -18l156 -485q7 -17 15 -17h6q8 0 17 17l161 381l160 -381q8 -17 17 -17h7q8 0 14 17l156 485q8 18 -8 18h-65q-18 0 -23 -18l-98 -321l-141 337q-9 16 -16 16h-7q-6 0 -16 -16zM352 753h34q12 -1 24 -18l101 -145
q12 -17 -7 -17h-35q-18 0 -28 17l-72 111l-73 -111q-10 -17 -27 -17h-36q-18 0 -7 17l101 145q12 17 25 18z" />
    <glyph glyph-name="Ycircumflex" unicode="&#x176;" horiz-adv-x="631" 
d="M12 682l260 -411v-254q0 -10 3.5 -13.5t13.5 -3.5h56q10 0 13.5 3.5t3.5 13.5v254l260 411q10 18 -8 18h-67q-12 0 -24 -18l-206 -327l-205 327q-11 18 -24 18h-68q-19 0 -8 -18zM302 944h34q12 -1 24 -18l101 -145q12 -17 -7 -17h-35q-18 0 -28 17l-72 111l-73 -111
q-10 -17 -27 -17h-36q-18 0 -7 17l101 145q12 17 25 18z" />
    <glyph glyph-name="ycircumflex" unicode="&#x177;" horiz-adv-x="522" 
d="M262 132l157 359q9 18 23 18h62q17 0 9 -18l-303 -678q-8 -17 -23 -17h-62q-17 0 -9 17l98 219l-206 459q-8 18 9 18h62q14 0 23 -18l159 -360zM247 753h34q12 -1 24 -18l101 -145q12 -17 -7 -17h-35q-18 0 -28 17l-72 111l-73 -111q-10 -17 -27 -17h-36q-18 0 -7 17
l101 145q12 17 25 18z" />
    <glyph glyph-name="Ydieresis" unicode="&#x178;" horiz-adv-x="631" 
d="M12 682l260 -411v-254q0 -10 3.5 -13.5t13.5 -3.5h56q10 0 13.5 3.5t3.5 13.5v254l260 411q10 18 -8 18h-67q-12 0 -24 -18l-206 -327l-205 327q-11 18 -24 18h-68q-19 0 -8 -18zM161 865q0 21 14 35.5t35 14.5t35.5 -15t14.5 -35q0 -21 -14.5 -35.5t-35.5 -14.5
t-35 14.5t-14 35.5zM357 865q0 20 14.5 35t35.5 15q20 0 35 -15t15 -35q0 -21 -15 -35.5t-35 -14.5q-21 0 -35.5 14.5t-14.5 35.5z" />
    <glyph glyph-name="Zacute" unicode="&#x179;" horiz-adv-x="618" 
d="M562 0h-526q-9 0 -9 8v8q0 5 7 15l417 588h-377q-10 0 -13.5 4t-3.5 14v45q0 10 3.5 14t13.5 4h511q8 0 8 -9v-8q0 -5 -6 -15l-417 -588h392q10 0 14 -3.5t4 -13.5v-46q0 -10 -4 -13.5t-14 -3.5zM424 857l-87 -79q-13 -11 -28 -11h-48q-21 0 -2 20l124 132q12 15 24 -4
l22 -35q7 -14 -5 -23z" />
    <glyph glyph-name="zacute" unicode="&#x17a;" horiz-adv-x="489" 
d="M439 0h-401q-8 0 -8 8v7q0 7 6 16l285 400h-249q-10 0 -13.5 3.5t-3.5 13.5v43q0 10 3.5 14t13.5 4h375q8 0 8 -9v-7q0 -5 -6 -16l-283 -399h273q10 0 13.5 -4t3.5 -14v-43q0 -10 -3.5 -13.5t-13.5 -3.5zM361 666l-87 -79q-13 -11 -28 -11h-48q-21 0 -2 20l124 132
q12 15 24 -4l22 -35q7 -14 -5 -23z" />
    <glyph glyph-name="Zdotaccent" unicode="&#x17b;" horiz-adv-x="618" 
d="M562 0h-526q-9 0 -9 8v8q0 5 7 15l417 588h-377q-10 0 -13.5 4t-3.5 14v45q0 10 3.5 14t13.5 4h511q8 0 8 -9v-8q0 -5 -6 -15l-417 -588h392q10 0 14 -3.5t4 -13.5v-46q0 -10 -4 -13.5t-14 -3.5zM262 864q0 24 17 41.5t41 17.5t41.5 -17.5t17.5 -41.5t-17.5 -41
t-41.5 -17t-41 17t-17 41z" />
    <glyph glyph-name="zdotaccent" unicode="&#x17c;" horiz-adv-x="489" 
d="M439 0h-401q-8 0 -8 8v7q0 7 6 16l285 400h-249q-10 0 -13.5 3.5t-3.5 13.5v43q0 10 3.5 14t13.5 4h375q8 0 8 -9v-7q0 -5 -6 -16l-283 -399h273q10 0 13.5 -4t3.5 -14v-43q0 -10 -3.5 -13.5t-13.5 -3.5zM199 673q0 24 17 41.5t41 17.5t41.5 -17.5t17.5 -41.5t-17.5 -41
t-41.5 -17t-41 17t-17 41z" />
    <glyph glyph-name="Zcaron" unicode="&#x17d;" horiz-adv-x="618" 
d="M562 0h-526q-9 0 -9 8v8q0 5 7 15l417 588h-377q-10 0 -13.5 4t-3.5 14v45q0 10 3.5 14t13.5 4h511q8 0 8 -9v-8q0 -5 -6 -15l-417 -588h392q10 0 14 -3.5t4 -13.5v-46q0 -10 -4 -13.5t-14 -3.5zM333 764h-34q-11 0 -25 17l-101 145q-11 18 7 18h36q16 0 27 -18l73 -110
l72 110q10 18 28 18h35q19 0 7 -18l-101 -145q-14 -17 -24 -17z" />
    <glyph glyph-name="zcaron" unicode="&#x17e;" horiz-adv-x="489" 
d="M439 0h-401q-8 0 -8 8v7q0 7 6 16l285 400h-249q-10 0 -13.5 3.5t-3.5 13.5v43q0 10 3.5 14t13.5 4h375q8 0 8 -9v-7q0 -5 -6 -16l-283 -399h273q10 0 13.5 -4t3.5 -14v-43q0 -10 -3.5 -13.5t-13.5 -3.5zM272 573h-34q-11 0 -25 17l-101 145q-10 18 7 18h36q17 0 27 -18
l73 -110l72 110q11 18 28 18h35q19 0 7 -18l-101 -145q-14 -17 -24 -17z" />
    <glyph glyph-name="longs" unicode="&#x17f;" horiz-adv-x="414" 
d="M115 507v31q0 223 185 223q51 0 89 -21q12 -7 8 -22l-7 -38q-3 -12 -7 -13.5t-15 4.5q-25 10 -59 10q-56 0 -81.5 -34t-25.5 -114v-516q0 -10 -3.5 -13.5t-13.5 -3.5h-53q-10 0 -13.5 3.5t-3.5 13.5v418h-70q-18 0 -18 18v36q0 11 3.5 14.5t14.5 3.5h70z" />
    <glyph glyph-name="florin" unicode="&#x192;" horiz-adv-x="481" 
d="M259 435v-448q0 -114 -39.5 -168.5t-120.5 -54.5q-59 0 -99 26q-7 4 -8.5 8t0.5 14l7 38q3 12 7 13.5t15 -3.5q28 -17 69 -17q81 0 81 149v443h-89q-10 0 -13.5 4t-3.5 14v36q0 10 3.5 14t13.5 4h89v31q0 223 186 223q59 0 99 -26q12 -7 8 -22l-7 -38q-3 -12 -7 -13.5
t-15 3.5q-27 16 -69 16q-56 0 -81.5 -34t-25.5 -114v-26h171q10 0 14 -3.5t4 -14.5v-36q0 -18 -18 -18h-171z" />
    <glyph glyph-name="Aringacute" unicode="&#x1fa;" 
d="M361 556h-1l-137 -300h275zM376 700l330 -683q4 -7 0.5 -12t-11.5 -5h-69q-14 0 -23 17l-74 159h-338l-73 -159q-9 -17 -23 -17h-70q-7 0 -10.5 5t-0.5 12l331 683q8 16 14 16h3q4 0 14 -16zM358 769q-46 0 -76.5 31.5t-30.5 78.5t30.5 78.5t76.5 31.5t77 -31.5t31 -78.5
t-31 -78.5t-77 -31.5zM358 814q27 0 43 19.5t16 45.5t-15.5 45t-42.5 19t-43.5 -19t-16.5 -45t16.5 -45.5t42.5 -19.5zM469 1126l-87 -79q-13 -11 -28 -11h-48q-21 0 -2 20l124 132q12 15 24 -4l22 -35q7 -14 -5 -23z" />
    <glyph glyph-name="aringacute" unicode="&#x1fb;" horiz-adv-x="562" 
d="M119 427q-10 -1 -14 2.5t-7 14.5l-9 35q-4 18 12 22q76 19 173 19q127 0 172.5 -56t45.5 -185v-262q0 -10 -3.5 -13.5t-13.5 -3.5h-33q-13 0 -18 17l-5 61q-71 -89 -196 -89q-75 0 -126 44t-51 122q0 79 54.5 120.5t146.5 41.5q74 0 157 -32q0 87 -29 122.5t-104 35.5
q-76 0 -152 -16zM266 252q-66 0 -99.5 -25.5t-33.5 -71.5q0 -42 30.5 -70t86.5 -28q44 0 86.5 25.5t67.5 60.5v77q-81 32 -138 32zM280 578q-46 0 -76.5 31.5t-30.5 78.5t30.5 78.5t76.5 31.5t77 -31.5t31 -78.5t-31 -78.5t-77 -31.5zM280 623q27 0 43 19.5t16 45.5
t-15.5 45t-42.5 19t-43.5 -19t-16.5 -45t16.5 -45.5t42.5 -19.5zM388 942l-87 -79q-13 -11 -28 -11h-48q-21 0 -2 20l124 132q12 15 24 -4l22 -35q7 -14 -5 -23z" />
    <glyph glyph-name="AEacute" unicode="&#x1fc;" horiz-adv-x="977" 
d="M445 0q-10 0 -14 3.5t-4 13.5v159h-218l-91 -159q-8 -17 -23 -17h-70q-7 0 -10.5 5t-0.5 12l378 656q14 27 24 27h483q17 0 17 -18v-45q0 -18 -17 -18h-371v-226h348q10 0 13.5 -3.5t3.5 -13.5v-46q0 -10 -3.5 -13.5t-13.5 -3.5h-348v-233h371q10 0 13.5 -3.5t3.5 -13.5
v-46q0 -10 -3.5 -13.5t-13.5 -3.5h-454zM427 570l-176 -314h176v314zM665 857l-87 -79q-13 -11 -28 -11h-48q-21 0 -2 20l124 132q12 15 24 -4l22 -35q7 -14 -5 -23z" />
    <glyph glyph-name="aeacute" unicode="&#x1fd;" horiz-adv-x="932" 
d="M410 285v69q-9 49 -42 69t-95 20q-77 0 -151 -16q-18 -3 -21 16l-9 36q-6 18 12 22t73 11.5t102 7.5q65 0 106.5 -17t68.5 -60q84 77 192 77q61 0 110 -24.5t77.5 -65t43 -88t14.5 -98.5v-4q0 -9 -3 -12.5t-13 -3.5h-375v-54q17 -43 58.5 -74t91.5 -31q85 0 152 46
q17 10 25 -1l23 -27q11 -14 2 -23q-33 -33 -90 -52t-116 -19q-65 0 -116.5 33t-75.5 76q-34 -40 -96.5 -74.5t-133.5 -34.5q-75 0 -126.5 43t-51.5 121q0 81 53 122.5t144 41.5q84 0 167 -32zM410 143v77q-81 32 -147 32t-101 -26t-35 -74q0 -41 29.5 -68t84.5 -27
q46 0 95.5 26t73.5 60zM502 356v-72h299q-4 68 -43.5 115t-113.5 47q-92 0 -142 -90zM556 666l-87 -79q-13 -11 -28 -11h-48q-21 0 -2 20l124 132q12 15 24 -4l22 -35q7 -14 -5 -23z" />
    <glyph glyph-name="Oslashacute" unicode="&#x1fe;" horiz-adv-x="814" 
d="M48 350q0 149 105.5 256t253.5 107q68 0 134 -27l23 43q6 14 22 14h31q23 0 14 -19l-36 -67q42 -28 77 -65t64 -102.5t29 -139.5q0 -149 -105 -256t-253 -107q-77 0 -144 31l-25 -47q-6 -14 -22 -14h-31q-23 0 -15 18l39 72q-73 51 -117 130.5t-44 172.5zM671 350
q0 133 -116 229l-253 -486q48 -24 105 -24q112 0 188 85t76 196zM142 350q1 -126 110 -223l251 483q-50 21 -96 21q-110 0 -188 -85.5t-77 -195.5zM521 857l-87 -79q-13 -11 -28 -11h-48q-21 0 -2 20l124 132q12 15 24 -4l22 -35q7 -14 -5 -23z" />
    <glyph glyph-name="oslashacute" unicode="&#x1ff;" horiz-adv-x="620" 
d="M43 254q0 110 77.5 188t186.5 78q50 0 90 -17l20 35q8 16 24 16h30q25 0 15 -18l-34 -61q54 -37 86 -94.5t32 -126.5q0 -110 -77 -187.5t-186 -77.5q-49 0 -98 19l-17 -37q-7 -16 -24 -16h-29q-24 0 -15 18l31 64q-51 35 -81.5 93t-30.5 124zM307 67q73 0 124.5 54.5
t51.5 132.5q0 84 -71 144l-166 -318q30 -13 61 -13zM131 254q0 -35 14 -67.5t23 -43t27 -29.5l165 316q-27 10 -53 10q-74 0 -125 -54t-51 -132zM411 666l-87 -79q-13 -11 -28 -11h-48q-21 0 -2 20l124 132q12 15 24 -4l22 -35q7 -14 -5 -23z" />
    <glyph glyph-name="uni0218" unicode="&#x218;" horiz-adv-x="639" 
d="M337 -233h-6q-27 1 -45 19.5t-18 44.5q0 27 18.5 46t45.5 19q30 0 49 -22.5t19 -61.5q0 -69 -33.5 -120t-89.5 -80q-7 -5 -12 1l-16 25q-4 7 4 12q74 48 84 117zM328 629q-51 0 -87 -12.5t-54 -33t-25.5 -40.5t-7.5 -42q0 -28 14 -47.5t43.5 -31.5t59.5 -18.5t77 -12.5
q52 -7 91 -18t74.5 -32.5t54 -57.5t18.5 -86q0 -87 -67 -147.5t-189 -60.5q-160 0 -270 76q-13 9 -5 25l23 38q5 9 10 11t15 -4q95 -64 217 -64q77 0 126.5 28.5t49.5 93.5q0 56 -47 81.5t-150 39.5q-48 7 -84 17t-73 30t-57.5 54.5t-20.5 82.5q0 33 13 67.5t40.5 68.5
t79.5 55.5t121 21.5q72 0 127 -18.5t119 -57.5q13 -8 5 -25l-23 -37q-9 -18 -24 -8q-95 64 -194 64z" />
    <glyph glyph-name="uni0219" unicode="&#x219;" horiz-adv-x="509" 
d="M270 -233h-6q-27 1 -45 19.5t-18 44.5q0 27 18.5 46t45.5 19q30 0 49 -22.5t19 -61.5q0 -69 -33.5 -120t-89.5 -80q-7 -5 -12 1l-16 25q-4 7 4 12q74 48 84 117zM254 59q64 0 96 23.5t32 61.5q0 54 -134 73q-91 12 -142.5 42.5t-51.5 102.5t53 115t142 43q100 0 192 -56
q13 -8 5 -25l-16 -29q-9 -17 -24 -8q-41 25 -74 36.5t-78 11.5q-58 0 -87.5 -22.5t-29.5 -61.5q0 -34 30 -47.5t104 -24.5q195 -25 195 -146q0 -71 -56 -115t-151 -44q-111 0 -206 64q-13 8 -4 24l17 30q5 10 9 11.5t15 -4.5q75 -55 164 -55z" />
    <glyph glyph-name="uni021A" unicode="&#x21a;" horiz-adv-x="613" 
d="M308 -233h-6q-27 1 -45 19.5t-18 44.5q0 27 18.5 46t45.5 19q30 0 49 -22.5t19 -61.5q0 -69 -33.5 -120t-89.5 -80q-7 -5 -12 1l-16 25q-4 7 4 12q74 48 84 117zM27 700h558q11 0 14.5 -4t3.5 -14v-49q0 -10 -4 -13.5t-14 -3.5h-232v-599q0 -10 -4 -13.5t-14 -3.5h-58
q-10 0 -13.5 3.5t-3.5 13.5v599h-233q-10 0 -13.5 3.5t-3.5 13.5v49q0 10 3.5 14t13.5 4z" />
    <glyph glyph-name="uni021B" unicode="&#x21b;" horiz-adv-x="439" 
d="M194 -233h-7q-26 1 -44.5 19.5t-18.5 44.5q0 27 18.5 46t45.5 19q30 0 49 -22.5t19 -61.5q0 -136 -122 -200q-8 -5 -12 1l-16 25q-4 7 3 12q73 48 85 117zM389 13q-40 -24 -96 -24q-186 0 -186 222v226h-45q-10 0 -13.5 4t-3.5 14v36q0 10 3.5 14t13.5 4h45v101
q0 18 18 18h52q11 0 14.5 -4t3.5 -14v-101h171q18 0 18 -18v-36q0 -11 -4 -14.5t-14 -3.5h-171v-220q0 -80 25.5 -114.5t81.5 -34.5q38 0 66 14q11 6 15 4.5t7 -13.5l7 -38q4 -15 -8 -22z" />
    <glyph glyph-name="circumflex" unicode="&#x2c6;" horiz-adv-x="382" 
d="M174 753h34q12 -1 24 -18l101 -145q12 -17 -7 -17h-35q-18 0 -28 17l-72 111l-73 -111q-10 -17 -27 -17h-36q-18 0 -7 17l101 145q12 17 25 18z" />
    <glyph glyph-name="caron" unicode="&#x2c7;" horiz-adv-x="382" 
d="M208 573h-34q-11 0 -25 17l-101 145q-11 18 7 18h36q17 0 27 -18l73 -110l72 110q11 18 28 18h35q19 0 7 -18l-101 -145q-14 -17 -24 -17z" />
    <glyph glyph-name="uni02C9" unicode="&#x2c9;" horiz-adv-x="395" 
d="M318 648h-242q-10 0 -13.5 3.5t-3.5 13.5v30q0 10 3.5 14t13.5 4h242q10 0 14 -3.5t4 -14.5v-30q0 -10 -4 -13.5t-14 -3.5z" />
    <glyph glyph-name="breve" unicode="&#x2d8;" horiz-adv-x="360" 
d="M180 610q-105 0 -144 89q-8 21 4 27l28 15q13 7 20 -7q15 -36 35 -50.5t57 -14.5t57 14.5t35 50.5q7 14 20 7l28 -15q12 -6 4 -27q-39 -89 -144 -89z" />
    <glyph glyph-name="dotaccent" unicode="&#x2d9;" horiz-adv-x="183" 
d="M33 673q0 24 17 41.5t41 17.5t41.5 -17.5t17.5 -41.5t-17.5 -41t-41.5 -17t-41 17t-17 41z" />
    <glyph glyph-name="ring" unicode="&#x2da;" horiz-adv-x="293" 
d="M146 578q-46 0 -76.5 31.5t-30.5 78.5t30.5 78.5t76.5 31.5t77 -31.5t31 -78.5t-31 -78.5t-77 -31.5zM146 623q27 0 43 19.5t16 45.5t-15.5 45t-42.5 19t-43.5 -19t-16.5 -45t16.5 -45.5t42.5 -19.5z" />
    <glyph glyph-name="ogonek" unicode="&#x2db;" horiz-adv-x="235" 
d="M120 13l49 -13q-27 -7 -56 -30t-29 -57q0 -75 57 -75q11 0 45 2q10 0 13.5 -3t3.5 -12v-14q0 -10 -3.5 -13t-13.5 -4q-25 -3 -52 -3q-44 0 -73 26.5t-29 81.5q0 76 88 114z" />
    <glyph glyph-name="tilde" unicode="&#x2dc;" horiz-adv-x="442" 
d="M295 678q39 0 57 44q4 10 9 12.5t15 -1.5l22 -10q17 -6 9 -25q-34 -82 -106 -82q-45 0 -86 32q-42 32 -65 32q-39 0 -57 -44q-5 -10 -9 -12t-15 1l-23 10q-10 4 -11.5 9.5t2.5 15.5q34 82 107 82q43 0 87 -33q25 -19 36.5 -25t27.5 -6z" />
    <glyph glyph-name="hungarumlaut" unicode="&#x2dd;" horiz-adv-x="370" 
d="M193 681l-80 -95q-9 -13 -30 -13h-41q-19 0 -2 20l123 140q12 15 24 -4l10 -16q9 -15 -4 -32zM332 681l-79 -95q-9 -13 -31 -13h-40q-21 0 -2 20l123 140q12 15 24 -4l10 -16q9 -14 -5 -32z" />
    <glyph glyph-name="uni0394" unicode="&#x394;" horiz-adv-x="771" 
d="M742 0h-711q-14 0 -17 5.5t4 21.5l345 659q2 4 5 9.5t4.5 7.5t3.5 5t4 4t5 1h3q3 0 5 -1t4 -4t3.5 -5t4.5 -7.5t5 -9.5l345 -659q7 -16 4 -21.5t-17 -5.5zM626 80l-239 467l-239 -467h478z" />
    <glyph glyph-name="uni03A9" unicode="&#x3a9;" horiz-adv-x="851" 
d="M689 350q0 111 -76.5 196t-187.5 85t-189 -85.5t-76 -195.5q2 -132 136 -252q27 -37 27 -54v-27q0 -10 -3.5 -13.5t-13.5 -3.5h-237q-10 0 -14 3.5t-4 13.5v46q0 10 4 13.5t14 3.5h146q-67 47 -108 120.5t-41 149.5q0 149 105.5 256t253.5 107t253 -107t105 -256
q0 -74 -46.5 -147.5t-115.5 -122.5h164q10 0 13.5 -3.5t3.5 -13.5v-46q0 -10 -3.5 -13.5t-13.5 -3.5h-255q-10 0 -13.5 3.5t-3.5 13.5v27q0 17 27 54q30 27 49.5 47t46 54t40 72t13.5 79z" />
    <glyph glyph-name="uni03BC" unicode="&#x3bc;" horiz-adv-x="620" 
d="M460 17l-10 84q-3 -3 -15.5 -20.5t-17.5 -23t-17.5 -19.5t-22.5 -20t-25 -14.5t-31.5 -11.5t-35.5 -3q-72 0 -102 52v-228q0 -17 -17 -17h-54q-10 0 -13.5 3.5t-3.5 13.5v678q0 18 17 18h54q17 0 17 -18v-253q0 -170 122 -170q59 0 95.5 53.5t36.5 133.5v236q0 18 17 18
h54q17 0 17 -18v-474q0 -17 -17 -17h-29q-12 0 -19 17z" />
    <glyph glyph-name="pi" unicode="&#x3c0;" horiz-adv-x="746" 
d="M32 509h642q18 0 18 -18v-45q0 -10 -4 -14t-14 -4h-172v-211q0 -80 25.5 -114.5t81.5 -34.5q39 0 66 14q11 6 15.5 4.5t6.5 -13.5l8 -38q3 -15 -9 -22q-38 -24 -96 -24q-185 0 -185 222v217h-166v-411q0 -10 -4 -13.5t-14 -3.5h-52q-10 0 -14 3.5t-4 13.5v411h-129
q-17 0 -17 18v45q0 10 3.5 14t13.5 4z" />
    <glyph glyph-name="Wgrave" unicode="&#x1e80;" horiz-adv-x="961" 
d="M297 180l-178 502q-5 18 -23 18h-72q-16 0 -9 -18l261 -683q7 -16 12 -16h8q6 0 12 16l174 537l173 -537q8 -16 13 -16h7q5 0 13 16l260 683q8 18 -8 18h-73q-17 0 -23 -18l-177 -502l-165 515q-6 18 -15 18h-11q-8 0 -15 -18zM431 778l-87 79q-12 9 -5 23l22 35
q12 19 24 4l124 -132q19 -20 -2 -20h-48q-15 0 -28 11z" />
    <glyph glyph-name="wgrave" unicode="&#x1e81;" horiz-adv-x="736" 
d="M208 170l-99 324q-5 15 -22 15h-65q-16 0 -9 -18l156 -485q7 -17 15 -17h6q8 0 17 17l161 381l160 -381q8 -17 17 -17h7q8 0 14 17l156 485q8 18 -8 18h-65q-18 0 -23 -18l-98 -321l-141 337q-9 16 -16 16h-7q-6 0 -16 -16zM319 587l-87 79q-12 9 -5 23l22 35q12 19 24 4
l124 -132q19 -20 -2 -20h-48q-15 0 -28 11z" />
    <glyph glyph-name="Wacute" unicode="&#x1e82;" horiz-adv-x="961" 
d="M119 682l178 -502l164 515q7 18 15 18h11q9 0 15 -18l165 -515l177 502q6 18 23 18h73q16 0 8 -18l-260 -683q-8 -16 -13 -16h-7q-5 0 -13 16l-173 537l-174 -537q-6 -16 -12 -16h-8q-5 0 -12 16l-261 683q-7 18 9 18h72q18 0 23 -18zM599 857l-87 -79q-13 -11 -28 -11
h-48q-21 0 -2 20l124 132q12 15 24 -4l22 -35q7 -14 -5 -23z" />
    <glyph glyph-name="wacute" unicode="&#x1e83;" horiz-adv-x="736" 
d="M109 494l99 -324l140 337q10 16 16 16h7q7 0 16 -16l141 -337l98 321q5 18 23 18h65q16 0 8 -18l-156 -485q-6 -17 -14 -17h-7q-9 0 -17 17l-160 381l-161 -381q-9 -17 -17 -17h-6q-8 0 -15 17l-156 485q-7 18 9 18h65q17 0 22 -15zM481 666l-87 -79q-13 -11 -28 -11h-48
q-21 0 -2 20l124 132q12 15 24 -4l22 -35q7 -14 -5 -23z" />
    <glyph glyph-name="Wdieresis" unicode="&#x1e84;" horiz-adv-x="961" 
d="M297 180l-178 502q-5 18 -23 18h-72q-16 0 -9 -18l261 -683q7 -16 12 -16h8q6 0 12 16l174 537l173 -537q8 -16 13 -16h7q5 0 13 16l260 683q8 18 -8 18h-73q-17 0 -23 -18l-177 -502l-165 515q-6 18 -15 18h-11q-8 0 -15 -18zM335 865q0 21 14 35.5t35 14.5t35.5 -15
t14.5 -35q0 -21 -14.5 -35.5t-35.5 -14.5t-35 14.5t-14 35.5zM531 865q0 20 14.5 35t35.5 15q20 0 35 -15t15 -35q0 -21 -15 -35.5t-35 -14.5q-21 0 -35.5 14.5t-14.5 35.5z" />
    <glyph glyph-name="wdieresis" unicode="&#x1e85;" horiz-adv-x="736" 
d="M208 170l-99 324q-5 15 -22 15h-65q-16 0 -9 -18l156 -485q7 -17 15 -17h6q8 0 17 17l161 381l160 -381q8 -17 17 -17h7q8 0 14 17l156 485q8 18 -8 18h-65q-18 0 -23 -18l-98 -321l-141 337q-9 16 -16 16h-7q-6 0 -16 -16zM221 674q0 21 14 35.5t35 14.5t35.5 -15
t14.5 -35q0 -21 -14.5 -35.5t-35.5 -14.5t-35 14.5t-14 35.5zM417 674q0 20 14.5 35t35.5 15q20 0 35 -15t15 -35q0 -21 -15 -35.5t-35 -14.5q-21 0 -35.5 14.5t-14.5 35.5z" />
    <glyph glyph-name="Ygrave" unicode="&#x1ef2;" horiz-adv-x="631" 
d="M12 682l260 -411v-254q0 -10 3.5 -13.5t13.5 -3.5h56q10 0 13.5 3.5t3.5 13.5v254l260 411q10 18 -8 18h-67q-12 0 -24 -18l-206 -327l-205 327q-11 18 -24 18h-68q-19 0 -8 -18zM305 778l-87 79q-12 9 -5 23l22 35q12 19 24 4l124 -132q19 -20 -2 -20h-48q-15 0 -28 11z
" />
    <glyph glyph-name="ygrave" unicode="&#x1ef3;" horiz-adv-x="522" 
d="M262 132l157 359q9 18 23 18h62q17 0 9 -18l-303 -678q-8 -17 -23 -17h-62q-17 0 -9 17l98 219l-206 459q-8 18 9 18h62q14 0 23 -18l159 -360zM253 587l-87 79q-12 9 -5 23l22 35q12 19 24 4l124 -132q19 -20 -2 -20h-48q-15 0 -28 11z" />
    <glyph glyph-name="endash" unicode="&#x2013;" horiz-adv-x="408" 
d="M345 248h-283q-10 0 -13.5 4t-3.5 14v35q0 10 3.5 14t13.5 4h283q11 0 14.5 -3.5t3.5 -14.5v-36q0 -10 -4 -13.5t-14 -3.5z" />
    <glyph glyph-name="emdash" unicode="&#x2014;" horiz-adv-x="577" 
d="M514 248h-452q-10 0 -13.5 4t-3.5 14v35q0 10 3.5 14t13.5 4h452q10 0 14 -3.5t4 -14.5v-36q0 -10 -4 -13.5t-14 -3.5z" />
    <glyph glyph-name="quoteleft" unicode="&#x2018;" horiz-adv-x="273" 
d="M133 554h6q27 0 45 -18.5t18 -45.5t-18.5 -46t-45.5 -19q-30 0 -49 22.5t-19 61.5q0 135 123 201q8 4 12 -2l16 -25q4 -7 -4 -12q-74 -47 -84 -117z" />
    <glyph glyph-name="quoteright" unicode="&#x2019;" horiz-adv-x="273" 
d="M140 584h-7q-26 0 -44.5 18.5t-18.5 45.5t18.5 46t45.5 19q30 0 49 -22.5t19 -61.5q0 -136 -122 -201q-9 -3 -12 2l-16 25q-4 7 3 12q73 46 85 117z" />
    <glyph glyph-name="quotesinglbase" unicode="&#x201a;" horiz-adv-x="273" 
d="M140 -11h-7q-26 0 -44.5 18.5t-18.5 45.5t18.5 46t45.5 19q30 0 49 -22.5t19 -61.5q0 -136 -122 -201q-9 -3 -12 2l-16 25q-4 7 3 12q73 46 85 117z" />
    <glyph glyph-name="quotedblleft" unicode="&#x201c;" horiz-adv-x="474" 
d="M334 555h6q27 -1 45 -19.5t18 -44.5q0 -27 -18.5 -46t-45.5 -19q-30 0 -49 22.5t-19 61.5q0 69 33.5 120t89.5 80q7 5 12 -1l16 -25q4 -7 -4 -12q-74 -48 -84 -117zM133 555h6q27 -1 45 -19.5t18 -44.5q0 -27 -18.5 -46t-45.5 -19q-30 0 -49 22.5t-19 61.5q0 69 33.5 120
t89.5 80q7 5 12 -1l16 -25q4 -7 -4 -12q-74 -48 -84 -117z" />
    <glyph glyph-name="quotedblright" unicode="&#x201d;" horiz-adv-x="474" 
d="M140 584h-7q-26 0 -44.5 18.5t-18.5 45.5t18.5 46t45.5 19q30 0 49 -22.5t19 -61.5q0 -136 -122 -201q-9 -3 -12 2l-16 25q-4 7 3 12q73 46 85 117zM341 584h-7q-26 0 -44.5 18.5t-18.5 45.5t18.5 46t45.5 19q30 0 49 -22.5t19 -61.5q0 -136 -122 -201q-9 -3 -12 2
l-16 25q-4 7 3 12q73 46 85 117z" />
    <glyph glyph-name="quotedblbase" unicode="&#x201e;" horiz-adv-x="474" 
d="M140 -11h-7q-26 0 -44.5 18.5t-18.5 45.5t18.5 46t45.5 19q30 0 49 -22.5t19 -61.5q0 -136 -122 -201q-9 -3 -12 2l-16 25q-4 7 3 12q73 46 85 117zM341 -11h-7q-26 0 -44.5 18.5t-18.5 45.5t18.5 46t45.5 19q30 0 49 -22.5t19 -61.5q0 -136 -122 -201q-9 -3 -12 2
l-16 25q-4 7 3 12q73 46 85 117z" />
    <glyph glyph-name="dagger" unicode="&#x2020;" horiz-adv-x="414" 
d="M350 412h-107l-7 -494q0 -10 -3.5 -13.5t-13.5 -3.5h-25q-10 0 -13.5 3.5t-3.5 13.5l-7 494h-107q-10 0 -13.5 4t-3.5 14v35q0 10 3.5 14t13.5 4h106v199q0 10 3.5 14t14.5 4h40q10 0 13.5 -4t3.5 -14v-199h106q10 0 14 -3.5t4 -14.5v-35q0 -18 -18 -18z" />
    <glyph glyph-name="daggerdbl" unicode="&#x2021;" horiz-adv-x="424" 
d="M355 126h-106v-208q0 -10 -3.5 -13.5t-13.5 -3.5h-40q-10 0 -14 3.5t-4 13.5v208h-106q-10 0 -13.5 3.5t-3.5 13.5v36q0 10 3.5 13.5t13.5 3.5h106v245h-106q-10 0 -13.5 3.5t-3.5 13.5v36q0 10 3.5 13.5t13.5 3.5h106v171q0 10 4 14t14 4h40q10 0 13.5 -4t3.5 -14v-171
h106q10 0 14 -3.5t4 -13.5v-36q0 -10 -4 -13.5t-14 -3.5h-106v-245h106q10 0 14 -3.5t4 -13.5v-36q0 -17 -18 -17z" />
    <glyph glyph-name="bullet" unicode="&#x2022;" horiz-adv-x="242" 
d="M41 342q0 34 23 57.5t57 23.5q33 0 56.5 -23.5t23.5 -57.5t-23.5 -57t-56.5 -23q-34 0 -57 23t-23 57z" />
    <glyph glyph-name="ellipsis" unicode="&#x2026;" horiz-adv-x="751" 
d="M70 53q0 27 18.5 46t45.5 19t46 -19t19 -46t-19 -45.5t-46 -18.5t-45.5 18.5t-18.5 45.5zM311 53q0 27 18.5 46t45.5 19t46 -19t19 -46t-19 -45.5t-46 -18.5t-45.5 18.5t-18.5 45.5zM551 53q0 27 18.5 46t45.5 19t46 -19t19 -46t-19 -45.5t-46 -18.5t-45.5 18.5
t-18.5 45.5z" />
    <glyph glyph-name="perthousand" unicode="&#x2030;" horiz-adv-x="1260" 
d="M205 355q-76 0 -122 46.5t-46 132.5t46 132.5t122 46.5t122 -46.5t46 -132.5t-46 -132.5t-122 -46.5zM205 410q48 0 75 33.5t27 90.5t-27 90t-75 33t-75 -33t-27 -90t27 -90.5t75 -33.5zM705 682l-471 -669q-9 -13 -23 -13h-41q-25 0 -12 17l471 669q10 14 23 14h42
q23 0 11 -18zM657 -2q-76 0 -122 46.5t-46 132.5t46 132.5t122 46.5t122.5 -46.5t46.5 -132.5t-46.5 -132.5t-122.5 -46.5zM657 53q48 0 75.5 33.5t27.5 90.5t-27.5 90t-75.5 33t-75 -33t-27 -90t27 -90.5t75 -33.5zM1054 -2q-76 0 -122 46.5t-46 132.5t46 132.5t122 46.5
t122.5 -46.5t46.5 -132.5t-46.5 -132.5t-122.5 -46.5zM1054 53q48 0 75.5 33.5t27.5 90.5t-27.5 90t-75.5 33t-75 -33t-27 -90t27 -90.5t75 -33.5z" />
    <glyph glyph-name="guilsinglleft" unicode="&#x2039;" horiz-adv-x="331" 
d="M51 290l166 185q12 12 24 4l35 -20q13 -8 3 -23l-153 -182l153 -183q10 -14 -3 -23l-35 -20q-13 -7 -24 4l-166 185q-16 17 -16 34v6q0 16 16 33z" />
    <glyph glyph-name="guilsinglright" unicode="&#x203a;" horiz-adv-x="331" 
d="M113 475l167 -185q16 -17 16 -33v-6q0 -15 -16 -34l-167 -185q-11 -11 -23 -4l-35 20q-14 10 -3 23l152 183l-152 182q-12 15 3 23l35 20q11 8 23 -4z" />
    <glyph glyph-name="fraction" unicode="&#x2044;" horiz-adv-x="470" 
d="M439 682l-332 -667q-7 -15 -23 -15h-29q-23 0 -15 17l333 668q7 15 22 15h30q23 0 14 -18z" />
    <glyph glyph-name="uni2070" unicode="&#x2070;" horiz-adv-x="0" 
 />
    <glyph glyph-name="uni2080" unicode="&#x2080;" horiz-adv-x="312" 
 />
    <glyph glyph-name="one.denom" unicode="&#x2081;" horiz-adv-x="185" 
d="M20 265l68 37q14 8 21 8h26q10 0 10 -10v-290q0 -10 -10 -10h-36q-10 0 -10 10v230l-65 -21q-9 -1 -9 7v29q0 6 5 10z" />
    <glyph glyph-name="uni2083" unicode="&#x2083;" horiz-adv-x="0" 
 />
    <glyph glyph-name="uni2086" unicode="&#x2086;" horiz-adv-x="0" 
 />
    <glyph glyph-name="uni2088" unicode="&#x2088;" horiz-adv-x="0" 
 />
    <glyph glyph-name="peseta" unicode="&#x20a7;" horiz-adv-x="1544" 
 />
    <glyph glyph-name="Euro" unicode="&#x20ac;" horiz-adv-x="627" 
d="M482 245h-276q23 -70 80 -123t144 -53q65 0 107 21q16 7 22 -10l17 -44q7 -17 -6 -22q-61 -27 -140 -27q-116 0 -204.5 73t-116.5 185h-79q-10 0 -14 3.5t-4 13.5v11q0 10 4 13.5t14 3.5h69q-5 32 -5 66l1 37h-65q-10 0 -14 3.5t-4 13.5v10q0 10 4 14t14 4h72
q24 120 114.5 197.5t213.5 77.5q70 0 140 -27q13 -5 6 -23l-16 -45q-5 -16 -22 -9q-44 22 -108 22q-93 0 -151.5 -56t-80.5 -137h284q10 0 13.5 -3.5t3.5 -13.5v-11q0 -10 -3.5 -13.5t-13.5 -3.5h-292l-2 -37q0 -28 6 -66h288q10 0 13.5 -3.5t3.5 -13.5v-11
q0 -10 -3.5 -13.5t-13.5 -3.5z" />
    <glyph glyph-name="uni2113" unicode="&#x2113;" horiz-adv-x="476" 
d="M112 227l-57 -17q-18 -6 -21 11l-3 13q-3 16 10 21q42 11 71 21v215q0 51 6.5 87t23.5 68t52 48.5t88 16.5q68 0 107 -42.5t39 -107t-31 -140.5q-30 -58 -87 -100t-146 -76v-25q0 -183 157 -183q14 0 37.5 5.5t35.5 13.5q17 12 21 -8l4 -12q3 -14 -8 -21q-39 -26 -99 -26
q-96 0 -148 60t-52 160v18zM353 444q24 51 26 101t-22.5 84t-74.5 34q-62 0 -90 -39.5t-28 -132.5v-196q68 26 118.5 65t70.5 84z" />
    <glyph glyph-name="trademark" unicode="&#x2122;" horiz-adv-x="889" 
d="M19 700h310q8 0 8 -9v-36q0 -10 -8 -10h-125v-322q0 -8 -10 -8h-41q-9 0 -9 8v322h-125q-9 0 -9 10v36q0 9 9 9zM770 573l-141 -256q-6 -9 -12 -9h-4q-7 0 -11 9l-141 255l-28 -248q-1 -9 -11 -9h-36q-10 0 -9 9l46 379q1 5 5 5h3q5 0 7 -5l177 -312l177 312q2 5 7 5h4
q3 0 4 -5l46 -379q1 -9 -9 -9h-37q-9 0 -9 9z" />
    <glyph glyph-name="Omega" unicode="&#x2126;" horiz-adv-x="851" 
d="M689 350q0 111 -76.5 196t-187.5 85t-189 -85.5t-76 -195.5q2 -132 136 -252q27 -37 27 -54v-27q0 -10 -3.5 -13.5t-13.5 -3.5h-237q-10 0 -14 3.5t-4 13.5v46q0 10 4 13.5t14 3.5h146q-67 47 -108 120.5t-41 149.5q0 149 105.5 256t253.5 107t253 -107t105 -256
q0 -74 -46.5 -147.5t-115.5 -122.5h164q10 0 13.5 -3.5t3.5 -13.5v-46q0 -10 -3.5 -13.5t-13.5 -3.5h-255q-10 0 -13.5 3.5t-3.5 13.5v27q0 17 27 54q30 27 49.5 47t46 54t40 72t13.5 79z" />
    <glyph glyph-name="estimated" unicode="&#x212e;" horiz-adv-x="801" 
d="M167 521v-144h467v148q-90 129 -232 129q-78 0 -139.5 -40t-95.5 -93zM743 318h-576v-140q37 -56 97 -94.5t138 -38.5q61 0 115 26t92 65q13 13 24 1l19 -22q14 -12 0 -26q-109 -103 -250 -103q-148 0 -253.5 107t-105.5 257q0 149 105.5 256t253.5 107t253 -107
t105 -256v-14q0 -10 -3.5 -14t-13.5 -4z" />
    <glyph glyph-name="oneeighth" unicode="&#x215b;" horiz-adv-x="654" 
d="M500 682l-342 -667q-7 -15 -23 -15h-29q-24 0 -15 17l343 668q8 15 22 15h30q23 0 14 -18zM50 655l68 37q14 8 21 8h26q10 0 10 -10v-290q0 -10 -10 -10h-37q-10 0 -10 10v229l-64 -22q-9 -1 -9 8v30q0 6 5 10zM491 -13q-58 0 -88 25.5t-30 66.5q0 34 22 54t41 25v1
q-55 25 -55 74q0 39 29 64.5t81 25.5t81 -25.5t29 -64.5q0 -49 -55 -74v-1q19 -5 41 -25t22 -54q0 -41 -30 -66.5t-88 -25.5zM491 140q-31 -3 -50.5 -18.5t-19.5 -40.5q0 -52 70 -52t70 52q0 25 -19.5 40.5t-50.5 18.5zM491 280q-29 0 -45.5 -13.5t-16.5 -36.5q0 -45 62 -52
q62 6 62 52q0 23 -16.5 36.5t-45.5 13.5z" />
    <glyph glyph-name="threeeighths" unicode="&#x215c;" horiz-adv-x="706" 
d="M552 682l-342 -667q-7 -15 -23 -15h-29q-24 0 -15 17l343 668q8 15 22 15h30q23 0 14 -18zM543 -13q-58 0 -88 25.5t-30 66.5q0 34 22 54t41 25v1q-55 25 -55 74q0 39 29 64.5t81 25.5t81 -25.5t29 -64.5q0 -49 -55 -74v-1q19 -5 41 -25t22 -54q0 -41 -30 -66.5
t-88 -25.5zM543 140q-31 -3 -50.5 -18.5t-19.5 -40.5q0 -52 70 -52t70 52q0 25 -19.5 40.5t-50.5 18.5zM543 280q-29 0 -45.5 -13.5t-16.5 -36.5q0 -45 62 -52q62 6 62 52q0 23 -16.5 36.5t-45.5 13.5zM155 381q-62 0 -106 44q-7 6 0 14l23 24q7 7 15 1q31 -31 68 -31
q33 0 50 13t17 35q0 19 -19 30.5t-48 11.5h-29q-10 0 -10 10v27q0 10 10 10h29q29 0 48 12t19 31q0 21 -17.5 34.5t-49.5 13.5q-37 0 -68 -31q-8 -7 -15 0l-23 25q-7 7 0 13q45 45 106 45q46 0 81.5 -24t35.5 -71q0 -51 -52 -71v-1q22 -8 37 -26.5t15 -45.5
q0 -46 -35.5 -69.5t-81.5 -23.5z" />
    <glyph glyph-name="fiveeighths" unicode="&#x215d;" horiz-adv-x="699" 
d="M545 682l-342 -667q-7 -15 -23 -15h-29q-23 0 -15 17l343 668q7 15 22 15h30q23 0 14 -18zM536 -13q-58 0 -88 25.5t-30 66.5q0 34 22 54t41 25v1q-55 25 -55 74q0 39 29 64.5t81 25.5t81 -25.5t29 -64.5q0 -49 -55 -74v-1q19 -5 41 -25t22 -54q0 -41 -30 -66.5
t-88 -25.5zM536 140q-31 -3 -50.5 -18.5t-19.5 -40.5q0 -52 70 -52t70 52q0 25 -19.5 40.5t-50.5 18.5zM536 280q-30 0 -46 -13.5t-16 -36.5q0 -45 62 -52q62 6 62 52q0 23 -16 36.5t-46 13.5zM90 700h154q7 0 7 -8v-27q0 -8 -7 -8h-123l-10 -80h46q115 0 115 -97
q0 -52 -33 -77.5t-86 -25.5q-61 0 -106 47q-3 4 1 10l19 20q5 7 11 1q13 -12 20 -17.5t22 -11.5t33 -6q71 0 71 59q0 55 -69 55h-85q-8 0 -7 8l19 150q1 8 8 8z" />
    <glyph glyph-name="seveneighths" unicode="&#x215e;" horiz-adv-x="629" 
d="M475 682l-342 -667q-7 -15 -23 -15h-29q-23 0 -15 17l343 668q7 15 22 15h30q23 0 14 -18zM466 -13q-58 0 -88 25.5t-30 66.5q0 34 22 54t41 25v1q-55 25 -55 74q0 39 29 64.5t81 25.5t81 -25.5t29 -64.5q0 -49 -55 -74v-1q19 -5 41 -25t22 -54q0 -41 -30 -66.5
t-88 -25.5zM466 140q-31 -3 -50.5 -18.5t-19.5 -40.5q0 -52 70 -52t70 52q0 25 -19.5 40.5t-50.5 18.5zM466 280q-30 0 -46 -13.5t-16 -36.5q0 -45 62 -52q62 6 62 52q0 23 -16 36.5t-46 13.5zM267 694v-9q0 -5 -4 -11l-160 -277q-3 -7 -11 -7h-36q-10 0 -7 7l146 255h-143
q-7 1 -7 8v32q0 8 7 8h209q6 0 6 -6z" />
    <glyph glyph-name="partialdiff" unicode="&#x2202;" horiz-adv-x="613" 
d="M270 457q76 0 126 -32t74 -83q0 131 -44.5 210t-135.5 79q-94 0 -170 -68q-13 -14 -26 1l-32 35q-14 13 -2 25q100 89 224 89q278 0 278 -400q0 -67 -11.5 -120.5t-39.5 -102.5t-84 -76t-137 -27q-111 0 -177.5 72.5t-66.5 178.5q0 104 64.5 161.5t159.5 57.5zM295 66
q48 0 83 17t52 43.5t24.5 51t7.5 47.5q0 62 -51 109.5t-116 47.5q-66 0 -111.5 -41.5t-45.5 -108.5q0 -71 41 -118.5t116 -47.5z" />
    <glyph glyph-name="Delta" unicode="&#x2206;" horiz-adv-x="769" 
d="M740 0h-711q-14 0 -17 5.5t4 21.5l345 659q2 4 5 9.5t4.5 7.5t3.5 5t4 4t5 1h3q3 0 5 -1t4 -4t3.5 -5t4.5 -7.5t5 -9.5l345 -659q7 -16 4 -21.5t-17 -5.5zM623 80l-238 467l-239 -467h477z" />
    <glyph glyph-name="product" unicode="&#x220f;" horiz-adv-x="659" 
d="M190 619v-602q0 -10 -3.5 -13.5t-13.5 -3.5h-58q-10 0 -14 3.5t-4 13.5v665q0 18 18 18h429q17 0 17 -18v-665q0 -10 -3.5 -13.5t-13.5 -3.5h-58q-10 0 -14 3.5t-4 13.5v602h-278z" />
    <glyph glyph-name="summation" unicode="&#x2211;" horiz-adv-x="608" 
d="M378 335l-163 -255h318q10 0 13.5 -3.5t3.5 -13.5v-46q0 -10 -3.5 -13.5t-13.5 -3.5h-447q-10 0 -13.5 3.5t-3.5 13.5l217 331l-217 334q0 10 3.5 14t13.5 4h447q10 0 13.5 -4t3.5 -14v-45q0 -10 -3.5 -14t-13.5 -4h-318l163 -256q9 -14 0 -28z" />
    <glyph glyph-name="minus" unicode="&#x2212;" horiz-adv-x="577" 
d="M509 254h-442q-10 0 -13.5 4t-3.5 14v30q0 18 17 18h442q11 0 14.5 -4t3.5 -14v-31q0 -10 -4 -13.5t-14 -3.5z" />
    <glyph glyph-name="uni2215" unicode="&#x2215;" horiz-adv-x="490" 
d="M447 682l-333 -667q-7 -15 -22 -15h-30q-22 0 -14 17l332 668q8 15 23 15h29q24 0 15 -18z" />
    <glyph glyph-name="uni2219" unicode="&#x2219;" horiz-adv-x="236" 
d="M49 342q0 29 20 49.5t49 20.5t49 -20.5t20 -49.5q0 -28 -20.5 -48.5t-48.5 -20.5q-29 0 -49 20t-20 49z" />
    <glyph glyph-name="radical" unicode="&#x221a;" horiz-adv-x="698" 
d="M681 615h-115l-289 -614q-9 -16 -14 -16h-3q-5 0 -14 16l-230 490q-8 18 9 18h62q15 0 23 -18l151 -338l245 529q10 18 23 18h152q10 0 13.5 -4t3.5 -14v-50q0 -10 -3.5 -13.5t-13.5 -3.5z" />
    <glyph glyph-name="infinity" unicode="&#x221e;" horiz-adv-x="689" 
d="M654 370q0 -106 -47.5 -161.5t-122.5 -55.5q-33 0 -61.5 14t-45.5 35t-26 37.5t-13 29.5h-2q-5 -12 -13 -25t-23.5 -32.5t-41.5 -31.5t-57 -12q-73 0 -119.5 53t-46.5 150q0 96 46.5 149t119.5 53q31 0 57 -12t41.5 -31t23.5 -32t13 -25h3q4 12 13 28.5t25.5 37.5t45 35
t61.5 14q76 0 123 -55t47 -163zM367 370q6 -58 36 -98.5t77 -40.5q46 0 76.5 35.5t30.5 103.5q0 70 -30.5 105t-76.5 35q-48 0 -77.5 -40.5t-35.5 -99.5zM103 370q0 -56 28.5 -90t73.5 -34q43 0 70 35t32 89q-5 55 -31.5 90.5t-70.5 35.5q-45 0 -73.5 -34t-28.5 -92z" />
    <glyph glyph-name="integral" unicode="&#x222b;" horiz-adv-x="487" 
d="M187 -8v498q0 223 186 223q55 0 99 -26q12 -7 8 -22l-7 -38q-3 -12 -7 -14t-15 4q-34 16 -69 16q-56 0 -81.5 -34.5t-25.5 -113.5v-498q0 -223 -186 -223q-57 0 -99 26q-7 4 -8.5 8t0.5 14l7 38q2 12 6.5 13.5t15.5 -3.5q36 -17 69 -17q56 0 81.5 34.5t25.5 114.5z" />
    <glyph glyph-name="approxequal" unicode="&#x2248;" horiz-adv-x="521" 
d="M249 369q-44 38 -73 38q-41 0 -78 -59q-13 -14 -26 -3l-24 24q-13 13 0 27q20 25 33.5 39t38 26.5t53.5 12.5q45 0 96 -45q25 -21 39 -28.5t33 -7.5q41 0 78 59q12 14 26 2l23 -24q13 -12 0 -26q-19 -24 -33 -38.5t-38.5 -27t-53.5 -12.5q-46 0 -94 43zM253 180
q-44 38 -73 38q-40 0 -78 -59q-12 -14 -26 -2l-23 24q-13 12 0 26q19 24 33 38.5t38.5 27t53.5 12.5q44 0 96 -44q25 -21 38.5 -29t32.5 -8q41 0 78 59q7 9 12.5 9.5t13.5 -6.5l24 -24q13 -12 0 -27q-20 -25 -33.5 -39t-38 -26.5t-53.5 -12.5q-47 0 -95 43z" />
    <glyph glyph-name="notequal" unicode="&#x2260;" horiz-adv-x="564" 
d="M117 17l86 220h-136q-10 0 -13.5 3.5t-3.5 13.5v35q0 10 3.5 14t13.5 4h164l50 127h-214q-10 0 -13.5 3.5t-3.5 13.5v35q0 10 3.5 14t13.5 4h241l71 181q7 15 23 15h27q8 0 12.5 -3t3.5 -9q-1 -2 -72 -184h123q10 0 14 -3.5t4 -13.5v-36q0 -10 -4 -13.5t-14 -3.5h-150
l-50 -127h200q10 0 14 -3.5t4 -13.5v-36q0 -10 -4 -13.5t-14 -3.5h-228l-87 -222q-7 -15 -22 -15h-27q-21 0 -15 17z" />
    <glyph glyph-name="lessequal" unicode="&#x2264;" horiz-adv-x="551" 
d="M88 511l359 170q18 8 18 -7v-55q0 -15 -18 -24l-275 -129l275 -130q18 -7 18 -24v-54q0 -16 -18 -8l-359 171q-15 7 -16 20v49q1 13 16 21zM474 83h-398q-10 0 -13.5 4t-3.5 14v38q0 10 3.5 14t13.5 4h398q10 0 14 -3.5t4 -13.5v-40q0 -10 -4 -13.5t-14 -3.5z" />
    <glyph glyph-name="greaterequal" unicode="&#x2265;" horiz-adv-x="551" 
d="M103 681l360 -170q15 -8 15 -21v-49q0 -13 -15 -20l-360 -171q-17 -8 -17 8v54q0 17 17 24l275 130l-275 129q-17 9 -17 24v55q0 15 17 7zM474 83h-398q-10 0 -13.5 3.5t-3.5 13.5v40q0 10 3.5 13.5t13.5 3.5h398q10 0 14 -3.5t4 -14.5v-38q0 -11 -4 -14.5t-14 -3.5z" />
    <glyph glyph-name="lozenge" unicode="&#x25ca;" horiz-adv-x="680" 
d="M128 350l214 -250l214 250l-214 249zM631 309l-254 -295q-18 -21 -33 -21h-4q-15 0 -33 21l-254 295q-41 41 0 82l254 295q18 21 33 21h4q15 0 33 -21l254 -295q41 -41 0 -82z" />
    <glyph glyph-name="two.num" horiz-adv-x="301" 
d="M226 567l-89 -124h111q10 0 10 -10v-34q0 -9 -10 -9h-201q-3 0 -3 3v4q0 5 4 10l127 167q27 38 16.5 63t-41.5 25q-42 0 -70 -29q-8 -7 -15 0l-21 23q-7 8 0 14q46 43 106 43q67 0 89.5 -49t-13.5 -97z" />
    <glyph glyph-name="one.num" horiz-adv-x="239" 
d="M40 655l68 37q14 8 21 8h26q10 0 10 -10v-290q0 -10 -10 -10h-36q-10 0 -10 10v230l-65 -21q-9 -1 -9 7v29q0 6 5 10z" />
    <glyph glyph-name="three.num" horiz-adv-x="298" 
d="M144 381q-62 0 -106 44q-7 6 0 14l20 21q7 7 15 0q32 -32 71 -32q67 0 67 53q0 19 -18.5 32t-48.5 13h-29q-10 0 -10 10v21q0 11 10 11h29q30 0 48.5 13t18.5 32q0 23 -16 38t-51 15q-38 0 -71 -33q-8 -7 -15 0l-20 22q-7 7 0 13q45 45 106 45q46 0 81.5 -24t35.5 -71
q0 -51 -52 -71v-1q22 -8 37 -26.5t15 -45.5q0 -46 -35.5 -69.5t-81.5 -23.5z" />
    <glyph glyph-name="_0127" horiz-adv-x="808" 
d="M122 750h564q16 0 21.5 -5.5t5.5 -21.5v-763q0 -16 -5.5 -21.5t-21.5 -5.5h-564q-16 0 -21.5 5.5t-5.5 21.5v763q0 16 5.5 21.5t21.5 5.5zM405 283l120 -121q15 -15 28 0l31 31q14 13 0 28l-121 121l121 121q15 14 0 27l-31 31q-13 15 -28 0l-121 -121l-120 121
q-15 15 -28 0l-32 -31q-14 -14 0 -27l121 -121l-121 -121q-13 -15 0 -28l32 -31q13 -15 28 0z" />
    <glyph glyph-name="four.num" horiz-adv-x="288" 
d="M160 700h41q9 0 9 -10v-175h46q9 0 9 -10v-25q0 -10 -9 -10h-46v-70q0 -10 -9 -10h-31q-9 0 -9 10v70h-134q-10 0 -10 10v18q0 8 8 19l124 177q4 6 11 6zM161 634l-86 -119h86v119z" />
    <glyph glyph-name="five.num" horiz-adv-x="267" 
d="M68 700h153q8 0 8 -8v-27q0 -8 -8 -8h-123l-10 -80h47q115 0 115 -97q0 -52 -33 -77.5t-86 -25.5q-61 0 -106 47q-5 4 1 10l19 20q5 6 10 1q13 -12 20.5 -18t22.5 -11.5t33 -5.5q71 0 71 59q0 55 -69 55h-85q-9 0 -8 8l20 150q1 8 8 8z" />
    <glyph glyph-name="six.num" horiz-adv-x="279" 
d="M158 595q43 0 73 -27t30 -76q0 -50 -30.5 -83t-82.5 -33q-126 0 -126 151q0 186 129 186q58 0 104 -42q5 -5 -1 -11l-19 -21q-7 -6 -12 0q-32 29 -75 29q-39 0 -58 -34t-19 -82q27 43 87 43zM146 419q31 0 48.5 20.5t17.5 50.5q0 28 -18 45.5t-48 17.5q-31 0 -52 -18.5
t-21 -48.5q0 -23 17.5 -45t55.5 -22z" />
    <glyph glyph-name="seven.num" horiz-adv-x="262" 
d="M247 694v-8q0 -7 -3 -12l-161 -277q-4 -7 -12 -7h-35q-10 0 -7 7l146 255h-143q-7 1 -7 8v32q0 8 7 8h209q6 0 6 -6z" />
    <glyph glyph-name="eight.num" horiz-adv-x="290" 
d="M145 377q-58 0 -88 25.5t-30 66.5q0 34 22 54t41 25v1q-55 25 -55 74q0 39 29 64.5t81 25.5t81 -25.5t29 -64.5q0 -49 -55 -74v-1q19 -5 41 -25t22 -54q0 -41 -30 -66.5t-88 -25.5zM145 530q-31 -3 -50.5 -18.5t-19.5 -40.5q0 -52 70 -52t70 52q0 25 -19.5 40.5
t-50.5 18.5zM145 670q-29 0 -45.5 -13.5t-16.5 -36.5q0 -45 62 -52q62 6 62 52q0 23 -16 36.5t-46 13.5z" />
    <glyph glyph-name="nine.num" horiz-adv-x="286" 
d="M128 494q-43 0 -73 27t-30 76q0 50 30.5 83t82.5 33q126 0 126 -151q0 -186 -129 -186q-58 0 -104 42q-5 5 1 11l19 21q7 6 12 0q32 -29 75 -29q39 0 58 34t19 82q-27 -43 -87 -43zM140 670q-31 0 -48.5 -20.5t-17.5 -50.5q0 -28 18 -45.5t48 -17.5q31 0 52 18.5t21 48.5
q0 23 -17.5 45t-55.5 22z" />
    <glyph glyph-name="zero.num" horiz-adv-x="312" 
d="M25 545q0 74 33 121t98 47t98 -47t33 -121t-33 -121t-98 -47t-98 47t-33 121zM80 545q0 -52 20 -84.5t56 -32.5q37 0 56.5 32.5t19.5 84.5t-19.5 84.5t-56.5 32.5q-36 0 -56 -32.5t-20 -84.5z" />
    <glyph glyph-name="two.denom" horiz-adv-x="266" 
d="M209 177l-90 -124h112q10 0 10 -10v-34q0 -9 -10 -9h-201q-4 0 -4 3v4q0 3 4 10l127 167q27 38 16.5 63t-41.5 25q-41 0 -69 -29q-8 -7 -15 0l-22 23q-6 8 0 14q48 43 106 43q67 0 90 -49t-13 -97z" />
    <glyph glyph-name="three.denom" horiz-adv-x="272" 
d="M133 -11q-62 0 -106 44q-7 6 0 14l20 21q7 7 15 0q32 -32 71 -32q67 0 67 53q0 19 -18.5 32t-48.5 13h-29q-10 0 -10 10v21q0 11 10 11h29q30 0 48.5 13t18.5 32q0 23 -16 38t-51 15q-38 0 -71 -33q-8 -7 -15 0l-20 22q-7 7 0 13q45 45 106 45q46 0 81.5 -24t35.5 -71
q0 -51 -52 -71v-1q22 -8 37 -26.5t15 -45.5q0 -46 -35.5 -69.5t-81.5 -23.5z" />
    <glyph glyph-name="nine.denom" horiz-adv-x="289" 
d="M128 105q-43 0 -73 27t-30 75q0 50 30.5 83t82.5 33q126 0 126 -151q0 -185 -129 -185q-59 0 -104 41q-4 6 1 11l19 21q7 6 12 0q33 -29 75 -29q39 0 58 34.5t19 82.5q-27 -43 -87 -43zM140 280q-31 0 -48.5 -20t-17.5 -50q0 -28 18 -46t48 -18q31 0 52 19t21 48
q0 24 -17.5 45.5t-55.5 21.5z" />
    <glyph glyph-name="four.denom" horiz-adv-x="288" 
d="M160 310h41q9 0 9 -10v-175h46q9 0 9 -10v-25q0 -10 -9 -10h-46v-70q0 -10 -9 -10h-31q-9 0 -9 10v70h-134q-10 0 -10 10v18q0 8 8 19l124 177q4 6 11 6zM161 244l-86 -119h86v119z" />
    <glyph glyph-name="eight.denom" horiz-adv-x="285" 
d="M142 -13q-57 0 -87 25.5t-30 66.5q0 34 22 54t41 25v1q-55 25 -55 74q0 39 29 64.5t80 25.5q52 0 81 -25.5t29 -64.5q0 -49 -54 -74v-1q10 -3 22.5 -10.5t26 -26t13.5 -42.5q0 -41 -30 -66.5t-88 -25.5zM142 140q-30 -3 -49.5 -18.5t-19.5 -40.5q0 -23 17 -37.5t52 -14.5
q71 0 71 52q0 25 -20 40.5t-51 18.5zM142 280q-29 0 -45.5 -13.5t-16.5 -36.5q0 -45 62 -52q63 6 63 52q0 23 -16.5 36.5t-46.5 13.5z" />
    <glyph glyph-name="seven.denom" horiz-adv-x="259" 
d="M247 304v-9q0 -5 -4 -11l-160 -277q-3 -7 -11 -7h-36q-10 0 -7 7l146 255h-143q-7 1 -7 8v32q0 8 7 8h209q6 0 6 -6z" />
    <glyph glyph-name="six.denom" horiz-adv-x="286" 
d="M160 205q43 0 73.5 -27t30.5 -75q0 -50 -30.5 -83t-82.5 -33q-126 0 -126 151q0 185 129 185q58 0 103 -41q4 -6 -1 -11l-19 -21q-6 -6 -12 0q-32 29 -74 29q-39 0 -58 -34.5t-19 -82.5q27 43 86 43zM149 30q31 0 48.5 20t17.5 50q0 28 -18.5 46t-47.5 18
q-32 0 -52.5 -19t-20.5 -48q0 -24 17 -45.5t56 -21.5z" />
    <glyph glyph-name="five.denom" horiz-adv-x="267" 
d="M68 310h153q8 0 8 -8v-27q0 -8 -8 -8h-123l-10 -80h47q115 0 115 -97q0 -52 -33 -77.5t-86 -25.5q-61 0 -106 47q-5 4 1 10l19 20q5 6 10 1q13 -12 20.5 -18t22.5 -11.5t33 -5.5q71 0 71 59q0 55 -69 55h-85q-9 0 -8 8l20 150q1 8 8 8z" />
    <glyph glyph-name="zero.tf" horiz-adv-x="655" 
d="M142 350q0 -55 9.5 -103t30 -89t58 -65t87.5 -24q51 0 88 24t57.5 65t30 89t9.5 103t-9.5 102.5t-30 89t-57.5 65.5t-88 24q-50 0 -87.5 -24t-58 -65.5t-30 -89t-9.5 -102.5zM48 350q0 159 71 261t208 102t208 -102t71 -261t-71 -261t-208 -102t-208 102t-71 261z" />
    <glyph glyph-name="one.tf" horiz-adv-x="372" 
d="M41 604l136 80q27 16 36 16h37q10 0 13.5 -4t3.5 -14v-665q0 -10 -3.5 -13.5t-13.5 -3.5h-58q-10 0 -14 3.5t-4 13.5v567l-125 -45q-17 -1 -17 15v32q0 12 9 18z" />
    <glyph glyph-name="two.tf" horiz-adv-x="560" 
d="M458 399l-269 -319h313q10 0 13.5 -3.5t3.5 -13.5v-46q0 -10 -3.5 -13.5t-13.5 -3.5h-453q-9 0 -9 8v11q0 8 9 18l337 403q25 30 31 64t-6.5 62t-46.5 46.5t-82 18.5q-104 0 -180 -80q-11 -13 -25 1l-32 35q-12 13 -1 24q104 102 238 102q61 0 109.5 -19.5t76 -52
t38.5 -73t-1.5 -85t-46.5 -84.5z" />
    <glyph glyph-name="three.tf" horiz-adv-x="584" 
d="M296 317h-104q-10 0 -14 3.5t-4 14.5v41q0 10 4 14t14 4h102q70 0 102 32.5t32 70.5q0 63 -41.5 98.5t-111.5 35.5q-89 0 -162 -79q-11 -13 -25 1l-31 34q-11 13 -1 24q52 51 101.5 76.5t117.5 25.5q45 0 87 -12t78 -36.5t58 -65.5t22 -94t-32 -93.5t-73 -55.5v-1
q49 -16 87 -55t38 -104q0 -104 -72.5 -156.5t-192.5 -52.5q-130 0 -232 102q-11 10 1 24l31 33q12 14 25 1q76 -78 175 -78q173 0 173 135q0 48 -42 80.5t-110 32.5z" />
    <glyph glyph-name="four.tf" horiz-adv-x="647" 
d="M397 700h72q10 0 13.5 -4t3.5 -14v-448h105q10 0 13.5 -3.5t3.5 -13.5v-39q0 -10 -3.5 -13.5t-13.5 -3.5h-105v-144q0 -10 -3.5 -13.5t-13.5 -3.5h-53q-10 0 -14 3.5t-4 13.5v144h-337q-10 0 -13.5 3.5t-3.5 13.5v42q0 16 11 31l326 441q8 8 16 8zM398 585l-260 -351h260
v351z" />
    <glyph glyph-name="five.tf" horiz-adv-x="579" 
d="M132 700h339q10 0 13.5 -4t3.5 -14v-45q0 -10 -3.5 -14t-13.5 -4h-283l-27 -196h120q253 0 253 -207q0 -115 -72.5 -172t-190.5 -57q-130 0 -233 103q-10 10 1 22l32 34q12 13 23 2q38 -37 78.5 -58t98.5 -21q85 0 128 33.5t43 110.5q0 128 -167 128h-187q-20 0 -17 18
l43 323q2 11 5 14.5t13 3.5z" />
    <glyph glyph-name="six.tf" horiz-adv-x="613" 
d="M343 457q95 0 159.5 -57.5t64.5 -161.5q0 -106 -67 -178.5t-178 -72.5q-65 0 -114.5 18.5t-78.5 48.5t-47 74t-24.5 88t-6.5 97q0 400 278 400q66 0 117 -20t100 -65q11 -11 -1 -25l-32 -35q-14 -14 -27 -1q-39 37 -75.5 50.5t-88.5 13.5q-91 0 -135 -79t-44 -210
q24 51 74 83t126 32zM318 66q74 0 115.5 48t41.5 118q0 67 -45.5 108.5t-111.5 41.5t-117 -47.5t-51 -109.5q0 -23 7.5 -47.5t25 -51t52.5 -43.5t83 -17z" />
    <glyph glyph-name="seven.001" horiz-adv-x="563" 
d="M549 686v-4q0 -8 -9 -25l-377 -641q-9 -16 -26 -16h-65q-22 0 -15 17l352 597h-361q-10 1 -13.5 4t-3.5 13v51q0 10 3.5 14t13.5 4h486q15 0 15 -14z" />
    <glyph glyph-name="eight.tf" horiz-adv-x="601" 
d="M300 -13q-125 0 -189.5 55.5t-64.5 143.5q0 39 16.5 72t41 53t43.5 30.5t34 15.5v3q-13 5 -28.5 14.5t-38 28t-37 49t-14.5 66.5q0 86 62.5 140.5t175.5 54.5q112 0 174.5 -54.5t62.5 -140.5q0 -36 -14.5 -66.5t-37 -49t-38 -28t-28.5 -14.5v-3q15 -5 34 -15.5
t43.5 -30.5t41 -53t16.5 -72q0 -88 -64.5 -143.5t-190.5 -55.5zM301 323q-69 -7 -117 -41.5t-48 -90.5q0 -54 42 -89.5t122 -35.5q83 0 123.5 35t40.5 90q0 56 -47.5 90.5t-115.5 41.5zM301 633q-67 0 -107.5 -34t-40.5 -86q0 -51 42 -82.5t106 -36.5q64 5 105 36.5t41 82.5
q0 53 -40 86.5t-106 33.5z" />
    <glyph glyph-name="nine.tf" horiz-adv-x="611" 
d="M271 243q-95 0 -159.5 57.5t-64.5 161.5q0 106 66.5 178.5t177.5 72.5q81 0 137 -27t84 -76t39.5 -102.5t11.5 -120.5q0 -400 -278 -400q-124 0 -224 89q-7 7 -6.5 11.5t8.5 13.5l32 34q13 15 26 2q75 -68 170 -68q91 0 135.5 78.5t44.5 209.5q-24 -51 -74 -82.5
t-126 -31.5zM296 633q-75 0 -116 -47.5t-41 -118.5q0 -66 45.5 -107.5t111.5 -41.5t116.5 47t50.5 110q0 22 -7.5 46.5t-24.5 51t-52 43.5t-83 17z" />
    <glyph glyph-name="parenleft.case" horiz-adv-x="392" 
d="M35 343q0 143 68.5 250t188.5 170q17 9 26 -8l23 -41q11 -20 -11 -29q-94 -45 -150 -136t-56 -206q0 -116 56 -207t150 -135q22 -11 11 -30l-23 -41q-10 -16 -26 -7q-119 62 -188 169.5t-69 250.5z" />
    <glyph glyph-name="parenright.case" horiz-adv-x="392" 
d="M377 343q0 -143 -68.5 -250.5t-187.5 -169.5q-16 -9 -26 7l-24 41q-11 18 11 30q94 44 150 135t56 207q0 115 -56 206t-150 136q-22 10 -11 29l24 41q9 17 26 8q119 -63 187.5 -170t68.5 -250z" />
    <glyph glyph-name="hyphen.case" horiz-adv-x="429" 
d="M352 320h-276q-10 0 -13.5 3.5t-3.5 13.5v35q0 10 3.5 14t13.5 4h276q10 0 14 -3.5t4 -13.5v-36q0 -10 -4 -13.5t-14 -3.5z" />
    <glyph glyph-name="bracketleft.case" horiz-adv-x="384" 
d="M319 -47v-41q0 -10 -4 -13.5t-14 -3.5h-190q-10 0 -14 3.5t-4 13.5v862q0 10 3.5 14t14.5 4h190q11 0 14.5 -4t3.5 -14v-40q0 -10 -3.5 -14t-14.5 -4h-125v-746h125q10 0 14 -3.5t4 -13.5z" />
    <glyph glyph-name="bracketright.case" horiz-adv-x="381" 
d="M63 -88v41q0 10 3.5 13.5t13.5 3.5h126v746h-126q-10 0 -13.5 4t-3.5 14v40q0 10 3.5 14t13.5 4h191q10 0 13.5 -4t3.5 -14v-862q0 -10 -3.5 -13.5t-13.5 -3.5h-191q-10 0 -13.5 3.5t-3.5 13.5z" />
    <glyph glyph-name="braceleft.case" horiz-adv-x="450" 
d="M35 333v47q0 14 17 20q32 9 58.5 34t26.5 57v79q0 64 18 112t44 73.5t62 41t64.5 20t59.5 4.5q11 0 14.5 -3.5t3.5 -14.5v-47q0 -10 -3.5 -13.5t-14.5 -3.5q-26 0 -50 -7t-50 -24t-41.5 -52.5t-15.5 -85.5v-79q0 -52 -27.5 -87t-62.5 -45v-4q35 -10 62.5 -45t27.5 -87
v-79q0 -50 15.5 -85.5t41.5 -52.5t50 -24t50 -7q11 0 14.5 -3.5t3.5 -14.5v-47q0 -10 -4 -13.5t-14 -3.5q-31 0 -59.5 4.5t-64.5 20t-62 41t-44 73.5t-18 112v79q0 32 -26.5 57t-58.5 34q-17 4 -17 19z" />
    <glyph glyph-name="bar.case" horiz-adv-x="260" 
d="M92 -72v863q0 11 4 14.5t14 3.5h40q10 0 13.5 -4t3.5 -14v-863q0 -10 -3.5 -13.5t-13.5 -3.5h-40q-10 0 -14 3.5t-4 13.5z" />
    <glyph glyph-name="braceright.case" horiz-adv-x="450" 
d="M414 380v-47q0 -15 -16 -19q-33 -9 -59.5 -34t-26.5 -57v-79q0 -64 -18 -112t-44 -73.5t-62 -41t-64.5 -20t-59.5 -4.5q-10 0 -13.5 3.5t-3.5 13.5v47q0 11 3.5 14.5t13.5 3.5q26 0 50.5 7t50 24t41.5 52.5t16 85.5v79q0 52 27 87t62 45v4q-35 10 -62 45t-27 87v79
q0 50 -16 85.5t-41.5 52.5t-50 24t-50.5 7q-10 0 -13.5 3.5t-3.5 13.5v47q0 10 3.5 14t13.5 4q31 0 59.5 -4.5t64.5 -20t62 -41t44 -73.5t18 -112v-79q0 -32 26.5 -57t59.5 -34q16 -5 16 -20z" />
    <glyph glyph-name="brokenbar.case" horiz-adv-x="258" 
d="M97 -68v363q0 10 4 13.5t14 3.5h28q10 0 14 -3.5t4 -13.5v-363q0 -10 -3.5 -14t-14.5 -4h-28q-11 0 -14.5 4t-3.5 14zM97 437v317q0 10 3.5 14t14.5 4h28q18 0 18 -18v-317q0 -11 -3.5 -14.5t-14.5 -3.5h-28q-11 0 -14.5 3.5t-3.5 14.5z" />
    <glyph glyph-name="guillemotleft.case" horiz-adv-x="549" 
d="M52 407l166 185q12 12 24 4l35 -20q13 -8 3 -23l-153 -182l153 -183q10 -14 -3 -23l-35 -20q-13 -7 -24 4l-166 185q-16 17 -16 34v6q0 16 16 33zM272 407l167 185q12 12 23 4l35 -20q15 -8 3 -23l-152 -182l152 -183q11 -13 -3 -23l-35 -20q-12 -7 -23 4l-167 185
q-16 19 -16 34v6q0 16 16 33z" />
    <glyph glyph-name="guillemotright.case" horiz-adv-x="549" 
d="M330 592l167 -185q16 -17 16 -33v-6q0 -15 -16 -34l-167 -185q-11 -11 -23 -4l-35 20q-14 10 -3 23l152 183l-152 182q-12 15 3 23l35 20q11 8 23 -4zM110 592l166 -185q16 -17 16 -33v-6q0 -17 -16 -34l-166 -185q-12 -11 -24 -4l-35 20q-13 9 -3 23l153 183l-153 182
q-10 15 3 23l35 20q12 8 24 -4z" />
    <glyph glyph-name="endash.case" horiz-adv-x="408" 
d="M345 320h-283q-10 0 -13.5 3.5t-3.5 13.5v35q0 10 3.5 14t13.5 4h283q10 0 14 -3.5t4 -13.5v-36q0 -10 -4 -13.5t-14 -3.5z" />
    <glyph glyph-name="emdash.case" horiz-adv-x="577" 
d="M514 320h-452q-10 0 -13.5 3.5t-3.5 13.5v35q0 10 3.5 14t13.5 4h452q10 0 14 -3.5t4 -13.5v-36q0 -10 -4 -13.5t-14 -3.5z" />
    <glyph glyph-name="bullet.case" horiz-adv-x="242" 
d="M41 357q0 33 23 56.5t57 23.5q33 0 56.5 -23.5t23.5 -56.5q0 -34 -23.5 -57t-56.5 -23q-34 0 -57 23t-23 57z" />
    <glyph glyph-name="guilsinglleft.case" horiz-adv-x="331" 
d="M51 407l166 185q12 12 24 4l35 -20q13 -8 3 -23l-153 -182l153 -183q10 -14 -3 -23l-35 -20q-13 -7 -24 4l-166 185q-16 17 -16 34v6q0 16 16 33z" />
    <glyph glyph-name="guilsinglright.case" horiz-adv-x="331" 
d="M113 592l167 -185q16 -17 16 -33v-6q0 -15 -16 -34l-167 -185q-11 -11 -23 -4l-35 20q-14 10 -3 23l152 183l-152 182q-12 15 3 23l35 20q11 8 23 -4z" />
    <glyph glyph-name="periodcentered.case" horiz-adv-x="246" 
d="M52 357q0 29 20.5 50t50.5 21q29 0 50 -21t21 -50q0 -30 -21 -50.5t-50 -20.5q-30 0 -50.5 20.5t-20.5 50.5z" />
    <glyph glyph-name="two.superior" horiz-adv-x="301" 
d="M226 649l-89 -124h111q10 0 10 -10v-34q0 -9 -10 -9h-201q-3 0 -3 3v4q0 5 4 10l127 167q27 38 16.5 63t-41.5 25q-42 0 -70 -29q-8 -7 -15 0l-21 23q-7 8 0 14q46 43 106 43q67 0 89.5 -49t-13.5 -97z" />
    <glyph glyph-name="one.superior" horiz-adv-x="239" 
d="M40 737l68 37q14 8 21 8h26q10 0 10 -10v-290q0 -10 -10 -10h-35q-10 0 -10 10v231l-66 -21q-9 -2 -9 7v28q0 6 5 10z" />
    <glyph glyph-name="zerosuperior" horiz-adv-x="334" 
d="M36 627q0 74 33 121t98 47t98 -47t33 -121t-33 -121t-98 -47t-98 47t-33 121zM88 627q0 -53 20 -86.5t59 -33.5t59 33.5t20 86.5q0 55 -19.5 87t-59.5 32q-39 0 -59 -32t-20 -87z" />
    <glyph glyph-name="foursuperior" horiz-adv-x="288" 
d="M160 782h41q9 0 9 -10v-175h46q9 0 9 -10v-25q0 -10 -9 -10h-46v-70q0 -10 -9 -10h-31q-9 0 -9 10v70h-134q-10 0 -10 10v18q0 8 8 19l124 177q4 6 11 6zM161 716l-86 -119h86v119z" />
    <glyph glyph-name="fivessuperior" horiz-adv-x="267" 
d="M68 782h153q8 0 8 -8v-27q0 -8 -8 -8h-123l-10 -80h47q115 0 115 -97q0 -52 -33 -77.5t-86 -25.5q-61 0 -106 47q-5 4 1 10l19 20q5 6 10 1q13 -12 20.5 -18t22.5 -11.5t33 -5.5q71 0 71 59q0 55 -69 55h-85q-9 0 -8 8l20 150q1 8 8 8z" />
    <glyph glyph-name="sixsuperior" horiz-adv-x="279" 
d="M158 677q43 0 73 -27t30 -76q0 -50 -30.5 -83t-82.5 -33q-126 0 -126 151q0 186 129 186q58 0 104 -42q5 -5 -1 -11l-19 -21q-7 -6 -12 0q-32 29 -75 29q-39 0 -58 -34t-19 -82q27 43 87 43zM146 501q31 0 48.5 20.5t17.5 50.5q0 28 -18 45.5t-48 17.5q-31 0 -52 -18.5
t-21 -48.5q0 -23 17.5 -45t55.5 -22z" />
    <glyph glyph-name="sevensuperior" horiz-adv-x="262" 
d="M247 776v-9q0 -5 -4 -11l-160 -277q-3 -7 -11 -7h-36q-10 0 -7 7l146 255h-143q-7 1 -7 8v32q0 8 7 8h209q6 0 6 -6z" />
    <glyph glyph-name="eightsuperior" horiz-adv-x="290" 
d="M145 459q-58 0 -88 25.5t-30 66.5q0 34 22 54t41 25v1q-55 25 -55 74q0 39 29 64.5t81 25.5t81 -25.5t29 -64.5q0 -49 -55 -74v-1q19 -5 41 -25t22 -54q0 -41 -30 -66.5t-88 -25.5zM145 612q-31 -3 -50.5 -18.5t-19.5 -40.5q0 -52 70 -52t70 52q0 25 -19.5 40.5
t-50.5 18.5zM145 752q-29 0 -45.5 -13.5t-16.5 -36.5q0 -45 62 -52q62 6 62 52q0 23 -16 36.5t-46 13.5z" />
    <glyph glyph-name="ninesuperior" horiz-adv-x="286" 
d="M128 576q-43 0 -73 27t-30 76q0 50 30.5 83t82.5 33q126 0 126 -151q0 -186 -129 -186q-58 0 -104 42q-5 5 1 11l19 21q7 6 12 0q32 -29 75 -29q39 0 58 34t19 82q-27 -43 -87 -43zM140 752q-31 0 -48.5 -20.5t-17.5 -50.5q0 -28 18 -45.5t48 -17.5q31 0 52 18.5t21 48.5
q0 23 -17.5 45t-55.5 22z" />
    <glyph glyph-name="zeroinferior" horiz-adv-x="312" 
d="M25 5q0 74 33 121t98 47t98 -47t33 -121t-33 -121t-98 -47t-98 47t-33 121zM77 5q0 -53 20.5 -86.5t58.5 -33.5t58.5 33.5t20.5 86.5t-20.5 86t-58.5 33t-58.5 -33t-20.5 -86z" />
    <glyph glyph-name="twoinferior" horiz-adv-x="266" 
d="M209 27l-90 -124h112q10 0 10 -10v-34q0 -9 -10 -9h-201q-4 0 -4 3v4q0 3 4 10l127 167q27 38 16.5 63t-41.5 25q-41 0 -69 -29q-8 -7 -15 0l-22 23q-6 8 0 14q48 43 106 43q67 0 90 -49t-13 -97z" />
    <glyph glyph-name="threeinferior" horiz-adv-x="272" 
d="M133 -159q-62 0 -106 44q-7 6 0 14l20 21q7 7 15 0q32 -32 71 -32q67 0 67 53q0 19 -18.5 32t-48.5 13h-29q-10 0 -10 10v21q0 11 10 11h29q30 0 48.5 13t18.5 32q0 23 -16 38t-51 15q-38 0 -71 -33q-8 -7 -15 0l-20 22q-7 7 0 13q45 45 106 45q46 0 81.5 -24t35.5 -71
q0 -51 -52 -71v-1q22 -8 37 -26.5t15 -45.5q0 -46 -35.5 -69.5t-81.5 -23.5z" />
    <glyph glyph-name="nineinferior" horiz-adv-x="289" 
d="M128 -46q-43 0 -73 27t-30 76q0 50 30.5 83t82.5 33q126 0 126 -151q0 -186 -129 -186q-58 0 -104 42q-5 5 1 11l19 21q7 6 12 0q32 -29 75 -29q39 0 58 34t19 82q-27 -43 -87 -43zM140 130q-31 0 -48.5 -20.5t-17.5 -50.5q0 -28 18 -45.5t48 -17.5q31 0 52 18.5t21 48.5
q0 23 -17.5 45t-55.5 22z" />
    <glyph glyph-name="fourinferior" horiz-adv-x="288" 
d="M160 160h41q9 0 9 -10v-175h46q9 0 9 -10v-25q0 -10 -9 -10h-46v-70q0 -10 -9 -10h-31q-9 0 -9 10v70h-134q-10 0 -10 10v18q0 8 8 19l124 177q4 6 11 6zM161 94l-86 -119h86v119z" />
    <glyph glyph-name="eightinferior" horiz-adv-x="285" 
d="M142 -163q-57 0 -87 25.5t-30 66.5q0 34 22 54t41 25v1q-55 25 -55 74q0 39 29 64.5t80 25.5q52 0 81 -25.5t29 -64.5q0 -49 -54 -74v-1q10 -3 22.5 -10.5t26 -26t13.5 -42.5q0 -41 -30 -66.5t-88 -25.5zM142 -10q-30 -3 -49.5 -18.5t-19.5 -40.5q0 -23 17 -37.5
t52 -14.5q71 0 71 52q0 25 -20 40.5t-51 18.5zM142 130q-29 0 -45.5 -13.5t-16.5 -36.5q0 -45 62 -52q63 6 63 52q0 23 -16.5 36.5t-46.5 13.5z" />
    <glyph glyph-name="seveninferior" horiz-adv-x="259" 
d="M247 154v-9q0 -5 -4 -11l-160 -277q-4 -7 -12 -7h-35q-10 0 -7 7l146 255h-143q-7 1 -7 8v32q0 8 7 8h209q6 0 6 -6z" />
    <glyph glyph-name="sixinferior" horiz-adv-x="286" 
d="M160 55q43 0 73.5 -27t30.5 -76q0 -50 -30.5 -83t-82.5 -33q-126 0 -126 151q0 186 129 186q57 0 103 -42q5 -5 -1 -11l-19 -21q-6 -6 -12 0q-30 29 -74 29q-39 0 -58 -34t-19 -82q27 43 86 43zM149 -121q31 0 48.5 20.5t17.5 50.5q0 28 -18.5 45.5t-47.5 17.5
q-32 0 -52.5 -18.5t-20.5 -48.5q0 -24 17 -45.5t56 -21.5z" />
    <glyph glyph-name="fiveinferior" horiz-adv-x="267" 
d="M68 160h153q8 0 8 -8v-27q0 -8 -8 -8h-123l-10 -80h47q115 0 115 -97q0 -52 -33 -77.5t-86 -25.5q-61 0 -106 47q-5 4 1 10l19 20q5 6 10 1q13 -12 20.5 -18t22.5 -11.5t33 -5.5q71 0 71 59q0 55 -69 55h-85q-9 0 -8 8l20 150q1 8 8 8z" />
    <glyph glyph-name="oneinferior" horiz-adv-x="185" 
d="M20 115l68 37q14 8 21 8h26q10 0 10 -10v-290q0 -10 -10 -10h-35q-10 0 -10 10v231l-66 -21q-9 -2 -9 7v28q0 6 5 10z" />
    <glyph glyph-name="zero.denom" horiz-adv-x="312" 
d="M25 155q0 74 33 121t98 47t98 -47t33 -121t-33 -121t-98 -47t-98 47t-33 121zM80 155q0 -52 20 -84.5t56 -32.5q37 0 56.5 32.5t19.5 84.5t-19.5 84.5t-56.5 32.5q-36 0 -56 -32.5t-20 -84.5z" />
    <glyph glyph-name="threesuperior" horiz-adv-x="298" 
d="M144 463q-62 0 -106 44q-7 6 0 14l20 21q7 7 15 0q32 -32 71 -32q67 0 67 53q0 19 -18.5 32t-48.5 13h-29q-10 0 -10 10v21q0 11 10 11h29q30 0 48.5 13t18.5 32q0 23 -16 38t-51 15q-38 0 -71 -33q-8 -7 -15 0l-20 22q-7 7 0 13q45 45 106 45q46 0 81.5 -24t35.5 -71
q0 -51 -52 -71v-1q22 -8 37 -26.5t15 -45.5q0 -46 -35.5 -69.5t-81.5 -23.5z" />
    </font>
</defs>
</svg>
