<?xml version="1.0" standalone="no"?>
<!DOCTYPE svg PUBLIC "-//W3C//DTD SVG 1.1//EN" "http://www.w3.org/Graphics/SVG/1.1/DTD/svg11.dtd" >
<svg xmlns="http://www.w3.org/2000/svg" xmlns:xlink="http://www.w3.org/1999/xlink" version="1.1">
<metadata>
Created by FontForge 20161003 at Wed Jun 28 18:15:40 2017
 By www-data
Copyright (c) 2016 by Ufuk Aracoglu. All rights reserved.
</metadata>
<defs>
<font id="acherus_grotesque_extrabold" horiz-adv-x="600" >
  <font-face 
    font-family="acherus_grotesque_extrabold"
    font-weight="850"
    font-stretch="normal"
    units-per-em="1000"
    panose-1="2 0 5 5 0 0 0 2 0 4"
    ascent="800"
    descent="-200"
    x-height="509"
    cap-height="700"
    bbox="-47 -413.571 1226 1209.85"
    underline-thickness="50"
    underline-position="-150"
    unicode-range="U+000D-FB03"
  />
<missing-glyph horiz-adv-x="253" 
 />
    <glyph glyph-name="f_f" unicode="ff" horiz-adv-x="757" 
d="M231 506h205v32q0 106 50.5 164.5t148.5 58.5q57 0 96 -24q11 -7 13.5 -12.5t-0.5 -18.5l-11 -60q-3 -18 -8.5 -20t-21.5 6q-23 10 -53 10q-81 0 -81 -109v-27h140q14 0 19 -5t5 -19v-57q0 -14 -5 -19t-19 -5h-140v-377q0 -14 -5 -19t-19 -5h-85q-14 0 -19 5t-5 19v377
h-205v-377q0 -14 -5 -19t-19 -5h-85q-14 0 -19 5t-5 19v377h-55q-14 0 -19 5t-5 19v57q0 14 5 19t19 5h55v32q0 106 50.5 164.5t148.5 58.5q57 0 96 -24q10 -7 12.5 -12.5t0.5 -18.5l-11 -60q-3 -18 -9 -20.5t-22 6.5q-21 10 -52 10q-81 0 -81 -109v-27z" />
    <glyph glyph-name="f_i" unicode="fi" horiz-adv-x="693" 
d="M466 402h-235v-378q0 -14 -5 -19t-19 -5h-85q-14 0 -19 5t-5 19v378h-55q-14 0 -19 5t-5 19v59q0 14 5 19t19 5h55v29q0 106 50.5 164.5t148.5 58.5q57 0 96 -24q10 -7 12.5 -12.5t0.5 -18.5l-11 -60q-3 -18 -9 -20.5t-22 6.5q-21 10 -52 10q-81 0 -81 -109v-24h344
q14 0 19 -5t5 -19v-461q0 -14 -5 -19t-19 -5h-85q-14 0 -19 5t-5 19v378zM453 665q0 33 22.5 56.5t55.5 23.5t56.5 -23.5t23.5 -56.5t-23.5 -56t-56.5 -23t-55.5 23t-22.5 56z" />
    <glyph glyph-name="f_f_i" unicode="ffi" horiz-adv-x="1031" 
d="M804 402h-235v-378q0 -14 -5 -19t-19 -5h-85q-14 0 -19 5t-5 19v378h-205v-378q0 -14 -5 -19t-19 -5h-85q-14 0 -19 5t-5 19v378h-55q-14 0 -19 5t-5 19v59q0 14 5 19t19 5h55v29q0 106 50.5 164.5t148.5 58.5q57 0 96 -24q10 -7 12.5 -12.5t0.5 -18.5l-11 -60
q-3 -18 -9 -20.5t-22 6.5q-21 10 -52 10q-81 0 -81 -109v-24h205v29q0 106 50.5 164.5t148.5 58.5q57 0 96 -24q11 -7 13.5 -12.5t-0.5 -18.5l-11 -60q-3 -18 -8.5 -20t-21.5 6q-23 10 -53 10q-81 0 -81 -109v-24h344q14 0 19 -5t5 -19v-461q0 -14 -5 -19t-19 -5h-85
q-14 0 -19 5t-5 19v378zM791 665q0 33 22.5 56.5t55.5 23.5t56.5 -23.5t23.5 -56.5t-23.5 -56t-56.5 -23t-55.5 23t-22.5 56z" />
    <glyph glyph-name="f_j" unicode="fj" horiz-adv-x="716" 
d="M231 507l368 2q14 0 19.5 -5t5.5 -19v-498q0 -106 -51 -164.5t-149 -58.5q-58 0 -99 26q-10 7 -12 12t0 18l11 61q3 18 8.5 20t21.5 -6q23 -12 56 -12q81 0 81 109v404v6h-260v-378q0 -14 -5 -19t-19 -5h-85q-14 0 -19 5t-5 19v378h-55q-14 0 -19 5t-5 19v57q0 14 5 19
t19 5h55v31q0 106 50.5 164.5t148.5 58.5q57 0 96 -24q10 -7 12.5 -12.5t0.5 -18.5l-11 -60q-3 -18 -9 -20.5t-22 6.5q-21 10 -52 10q-81 0 -81 -109v-26zM478 665q0 33 22.5 56.5t55.5 23.5t56.5 -23.5t23.5 -56.5t-23.5 -56t-56.5 -23t-55.5 23t-22.5 56z" />
    <glyph glyph-name="f_f_j" unicode="ffj" horiz-adv-x="1054" 
d="M569 507l369 2q14 0 19 -5t5 -19v-498q0 -106 -51 -164.5t-149 -58.5q-58 0 -99 26q-10 7 -12 12t0 18l11 61q3 18 8.5 20t21.5 -6q23 -12 56 -12q81 0 81 109v410h-260v-378q0 -14 -5 -19t-19 -5h-85q-14 0 -19 5t-5 19v378h-205v-378q0 -14 -5 -19t-19 -5h-85
q-14 0 -19 5t-5 19v378h-55q-14 0 -19 5t-5 19v57q0 14 5 19t19 5h55v31q0 106 50.5 164.5t148.5 58.5q57 0 96 -24q10 -7 12.5 -12.5t0.5 -18.5l-11 -60q-3 -18 -9 -20.5t-22 6.5q-21 10 -52 10q-81 0 -81 -109v-26h205v31q0 106 50.5 164.5t148.5 58.5q57 0 96 -24
q11 -7 13.5 -12.5t-0.5 -18.5l-11 -60q-3 -18 -8.5 -20t-21.5 6q-23 10 -53 10q-81 0 -81 -109v-26zM816 665q0 33 22.5 56.5t55.5 23.5t56.5 -23.5t23.5 -56.5t-23.5 -56t-56.5 -23t-55.5 23t-22.5 56z" />
    <glyph glyph-name=".notdef" horiz-adv-x="253" 
 />
    <glyph glyph-name=".null" horiz-adv-x="0" 
 />
    <glyph glyph-name="nonmarkingreturn" horiz-adv-x="333" 
 />
    <glyph glyph-name="NULL" horiz-adv-x="0" 
 />
    <glyph glyph-name="NULL" horiz-adv-x="0" 
 />
    <glyph glyph-name="CR" unicode="&#xd;" horiz-adv-x="253" 
 />
    <glyph glyph-name="space" unicode=" " horiz-adv-x="253" 
 />
    <glyph glyph-name="exclam" unicode="!" horiz-adv-x="340" 
d="M106 270l-18 406q0 14 5 19t19 5h116q14 0 19.5 -5t5.5 -19l-19 -406q0 -14 -5 -19t-19 -5h-80q-14 0 -19 5t-5 19zM84 74q0 36 25 61t60 25q36 0 61.5 -25t25.5 -61t-25.5 -60.5t-61.5 -24.5q-35 0 -60 24.5t-25 60.5z" />
    <glyph glyph-name="quotedbl" unicode="&#x22;" horiz-adv-x="400" 
d="M54 467v209q0 14 5 19t19 5h76q31 0 23 -30l-46 -212q-4 -15 -22 -15h-31q-14 0 -19 5t-5 19zM233 467v209q0 14 5 19t19 5h77q30 0 22 -30l-46 -212q-4 -15 -21 -15h-32q-14 0 -19 5t-5 19z" />
    <glyph glyph-name="numbersign" unicode="#" horiz-adv-x="846" 
d="M124 531h164l38 149q6 20 30 20h45q31 0 23 -24l-37 -145h166l38 149q7 20 31 20h45q31 0 23 -24l-37 -145h139q14 0 19 -5t5 -19v-49q0 -14 -5 -19t-19 -5h-164l-43 -167h146q14 0 19 -5t5 -19v-49q0 -14 -5 -19t-19 -5h-171l-38 -150q-5 -13 -11 -16.5t-20 -3.5h-47
q-16 0 -20.5 5.5t-0.5 18.5l38 146h-167l-38 -150q-4 -13 -10 -16.5t-21 -3.5h-47q-28 0 -20 24l37 146h-132q-14 0 -19.5 5t-5.5 19v49q0 14 5.5 19t19.5 5h157l42 167h-138q-14 0 -19.5 5t-5.5 19v49q0 14 5.5 19t19.5 5zM362 434l-43 -167h166l43 167h-166z" />
    <glyph glyph-name="dollar" unicode="$" horiz-adv-x="615" 
d="M262 -69v61q-120 9 -215 72q-11 7 -12 15t6 20l36 59q13 23 32 11q70 -47 153 -55v178q-225 29 -225 195q0 49 21.5 94.5t74.5 83t129 44.5v56q0 14 5 19t19 5h27q14 0 19 -5t5 -19v-56q99 -7 207 -73q11 -7 11.5 -15t-6.5 -19l-35 -59q-14 -24 -33 -12q-76 50 -144 55
v-178q48 -6 85 -17t73.5 -33t56.5 -61t20 -94q0 -84 -62 -145.5t-173 -67.5v-59q0 -14 -5 -19t-19 -5h-27q-14 0 -19 5t-5 19zM434 196q0 36 -24.5 55t-72.5 29v-166q97 10 97 82zM175 492q0 -55 87 -73v164q-87 -12 -87 -91z" />
    <glyph glyph-name="percent" unicode="%" horiz-adv-x="863" 
d="M205 355q-77 0 -124.5 47t-47.5 132t47.5 132t124.5 47t124.5 -47t47.5 -132t-47.5 -132t-124.5 -47zM205 433q34 0 55 28t21 73t-21 73t-55 28t-54.5 -28t-20.5 -73t20.5 -73t54.5 -28zM720 676l-467 -659q-13 -17 -31 -17h-63q-33 0 -16 24l467 659q13 17 31 17h63
q33 0 16 -24zM658 -2q-77 0 -124.5 47t-47.5 132t47.5 132t124.5 47t124 -46.5t47 -132.5t-47 -132.5t-124 -46.5zM658 76q34 0 54.5 28t20.5 73t-20.5 73t-54.5 28t-55 -28t-21 -73t21 -73t55 -28z" />
    <glyph glyph-name="ampersand" unicode="&#x26;" horiz-adv-x="776" 
d="M412 184l-110 113q-119 -41 -119 -102q0 -89 106 -89q64 0 123 78zM319 429l7 -6q34 15 60 43t26 59q0 34 -22 54.5t-58 20.5q-35 0 -54.5 -20t-19.5 -55q0 -39 61 -96zM722 297q-10 -7 -35 -23.5t-38 -26t-33.5 -26.5t-38.5 -36l167 -161q7 -7 8 -12.5t-3.5 -8.5
t-13.5 -3h-129q-3 0 -6 0.5t-5.5 1t-4.5 1.5t-4.5 2.5t-4 2.5t-4 3.5l-3.5 3.5l-4.5 4.5l-4.5 4.5l-77 78q-50 -56 -100.5 -85.5t-114.5 -29.5q-112 0 -174.5 57t-62.5 147q0 76 48.5 118.5t129.5 68.5v1q-91 82 -92 168q-1 63 53 114.5t157 51.5q104 0 160 -51.5t56 -114.5
q0 -124 -140 -197l88 -84q38 44 150 122q18 13 33 -4l47 -55q17 -19 -4 -32z" />
    <glyph glyph-name="quotesingle" unicode="'" horiz-adv-x="213" 
d="M43 467v209q0 14 5.5 19t19.5 5h76q31 0 23 -30l-46 -212q-5 -15 -22 -15h-31q-14 0 -19.5 5t-5.5 19z" />
    <glyph glyph-name="parenleft" unicode="(" horiz-adv-x="407" 
d="M33 288q0 143 69 249.5t190 170.5q22 12 36 -11l37 -64q15 -27 -17 -43q-86 -41 -133 -119.5t-47 -182.5t47 -182.5t133 -119.5q32 -16 17 -43l-37 -64q-14 -23 -36 -11q-121 64 -190 170.5t-69 249.5z" />
    <glyph glyph-name="parenright" unicode=")" horiz-adv-x="407" 
d="M380 288q0 -143 -69 -249.5t-190 -170.5q-22 -12 -36 11l-37 64q-15 27 17 43q86 41 133 119.5t47 182.5t-47 182.5t-133 119.5q-32 16 -17 43l37 64q14 23 36 11q121 -64 190 -170.5t69 -249.5z" />
    <glyph glyph-name="asterisk" unicode="*" horiz-adv-x="437" 
d="M50 475l90 37l-89 37q-23 9 -11 32l20 37q13 24 32 11l91 -59l-9 108q-1 14 4 19t20 5h42q15 0 20 -5t4 -19l-10 -107l91 59q20 12 32 -11l19 -37q7 -13 5 -20t-14 -12l-90 -38l90 -36q23 -9 10 -33l-19 -37q-12 -23 -32 -11l-92 58l10 -108q1 -14 -4 -19t-20 -5h-42
q-15 0 -20 5t-4 19l9 108l-91 -59q-21 -12 -33 11l-19 37q-12 23 10 33z" />
    <glyph glyph-name="plus" unicode="+" horiz-adv-x="509" 
d="M309 486v-126h126q14 0 19 -5t5 -19v-60q0 -14 -5 -19t-19 -5h-126v-127q0 -14 -5.5 -19t-19.5 -5h-59q-14 0 -19 5t-5 19v127h-127q-14 0 -19 5t-5 19v59q0 14 5 19.5t19 5.5h127v126q0 14 5 19t19 5h60q14 0 19 -5t5 -19z" />
    <glyph glyph-name="comma" unicode="," horiz-adv-x="289" 
d="M143 -10h-4q-35 1 -59 25.5t-24 59.5q0 36 24.5 61.5t60.5 25.5q41 0 66.5 -31t25.5 -84q0 -70 -43 -128.5t-105 -87.5q-10 -5 -15 3l-24 36q-4 10 5 15q77 49 92 105z" />
    <glyph glyph-name="hyphen" unicode="-" horiz-adv-x="430" 
d="M353 231h-276q-14 0 -19 5.5t-5 19.5v55q0 14 5 19t19 5h276q14 0 19 -5t5 -19v-56q0 -14 -5 -19t-19 -5z" />
    <glyph glyph-name="period" unicode="." horiz-adv-x="284" 
d="M56 74q0 36 24.5 61.5t60.5 25.5t61.5 -25.5t25.5 -61.5t-25.5 -60.5t-61.5 -24.5t-60.5 24.5t-24.5 60.5z" />
    <glyph glyph-name="slash" unicode="/" horiz-adv-x="440" 
d="M399 676l-226 -656q-5 -13 -11 -16.5t-20 -3.5h-76q-16 0 -20.5 5.5t-0.5 18.5l227 656q6 20 30 20h74q31 0 23 -24z" />
    <glyph glyph-name="zero" unicode="0" horiz-adv-x="664" 
d="M190 350q0 -48 6.5 -88t22 -76t44.5 -56t69 -20t69 20t44.5 56t22 76t6.5 88t-6.5 88t-22 76t-44.5 56t-69 20t-69 -20t-44.5 -56t-22 -76t-6.5 -88zM46 350q0 158 73 260.5t213 102.5t213 -102t73 -261t-73 -261t-213 -102t-213 102.5t-73 260.5z" />
    <glyph glyph-name="one" unicode="1" horiz-adv-x="385" 
d="M47 602l122 74q34 24 51 24h57q14 0 19 -5t5 -19v-652q0 -14 -5 -19t-19 -5h-93q-14 0 -19.5 5t-5.5 19v499l-101 -14q-14 0 -19 5t-5 18v44q0 17 13 26z" />
    <glyph glyph-name="two" unicode="2" horiz-adv-x="559" 
d="M467 388l-207 -267h238q14 0 19 -5t5 -19v-73q0 -14 -5 -19t-19 -5h-460q-9 0 -9 9v13q0 6 9 19l312 398q43 55 18 103t-90 48q-88 0 -157 -71q-11 -10 -17.5 -9t-16.5 12l-50 54q-10 11 -11 17.5t8 16.5q105 103 244 103q61 0 111 -20.5t79 -54.5t41 -75.5t1.5 -88
t-43.5 -86.5z" />
    <glyph glyph-name="three" unicode="3" horiz-adv-x="586" 
d="M291 297h-99q-14 0 -19 5t-5 19v66q0 14 5 19t19 5h89q55 0 81.5 24.5t26.5 56.5q0 98 -114 98q-46 0 -74 -16.5t-61 -52.5q-17 -17 -34 3l-48 52q-10 12 -11 17.5t8 16.5q53 52 102.5 77.5t117.5 25.5q35 0 70 -7.5t69 -23.5t59.5 -40t41 -59.5t15.5 -77.5
q0 -50 -26.5 -89.5t-64.5 -60.5v-1q109 -52 109 -154q0 -105 -76 -159t-197 -54q-128 0 -233 103q-9 10 -8 16.5t11 16.5l47 53q18 18 35 2q68 -68 148 -68q71 0 101.5 26t30.5 76q0 36 -30.5 60.5t-85.5 24.5z" />
    <glyph glyph-name="four" unicode="4" horiz-adv-x="646" 
d="M373 700h112q14 0 19 -5t5 -19v-410h81q14 0 19 -5t5 -19v-60q0 -14 -5 -19.5t-19 -5.5h-81v-133q0 -14 -5 -19t-19 -5h-85q-14 0 -19 5t-5 19v133h-312q-14 0 -19 5.5t-5 19.5v65q0 21 14 39l303 406q6 8 16 8zM376 524l-194 -258h194v258z" />
    <glyph glyph-name="five" unicode="5" horiz-adv-x="579" 
d="M128 700h343q14 0 19 -5t5 -19v-73q0 -14 -5 -19t-19 -5h-257l-19 -138h89q259 0 259 -219q0 -116 -76 -175.5t-196 -59.5q-128 0 -233 103q-9 10 -8 16t11 17l47 53q18 18 34 2q36 -34 69 -51t80 -17q132 0 132 106q0 102 -131 102h-187q-28 0 -25 24l44 334
q2 15 6 19.5t18 4.5z" />
    <glyph glyph-name="six" unicode="6" horiz-adv-x="622" 
d="M362 457q94 0 156 -57.5t62 -161.5q0 -105 -70.5 -178t-182.5 -73q-82 0 -138.5 27t-86.5 77t-42.5 108t-12.5 133q0 80 15.5 146t48 120t91 84.5t137.5 30.5q125 0 222 -93q9 -10 8 -16t-11 -18l-50 -54q-10 -11 -16.5 -12t-17.5 9q-33 32 -66 46.5t-80 14.5
q-66 0 -103.5 -58.5t-37.5 -153.5q48 79 175 79zM319 106q56 0 88.5 34.5t32.5 88.5q0 50 -35.5 83.5t-85.5 33.5q-53 0 -88 -35t-35 -85q0 -48 31.5 -84t91.5 -36z" />
    <glyph glyph-name="seven" unicode="7" horiz-adv-x="568" 
d="M564 683v-5q0 -10 -10 -27l-346 -627q-14 -24 -39 -24h-98q-33 0 -23 24l301 546h-295q-14 2 -19 6t-5 18v82q0 14 5 19t19 5h491q19 0 19 -17z" />
    <glyph glyph-name="eight" unicode="8" horiz-adv-x="603" 
d="M302 -13q-126 0 -195 57.5t-69 146.5q0 64 39 108.5t74 56.5v6q-16 9 -35 24t-40 50t-21 74q0 91 62 147t186 56q122 0 183.5 -56t61.5 -147q0 -39 -21 -74t-39.5 -50.5t-35.5 -24.5v-5q35 -12 74 -56.5t39 -108.5q0 -90 -68 -147t-195 -57zM302 306q-126 -26 -126 -106
q0 -41 33 -67.5t93 -26.5q59 0 92 26.5t33 67.5q0 80 -125 106zM302 594q-51 0 -80 -25.5t-29 -66.5q0 -71 109 -91q52 10 80 33.5t28 57.5q0 41 -28.5 66.5t-79.5 25.5z" />
    <glyph glyph-name="nine" unicode="9" horiz-adv-x="620" 
d="M262 243q-94 0 -156.5 57.5t-62.5 161.5q0 105 71 178t183 73q82 0 138.5 -27t86.5 -77t42.5 -108t12.5 -133q0 -80 -15.5 -146t-48 -120t-91 -84.5t-137.5 -30.5q-125 0 -224 94q-9 10 -8 16.5t11 17.5l50 54q10 11 16.5 12t17.5 -9q65 -62 148 -62q66 0 103.5 58.5
t37.5 153.5q-48 -79 -175 -79zM304 594q-55 0 -87.5 -34.5t-32.5 -88.5q0 -50 35 -83.5t85 -33.5q53 0 88.5 35t35.5 85q0 49 -31.5 84.5t-92.5 35.5z" />
    <glyph glyph-name="colon" unicode=":" horiz-adv-x="284" 
d="M56 74q0 36 24.5 61.5t60.5 25.5t61.5 -25.5t25.5 -61.5t-25.5 -60.5t-61.5 -24.5t-60.5 24.5t-24.5 60.5zM56 415q0 36 24.5 61.5t60.5 25.5t61.5 -25.5t25.5 -61.5t-25.5 -60.5t-61.5 -24.5t-60.5 24.5t-24.5 60.5z" />
    <glyph glyph-name="semicolon" unicode=";" horiz-adv-x="289" 
d="M56 415q0 36 24.5 61.5t60.5 25.5t61.5 -25.5t25.5 -61.5t-25.5 -60.5t-61.5 -24.5t-60.5 24.5t-24.5 60.5zM143 -11h-4q-35 1 -59 25.5t-24 59.5q0 36 24.5 61.5t60.5 25.5q41 0 66.5 -31t25.5 -84q0 -71 -43 -129.5t-105 -86.5q-10 -5 -15 2l-24 37q-4 8 5 15
q76 47 92 105z" />
    <glyph glyph-name="less" unicode="&#x3c;" horiz-adv-x="566" 
d="M11 351v2q1 18 24 29l457 240q24 11 24 -10v-79q0 -22 -24 -33l-292 -149l292 -149q24 -10 24 -33v-78q0 -12 -5 -14t-19 4l-457 241q-23 11 -24 29z" />
    <glyph glyph-name="equal" unicode="=" horiz-adv-x="480" 
d="M404 350h-327q-14 0 -19 5t-5 19v55q0 14 5 19t19 5h327q14 0 19 -5t5 -19v-55q0 -14 -5 -19t-19 -5zM404 153h-327q-14 0 -19 5t-5 19v56q0 14 5 19t19 5h327q14 0 19 -5t5 -19v-56q0 -13 -5 -18.5t-19 -5.5z" />
    <glyph glyph-name="greater" unicode="&#x3e;" horiz-adv-x="566" 
d="M555 353v-2q-1 -18 -24 -29l-457 -241q-14 -6 -19 -4t-5 14v78q0 23 24 33l292 149l-292 149q-24 11 -24 33v79q0 21 24 10l457 -240q23 -11 24 -29z" />
    <glyph glyph-name="question" unicode="?" horiz-adv-x="533" 
d="M197 382q99 17 144 41t45 68t-35.5 70.5t-99.5 26.5q-76 0 -166 -62q-18 -13 -32 12l-36 59q-12 23 6 34q64 40 115.5 60t120.5 20t122 -19.5t83 -51t44.5 -67.5t14.5 -74q0 -87 -54.5 -128t-163.5 -65v-43q0 -14 -5 -19t-19 -5h-75q-14 0 -19 5t-5 19v102q0 14 15 17z
M157 74q0 36 24.5 61t60.5 25q35 0 60.5 -25t25.5 -61t-25 -60.5t-61 -24.5t-60.5 24.5t-24.5 60.5z" />
    <glyph glyph-name="at" unicode="@" horiz-adv-x="1096" 
d="M935 264q0 91 -30.5 160.5t-84.5 111.5t-123.5 63t-152.5 21q-176 0 -279.5 -100.5t-103.5 -265.5q0 -163 99.5 -264t260.5 -101q57 0 111 23q11 5 16.5 6t9.5 -2t6 -12l13 -58q4 -15 2 -22.5t-16 -15.5q-66 -28 -142 -28q-211 0 -344 136t-133 338q0 99 35 186t98.5 151
t158.5 101t208 37q144 0 257.5 -51.5t182 -158.5t68.5 -255q0 -66 -9.5 -121.5t-30.5 -104.5t-60 -76.5t-92 -26.5q-106 0 -155 104l-17 35q-79 -85 -182 -85q-98 0 -162 78t-64 187q0 112 63.5 189t162.5 77q93 0 162 -83l19 53q10 19 24 19h59q14 0 19 -5t5 -19v-345
q0 -101 57 -101q48 0 66 57.5t18 167.5zM536 105q55 0 92 43.5t37 105.5t-37 104.5t-92 42.5q-54 0 -91 -42.5t-37 -104.5q0 -64 36.5 -106.5t91.5 -42.5z" />
    <glyph glyph-name="A" unicode="A" horiz-adv-x="743" 
d="M373 475h-2l-100 -210h202zM393 690l344 -666q4 -9 -0.5 -16.5t-14.5 -7.5h-111q-12 0 -17.5 4.5t-13.5 19.5l-59 120h-298l-60 -120q-11 -24 -31 -24h-111q-10 0 -14.5 7.5t-0.5 16.5l345 666l3 6t3 5.5t2.5 4t2.5 4t2 2.5t2.5 1.5t3.5 0.5h3q2 0 4 -1t4 -3.5t3.5 -4.5
t4 -7t4.5 -8z" />
    <glyph glyph-name="B" unicode="B" horiz-adv-x="670" 
d="M380 0h-276q-14 0 -19 5t-5 19v652q0 14 5 19t19 5h251q46 0 88.5 -10t80.5 -31.5t61 -61t23 -92.5q0 -91 -92 -145v-1q47 -20 82 -60t35 -104q0 -102 -71.5 -148.5t-181.5 -46.5zM222 118h152q61 0 89.5 22t28.5 68q0 38 -31 63.5t-84 25.5h-155v-179zM222 411h134
q53 0 82 23t29 58q0 90 -117 90h-128v-171z" />
    <glyph glyph-name="C" unicode="C" horiz-adv-x="709" 
d="M403 110q102 0 173 76q16 16 33 -3l54 -59q10 -11 11 -17.5t-9 -16.5q-48 -47 -118.5 -75t-143.5 -28q-148 0 -253.5 107t-105.5 256t105.5 256t253.5 107q73 0 143.5 -28t118.5 -75q10 -10 9 -16.5t-11 -17.5l-54 -59q-18 -19 -34 -3q-71 76 -172 76q-95 0 -155 -72
t-60 -168q0 -95 60 -167.5t155 -72.5z" />
    <glyph glyph-name="D" unicode="D" horiz-adv-x="759" 
d="M105 700h254q149 0 252.5 -101t103.5 -249t-103.5 -249t-252.5 -101h-254q-14 0 -19 5t-5 19v652q0 14 5.5 19t18.5 5zM358 582h-135v-464h135q98 0 155.5 68.5t57.5 163.5q0 96 -57.5 164t-155.5 68z" />
    <glyph glyph-name="E" unicode="E" horiz-adv-x="638" 
d="M556 0h-452q-14 0 -19 5t-5 19v652q0 14 5 19t19 5h452q14 0 19 -5t5 -19v-73q0 -14 -5 -19t-19 -5h-334v-166h320q14 0 19 -5t5 -19v-73q0 -14 -5 -19t-19 -5h-320v-171h334q14 0 19 -5t5 -19v-73q0 -14 -5 -19t-19 -5z" />
    <glyph glyph-name="F" unicode="F" horiz-adv-x="623" 
d="M223 292v-268q0 -14 -5 -19t-19 -5h-94q-14 0 -19 5t-5 19v652q0 14 5.5 19t18.5 5h452q13 0 18.5 -5t5.5 -19v-73q0 -13 -5.5 -18.5t-18.5 -5.5h-334v-166h324q14 0 19 -5t5 -19v-73q0 -14 -5 -19t-19 -5h-324z" />
    <glyph glyph-name="G" unicode="G" horiz-adv-x="745" 
d="M403 590q-95 0 -155 -72t-60 -168q0 -94 60 -167t155 -73q82 0 143 46v105h-120q-14 0 -19 5.5t-5 19.5v72q0 14 5 19t19 5h238q14 0 19 -5t5 -19v-230q0 -20 -16 -36q-49 -48 -122 -76.5t-147 -28.5q-148 0 -253.5 107t-105.5 256t105.5 256t253.5 107q72 0 142.5 -28
t119.5 -75q9 -10 8 -16.5t-11 -17.5l-54 -59q-17 -19 -34 -2q-72 75 -171 75z" />
    <glyph glyph-name="H" unicode="H" horiz-adv-x="758" 
d="M534 409v267q0 14 5 19t19 5h94q14 0 19 -5t5 -19v-652q0 -14 -5 -19t-19 -5h-94q-14 0 -19 5t-5 19v262h-310v-262q0 -14 -5 -19t-19 -5h-94q-14 0 -19 5t-5 19v652q0 14 5 19t19 5h94q14 0 19 -5t5 -19v-267h310z" />
    <glyph glyph-name="I" unicode="I" horiz-adv-x="306" 
d="M82 24v652q0 14 5 19t19 5h94q14 0 19 -5t5 -19v-652q0 -14 -5 -19t-19 -5h-94q-14 0 -19 5t-5 19z" />
    <glyph glyph-name="J" unicode="J" horiz-adv-x="467" 
d="M261 592h-128q-14 0 -19 5t-5 19v60q0 14 5 19t19 5h246q14 0 19 -5t5 -19v-404q0 -152 -85 -217.5t-245 -67.5q-18 0 -23 4.5t-7 19.5l-8 76q-3 24 27 24q110 0 154.5 36.5t44.5 124.5v320z" />
    <glyph glyph-name="K" unicode="K" horiz-adv-x="677" 
d="M357 366l297 -342q21 -24 -10 -24h-119q-11 0 -17 4.5t-18 19.5l-266 309v-309q0 -14 -5 -19t-19 -5h-94q-14 0 -19 5t-5 19v652q0 14 5 19t19 5h94q14 0 19 -5t5 -19v-282l255 282q13 15 19 19.5t17 4.5h118q31 0 11 -24z" />
    <glyph glyph-name="L" unicode="L" horiz-adv-x="571" 
d="M223 121h293q14 0 19 -5t5 -19v-73q0 -14 -5 -19t-19 -5h-411q-14 0 -19 5t-5 19v652q0 14 5 19t19 5h94q14 0 19 -5t5 -19v-555z" />
    <glyph glyph-name="M" unicode="M" horiz-adv-x="977" 
d="M746 374l-227 -363q-14 -24 -25 -24h-11q-9 0 -25 24l-223 360l-42 -347q-2 -15 -6 -19.5t-18 -4.5h-94q-27 0 -24 24l86 680q1 9 9 9h7q6 0 12 -9l324 -507l324 507q6 9 12 9h7q8 0 9 -9l85 -680q3 -24 -24 -24h-94q-14 0 -18 4.5t-6 19.5z" />
    <glyph glyph-name="N" unicode="N" horiz-adv-x="775" 
d="M224 426v-402q0 -14 -5 -19t-19 -5h-94q-14 0 -19 5t-5 19v680q0 9 9 9h9q7 0 17 -8l435 -427v398q0 14 5 19t19 5h93q14 0 19.5 -5t5.5 -19v-680q0 -9 -9 -9h-9q-8 0 -18 9z" />
    <glyph glyph-name="O" unicode="O" horiz-adv-x="807" 
d="M44 350q0 149 105.5 256t253.5 107t254 -107t106 -256t-106 -256t-254 -107t-253.5 107t-105.5 256zM188 350q0 -94 60 -167t155 -73q97 0 156.5 72.5t59.5 167.5q0 96 -59.5 168t-156.5 72q-95 0 -155 -72t-60 -168z" />
    <glyph glyph-name="P" unicode="P" horiz-adv-x="621" 
d="M223 397h123q120 0 120 93q0 92 -120 92h-123v-185zM351 278h-128v-254q0 -14 -5 -19t-19 -5h-94q-14 0 -19 5t-5 19v652q0 14 5 19t19 5h246q47 0 89 -10.5t80.5 -33.5t61 -65.5t22.5 -100.5t-22.5 -101t-61 -66t-80.5 -34t-89 -11z" />
    <glyph glyph-name="Q" unicode="Q" horiz-adv-x="807" 
d="M44 350q0 149 105.5 256t253.5 107t254 -107t106 -256q0 -86 -37 -158.5t-100 -124.5l85 -113q15 -20 -6 -34l-75 -53q-11 -8 -18 -6.5t-14 13.5l-88 131q-56 -18 -107 -18q-148 0 -253.5 107t-105.5 256zM188 350q0 -94 60 -167t155 -73q97 0 156.5 72.5t59.5 167.5
q0 96 -59.5 168t-156.5 72q-95 0 -155 -72t-60 -168z" />
    <glyph glyph-name="R" unicode="R" horiz-adv-x="661" 
d="M604 490q0 -153 -150 -198l174 -261q8 -17 1.5 -24t-22.5 -7h-87q-25 0 -41 24l-169 254h-87v-254q0 -14 -5 -19t-19 -5h-94q-14 0 -19 5t-5 19v652q0 14 5 19t19 5h247q46 0 88 -10.5t80 -33.5t61 -65.5t23 -100.5zM223 397h124q119 0 119 93q0 92 -119 92h-124v-185z
" />
    <glyph glyph-name="S" unicode="S" horiz-adv-x="640" 
d="M329 588q-133 0 -133 -96q0 -41 36 -57t122 -26q50 -6 88 -17t74.5 -33t56.5 -61.5t20 -94.5q0 -89 -69 -151.5t-193 -62.5q-163 0 -272 75q-11 8 -11.5 15.5t6.5 19.5l35 59q13 23 33 11q89 -57 199 -57q134 0 134 84q0 46 -38.5 65t-126.5 30q-232 28 -232 196
q0 37 14 74t43 71.5t82 56.5t122 22q73 0 128 -18t118 -57q11 -7 11.5 -15t-6.5 -19l-35 -59q-13 -24 -33 -12q-47 32 -86 44.5t-87 12.5z" />
    <glyph glyph-name="T" unicode="T" horiz-adv-x="626" 
d="M34 700h557q14 0 19.5 -5t5.5 -19v-79q0 -14 -5.5 -19t-19.5 -5h-207v-549q0 -14 -5 -19t-19 -5h-94q-14 0 -19 5t-5 19v549h-208q-14 0 -19 5t-5 19v79q0 14 5 19t19 5z" />
    <glyph glyph-name="U" unicode="U" horiz-adv-x="724" 
d="M362 -13q-129 0 -213.5 79t-84.5 222v388q0 14 5 19t19 5h94q14 0 19 -5t5 -19v-383q0 -183 156 -183t156 183v383q0 14 5 19t19 5h94q14 0 19 -5t5 -19v-388q0 -143 -84.5 -222t-213.5 -79z" />
    <glyph glyph-name="V" unicode="V" horiz-adv-x="743" 
d="M351 10l-345 666q-4 9 0.5 16.5t14.5 7.5h111q20 0 31 -24l209 -420l208 420q8 15 13.5 19.5t17.5 4.5h111q12 0 15.5 -8.5t-0.5 -15.5l-344 -666q-2 -3 -4.5 -8t-4 -7t-3.5 -4.5t-4 -3.5t-4 -1h-3q-2 0 -4 1t-3.5 3.5t-3 4.5t-4 6.5t-4.5 8.5z" />
    <glyph glyph-name="W" unicode="W" horiz-adv-x="963" 
d="M166 676l139 -393l151 406q9 24 17 24h18q8 0 17 -24l151 -406l139 393q4 14 10.5 19t20.5 5h115q13 0 15.5 -5t-3.5 -19l-265 -666q-11 -24 -17 -24h-11q-7 0 -17 24l-164 431l-164 -431q-10 -24 -17 -24h-11q-6 0 -17 24l-265 666q-6 14 -3.5 19t15.5 5h115
q14 0 20.5 -5t10.5 -19z" />
    <glyph glyph-name="X" unicode="X" horiz-adv-x="675" 
d="M339 234l-155 -210q-11 -15 -17 -19.5t-18 -4.5h-110q-29 0 -13 24l239 322l-241 330q-17 24 11 24h111q19 0 35 -24l158 -218l157 218q11 15 17.5 19.5t18.5 4.5h110q28 0 12 -24l-240 -330l238 -322q17 -24 -11 -24h-111q-12 0 -18.5 4.5t-17.5 19.5z" />
    <glyph glyph-name="Y" unicode="Y" horiz-adv-x="660" 
d="M261 259l-253 417q-13 24 12 24h108q11 0 17 -5t15 -19l170 -294l174 294q8 15 13.5 19.5t17.5 4.5h106q26 0 11 -24l-253 -417v-235q0 -14 -5 -19t-19 -5h-89q-14 0 -19.5 5t-5.5 19v235z" />
    <glyph glyph-name="Z" unicode="Z" horiz-adv-x="610" 
d="M557 0h-533q-9 0 -9 9v12q0 4 8 18l357 540h-314q-14 0 -19 5.5t-5 18.5v73q0 14 5 19t19 5h521q9 0 9 -9v-12q0 -4 -8 -18l-357 -540h326q14 0 19 -5t5 -19v-73q0 -14 -5 -19t-19 -5z" />
    <glyph glyph-name="bracketleft" unicode="[" horiz-adv-x="386" 
d="M328 -97v-64q0 -14 -5 -19t-19 -5h-199q-14 0 -19 5t-5 19v849q0 14 5 19t19 5h199q14 0 19 -5t5 -19v-64q0 -14 -5 -19t-19 -5h-100v-673h100q14 0 19 -5t5 -19z" />
    <glyph glyph-name="backslash" unicode="\" horiz-adv-x="433" 
d="M267 20l-227 656q-8 24 23 24h74q23 0 30 -20l227 -656q7 -24 -21 -24h-76q-14 0 -20 3.5t-10 16.5z" />
    <glyph glyph-name="bracketright" unicode="]" horiz-adv-x="385" 
d="M57 -161v64q0 14 5.5 19t19.5 5h99v673h-99q-14 0 -19.5 5t-5.5 19v64q0 14 5.5 19t19.5 5h199q14 0 19 -5t5 -19v-849q0 -14 -5 -19t-19 -5h-199q-14 0 -19.5 5t-5.5 19z" />
    <glyph glyph-name="asciicircum" unicode="^" horiz-adv-x="383" 
d="M164 753h56q18 -1 34 -24l91 -132q15 -24 -9 -24h-53q-23 0 -36 24l-55 88l-55 -88q-13 -24 -36 -24h-52q-25 0 -10 24l91 132q16 23 34 24z" />
    <glyph glyph-name="underscore" unicode="_" horiz-adv-x="543" 
d="M471 -122h-398q-14 0 -19.5 5t-5.5 19v62q0 14 5.5 19t19.5 5h398q14 0 19 -5t5 -19v-62q0 -14 -5.5 -19t-18.5 -5z" />
    <glyph glyph-name="grave" unicode="`" horiz-adv-x="269" 
d="M116 589l-71 56q-11 9 -12 16t5 17l32 53q18 27 34 8l125 -137q25 -28 -2 -28h-73q-22 0 -38 15z" />
    <glyph glyph-name="a" unicode="a" horiz-adv-x="578" 
d="M136 392q-13 -2 -18 3t-8 20l-15 57q-7 24 14 29q17 4 73.5 11.5t102.5 7.5q74 0 121 -15.5t70.5 -49.5t31.5 -74.5t8 -104.5v-252q0 -14 -5 -19t-19 -5h-50q-9 0 -14.5 5t-11.5 19l-9 36q-20 -19 -37 -31.5t-56 -26t-86 -13.5q-71 0 -123 43.5t-52 123.5q0 78 54 120
t135 42q74 0 141 -23q0 61 -21 86t-83 25q-73 0 -143 -14zM276 224q-47 0 -68.5 -19.5t-21.5 -48.5q0 -25 21 -46t64 -21q56 0 112 61v53q-70 21 -107 21z" />
    <glyph glyph-name="b" unicode="b" horiz-adv-x="638" 
d="M209 714v-274q16 26 58.5 53t99.5 27q100 0 165.5 -77.5t65.5 -188.5q0 -109 -66 -187t-165 -78q-104 0 -181 85l-17 -50q-6 -10 -9 -14t-8 -7t-12 -3h-40q-14 0 -19 5t-5 19v690q0 14 5 19t19 5h85q14 0 19 -5t5 -19zM337 105q55 0 91.5 42.5t36.5 106.5
q0 62 -36.5 104.5t-91.5 42.5q-54 0 -91 -42.5t-37 -104.5t37 -105.5t91 -43.5z" />
    <glyph glyph-name="c" unicode="c" horiz-adv-x="529" 
d="M305 108q65 0 104 37q15 15 34 -5l43 -48q9 -10 10 -15t-6 -13q-76 -75 -185 -75t-186.5 77.5t-77.5 187.5t77.5 188t186.5 78t185 -75q7 -8 6 -13t-10 -15l-43 -48q-11 -11 -17 -12.5t-17 7.5q-39 37 -104 37q-55 0 -94 -42t-39 -105t38.5 -104.5t94.5 -41.5z" />
    <glyph glyph-name="d" unicode="d" horiz-adv-x="638" 
d="M429 440v274q0 14 5 19t19 5h85q14 0 19 -5t5 -19v-690q0 -14 -5 -19t-19 -5h-40q-10 0 -15.5 5t-12.5 19l-17 50q-77 -85 -182 -85q-99 0 -164.5 78t-65.5 187q0 111 65.5 188.5t164.5 77.5q57 0 99.5 -27t58.5 -53zM301 105q54 0 91.5 43.5t37.5 105.5t-37 104.5
t-92 42.5q-54 0 -91 -42.5t-37 -104.5q0 -64 37 -106.5t91 -42.5z" />
    <glyph glyph-name="e" unicode="e" horiz-adv-x="589" 
d="M475 133l34 -42q15 -20 3 -31q-33 -33 -88.5 -52t-113.5 -19q-113 0 -191 77.5t-78 187.5t77.5 188t186.5 78q119 0 184 -82t65 -201q0 -15 -4.5 -20.5t-17.5 -5.5h-354q11 -46 49 -77t86 -31q63 0 127 32q20 9 25 6q5 -2 10 -8zM182 297h236q-8 47 -36.5 80.5
t-79.5 33.5q-53 0 -83.5 -34t-36.5 -80z" />
    <glyph glyph-name="f" unicode="f" horiz-adv-x="419" 
d="M98 507v31q0 106 50.5 164.5t148.5 58.5q57 0 96 -24q10 -7 12.5 -12.5t0.5 -18.5l-11 -60q-3 -18 -9 -20.5t-22 6.5q-21 10 -52 10q-81 0 -81 -109v-26h140q14 0 19 -5t5 -19v-57q0 -14 -5 -19t-19 -5h-140v-378q0 -14 -5 -19t-19 -5h-85q-14 0 -19 5t-5 19v378h-55
q-14 0 -19 5t-5 19v57q0 14 5 19t19 5h55z" />
    <glyph glyph-name="g" unicode="g" horiz-adv-x="638" 
d="M429 28v41q-16 -26 -58.5 -53t-99.5 -27q-99 0 -164.5 77.5t-65.5 188.5q0 109 65.5 187t164.5 78q105 0 182 -85l17 50q7 14 12.5 19t15.5 5h40q14 0 19 -5t5 -19v-440q0 -292 -249 -292q-107 0 -203 37q-12 5 -14.5 10t0.5 19l17 71q4 14 8.5 17t16.5 -2
q89 -36 153 -36q138 0 138 159zM301 403q-54 0 -91 -42.5t-37 -105.5q0 -62 37 -104.5t91 -42.5q55 0 92 42.5t37 104.5t-37.5 105t-91.5 43z" />
    <glyph glyph-name="h" unicode="h" 
d="M214 714v-257q57 63 130 63q91 0 142 -53.5t51 -179.5v-263q0 -14 -5.5 -19t-18.5 -5h-86q-14 0 -19 5t-5 19v235q0 74 -22 108t-71 34q-96 0 -96 -143v-234q0 -14 -5 -19t-19 -5h-86q-14 0 -19 5t-5 19v232v458q0 14 5 19t19 5h86q14 0 19 -5t5 -19z" />
    <glyph glyph-name="i" unicode="i" horiz-adv-x="322" 
d="M95 24v461q0 14 5 19t19 5h85q14 0 19 -5t5 -19v-461q0 -14 -5 -19t-19 -5h-85q-14 0 -19 5t-5 19zM82 665q0 33 22.5 56.5t55.5 23.5t56.5 -23.5t23.5 -56.5t-23.5 -56t-56.5 -23t-55.5 23t-22.5 56z" />
    <glyph glyph-name="j" unicode="j" horiz-adv-x="382" 
d="M144 665q0 33 22.5 56.5t55.5 23.5t56.5 -23.5t23.5 -56.5t-23.5 -56t-56.5 -23t-55.5 23t-22.5 56zM32 426v59q0 24 25 24h209q14 0 19 -5t5 -19v-498q0 -106 -50.5 -164.5t-148.5 -58.5q-59 0 -99 26q-11 7 -13 12t0 18l11 61q3 18 8.5 20t21.5 -6q23 -12 56 -12
q81 0 81 109v404v6h-100q-25 0 -25 24z" />
    <glyph glyph-name="k" unicode="k" horiz-adv-x="577" 
d="M344 270l204 -246q21 -24 -10 -24h-118q-11 0 -17 4.5t-18 19.5l-175 214v-214q0 -14 -5 -19t-19 -5h-85q-14 0 -19 5t-5 19v690q0 14 5 19t19 5h85q14 0 19 -5t5 -19v-421l162 192q11 14 18 19t18 5h118q13 0 15.5 -7.5t-5.5 -16.5z" />
    <glyph glyph-name="l" unicode="l" horiz-adv-x="298" 
d="M82 24v690q0 14 5 19t19 5h85q14 0 19.5 -5t5.5 -19v-690q0 -14 -5.5 -19t-19.5 -5h-85q-14 0 -19 5t-5 19z" />
    <glyph glyph-name="m" unicode="m" horiz-adv-x="912" 
d="M501 434q61 86 154 86q94 0 144 -53t50 -180v-263q0 -14 -5 -19t-19 -5h-85q-14 0 -19 5t-5 19v235q0 73 -22.5 107.5t-70.5 34.5q-93 0 -93 -134v-243q0 -14 -5 -19t-19 -5h-85q-14 0 -19 5t-5 19v235q0 73 -22 107.5t-71 34.5t-71.5 -35.5t-22.5 -107.5v-234
q0 -14 -5 -19t-19 -5h-85q-14 0 -19 5t-5 19v461q0 14 5 19t19 5h42q10 0 15.5 -5t12.5 -19l17 -50q22 27 37 42t45 29t66 14q112 0 165 -86z" />
    <glyph glyph-name="n" unicode="n" 
d="M175 485l17 -50q22 26 38.5 41.5t47.5 29.5t67 14q91 0 141.5 -53.5t50.5 -179.5v-263q0 -14 -5 -19t-19 -5h-85q-14 0 -19 5t-5 19v235q0 74 -22 108t-71 34q-97 0 -97 -143v-234q0 -14 -5 -19t-19 -5h-85q-14 0 -19 5t-5 19v232v229q0 14 5 19t19 5h42q10 0 15.5 -5
t12.5 -19z" />
    <glyph glyph-name="o" unicode="o" horiz-adv-x="612" 
d="M41 254q0 110 78 188t187 78t187 -78t78 -188t-77.5 -187.5t-187.5 -77.5t-187.5 77.5t-77.5 187.5zM306 105q55 0 93.5 43t38.5 106t-38.5 105t-93.5 42t-94 -42t-39 -105t39 -106t94 -43z" />
    <glyph glyph-name="p" unicode="p" horiz-adv-x="638" 
d="M209 69v-249q0 -14 -5 -19t-19 -5h-85q-14 0 -19 5t-5 19v665q0 14 5 19t19 5h40q7 0 12 -3t8 -7t9 -14l17 -50q77 85 181 85q99 0 165 -78t66 -187q0 -111 -65.5 -188.5t-165.5 -77.5q-57 0 -99.5 27t-58.5 53zM337 403q-54 0 -91 -43t-37 -105t37 -104.5t91 -42.5
q55 0 91.5 42.5t36.5 104.5q0 64 -36.5 106t-91.5 42z" />
    <glyph glyph-name="q" unicode="q" horiz-adv-x="638" 
d="M429 -180v249q-16 -26 -58.5 -53t-99.5 -27q-99 0 -164.5 77.5t-65.5 188.5q0 109 65.5 187t164.5 78q105 0 182 -85l17 50q7 14 12.5 19t15.5 5h40q14 0 19 -5t5 -19v-665q0 -14 -5 -19t-19 -5h-85q-14 0 -19 5t-5 19zM301 403q-54 0 -91 -42.5t-37 -105.5
q0 -62 37 -104.5t91 -42.5q55 0 92 42.5t37 104.5t-37.5 105t-91.5 43z" />
    <glyph glyph-name="r" unicode="r" horiz-adv-x="422" 
d="M368 388q-76 0 -115 -41t-39 -102v-221q0 -14 -5 -19t-19 -5h-85q-14 0 -19 5t-5 19v461q0 14 5 19t19 5h42q10 0 15.5 -5t12.5 -19l26 -67q28 49 67.5 75.5t117.5 26.5q16 0 19.5 -4.5t1.5 -17.5l-13 -87q-2 -14 -7 -18.5t-19 -4.5z" />
    <glyph glyph-name="s" unicode="s" horiz-adv-x="512" 
d="M251 92q47 0 72.5 15t25.5 40q0 20 -26.5 31t-83.5 19q-92 12 -144 47t-52 110t57 120.5t150 45.5q97 0 194 -57q12 -7 12.5 -15t-6.5 -19l-25 -43q-8 -14 -13 -16.5t-19 4.5q-66 43 -135 43q-89 0 -89 -55q0 -22 26 -32.5t84 -17.5q92 -12 143.5 -46.5t51.5 -110.5
q0 -75 -58.5 -120.5t-155.5 -45.5q-112 0 -208 65q-11 7 -11.5 15t6.5 19l25 43q8 14 13 17t20 -5q67 -51 146 -51z" />
    <glyph glyph-name="t" unicode="t" horiz-adv-x="444" 
d="M393 14q-41 -25 -98 -25q-98 0 -148.5 58t-50.5 163v194h-30q-14 0 -19.5 5t-5.5 19v57q0 14 5.5 19t19.5 5h30v95q0 14 5 19t19 5h84q14 0 19.5 -5t5.5 -19v-95h140q14 0 19 -5t5 -19v-57q0 -14 -5 -19t-19 -5h-140v-187q0 -109 81 -109q32 0 54 11q16 9 22 6.5t9 -20.5
l11 -60q2 -13 -0.5 -18.5t-12.5 -12.5z" />
    <glyph glyph-name="u" unicode="u" 
d="M425 24l-17 50q-21 -26 -37.5 -41.5t-47.5 -29.5t-67 -14q-91 0 -142 53.5t-51 179.5v263q0 14 5 19t19 5h85q14 0 19 -5t5 -19v-235q0 -74 22.5 -108t71.5 -34q96 0 96 143v234q0 14 5 19t19 5h85q14 0 19 -5t5 -19v-232v-229q0 -14 -5 -19t-19 -5h-42q-10 0 -15.5 5
t-12.5 19z" />
    <glyph glyph-name="v" unicode="v" horiz-adv-x="538" 
d="M248 10l-244 475q-4 9 0.5 16.5t14.5 7.5h94q12 0 17.5 -4.5t13.5 -19.5l126 -244v-1l124 245q8 14 14 19t18 5h93q12 0 16 -8.5t-1 -15.5l-244 -475l-3 -6t-3 -5.5t-2.5 -4t-2.5 -4t-2 -2.5t-2.5 -1.5t-3.5 -0.5h-3q-2 0 -4 1t-4 3.5t-3.5 4.5t-4 7t-4.5 8z" />
    <glyph glyph-name="w" unicode="w" horiz-adv-x="746" 
d="M154 489l72 -229l121 239l3 6t3 5.5t3.5 4.5t4 4t4 2t5.5 1h7q3 0 5.5 -1t5 -3.5t3.5 -4.5t3.5 -6.5t4.5 -7.5l121 -239l70 225q6 24 31 24h102q13 0 15.5 -5.5t-3.5 -18.5l-159 -471q-8 -24 -19 -24h-8q-9 0 -22 24l-154 312l-155 -312q-12 -24 -22 -24h-7q-10 0 -19 24
l-159 471q-6 13 -3.5 18.5t15.5 5.5h102q23 0 29 -20z" />
    <glyph glyph-name="x" unicode="x" horiz-adv-x="511" 
d="M256 170l-89 -146q-13 -24 -35 -24h-107q-28 0 -11 24l155 230l-155 231q-17 24 11 24h107q21 0 35 -24l89 -148l88 148q10 15 16.5 19.5t18.5 4.5h107q28 0 11 -24l-154 -231l154 -230q17 -24 -11 -24h-107q-12 0 -18.5 4.5t-16.5 19.5z" />
    <glyph glyph-name="y" unicode="y" horiz-adv-x="544" 
d="M273 205l124 280q8 15 13.5 19.5t17.5 4.5h97q13 0 15.5 -5t-3.5 -19l-302 -665q-8 -15 -13.5 -19.5t-17.5 -4.5h-97q-13 0 -15.5 5t3.5 19l107 236l-195 429q-12 24 11 24h97q12 0 18 -5t14 -19l125 -280h1z" />
    <glyph glyph-name="z" unicode="z" horiz-adv-x="493" 
d="M438 0h-406q-9 0 -9 9v10q0 7 8 20l236 353h-198q-14 0 -19.5 5.5t-5.5 19.5v68q0 14 5.5 19t19.5 5h391q9 0 9 -9v-10q0 -7 -8 -20l-231 -354h208q14 0 19 -5t5 -19v-68q0 -14 -5 -19t-19 -5z" />
    <glyph glyph-name="braceleft" unicode="{" horiz-adv-x="449" 
d="M33 212v74q0 20 21 28q81 25 81 69v79q0 251 253 251q14 0 19 -5t5 -19v-75q0 -14 -5 -19t-19 -5q-52 0 -83.5 -30t-31.5 -98v-79q0 -51 -26.5 -86t-60.5 -45v-6q34 -10 60.5 -45t26.5 -86v-79q0 -128 115 -128q15 0 19.5 -5t4.5 -19v-75q0 -14 -5 -19t-19 -5
q-253 0 -253 251v79q0 44 -81 69q-21 8 -21 28z" />
    <glyph glyph-name="bar" unicode="|" horiz-adv-x="272" 
d="M80 -75v850q0 14 5 19t19 5h63q14 0 19.5 -5t5.5 -19v-850q0 -14 -5.5 -19t-19.5 -5h-63q-14 0 -19 5t-5 19z" />
    <glyph glyph-name="braceright" unicode="}" horiz-adv-x="449" 
d="M416 286v-74q0 -20 -22 -28q-80 -26 -80 -69v-79q0 -251 -253 -251q-14 0 -19.5 5t-5.5 19v75q0 14 5 19t20 5q52 0 83.5 30t31.5 98v79q0 51 26 86t60 45v6q-34 10 -60 45t-26 86v79q0 67 -32 97.5t-83 30.5q-15 0 -20 5t-5 19v75q0 14 5.5 19t19.5 5q253 0 253 -251
v-79q0 -43 80 -69q22 -8 22 -28z" />
    <glyph glyph-name="asciitilde" unicode="~" horiz-adv-x="590" 
d="M282 354q-2 2 -9.5 7.5t-10 7t-8.5 6t-9 6t-8.5 4t-9.5 3.5t-9 2t-10 1q-24 0 -77 -61q-10 -9 -17 -8.5t-17 10.5l-35 39q-17 18 1 34q38 41 70.5 62.5t73.5 21.5q42 0 101 -46q3 -2 9 -6.5t9 -6.5t8 -5.5t8 -5t7.5 -4t7.5 -4t7.5 -2.5t8.5 -1.5t9 -0.5q25 0 77 60
q17 17 34 -1l35 -39q17 -18 -1 -34q-38 -41 -70.5 -62.5t-73.5 -21.5q-44 0 -101 45z" />
    <glyph glyph-name="exclamdown" unicode="&#xa1;" horiz-adv-x="340" 
d="M88 -301l18 406q0 14 5 19t19 5h80q14 0 19 -5t5 -19l19 -406q0 -14 -5.5 -19t-19.5 -5h-116q-14 0 -19 5t-5 19zM84 301q0 36 25 60.5t60 24.5q36 0 61.5 -24.5t25.5 -60.5t-25.5 -61t-61.5 -25q-35 0 -60 25t-25 61z" />
    <glyph glyph-name="cent" unicode="&#xa2;" horiz-adv-x="520" 
d="M225 -131l17 127q-88 21 -144.5 93.5t-56.5 164.5q0 110 77.5 188.5t186.5 77.5h7l13 92q2 14 7.5 18.5t19.5 3.5l19 -3q14 -2 18 -7.5t3 -19.5l-13 -95q63 -17 111 -64q7 -8 6 -13t-10 -15l-43 -48q-11 -11 -17 -12.5t-17 7.5q-19 18 -45 27l-39 -282q48 3 84 36
q15 15 34 -5l43 -48q9 -10 10 -15t-6 -13q-75 -73 -180 -75l-17 -129q-3 -15 -8.5 -19t-19.5 -2l-19 2q-14 2 -18 7.5t-3 20.5zM172 254q0 -49 24.5 -85.5t61.5 -50.5l38 282q-53 -4 -88.5 -45t-35.5 -101z" />
    <glyph glyph-name="sterling" unicode="&#xa3;" horiz-adv-x="546" 
d="M68 363h50q-2 4 -12 20t-13.5 22.5t-11 23t-10.5 28.5t-6 30t-3 37q0 74 53.5 131.5t153.5 57.5q91 0 212 -74q11 -7 11.5 -14.5t-6.5 -19.5l-35 -59q-14 -25 -33 -11q-75 55 -140 55q-43 0 -62.5 -26t-19.5 -60q0 -20 8.5 -42t29.5 -57t24 -42h161q14 0 19 -5t5 -19v-13
q0 -14 -5 -19.5t-19 -5.5h-145q8 -76 -31 -180h229q14 0 19 -5t5 -19v-73q0 -14 -5 -19t-19 -5h-375q-14 0 -19 5t-5 19q0 13 22 60.5t39 107t8 109.5h-74q-14 0 -19 5.5t-5 19.5v13q0 14 5 19t19 5z" />
    <glyph glyph-name="currency" unicode="&#xa4;" horiz-adv-x="539" 
d="M97 342q0 46 22 86l-69 70q-16 16 0 34l29 29q18 19 34 0l70 -69q41 24 86 24q47 0 87 -24l70 69q16 19 34 0l29 -29q16 -18 0 -34l-70 -70q24 -41 24 -86t-24 -87l69 -69q16 -16 0 -34l-29 -29q-10 -11 -17 -11t-17 11l-70 69q-39 -23 -86 -23q-46 0 -86 24l-69 -70
q-17 -17 -34 0l-29 30q-16 16 0 34l69 68q-23 40 -23 87zM190 342q0 -34 23 -58.5t56 -24.5q34 0 57 24.5t23 58.5t-23 58.5t-57 24.5q-33 0 -56 -24.5t-23 -58.5z" />
    <glyph glyph-name="yen" unicode="&#xa5;" horiz-adv-x="672" 
d="M335 382l174 294q8 15 13.5 19.5t17.5 4.5h106q15 0 17 -4t-6 -20l-175 -288h90q14 0 19 -5t5 -19v-38q0 -14 -5 -19t-19 -5h-128l-19 -7l-21 -41v-34h168q14 0 19 -5t5 -19v-38q0 -14 -5 -19t-19 -5h-168v-110q0 -14 -5 -19t-19 -5h-89q-14 0 -19.5 5t-5.5 19v110h-167
q-14 0 -19 5t-5 19v38q0 14 5.5 19t18.5 5h167v39l-26 43h-141q-14 0 -19 5t-5 19v38q0 14 5.5 19t18.5 5h90l-176 288q-13 24 12 24h108q11 0 17 -5t15 -19z" />
    <glyph glyph-name="brokenbar" unicode="&#xa6;" horiz-adv-x="255" 
d="M82 -52v347q0 14 5 19t19 5h43q14 0 19.5 -5t5.5 -19v-347q0 -14 -5.5 -19t-19.5 -5h-43q-14 0 -19 5t-5 19zM82 437v311q0 14 5 19t19 5h43q14 0 19.5 -5t5.5 -19v-311q0 -14 -5.5 -19t-19.5 -5h-43q-14 0 -19 5t-5 19z" />
    <glyph glyph-name="section" unicode="&#xa7;" horiz-adv-x="632" 
d="M584 203q0 -78 -51 -134q51 -49 51 -134q0 -90 -69 -152t-192 -62q-147 0 -263 75q-12 7 -12.5 15t6.5 20l35 59q13 23 33 11q88 -57 191 -57q134 0 134 84q0 47 -39 65.5t-127 29.5q-231 28 -231 196q0 79 53 139q-53 48 -53 129q0 37 14 74t43 71.5t82 56.5t122 22
q72 0 126.5 -18t118.5 -57q18 -11 6 -34l-36 -59q-13 -24 -32 -12q-85 57 -173 57q-134 0 -134 -96q0 -41 36 -57t122 -26q50 -6 88 -17t74.5 -33t56.5 -61.5t20 -94.5zM281 291q-19 1 -53 10q-41 -24 -41 -77q0 -41 36 -57t122 -26q13 -2 24.5 -4.5t21.5 -4.5t14 -3
q42 18 42 67q0 47 -39 65.5t-127 29.5z" />
    <glyph glyph-name="dieresis" unicode="&#xa8;" horiz-adv-x="440" 
d="M51 666q0 27 18.5 46t45.5 19q28 0 47 -19t19 -46q0 -28 -19 -46t-47 -18q-27 0 -45.5 18t-18.5 46zM260 666q0 27 18 46t45 19q28 0 47 -19t19 -46q0 -28 -19 -46t-47 -18q-27 0 -45 18t-18 46z" />
    <glyph glyph-name="copyright" unicode="&#xa9;" horiz-adv-x="807" 
d="M41 350q0 150 106 256.5t257 106.5q85 0 154 -31t111.5 -82t65.5 -116.5t23 -133.5t-23 -133.5t-65.5 -116.5t-111.5 -82t-154 -31q-151 0 -257 106t-106 257zM81 350q0 -134 94.5 -228t228.5 -94q76 0 137 27.5t98.5 73t58 103.5t20.5 118t-20.5 118t-58 103.5t-98.5 73
t-137 27.5q-134 0 -228.5 -94t-94.5 -228zM403 231q-48 0 -77.5 35.5t-29.5 83.5q0 49 29.5 84t77.5 35q51 0 85 -37q8 -8 18 1l27 30q8 10 1 18q-54 52 -131 52q-75 0 -128 -54t-53 -129t53 -129t128 -54q79 0 131 52q6 7 -1 17l-27 31q-10 9 -18 1q-34 -37 -85 -37z" />
    <glyph glyph-name="ordfeminine" unicode="&#xaa;" horiz-adv-x="396" 
d="M98 632q-8 -1 -11 1.5t-5 12.5l-9 38q-5 13 7 18q88 11 110 11q89 0 116.5 -35.5t27.5 -116.5v-156q0 -15 -15 -15h-32q-11 0 -17 15l-4 22q-47 -44 -111 -44q-45 0 -77 27t-32 77q0 49 33.5 75t84.5 26q43 0 87 -14q0 37 -13.5 52.5t-51.5 15.5q-33 0 -88 -10zM184 527
q-28 0 -41 -11.5t-13 -28.5q0 -15 12.5 -28t38.5 -13q33 0 70 39v30q-37 12 -67 12z" />
    <glyph glyph-name="guillemotleft" unicode="&#xab;" horiz-adv-x="586" 
d="M51 301l162 183q17 17 34 5l52 -30q19 -12 5 -33l-133 -172l133 -172q14 -21 -5 -33l-52 -30q-17 -12 -34 5l-162 183q-18 22 -18 43v8q0 21 18 43zM288 301l162 183q17 17 34 5l52 -30q19 -12 5 -33l-134 -172l134 -172q14 -21 -5 -33l-52 -30q-17 -12 -34 5l-162 183
q-18 22 -18 43v8q0 21 18 43z" />
    <glyph glyph-name="logicalnot" unicode="&#xac;" horiz-adv-x="530" 
d="M374 85v153h-300q-14 0 -19 5t-5 19v56q0 14 5 19t19 5h380q14 0 19 -5t5 -19v-233q0 -14 -5 -19t-19 -5h-55q-14 0 -19.5 5t-5.5 19z" />
    <glyph glyph-name="uni00AD" unicode="&#xad;" horiz-adv-x="424" 
d="M350 231h-276q-14 0 -19 5t-5 19v56q0 14 5 19t19 5h276q14 0 19 -5t5 -19v-56q0 -14 -5 -19t-19 -5z" />
    <glyph glyph-name="registered" unicode="&#xae;" horiz-adv-x="807" 
d="M542 423q0 -79 -78 -104l92 -136q8 -16 -12 -16h-47q-14 0 -22 12l-88 134h-42v-134q0 -12 -13 -12h-50q-14 0 -14 12v342q0 12 14 12h129q54 0 92.5 -25.5t38.5 -84.5zM345 376h65q58 0 58 47t-59 47h-64v-94zM41 350q0 150 106 256.5t257 106.5q150 0 256.5 -106.5
t106.5 -256.5q0 -151 -106.5 -257t-256.5 -106q-151 0 -257 106t-106 257zM81 350q0 -134 94.5 -228t228.5 -94q133 0 227.5 94t94.5 228q0 133 -94.5 227.5t-227.5 94.5q-134 0 -228.5 -94t-94.5 -228z" />
    <glyph glyph-name="macron" unicode="&#xaf;" horiz-adv-x="391" 
d="M317 619h-243q-14 0 -19 5t-5 19v46q0 14 5 19t19 5h243q14 0 19 -5t5 -19v-46q0 -14 -5 -19t-19 -5z" />
    <glyph glyph-name="degree" unicode="&#xb0;" horiz-adv-x="387" 
d="M41 560q0 64 44 108.5t108 44.5q63 0 108.5 -45t45.5 -108q0 -64 -45.5 -109t-108.5 -45q-64 0 -108 44.5t-44 109.5zM129 560q0 -27 18.5 -45t44.5 -18t44 18t18 45q0 25 -18 43.5t-44 18.5q-25 0 -44 -18.5t-19 -43.5z" />
    <glyph glyph-name="plusminus" unicode="&#xb1;" horiz-adv-x="584" 
d="M346 650v-126h127q14 0 19 -5t5 -19v-60q0 -14 -5 -19t-19 -5h-127v-112q0 -14 -5 -19t-19 -5h-59q-14 0 -19.5 5t-5.5 19v112h-126q-14 0 -19 5t-5 19v59q0 14 5 19.5t19 5.5h126v126q0 14 5 19t19 5h60q14 0 19 -5t5 -19zM488 65h-392q-14 0 -19.5 5t-5.5 19v61
q0 14 5.5 19t19.5 5h392q14 0 19 -5t5 -19v-61q0 -14 -5 -19t-19 -5z" />
    <glyph glyph-name="acute" unicode="&#xb4;" horiz-adv-x="279" 
d="M234 645l-71 -56q-17 -15 -38 -15h-73q-27 0 -2 28l125 137q16 19 34 -8l32 -53q6 -10 5 -17t-12 -16z" />
    <glyph glyph-name="mu" unicode="&#xb5;" horiz-adv-x="616" 
d="M440 24l-17 50q-26 -29 -40.5 -43t-44.5 -28t-66 -14q-35 0 -58 17v-186q0 -14 -5 -19t-19 -5h-85q-14 0 -19 5t-5 19v665q0 14 5 19t19 5h85q14 0 19 -5t5 -19v-235q0 -72 20 -107t71 -35q96 0 96 147v230q0 13 5.5 18.5t18.5 5.5h86q14 0 19 -5t5 -19v-461
q0 -14 -5 -19t-19 -5h-42q-7 0 -12 3t-8 7t-9 14z" />
    <glyph glyph-name="paragraph" unicode="&#xb6;" horiz-adv-x="817" 
d="M293 -213v417q-111 0 -187.5 74.5t-76.5 183.5q0 107 74 172.5t182 65.5h462q14 0 19 -5t5 -19v-75q0 -14 -5 -19t-19 -5h-92v-791q0 -14 -5 -19t-19 -5h-67q-14 0 -19 5t-5 19v791h-131v-790q0 -14 -5 -19t-19 -5h-67q-14 0 -19.5 5t-5.5 19z" />
    <glyph glyph-name="periodcentered" unicode="&#xb7;" horiz-adv-x="288" 
d="M51 342q0 40 27 67t65 27q40 0 67 -27t27 -67q0 -39 -27 -65.5t-67 -26.5q-38 0 -65 26.5t-27 65.5z" />
    <glyph glyph-name="cedilla" unicode="&#xb8;" horiz-adv-x="315" 
d="M102 -8l57 -5l-3 -34q53 0 82 -26.5t29 -73.5t-30 -74.5t-86 -27.5q-44 0 -94 41q-14 11 -3 25l15 19q6 8 11 8t14 -5q34 -19 66 -19q36 0 36 33q0 37 -44 37h-50q-19 0 -19 22z" />
    <glyph glyph-name="ordmasculine" unicode="&#xba;" horiz-adv-x="332" 
d="M33 545q0 73 34 120.5t99 47.5t99 -47.5t34 -120.5t-34 -120.5t-99 -47.5t-99 47.5t-34 120.5zM119 545q0 -89 47 -89q48 0 48 89t-48 89q-47 0 -47 -89z" />
    <glyph glyph-name="guillemotright" unicode="&#xbb;" horiz-adv-x="586" 
d="M373 484l162 -183q18 -22 18 -43v-8q0 -21 -18 -43l-162 -183q-17 -17 -34 -5l-52 30q-19 12 -5 33l134 172l-134 172q-14 21 5 33l52 30q17 12 34 -5zM136 484l162 -183q18 -22 18 -43v-8q0 -21 -18 -43l-162 -183q-17 -17 -34 -5l-52 30q-18 13 -5 33l134 172l-134 172
q-14 21 5 33l52 30q17 12 34 -5z" />
    <glyph glyph-name="onequarter" unicode="&#xbc;" horiz-adv-x="682" 
d="M540 676l-338 -656q-11 -20 -31 -20h-42q-34 0 -22 24l339 656q11 20 31 20h42q33 0 21 -24zM61 656l64 33q19 11 26 11h39q12 0 12 -11v-288q0 -11 -12 -11h-58q-11 0 -11 11v197l-54 -6q-12 -1 -12 10v42q0 7 6 12zM507 310h59q10 0 10 -11v-166h40q10 0 10 -12v-37
q0 -12 -10 -12h-40v-61q0 -11 -10 -11h-47q-7 0 -9 2t-2 9v61h-129q-11 0 -11 12v25q0 9 7 19l123 177q3 5 9 5zM508 218l-60 -85h60v85z" />
    <glyph glyph-name="onehalf" unicode="&#xbd;" horiz-adv-x="716" 
d="M561 676l-339 -656q-9 -20 -31 -20h-42q-33 0 -21 24l338 656q11 20 31 20h42q34 0 22 -24zM61 656l64 33q19 11 26 11h39q12 0 12 -11v-288q0 -11 -12 -11h-58q-11 0 -11 11v197l-54 -6q-12 -1 -12 10v42q0 7 6 12zM566 74l65 95q20 36 20 70t-27.5 59t-73.5 25
q-62 0 -110 -46q-8 -7 1 -16l31 -33q8 -10 17 -2q25 26 61 26q17 0 24.5 -11.5t3.5 -30t-19 -38.5l-117 -154q-4 -7 -4 -9v-5q0 -4 4 -4h207q11 0 11 11v52q0 7 -2 9t-9 2h-83z" />
    <glyph glyph-name="threequarters" unicode="&#xbe;" horiz-adv-x="732" 
d="M584 676l-339 -656q-9 -20 -30 -20h-43q-33 0 -21 24l339 656q9 20 30 20h43q33 0 21 -24zM170 382q-64 0 -110 46q-8 8 1 16l29 31q9 9 17 2q31 -31 63 -31q26 0 38 13t12 29q0 15 -13.5 24t-36.5 9h-29q-12 0 -12 11v32q0 12 12 12h29q23 0 36.5 9t13.5 24q0 16 -12 29
t-38 13q-31 0 -63 -32q-9 -8 -17 2l-29 31q-8 10 -1 16q47 47 110 47q46 0 82.5 -25t36.5 -72q0 -46 -43 -69v-1q43 -23 43 -70t-36.5 -71.5t-82.5 -24.5zM548 310h59q10 0 10 -11v-166h40q11 0 11 -12v-37q0 -12 -11 -12h-40v-61q0 -11 -10 -11h-47q-7 0 -9 2t-2 9v61h-129
q-11 0 -11 12v25q0 9 7 19l123 177q3 5 9 5zM549 218l-60 -85h60v85z" />
    <glyph glyph-name="questiondown" unicode="&#xbf;" horiz-adv-x="533" 
d="M336 -7q15 3 15 17v102q0 14 -5 19t-19 5h-75q-14 0 -19 -5t-5 -19v-43q-109 -24 -163.5 -65t-54.5 -128q0 -38 14.5 -74t44.5 -67.5t83 -51t122 -19.5t120.5 20t115.5 60q18 11 6 34l-36 59q-14 25 -32 12q-90 -62 -166 -62q-64 0 -99.5 26.5t-35.5 70.5t45 68t144 41z
M376 301q0 -36 -24.5 -61t-60.5 -25q-35 0 -60.5 25t-25.5 61t25 60.5t61 24.5t60.5 -24.5t24.5 -60.5z" />
    <glyph glyph-name="Agrave" unicode="&#xc0;" horiz-adv-x="743" 
d="M373 475h-2l-100 -210h202zM393 690l344 -666q4 -9 -0.5 -16.5t-14.5 -7.5h-111q-12 0 -17.5 4.5t-13.5 19.5l-59 120h-298l-60 -120q-11 -24 -31 -24h-111q-10 0 -14.5 7.5t-0.5 16.5l345 666l3 6t3 5.5t2.5 4t2.5 4t2 2.5t2.5 1.5t3.5 0.5h3q2 0 4 -1t4 -3.5t3.5 -4.5
t4 -7t4.5 -8zM303 780l-71 56q-11 9 -12 16t5 17l32 53q18 27 34 8l125 -137q25 -28 -2 -28h-73q-21 0 -38 15z" />
    <glyph glyph-name="Aacute" unicode="&#xc1;" horiz-adv-x="743" 
d="M373 475h-2l-100 -210h202zM393 690l344 -666q4 -9 -0.5 -16.5t-14.5 -7.5h-111q-12 0 -17.5 4.5t-13.5 19.5l-59 120h-298l-60 -120q-11 -24 -31 -24h-111q-10 0 -14.5 7.5t-0.5 16.5l345 666l3 6t3 5.5t2.5 4t2.5 4t2 2.5t2.5 1.5t3.5 0.5h3q2 0 4 -1t4 -3.5t3.5 -4.5
t4 -7t4.5 -8zM507 836l-71 -56q-16 -15 -38 -15h-73q-27 0 -2 28l125 137q16 19 34 -8l32 -53q6 -10 5 -17t-12 -16z" />
    <glyph glyph-name="Acircumflex" unicode="&#xc2;" horiz-adv-x="743" 
d="M373 475h-2l-100 -210h202zM393 690l344 -666q4 -9 -0.5 -16.5t-14.5 -7.5h-111q-12 0 -17.5 4.5t-13.5 19.5l-59 120h-298l-60 -120q-11 -24 -31 -24h-111q-10 0 -14.5 7.5t-0.5 16.5l345 666l3 6t3 5.5t2.5 4t2.5 4t2 2.5t2.5 1.5t3.5 0.5h3q2 0 4 -1t4 -3.5t3.5 -4.5
t4 -7t4.5 -8zM343 944h57q17 -1 34 -24l91 -132q15 -24 -10 -24h-52q-23 0 -37 24l-54 88l-55 -88q-13 -24 -36 -24h-53q-25 0 -10 24l92 132q16 23 33 24z" />
    <glyph glyph-name="Atilde" unicode="&#xc3;" horiz-adv-x="743" 
d="M373 475h-2l-100 -210h202zM393 690l344 -666q4 -9 -0.5 -16.5t-14.5 -7.5h-111q-12 0 -17.5 4.5t-13.5 19.5l-59 120h-298l-60 -120q-11 -24 -31 -24h-111q-10 0 -14.5 7.5t-0.5 16.5l345 666l3 6t3 5.5t2.5 4t2.5 4t2 2.5t2.5 1.5t3.5 0.5h3q2 0 4 -1t4 -3.5t3.5 -4.5
t4 -7t4.5 -8zM441 887q27 0 41 36q5 13 11.5 15.5t19.5 -2.5l34 -15q13 -5 16 -12t-2 -20q-36 -91 -113 -91q-43 0 -85 26q-7 4 -19 11t-16.5 9.5t-12 5t-14.5 2.5q-12 0 -23.5 -10.5t-17.5 -25.5q-5 -13 -11 -15.5t-20 2.5l-33 15q-14 5 -17 12t3 20q36 91 113 91
q41 0 85 -27q6 -4 18.5 -11t16.5 -9t11.5 -4.5t14.5 -2.5z" />
    <glyph glyph-name="Adieresis" unicode="&#xc4;" horiz-adv-x="743" 
d="M373 475h-2l-100 -210h202zM393 690l344 -666q4 -9 -0.5 -16.5t-14.5 -7.5h-111q-12 0 -17.5 4.5t-13.5 19.5l-59 120h-298l-60 -120q-11 -24 -31 -24h-111q-10 0 -14.5 7.5t-0.5 16.5l345 666l3 6t3 5.5t2.5 4t2.5 4t2 2.5t2.5 1.5t3.5 0.5h3q2 0 4 -1t4 -3.5t3.5 -4.5
t4 -7t4.5 -8zM203 857q0 27 18.5 46t45.5 19q28 0 47 -19t19 -46q0 -28 -19 -46t-47 -18q-27 0 -45.5 18t-18.5 46zM412 857q0 27 18 46t45 19q28 0 47 -19t19 -46q0 -28 -19 -46t-47 -18q-27 0 -45 18t-18 46z" />
    <glyph glyph-name="Aring" unicode="&#xc5;" horiz-adv-x="743" 
d="M373 475h-2l-100 -210h202zM393 690l344 -666q4 -9 -0.5 -16.5t-14.5 -7.5h-111q-12 0 -17.5 4.5t-13.5 19.5l-59 120h-298l-60 -120q-11 -24 -31 -24h-111q-10 0 -14.5 7.5t-0.5 16.5l345 666l3 6t3 5.5t2.5 4t2.5 4t2 2.5t2.5 1.5t3.5 0.5h3q2 0 4 -1t4 -3.5t3.5 -4.5
t4 -7t4.5 -8zM371 765q-48 0 -80.5 33t-32.5 81t32.5 80.5t80.5 32.5q47 0 80 -32.5t33 -80.5t-33 -81t-80 -33zM371 829q20 0 32 15t12 35t-11.5 34.5t-32.5 14.5t-33 -15t-12 -34q0 -20 12 -35t33 -15z" />
    <glyph glyph-name="AE" unicode="&#xc6;" horiz-adv-x="993" 
d="M446 0q-14 0 -19 5t-5 19v120h-192l-67 -120q-10 -24 -31 -24h-111q-10 0 -14.5 7.5t-0.5 16.5l375 649q18 25 24 27h505q14 0 19 -5t5 -19v-73q0 -14 -5 -19t-19 -5h-334v-166h309q14 0 19 -5t5 -19v-73q0 -14 -5 -19t-19 -5h-309v-171h334q14 0 19 -5t5 -19v-73
q0 -14 -5 -19t-19 -5h-464zM422 495l-127 -230h127v230z" />
    <glyph glyph-name="Ccedilla" unicode="&#xc7;" horiz-adv-x="709" 
d="M329 -88l18 80q-128 20 -215.5 122.5t-87.5 235.5q0 149 105.5 256t253.5 107q73 0 143.5 -28t118.5 -75q10 -10 9 -16.5t-11 -17.5l-54 -59q-18 -19 -34 -3q-71 76 -172 76q-95 0 -155 -72t-60 -168q0 -95 60 -167.5t155 -72.5q102 0 173 76q16 16 33 -3l54 -59
q10 -11 11 -17.5t-9 -16.5q-47 -46 -116.5 -73.5t-143.5 -29.5l-3 -34q53 0 82 -26.5t29 -73.5t-30 -74.5t-86 -27.5q-44 0 -94 41q-15 12 -3 25l15 19q6 8 11 8t14 -5q34 -19 66 -19q35 0 35 33q0 37 -43 37h-51q-18 0 -18 22z" />
    <glyph glyph-name="Egrave" unicode="&#xc8;" horiz-adv-x="638" 
d="M555 0h-452q-14 0 -19 5t-5 19v652q0 14 5.5 19t18.5 5h452q14 0 19 -5t5 -19v-73q0 -14 -5 -19t-19 -5h-334v-166h320q14 0 19 -5t5 -19v-73q0 -14 -5 -19t-19 -5h-320v-171h334q14 0 19 -5t5 -19v-73q0 -14 -5 -19t-19 -5zM291 780l-71 56q-11 9 -12 16t5 17l32 53
q18 27 34 8l125 -137q25 -28 -2 -28h-73q-21 0 -38 15z" />
    <glyph glyph-name="Eacute" unicode="&#xc9;" horiz-adv-x="638" 
d="M555 0h-452q-14 0 -19 5t-5 19v652q0 14 5.5 19t18.5 5h452q14 0 19 -5t5 -19v-73q0 -14 -5 -19t-19 -5h-334v-166h320q14 0 19 -5t5 -19v-73q0 -14 -5 -19t-19 -5h-320v-171h334q14 0 19 -5t5 -19v-73q0 -14 -5 -19t-19 -5zM436 836l-71 -56q-17 -15 -38 -15h-73
q-27 0 -2 28l125 137q16 19 34 -8l32 -53q6 -10 5 -17t-12 -16z" />
    <glyph glyph-name="Ecircumflex" unicode="&#xca;" horiz-adv-x="618" 
d="M294 944h57q17 -1 34 -24l91 -132q15 -24 -10 -24h-52q-24 0 -37 24l-54 88l-55 -88q-14 -24 -36 -24h-53q-25 0 -10 24l92 132q16 23 33 24zM549 0h-452q-14 0 -19 5t-5 19v652q0 14 5.5 19t18.5 5h452q14 0 19 -5t5 -19v-73q0 -14 -5 -19t-19 -5h-334v-166h320
q14 0 19 -5t5 -19v-73q0 -14 -5 -19t-19 -5h-320v-171h334q14 0 19 -5t5 -19v-73q0 -14 -5 -19t-19 -5z" />
    <glyph glyph-name="Edieresis" unicode="&#xcb;" horiz-adv-x="638" 
d="M555 0h-452q-14 0 -19 5t-5 19v652q0 14 5.5 19t18.5 5h452q14 0 19 -5t5 -19v-73q0 -14 -5 -19t-19 -5h-334v-166h320q14 0 19 -5t5 -19v-73q0 -14 -5 -19t-19 -5h-320v-171h334q14 0 19 -5t5 -19v-73q0 -14 -5 -19t-19 -5zM161 857q0 27 18.5 46t45.5 19q28 0 47 -19
t19 -46q0 -28 -19 -46t-47 -18q-27 0 -45.5 18t-18.5 46zM370 857q0 27 18 46t45 19q28 0 47 -19t19 -46q0 -28 -19 -46t-47 -18q-27 0 -45 18t-18 46z" />
    <glyph glyph-name="Igrave" unicode="&#xcc;" horiz-adv-x="311" 
d="M83 24v652q0 14 5 19t19 5h94q14 0 19 -5t5 -19v-652q0 -14 -5 -19t-19 -5h-94q-14 0 -19 5t-5 19zM102 780l-71 56q-11 9 -12 16t5 17l32 53q18 27 34 8l125 -137q25 -28 -2 -28h-73q-22 0 -38 15z" />
    <glyph glyph-name="Iacute" unicode="&#xcd;" horiz-adv-x="299" 
d="M78 24v652q0 14 5 19t19 5h94q14 0 19 -5t5 -19v-652q0 -14 -5 -19t-19 -5h-94q-14 0 -19 5t-5 19zM273 836l-71 -56q-16 -15 -38 -15h-73q-27 0 -2 28l125 137q16 19 34 -8l32 -53q6 -10 5 -17t-12 -16z" />
    <glyph glyph-name="Icircumflex" unicode="&#xce;" horiz-adv-x="299" 
d="M78 24v652q0 14 5 19t19 5h94q14 0 19 -5t5 -19v-652q0 -14 -5 -19t-19 -5h-94q-14 0 -19 5t-5 19zM121 944h57q17 -1 34 -24l91 -132q15 -24 -10 -24h-52q-23 0 -37 24l-54 88l-55 -88q-13 -24 -36 -24h-53q-25 0 -10 24l92 132q16 23 33 24z" />
    <glyph glyph-name="Idieresis" unicode="&#xcf;" horiz-adv-x="299" 
d="M78 24v652q0 14 5 19t19 5h94q14 0 19 -5t5 -19v-652q0 -14 -5 -19t-19 -5h-94q-14 0 -19 5t-5 19zM-20 857q0 27 18.5 46t45.5 19q28 0 47 -19t19 -46q0 -28 -19 -46t-47 -18q-27 0 -45.5 18t-18.5 46zM189 857q0 27 18 46t45 19q28 0 47 -19t19 -46q0 -28 -19 -46
t-47 -18q-27 0 -45 18t-18 46z" />
    <glyph glyph-name="Eth" unicode="&#xd0;" horiz-adv-x="807" 
d="M41 411h89v265q0 14 5 19t19 5h253q149 0 252.5 -101t103.5 -249t-103.5 -249t-252.5 -101h-253q-14 0 -19 5t-5 19v273h-89q-14 0 -19.5 5t-5.5 19v66q0 14 5.5 19t19.5 5zM406 582h-134v-171h122q14 0 19 -5t5 -19v-66q0 -14 -5 -19t-19 -5h-122v-179h134
q98 0 156 68.5t58 163.5q0 96 -58 164t-156 68z" />
    <glyph glyph-name="Ntilde" unicode="&#xd1;" horiz-adv-x="775" 
d="M224 426v-402q0 -14 -5 -19t-19 -5h-94q-14 0 -19 5t-5 19v680q0 9 9 9h9q7 0 17 -8l435 -427v398q0 14 5 19t19 5h93q14 0 19.5 -5t5.5 -19v-680q0 -9 -9 -9h-9q-8 0 -18 9zM448 887q27 0 41 36q5 13 11.5 15.5t19.5 -2.5l34 -15q13 -5 16 -12t-2 -20q-36 -91 -113 -91
q-43 0 -85 26q-7 4 -19 11t-16.5 9.5t-12 5t-14.5 2.5q-12 0 -23.5 -10.5t-17.5 -25.5q-5 -13 -11 -15.5t-20 2.5l-33 15q-14 5 -17 12t3 20q36 91 113 91q42 0 85 -27q6 -4 18.5 -11t16.5 -9t11.5 -4.5t14.5 -2.5z" />
    <glyph glyph-name="Ograve" unicode="&#xd2;" horiz-adv-x="807" 
d="M44 350q0 149 105.5 256t253.5 107t254 -107t106 -256t-106 -256t-254 -107t-253.5 107t-105.5 256zM188 350q0 -94 60 -167t155 -73q97 0 156.5 72.5t59.5 167.5q0 96 -59.5 168t-156.5 72q-95 0 -155 -72t-60 -168zM354 780l-71 56q-11 9 -12 16t5 17l32 53q18 27 34 8
l125 -137q25 -28 -2 -28h-73q-22 0 -38 15z" />
    <glyph glyph-name="Oacute" unicode="&#xd3;" horiz-adv-x="807" 
d="M44 350q0 149 105.5 256t253.5 107t254 -107t106 -256t-106 -256t-254 -107t-253.5 107t-105.5 256zM188 350q0 -94 60 -167t155 -73q97 0 156.5 72.5t59.5 167.5q0 96 -59.5 168t-156.5 72q-95 0 -155 -72t-60 -168zM529 836l-71 -56q-16 -15 -38 -15h-73q-27 0 -2 28
l125 137q16 19 34 -8l32 -53q6 -10 5 -17t-12 -16z" />
    <glyph glyph-name="Ocircumflex" unicode="&#xd4;" horiz-adv-x="807" 
d="M44 350q0 149 105.5 256t253.5 107t254 -107t106 -256t-106 -256t-254 -107t-253.5 107t-105.5 256zM188 350q0 -94 60 -167t155 -73q97 0 156.5 72.5t59.5 167.5q0 96 -59.5 168t-156.5 72q-95 0 -155 -72t-60 -168zM375 944h57q17 -1 34 -24l91 -132q15 -24 -10 -24
h-52q-23 0 -37 24l-54 88l-55 -88q-13 -24 -36 -24h-53q-25 0 -10 24l92 132q16 23 33 24z" />
    <glyph glyph-name="Otilde" unicode="&#xd5;" horiz-adv-x="807" 
d="M44 350q0 149 105.5 256t253.5 107t254 -107t106 -256t-106 -256t-254 -107t-253.5 107t-105.5 256zM188 350q0 -94 60 -167t155 -73q97 0 156.5 72.5t59.5 167.5q0 96 -59.5 168t-156.5 72q-95 0 -155 -72t-60 -168zM468 887q27 0 41 36q5 13 11.5 15.5t19.5 -2.5
l34 -15q13 -5 16 -12t-2 -20q-36 -91 -113 -91q-43 0 -85 26q-7 4 -19 11t-16.5 9.5t-12 5t-14.5 2.5q-12 0 -23.5 -10.5t-17.5 -25.5q-5 -13 -11 -15.5t-20 2.5l-33 15q-14 5 -17 12t3 20q36 91 113 91q42 0 85 -27q6 -4 18.5 -11t16.5 -9t11.5 -4.5t14.5 -2.5z" />
    <glyph glyph-name="Odieresis" unicode="&#xd6;" horiz-adv-x="807" 
d="M44 350q0 149 105.5 256t253.5 107t254 -107t106 -256t-106 -256t-254 -107t-253.5 107t-105.5 256zM188 350q0 -94 60 -167t155 -73q97 0 156.5 72.5t59.5 167.5q0 96 -59.5 168t-156.5 72q-95 0 -155 -72t-60 -168zM234 857q0 27 18.5 46t45.5 19q28 0 47 -19t19 -46
q0 -28 -19 -46t-47 -18q-27 0 -45.5 18t-18.5 46zM443 857q0 27 18 46t45 19q28 0 47 -19t19 -46q0 -28 -19 -46t-47 -18q-27 0 -45 18t-18 46z" />
    <glyph glyph-name="multiply" unicode="&#xd7;" horiz-adv-x="453" 
d="M316 137l-89 90l-90 -90q-17 -17 -34 0l-42 42q-11 10 -11 17t11 17l89 90l-89 90q-11 10 -11 16.5t11 17.5l42 42q11 10 17.5 10t16.5 -10l90 -90l89 90q19 18 34 0l43 -42q10 -11 10 -17.5t-10 -16.5l-90 -90l90 -90q17 -17 0 -34l-43 -42q-16 -18 -34 0z" />
    <glyph glyph-name="Oslash" unicode="&#xd8;" horiz-adv-x="807" 
d="M44 350q0 149 105.5 256t253.5 107q61 0 125 -23l17 33q9 20 30 20h43q34 0 22 -25l-36 -68q70 -50 114.5 -127.5t44.5 -172.5q0 -149 -106 -256t-254 -107q-70 0 -130 26l-19 -36q-9 -20 -30 -20h-43q-33 0 -21 24l37 72q-71 51 -112 129t-41 168zM619 350
q0 107 -76 183l-212 -409q36 -14 72 -14q97 0 156.5 72.5t59.5 167.5zM188 350q0 -100 72 -178l210 407q-37 11 -67 11q-95 0 -155.5 -72.5t-59.5 -167.5z" />
    <glyph glyph-name="Ugrave" unicode="&#xd9;" horiz-adv-x="724" 
d="M362 -13q-129 0 -213.5 79t-84.5 222v388q0 14 5 19t19 5h94q14 0 19 -5t5 -19v-383q0 -183 156 -183t156 183v383q0 14 5 19t19 5h94q14 0 19 -5t5 -19v-388q0 -143 -84.5 -222t-213.5 -79zM309 780l-71 56q-11 9 -12 16t5 17l32 53q18 27 34 8l125 -137q25 -28 -2 -28
h-73q-21 0 -38 15z" />
    <glyph glyph-name="Uacute" unicode="&#xda;" horiz-adv-x="724" 
d="M362 -13q-129 0 -213.5 79t-84.5 222v388q0 14 5 19t19 5h94q14 0 19 -5t5 -19v-383q0 -183 156 -183t156 183v383q0 14 5 19t19 5h94q14 0 19 -5t5 -19v-388q0 -143 -84.5 -222t-213.5 -79zM459 836l-71 -56q-16 -15 -38 -15h-73q-27 0 -2 28l125 137q16 19 34 -8
l32 -53q6 -10 5 -17t-12 -16z" />
    <glyph glyph-name="Ucircumflex" unicode="&#xdb;" horiz-adv-x="724" 
d="M362 -13q-129 0 -213.5 79t-84.5 222v388q0 14 5 19t19 5h94q14 0 19 -5t5 -19v-383q0 -183 156 -183t156 183v383q0 14 5 19t19 5h94q14 0 19 -5t5 -19v-388q0 -143 -84.5 -222t-213.5 -79zM333 944h57q17 -1 34 -24l91 -132q15 -24 -10 -24h-52q-23 0 -37 24l-54 88
l-55 -88q-13 -24 -36 -24h-53q-25 0 -10 24l92 132q16 23 33 24z" />
    <glyph glyph-name="Udieresis" unicode="&#xdc;" horiz-adv-x="724" 
d="M362 -13q-129 0 -213.5 79t-84.5 222v388q0 14 5 19t19 5h94q14 0 19 -5t5 -19v-383q0 -183 156 -183t156 183v383q0 14 5 19t19 5h94q14 0 19 -5t5 -19v-388q0 -143 -84.5 -222t-213.5 -79zM195 857q0 27 18.5 46t45.5 19q28 0 47 -19t19 -46q0 -28 -19 -46t-47 -18
q-27 0 -45.5 18t-18.5 46zM404 857q0 27 18 46t45 19q28 0 47 -19t19 -46q0 -28 -19 -46t-47 -18q-27 0 -45 18t-18 46z" />
    <glyph glyph-name="Yacute" unicode="&#xdd;" horiz-adv-x="664" 
d="M265 259l-253 417q-13 24 12 24h108q11 0 17 -5t15 -19l170 -294l174 294q8 15 13.5 19.5t17.5 4.5h106q26 0 11 -24l-253 -417v-235q0 -14 -5 -19t-19 -5h-89q-14 0 -19.5 5t-5.5 19v235zM437 836l-71 -56q-16 -15 -38 -15h-73q-27 0 -2 28l125 137q16 19 34 -8l32 -53
q6 -10 5 -17t-12 -16z" />
    <glyph glyph-name="Thorn" unicode="&#xde;" horiz-adv-x="627" 
d="M361 0h-161v-180q0 -14 -5 -19t-19 -5h-85q-14 0 -19 5t-5 19v869q0 14 5 19t19 5h85q14 0 19 -5t5 -19v-180h161q99 0 165 -73.5t66 -180.5q0 -109 -66 -182t-165 -73zM200 119h130q54 0 91.5 37t37.5 99t-37.5 99.5t-91.5 37.5h-130v-273z" />
    <glyph glyph-name="germandbls" unicode="&#xdf;" horiz-adv-x="651" 
d="M327 411h13q53 0 82 23t29 58q0 90 -118 90q-60 0 -89 -21t-29 -68v-205v-264q0 -14 -5 -19t-19 -5h-92q-14 0 -19.5 5t-5.5 19v481q0 53 23 92.5t61 61t80 31.5t88 10h12q46 0 88.5 -10t81 -31.5t61.5 -61t23 -92.5q0 -91 -92 -145v-1q47 -20 82 -60t35 -104
q0 -42 -15 -76.5t-40 -56t-58.5 -36t-68 -20.5t-71.5 -6h-68q-14 0 -19.5 5t-5.5 19v70q0 14 5.5 19t19.5 5h62q61 0 89.5 22t28.5 68q0 38 -31 63.5t-84 25.5h-34q-14 0 -19.5 5t-5.5 19v66q0 14 5.5 19t19.5 5z" />
    <glyph glyph-name="agrave" unicode="&#xe0;" horiz-adv-x="565" 
d="M123 392q-13 -2 -18 3t-8 20l-15 57q-7 24 14 29q17 4 73.5 11.5t102.5 7.5q74 0 121 -15.5t70.5 -49.5t31.5 -74.5t8 -104.5v-252q0 -14 -5 -19t-19 -5h-50q-9 0 -14.5 5t-11.5 19l-9 36q-20 -19 -37 -31.5t-56 -26t-86 -13.5q-71 0 -123 43.5t-52 123.5q0 78 54 120
t135 42q74 0 141 -23q0 61 -21 86t-83 25q-73 0 -143 -14zM263 224q-47 0 -68.5 -19.5t-21.5 -48.5q0 -25 21 -46t64 -21q56 0 112 61v53q-70 21 -107 21zM256 589l-71 56q-11 9 -12 16t5 17l32 53q18 27 34 8l125 -137q25 -28 -2 -28h-73q-22 0 -38 15z" />
    <glyph glyph-name="aacute" unicode="&#xe1;" horiz-adv-x="565" 
d="M123 392q-13 -2 -18 3t-8 20l-15 57q-7 24 14 29q17 4 73.5 11.5t102.5 7.5q74 0 121 -15.5t70.5 -49.5t31.5 -74.5t8 -104.5v-252q0 -14 -5 -19t-19 -5h-50q-9 0 -14.5 5t-11.5 19l-9 36q-20 -19 -37 -31.5t-56 -26t-86 -13.5q-71 0 -123 43.5t-52 123.5q0 78 54 120
t135 42q74 0 141 -23q0 61 -21 86t-83 25q-73 0 -143 -14zM263 224q-47 0 -68.5 -19.5t-21.5 -48.5q0 -25 21 -46t64 -21q56 0 112 61v53q-70 21 -107 21zM396 645l-71 -56q-17 -15 -38 -15h-73q-27 0 -2 28l125 137q16 19 34 -8l32 -53q6 -10 5 -17t-12 -16z" />
    <glyph glyph-name="acircumflex" unicode="&#xe2;" horiz-adv-x="565" 
d="M123 392q-13 -2 -18 3t-8 20l-15 57q-7 24 14 29q17 4 73.5 11.5t102.5 7.5q74 0 121 -15.5t70.5 -49.5t31.5 -74.5t8 -104.5v-252q0 -14 -5 -19t-19 -5h-50q-9 0 -14.5 5t-11.5 19l-9 36q-20 -19 -37 -31.5t-56 -26t-86 -13.5q-71 0 -123 43.5t-52 123.5q0 78 54 120
t135 42q74 0 141 -23q0 61 -21 86t-83 25q-73 0 -143 -14zM263 224q-47 0 -68.5 -19.5t-21.5 -48.5q0 -25 21 -46t64 -21q56 0 112 61v53q-70 21 -107 21zM251 753h57q17 -1 34 -24l91 -132q15 -24 -10 -24h-52q-23 0 -37 24l-54 88l-55 -88q-13 -24 -36 -24h-53
q-25 0 -10 24l92 132q16 23 33 24z" />
    <glyph glyph-name="atilde" unicode="&#xe3;" horiz-adv-x="565" 
d="M123 392q-13 -2 -18 3t-8 20l-15 57q-7 24 14 29q17 4 73.5 11.5t102.5 7.5q74 0 121 -15.5t70.5 -49.5t31.5 -74.5t8 -104.5v-252q0 -14 -5 -19t-19 -5h-50q-9 0 -14.5 5t-11.5 19l-9 36q-20 -19 -37 -31.5t-56 -26t-86 -13.5q-71 0 -123 43.5t-52 123.5q0 78 54 120
t135 42q74 0 141 -23q0 61 -21 86t-83 25q-73 0 -143 -14zM263 224q-47 0 -68.5 -19.5t-21.5 -48.5q0 -25 21 -46t64 -21q56 0 112 61v53q-70 21 -107 21zM349 696q27 0 41 36q5 13 11.5 15.5t19.5 -2.5l34 -15q13 -5 16 -12t-2 -20q-36 -91 -113 -91q-43 0 -85 26
q-7 4 -19 11t-16.5 9.5t-12 5t-14.5 2.5q-12 0 -23.5 -10.5t-17.5 -25.5q-5 -13 -11 -15.5t-20 2.5l-33 15q-14 5 -17 12t3 20q36 91 113 91q41 0 85 -27q6 -4 18.5 -11t16.5 -9t11.5 -4.5t14.5 -2.5z" />
    <glyph glyph-name="adieresis" unicode="&#xe4;" horiz-adv-x="565" 
d="M123 392q-13 -2 -18 3t-8 20l-15 57q-7 24 14 29q17 4 73.5 11.5t102.5 7.5q74 0 121 -15.5t70.5 -49.5t31.5 -74.5t8 -104.5v-252q0 -14 -5 -19t-19 -5h-50q-9 0 -14.5 5t-11.5 19l-9 36q-20 -19 -37 -31.5t-56 -26t-86 -13.5q-71 0 -123 43.5t-52 123.5q0 78 54 120
t135 42q74 0 141 -23q0 61 -21 86t-83 25q-73 0 -143 -14zM263 224q-47 0 -68.5 -19.5t-21.5 -48.5q0 -25 21 -46t64 -21q56 0 112 61v53q-70 21 -107 21zM111 666q0 27 18.5 46t45.5 19q28 0 47 -19t19 -46q0 -28 -19 -46t-47 -18q-27 0 -45.5 18t-18.5 46zM320 666
q0 27 18 46t45 19q28 0 47 -19t19 -46q0 -28 -19 -46t-47 -18q-27 0 -45 18t-18 46z" />
    <glyph glyph-name="aring" unicode="&#xe5;" horiz-adv-x="565" 
d="M123 392q-13 -2 -18 3t-8 20l-15 57q-7 24 14 29q17 4 73.5 11.5t102.5 7.5q74 0 121 -15.5t70.5 -49.5t31.5 -74.5t8 -104.5v-252q0 -14 -5 -19t-19 -5h-50q-9 0 -14.5 5t-11.5 19l-9 36q-20 -19 -37 -31.5t-56 -26t-86 -13.5q-71 0 -123 43.5t-52 123.5q0 78 54 120
t135 42q74 0 141 -23q0 61 -21 86t-83 25q-73 0 -143 -14zM263 224q-47 0 -68.5 -19.5t-21.5 -48.5q0 -25 21 -46t64 -21q56 0 112 61v53q-70 21 -107 21zM282 574q-48 0 -80.5 33t-32.5 81t32.5 80.5t80.5 32.5q47 0 80 -32.5t33 -80.5t-33 -81t-80 -33zM282 638
q20 0 32 15t12 35t-11.5 34.5t-32.5 14.5t-33 -15t-12 -34q0 -20 12 -35t33 -15z" />
    <glyph glyph-name="ae" unicode="&#xe6;" horiz-adv-x="918" 
d="M379 295v20q-3 50 -26.5 70.5t-82.5 20.5q-73 0 -143 -14q-21 -3 -27 22l-14 58q-4 13 -1 19.5t15 9.5q17 4 75.5 11.5t104.5 7.5q58 0 95 -14.5t71 -55.5q82 70 189 70q61 0 110 -25.5t78.5 -67t44.5 -90t15 -99.5v-4q0 -12 -4.5 -17.5t-17.5 -5.5h-345v-16
q15 -40 49.5 -66t76.5 -26q65 0 127 32q15 7 22 7t13 -9l34 -42q15 -20 4 -31q-34 -34 -90.5 -52.5t-116.5 -18.5q-119 0 -189 101q-34 -36 -97.5 -68.5t-132.5 -32.5q-72 0 -123.5 42t-51.5 122t51 122.5t131 42.5q30 0 79 -6.5t77 -16.5zM379 150v53q-68 21 -123 21
q-47 0 -71 -19.5t-24 -48.5q0 -26 19 -46.5t62 -20.5q32 0 73.5 18t63.5 43zM520 319v-22h227q-7 48 -34.5 81t-80.5 33q-84 0 -112 -92z" />
    <glyph glyph-name="ccedilla" unicode="&#xe7;" horiz-adv-x="529" 
d="M238 -86l19 79q-93 17 -154.5 90t-61.5 171q0 110 77.5 188t186.5 78t185 -75q7 -8 6 -13t-10 -15l-43 -48q-11 -11 -17 -12.5t-17 7.5q-39 37 -104 37q-55 0 -94 -42t-39 -105t38.5 -104.5t94.5 -41.5q65 0 104 37q15 15 34 -5l43 -48q9 -10 10 -15t-6 -13
q-72 -70 -176 -75l-3 -34q53 0 82 -26.5t29 -73.5t-30 -74.5t-86 -27.5q-42 0 -94 41q-14 12 -2 25l14 19q6 8 11 8t14 -5q34 -19 67 -19q35 0 35 33q0 37 -43 37h-51q-19 0 -19 22z" />
    <glyph glyph-name="egrave" unicode="&#xe8;" horiz-adv-x="589" 
d="M509 91l-34 42q-2 3 -4.5 5t-4 3t-4 1t-3.5 0.5t-4 -0.5t-4 -1.5l-5 -2.5l-6 -3q-64 -32 -127 -32q-48 0 -86 31t-49 77h354q13 0 17.5 5.5t4.5 20.5q0 119 -65 201t-184 82q-109 0 -186.5 -78t-77.5 -188t78 -187.5t191 -77.5q58 0 113.5 19t88.5 52q12 11 -3 31z
M418 297h-236q6 46 36.5 80t83.5 34q51 0 79.5 -33.5t36.5 -80.5zM256 589l-71 56q-11 9 -12 16t5 17l32 53q18 27 34 8l125 -137q25 -28 -2 -28h-73q-22 0 -38 15z" />
    <glyph glyph-name="eacute" unicode="&#xe9;" horiz-adv-x="589" 
d="M475 133l34 -42q15 -20 3 -31q-33 -33 -88.5 -52t-113.5 -19q-113 0 -191 77.5t-78 187.5t77.5 188t186.5 78q119 0 184 -82t65 -201q0 -15 -4.5 -20.5t-17.5 -5.5h-354q11 -46 49 -77t86 -31q63 0 127 32q20 9 25 6q5 -2 10 -8zM182 297h236q-8 47 -36.5 80.5
t-79.5 33.5q-53 0 -83.5 -34t-36.5 -80zM424 645l-71 -56q-17 -15 -38 -15h-73q-27 0 -2 28l125 137q16 19 34 -8l32 -53q6 -10 5 -17t-12 -16z" />
    <glyph glyph-name="ecircumflex" unicode="&#xea;" horiz-adv-x="589" 
d="M509 91l-34 42q-2 3 -4.5 5t-4 3t-4 1t-3.5 0.5t-4 -0.5t-4 -1.5l-5 -2.5l-6 -3q-64 -32 -127 -32q-48 0 -86 31t-49 77h354q13 0 17.5 5.5t4.5 20.5q0 119 -65 201t-184 82q-109 0 -186.5 -78t-77.5 -188t78 -187.5t191 -77.5q58 0 113.5 19t88.5 52q12 11 -3 31z
M418 297h-236q6 46 36.5 80t83.5 34q51 0 79.5 -33.5t36.5 -80.5zM280 753h57q17 -1 34 -24l91 -132q15 -24 -10 -24h-52q-24 0 -37 24l-54 88l-55 -88q-14 -24 -36 -24h-53q-25 0 -10 24l92 132q16 23 33 24z" />
    <glyph glyph-name="edieresis" unicode="&#xeb;" horiz-adv-x="589" 
d="M509 91l-34 42q-2 3 -4.5 5t-4 3t-4 1t-3.5 0.5t-4 -0.5t-4 -1.5l-5 -2.5l-6 -3q-64 -32 -127 -32q-48 0 -86 31t-49 77h354q13 0 17.5 5.5t4.5 20.5q0 119 -65 201t-184 82q-109 0 -186.5 -78t-77.5 -188t78 -187.5t191 -77.5q58 0 113.5 19t88.5 52q12 11 -3 31z
M418 297h-236q6 46 36.5 80t83.5 34q51 0 79.5 -33.5t36.5 -80.5zM137 666q0 27 18.5 46t45.5 19q28 0 47 -19t19 -46q0 -28 -19 -46t-47 -18q-27 0 -45.5 18t-18.5 46zM346 666q0 27 18 46t45 19q28 0 47 -19t19 -46q0 -28 -19 -46t-47 -18q-27 0 -45 18t-18 46z" />
    <glyph glyph-name="igrave" unicode="&#xec;" horiz-adv-x="296" 
d="M83 24v461q0 14 5 19t19 5h85q14 0 19 -5t5 -19v-461q0 -14 -5 -19t-19 -5h-85q-14 0 -19 5t-5 19zM88 589l-71 56q-11 9 -12 16t5 17l32 53q18 27 34 8l125 -137q25 -28 -2 -28h-73q-22 0 -38 15z" />
    <glyph glyph-name="iacute" unicode="&#xed;" horiz-adv-x="298" 
d="M80 24v461q0 14 5 19t19 5h85q14 0 19 -5t5 -19v-461q0 -14 -5 -19t-19 -5h-85q-14 0 -19 5t-5 19zM280 645l-71 -56q-17 -15 -38 -15h-73q-27 0 -2 28l125 137q16 19 34 -8l32 -53q6 -10 5 -17t-12 -16z" />
    <glyph glyph-name="icircumflex" unicode="&#xee;" horiz-adv-x="292" 
d="M80 24v461q0 14 5 19t19 5h85q14 0 19 -5t5 -19v-461q0 -14 -5 -19t-19 -5h-85q-14 0 -19 5t-5 19zM117 753h57q17 -1 34 -24l91 -132q15 -24 -10 -24h-52q-23 0 -37 24l-54 88l-55 -88q-13 -24 -36 -24h-53q-25 0 -10 24l92 132q16 23 33 24z" />
    <glyph glyph-name="idieresis" unicode="&#xef;" horiz-adv-x="292" 
d="M80 24v461q0 14 5 19t19 5h85q14 0 19 -5t5 -19v-461q0 -14 -5 -19t-19 -5h-85q-14 0 -19 5t-5 19zM-20 666q0 27 18.5 46t45.5 19q28 0 47 -19t19 -46q0 -28 -19 -46t-47 -18q-27 0 -45.5 18t-18.5 46zM189 666q0 27 18 46t45 19q28 0 47 -19t19 -46q0 -28 -19 -46
t-47 -18q-27 0 -45 18t-18 46z" />
    <glyph glyph-name="eth" unicode="&#xf0;" horiz-adv-x="614" 
d="M444 720l-25 -42q149 -84 149 -346q0 -78 -13 -137.5t-44 -108t-87.5 -74t-136.5 -25.5q-112 0 -182.5 73t-70.5 178q0 104 62 161.5t156 57.5q126 0 175 -79q0 139 -72 190l-41 -68q-7 -12 -13.5 -13.5t-18.5 5.5l-10 5q-22 12 -9 33l34 57q-27 3 -59 -2q-14 -3 -19 3
t-5 21v73q0 15 5 21.5t19 7.5q22 2 35 2q45 0 90 -12l30 50q7 13 13.5 14.5t18.5 -5.5l11 -6q21 -12 8 -34zM295 106q61 0 92.5 35t31.5 85t-35.5 85t-88.5 35q-50 0 -85.5 -33.5t-35.5 -83.5q0 -54 33 -88.5t88 -34.5z" />
    <glyph glyph-name="ntilde" unicode="&#xf1;" 
d="M192 435l-17 50q-7 14 -12.5 19t-15.5 5h-42q-14 0 -19 -5t-5 -19v-229v-232q0 -14 5 -19t19 -5h85q14 0 19 5t5 19v234q0 143 97 143q49 0 71 -34t22 -108v-235q0 -14 5 -19t19 -5h85q14 0 19 5t5 19v263q0 126 -50.5 179.5t-141.5 53.5q-36 0 -67 -14t-47.5 -29.5
t-38.5 -41.5zM376 696q27 0 41 36q5 13 11.5 15.5t19.5 -2.5l34 -15q13 -5 16 -12t-2 -20q-36 -91 -113 -91q-43 0 -85 26q-7 4 -19 11t-16.5 9.5t-12 5t-14.5 2.5q-12 0 -23.5 -10.5t-17.5 -25.5q-5 -13 -11 -15.5t-20 2.5l-33 15q-14 5 -17 12t3 20q36 91 113 91
q42 0 85 -27q6 -4 18.5 -11t16.5 -9t11.5 -4.5t14.5 -2.5z" />
    <glyph glyph-name="ograve" unicode="&#xf2;" horiz-adv-x="612" 
d="M41 254q0 110 78 188t187 78t187 -78t78 -188t-77.5 -187.5t-187.5 -77.5t-187.5 77.5t-77.5 187.5zM306 105q55 0 93.5 43t38.5 106t-38.5 105t-93.5 42t-94 -42t-39 -105t39 -106t94 -43zM261 589l-71 56q-11 9 -12 16t5 17l32 53q18 27 34 8l125 -137q25 -28 -2 -28
h-73q-21 0 -38 15z" />
    <glyph glyph-name="oacute" unicode="&#xf3;" horiz-adv-x="612" 
d="M41 254q0 110 78 188t187 78t187 -78t78 -188t-77.5 -187.5t-187.5 -77.5t-187.5 77.5t-77.5 187.5zM306 105q55 0 93.5 43t38.5 106t-38.5 105t-93.5 42t-94 -42t-39 -105t39 -106t94 -43zM421 645l-71 -56q-16 -15 -38 -15h-73q-27 0 -2 28l125 137q16 19 34 -8l32 -53
q6 -10 5 -17t-12 -16z" />
    <glyph glyph-name="ocircumflex" unicode="&#xf4;" horiz-adv-x="612" 
d="M41 254q0 110 78 188t187 78t187 -78t78 -188t-77.5 -187.5t-187.5 -77.5t-187.5 77.5t-77.5 187.5zM306 105q55 0 93.5 43t38.5 106t-38.5 105t-93.5 42t-94 -42t-39 -105t39 -106t94 -43zM277 753h57q17 -1 34 -24l91 -132q15 -24 -10 -24h-52q-23 0 -37 24l-54 88
l-55 -88q-14 -24 -36 -24h-53q-25 0 -10 24l92 132q16 23 33 24z" />
    <glyph glyph-name="otilde" unicode="&#xf5;" horiz-adv-x="612" 
d="M41 254q0 110 78 188t187 78t187 -78t78 -188t-77.5 -187.5t-187.5 -77.5t-187.5 77.5t-77.5 187.5zM306 105q55 0 93.5 43t38.5 106t-38.5 105t-93.5 42t-94 -42t-39 -105t39 -106t94 -43zM375 696q27 0 41 36q5 13 11.5 15.5t19.5 -2.5l34 -15q13 -5 16 -12t-2 -20
q-36 -91 -113 -91q-43 0 -85 26q-7 4 -19 11t-16.5 9.5t-12 5t-14.5 2.5q-12 0 -23.5 -10.5t-17.5 -25.5q-5 -13 -11 -15.5t-20 2.5l-33 15q-14 5 -17 12t3 20q36 91 113 91q41 0 85 -27q6 -4 18.5 -11t16.5 -9t11.5 -4.5t14.5 -2.5z" />
    <glyph glyph-name="odieresis" unicode="&#xf6;" horiz-adv-x="612" 
d="M41 254q0 110 78 188t187 78t187 -78t78 -188t-77.5 -187.5t-187.5 -77.5t-187.5 77.5t-77.5 187.5zM306 105q55 0 93.5 43t38.5 106t-38.5 105t-93.5 42t-94 -42t-39 -105t39 -106t94 -43zM139 666q0 27 18.5 46t45.5 19q28 0 47 -19t19 -46q0 -28 -19 -46t-47 -18
q-27 0 -45.5 18t-18.5 46zM348 666q0 27 18 46t45 19q28 0 47 -19t19 -46q0 -28 -19 -46t-47 -18q-27 0 -45 18t-18 46z" />
    <glyph glyph-name="divide" unicode="&#xf7;" horiz-adv-x="566" 
d="M504 258h-441q-14 0 -19.5 5t-5.5 19v47q0 14 5.5 19t19.5 5h441q14 0 19 -5t5 -19v-47q0 -14 -5 -19t-19 -5zM214 114q0 29 19.5 49t48.5 20q28 0 48.5 -20.5t20.5 -48.5q0 -29 -20 -48.5t-49 -19.5t-48.5 19.5t-19.5 48.5zM214 495q0 29 19.5 49t48.5 20q28 0 48.5 -20
t20.5 -49t-20 -48.5t-49 -19.5t-48.5 19.5t-19.5 48.5z" />
    <glyph glyph-name="oslash" unicode="&#xf8;" horiz-adv-x="606" 
d="M35 254q0 110 78.5 188t187.5 78q45 0 81 -14l14 28q11 20 31 20h43q33 0 21 -24l-33 -63q50 -37 79 -93t29 -120q0 -110 -78 -187.5t-187 -77.5q-38 0 -84 13l-14 -27q-9 -20 -31 -20h-42q-34 0 -21 24l31 64q-48 36 -76.5 92t-28.5 119zM301 105q55 0 93.5 43t38.5 106
q0 54 -36 96l-124 -240q12 -5 28 -5zM168 254q0 -51 33 -95l124 238q-14 4 -24 4q-55 0 -94 -42.5t-39 -104.5z" />
    <glyph glyph-name="ugrave" unicode="&#xf9;" 
d="M408 74l17 -50q7 -14 12.5 -19t15.5 -5h42q14 0 19 5t5 19v229v232q0 14 -5 19t-19 5h-85q-14 0 -19 -5t-5 -19v-234q0 -143 -96 -143q-49 0 -71.5 34t-22.5 108v235q0 14 -5 19t-19 5h-85q-14 0 -19 -5t-5 -19v-263q0 -126 51 -179.5t142 -53.5q36 0 67 14t47.5 29.5
t37.5 41.5zM239 589l-71 56q-11 9 -12 16t5 17l32 53q18 27 34 8l125 -137q25 -28 -2 -28h-73q-22 0 -38 15z" />
    <glyph glyph-name="uacute" unicode="&#xfa;" 
d="M425 24l-17 50q-21 -26 -37.5 -41.5t-47.5 -29.5t-67 -14q-91 0 -142 53.5t-51 179.5v263q0 14 5 19t19 5h85q14 0 19 -5t5 -19v-235q0 -74 22.5 -108t71.5 -34q96 0 96 143v234q0 14 5 19t19 5h85q14 0 19 -5t5 -19v-232v-229q0 -14 -5 -19t-19 -5h-42q-10 0 -15.5 5
t-12.5 19zM406 645l-71 -56q-17 -15 -38 -15h-73q-27 0 -2 28l125 137q16 19 34 -8l32 -53q6 -10 5 -17t-12 -16z" />
    <glyph glyph-name="ucircumflex" unicode="&#xfb;" 
d="M408 74l17 -50q7 -14 12.5 -19t15.5 -5h42q14 0 19 5t5 19v229v232q0 14 -5 19t-19 5h-85q-14 0 -19 -5t-5 -19v-234q0 -143 -96 -143q-49 0 -71.5 34t-22.5 108v235q0 14 -5 19t-19 5h-85q-14 0 -19 -5t-5 -19v-263q0 -126 51 -179.5t142 -53.5q36 0 67 14t47.5 29.5
t37.5 41.5zM266 753h57q17 -1 34 -24l91 -132q15 -24 -10 -24h-52q-24 0 -37 24l-54 88l-55 -88q-14 -24 -36 -24h-53q-25 0 -10 24l92 132q16 23 33 24z" />
    <glyph glyph-name="udieresis" unicode="&#xfc;" 
d="M408 74l17 -50q7 -14 12.5 -19t15.5 -5h42q14 0 19 5t5 19v229v232q0 14 -5 19t-19 5h-85q-14 0 -19 -5t-5 -19v-234q0 -143 -96 -143q-49 0 -71.5 34t-22.5 108v235q0 14 -5 19t-19 5h-85q-14 0 -19 -5t-5 -19v-263q0 -126 51 -179.5t142 -53.5q36 0 67 14t47.5 29.5
t37.5 41.5zM126 666q0 27 18.5 46t45.5 19q28 0 47 -19t19 -46q0 -28 -19 -46t-47 -18q-27 0 -45.5 18t-18.5 46zM335 666q0 27 18 46t45 19q28 0 47 -19t19 -46q0 -28 -19 -46t-47 -18q-27 0 -45 18t-18 46z" />
    <glyph glyph-name="yacute" unicode="&#xfd;" horiz-adv-x="544" 
d="M273 205l124 280q8 15 13.5 19.5t17.5 4.5h97q13 0 15.5 -5t-3.5 -19l-302 -665q-8 -15 -13.5 -19.5t-17.5 -4.5h-97q-13 0 -15.5 5t3.5 19l107 236l-195 429q-12 24 11 24h97q12 0 18 -5t14 -19l125 -280h1zM380 645l-71 -56q-17 -15 -38 -15h-73q-27 0 -2 28l125 137
q16 19 34 -8l32 -53q6 -10 5 -17t-12 -16z" />
    <glyph glyph-name="thorn" unicode="&#xfe;" horiz-adv-x="643" 
d="M371 0h-161v-180q0 -14 -5 -19t-19 -5h-85q-14 0 -19 5t-5 19v869q0 14 5 19t19 5h85q14 0 19 -5t5 -19v-180h161q99 0 165 -73.5t66 -180.5q0 -109 -66 -182t-165 -73zM210 119h130q55 0 92 37t37 99q0 63 -37.5 100t-91.5 37h-130v-273z" />
    <glyph glyph-name="ydieresis" unicode="&#xff;" horiz-adv-x="544" 
d="M273 205l124 280q8 15 13.5 19.5t17.5 4.5h97q13 0 15.5 -5t-3.5 -19l-302 -665q-8 -15 -13.5 -19.5t-17.5 -4.5h-97q-13 0 -15.5 5t3.5 19l107 236l-195 429q-12 24 11 24h97q12 0 18 -5t14 -19l125 -280h1zM105 666q0 27 18.5 46t45.5 19q28 0 47 -19t19 -46
q0 -28 -19 -46t-47 -18q-27 0 -45.5 18t-18.5 46zM314 666q0 27 18 46t45 19q28 0 47 -19t19 -46q0 -28 -19 -46t-47 -18q-27 0 -45 18t-18 46z" />
    <glyph glyph-name="Amacron" unicode="&#x100;" horiz-adv-x="743" 
d="M373 475h-2l-100 -210h202zM393 690l344 -666q4 -9 -0.5 -16.5t-14.5 -7.5h-111q-12 0 -17.5 4.5t-13.5 19.5l-59 120h-298l-60 -120q-11 -24 -31 -24h-111q-10 0 -14.5 7.5t-0.5 16.5l345 666l3 6t3 5.5t2.5 4t2.5 4t2 2.5t2.5 1.5t3.5 0.5h3q2 0 4 -1t4 -3.5t3.5 -4.5
t4 -7t4.5 -8zM494 810h-243q-14 0 -19 5t-5 19v46q0 14 5 19t19 5h243q14 0 19 -5t5 -19v-46q0 -14 -5 -19t-19 -5z" />
    <glyph glyph-name="amacron" unicode="&#x101;" horiz-adv-x="565" 
d="M123 392q-13 -2 -18 3t-8 20l-15 57q-7 24 14 29q17 4 73.5 11.5t102.5 7.5q74 0 121 -15.5t70.5 -49.5t31.5 -74.5t8 -104.5v-252q0 -14 -5 -19t-19 -5h-50q-9 0 -14.5 5t-11.5 19l-9 36q-20 -19 -37 -31.5t-56 -26t-86 -13.5q-71 0 -123 43.5t-52 123.5q0 78 54 120
t135 42q74 0 141 -23q0 61 -21 86t-83 25q-73 0 -143 -14zM263 224q-47 0 -68.5 -19.5t-21.5 -48.5q0 -25 21 -46t64 -21q56 0 112 61v53q-70 21 -107 21zM404 619h-243q-14 0 -19 5t-5 19v46q0 14 5 19t19 5h243q14 0 19 -5t5 -19v-46q0 -14 -5 -19t-19 -5z" />
    <glyph glyph-name="Abreve" unicode="&#x102;" horiz-adv-x="743" 
d="M373 475h-2l-100 -210h202zM393 690l344 -666q4 -9 -0.5 -16.5t-14.5 -7.5h-111q-12 0 -17.5 4.5t-13.5 19.5l-59 120h-298l-60 -120q-11 -24 -31 -24h-111q-10 0 -14.5 7.5t-0.5 16.5l345 666l3 6t3 5.5t2.5 4t2.5 4t2 2.5t2.5 1.5t3.5 0.5h3q2 0 4 -1t4 -3.5t3.5 -4.5
t4 -7t4.5 -8zM372 786q-114 0 -154 90q-13 31 5 40l40 21q19 10 28 -9q14 -32 29.5 -45t51.5 -13t51 12.5t31 45.5q9 19 28 9l40 -21q17 -9 4 -40q-40 -90 -154 -90z" />
    <glyph glyph-name="abreve" unicode="&#x103;" horiz-adv-x="565" 
d="M123 392q-13 -2 -18 3t-8 20l-15 57q-7 24 14 29q17 4 73.5 11.5t102.5 7.5q74 0 121 -15.5t70.5 -49.5t31.5 -74.5t8 -104.5v-252q0 -14 -5 -19t-19 -5h-50q-9 0 -14.5 5t-11.5 19l-9 36q-20 -19 -37 -31.5t-56 -26t-86 -13.5q-71 0 -123 43.5t-52 123.5q0 78 54 120
t135 42q74 0 141 -23q0 61 -21 86t-83 25q-73 0 -143 -14zM263 224q-47 0 -68.5 -19.5t-21.5 -48.5q0 -25 21 -46t64 -21q56 0 112 61v53q-70 21 -107 21zM284 595q-114 0 -154 90q-13 31 5 40l40 21q19 10 28 -9q14 -32 29.5 -45t51.5 -13t51 12.5t31 45.5q9 19 28 9
l40 -21q17 -9 4 -40q-40 -90 -154 -90z" />
    <glyph glyph-name="Aogonek" unicode="&#x104;" horiz-adv-x="743" 
d="M588 11l-67 133h-298l-60 -120q-11 -24 -31 -24h-111q-10 0 -14.5 7.5t-0.5 16.5l345 666l3 6t3 5.5t2.5 4t2.5 4t2 2.5t2.5 1.5t3.5 0.5h3q2 0 4 -1t4 -3.5t3.5 -4.5t4 -6.5t4.5 -7.5l344 -667q4 -9 -0.5 -16.5t-14.5 -7.5h-68q-23 -10 -47 -34t-24 -53q0 -73 55 -73
q11 0 45 2q15 0 19.5 -3.5t4.5 -17.5v-18q0 -13 -4.5 -17.5t-19.5 -6.5q-27 -3 -54 -3q-52 0 -85 28.5t-33 85.5q0 72 77 121zM372 477l-102 -212h203l-100 211z" />
    <glyph glyph-name="aogonek" unicode="&#x105;" horiz-adv-x="559" 
d="M518 -221q-27 -3 -54 -3q-53 0 -87 28.5t-34 85.5q0 70 69 118q-6 8 -10 22l-9 26q-22 -19 -38 -30t-55 -24t-85 -13q-70 0 -122 43.5t-52 123.5q0 78 54 120t133 42q74 0 140 -23q0 61 -21 86t-82 25q-70 0 -142 -14q-13 -2 -18 3t-8 20l-15 57q-3 13 -0.5 19.5
t14.5 9.5q18 4 73.5 11.5t101.5 7.5q74 0 121 -15.5t70.5 -49.5t31.5 -74.5t8 -104.5v-252q0 -14 -4.5 -19t-16.5 -5q-23 -13 -44.5 -36t-21.5 -51q0 -73 58 -73q11 0 45 2q15 0 20 -3.5t5 -17.5v-18q0 -13 -5 -17.5t-20 -6.5zM261 224q-45 0 -66.5 -19.5t-21.5 -48.5
q0 -25 21 -46t63 -21q56 0 111 57v57q-68 21 -107 21z" />
    <glyph glyph-name="Cacute" unicode="&#x106;" horiz-adv-x="724" 
d="M394 110q102 0 173 76q16 16 33 -3l54 -59q10 -11 11 -17.5t-9 -16.5q-48 -47 -118.5 -75t-143.5 -28q-148 0 -253.5 107t-105.5 256t105.5 256t253.5 107q73 0 143.5 -28t118.5 -75q10 -10 9 -16.5t-11 -17.5l-54 -59q-18 -19 -34 -3q-71 76 -172 76q-95 0 -155 -72
t-60 -168q0 -95 60 -167.5t155 -72.5zM483 836l-71 -56q-16 -15 -38 -15h-73q-27 0 -2 28l125 137q16 19 34 -8l32 -53q6 -10 5 -17t-12 -16z" />
    <glyph glyph-name="cacute" unicode="&#x107;" horiz-adv-x="509" 
d="M300 108q65 0 104 37q11 9 17 7.5t17 -12.5l43 -48q9 -10 10 -15t-6 -13q-77 -75 -185 -75q-109 0 -186.5 77.5t-77.5 187.5t77.5 188t186.5 78q108 0 185 -75q7 -8 6 -13t-10 -15l-43 -48q-11 -11 -17 -12.5t-17 7.5q-39 37 -104 37q-55 0 -94 -42t-39 -105t38.5 -104.5
t94.5 -41.5zM414 645l-71 -56q-17 -15 -38 -15h-73q-27 0 -2 28l125 137q16 19 34 -8l32 -53q6 -10 5 -17t-12 -16z" />
    <glyph glyph-name="Ccircumflex" unicode="&#x108;" horiz-adv-x="724" 
d="M394 110q-95 0 -155 72.5t-60 167.5q0 96 60 168t155 72q101 0 172 -76q16 -16 34 3l54 59q10 11 11 17.5t-9 16.5q-48 47 -118.5 75t-143.5 28q-148 0 -253.5 -107t-105.5 -256t105.5 -256t253.5 -107q73 0 143.5 28t118.5 75q10 10 9 16.5t-11 17.5l-54 59
q-17 19 -33 3q-71 -76 -173 -76zM364 944h57q17 -1 34 -24l91 -132q15 -24 -10 -24h-52q-24 0 -37 24l-54 88l-55 -88q-14 -24 -36 -24h-53q-25 0 -10 24l92 132q16 23 33 24z" />
    <glyph glyph-name="ccircumflex" unicode="&#x109;" horiz-adv-x="509" 
d="M300 108q65 0 104 37q11 9 17 7.5t17 -12.5l43 -48q9 -10 10 -15t-6 -13q-77 -75 -185 -75q-109 0 -186.5 77.5t-77.5 187.5t77.5 188t186.5 78q108 0 185 -75q7 -8 6 -13t-10 -15l-43 -48q-11 -11 -17 -12.5t-17 7.5q-39 37 -104 37q-55 0 -94 -42t-39 -105t38.5 -104.5
t94.5 -41.5zM262 753h57q17 -1 34 -24l91 -132q15 -24 -10 -24h-52q-24 0 -37 24l-54 88l-55 -88q-14 -24 -36 -24h-53q-25 0 -10 24l92 132q16 23 33 24z" />
    <glyph glyph-name="Cdotaccent" unicode="&#x10a;" horiz-adv-x="724" 
d="M394 110q-95 0 -155 72.5t-60 167.5q0 96 60 168t155 72q101 0 172 -76q16 -16 34 3l54 59q10 11 11 17.5t-9 16.5q-48 47 -118.5 75t-143.5 28q-148 0 -253.5 -107t-105.5 -256t105.5 -256t253.5 -107q73 0 143.5 28t118.5 75q10 10 9 16.5t-11 17.5l-54 59
q-17 19 -33 3q-71 -76 -173 -76zM313 856q0 33 22.5 56.5t55.5 23.5t56.5 -23.5t23.5 -56.5t-23.5 -56t-56.5 -23t-55.5 23t-22.5 56z" />
    <glyph glyph-name="cdotaccent" unicode="&#x10b;" horiz-adv-x="509" 
d="M300 108q65 0 104 37q11 9 17 7.5t17 -12.5l43 -48q9 -10 10 -15t-6 -13q-77 -75 -185 -75q-109 0 -186.5 77.5t-77.5 187.5t77.5 188t186.5 78q108 0 185 -75q7 -8 6 -13t-10 -15l-43 -48q-11 -11 -17 -12.5t-17 7.5q-39 37 -104 37q-55 0 -94 -42t-39 -105t38.5 -104.5
t94.5 -41.5zM218 665q0 33 22.5 56.5t55.5 23.5t56.5 -23.5t23.5 -56.5t-23.5 -56t-56.5 -23t-55.5 23t-22.5 56z" />
    <glyph glyph-name="Ccaron" unicode="&#x10c;" horiz-adv-x="724" 
d="M394 110q-95 0 -155 72.5t-60 167.5q0 96 60 168t155 72q101 0 172 -76q16 -16 34 3l54 59q10 11 11 17.5t-9 16.5q-48 47 -118.5 75t-143.5 28q-148 0 -253.5 -107t-105.5 -256t105.5 -256t253.5 -107q73 0 143.5 28t118.5 75q10 10 9 16.5t-11 17.5l-54 59
q-17 19 -33 3q-71 -76 -173 -76zM414 764h-57q-17 1 -33 24l-92 132q-15 24 10 24h53q23 0 36 -24l55 -88l54 88q14 24 37 24h52q25 0 10 -24l-91 -132q-17 -23 -34 -24z" />
    <glyph glyph-name="ccaron" unicode="&#x10d;" horiz-adv-x="509" 
d="M300 108q65 0 104 37q11 9 17 7.5t17 -12.5l43 -48q9 -10 10 -15t-6 -13q-77 -75 -185 -75q-109 0 -186.5 77.5t-77.5 187.5t77.5 188t186.5 78q108 0 185 -75q7 -8 6 -13t-10 -15l-43 -48q-11 -11 -17 -12.5t-17 7.5q-39 37 -104 37q-55 0 -94 -42t-39 -105t38.5 -104.5
t94.5 -41.5zM318 573h-57q-17 1 -33 24l-92 132q-15 24 10 24h53q23 0 36 -24l55 -88l54 88q14 24 37 24h52q25 0 10 -24l-91 -132q-17 -23 -34 -24z" />
    <glyph glyph-name="Dcaron" unicode="&#x10e;" horiz-adv-x="749" 
d="M99 700h254q149 0 252.5 -101t103.5 -249t-103.5 -249t-252.5 -101h-254q-14 0 -19 5t-5 19v652q0 14 5.5 19t18.5 5zM352 582h-135v-464h135q98 0 155.5 68.5t57.5 163.5q0 96 -57.5 164t-155.5 68zM372 764h-57q-17 1 -33 24l-92 132q-15 24 10 24h53q23 0 36 -24
l55 -88l54 88q14 24 37 24h52q25 0 10 -24l-91 -132q-17 -23 -34 -24z" />
    <glyph glyph-name="dcaron" unicode="&#x10f;" horiz-adv-x="803" 
d="M429 440v274q0 14 5 19t19 5h85q14 0 19 -5t5 -19v-690q0 -14 -5 -19t-19 -5h-40q-10 0 -15.5 5t-12.5 19l-17 50q-77 -85 -182 -85q-99 0 -164.5 78t-65.5 187q0 111 65.5 188.5t164.5 77.5q57 0 99.5 -27t58.5 -53zM301 105q54 0 91.5 43.5t37.5 105.5t-37 104.5
t-92 42.5q-54 0 -91 -42.5t-37 -104.5q0 -64 37 -106.5t91 -42.5zM767 566h-4q-35 1 -59 25.5t-24 59.5q0 36 24.5 61.5t60.5 25.5q41 0 66.5 -31t25.5 -84q0 -70 -43 -128.5t-105 -87.5q-10 -5 -15 2l-24 37q-4 9 5 15q77 49 92 105z" />
    <glyph glyph-name="Dcroat" unicode="&#x110;" horiz-adv-x="805" 
d="M38 411h89v265q0 14 5.5 19t19.5 5h253q149 0 252.5 -101t103.5 -249t-103.5 -249t-252.5 -101h-253q-14 0 -19.5 5t-5.5 19v273h-89q-14 0 -19 5.5t-5 18.5v66q0 14 5 19t19 5zM404 582h-135v-171h123q14 0 19 -5t5 -19v-66q0 -14 -5 -19t-19 -5h-123v-179h135
q98 0 156 68.5t58 163.5q0 96 -58 164t-156 68z" />
    <glyph glyph-name="dcroat" unicode="&#x111;" horiz-adv-x="651" 
d="M594 553h-32v-529q0 -14 -5 -19t-19 -5h-40q-15 0 -29 24l-17 50q-75 -85 -181 -85q-99 0 -164.5 78t-65.5 187q0 111 65.5 188.5t164.5 77.5q57 0 99.5 -27t58.5 -53v113h-68q-14 0 -19.5 5t-5.5 19v39q0 14 5.5 19t19.5 5h68v59q0 14 5 19t19 5h85q14 0 19 -5t5 -19
v-59h32q14 0 19 -5t5 -19v-39q0 -14 -5 -19t-19 -5zM301 105q54 0 91.5 43.5t37.5 105.5t-37 104.5t-92 42.5q-54 0 -91 -42.5t-37 -104.5q0 -64 37 -106.5t91 -42.5z" />
    <glyph glyph-name="Emacron" unicode="&#x112;" horiz-adv-x="638" 
d="M555 0h-452q-14 0 -19 5t-5 19v652q0 14 5.5 19t18.5 5h452q14 0 19 -5t5 -19v-73q0 -14 -5 -19t-19 -5h-334v-166h320q14 0 19 -5t5 -19v-73q0 -14 -5 -19t-19 -5h-320v-171h334q14 0 19 -5t5 -19v-73q0 -14 -5 -19t-19 -5zM449 814h-243q-14 0 -19 5t-5 19v46
q0 14 5 19t19 5h243q14 0 19 -5t5 -19v-46q0 -14 -5 -19t-19 -5z" />
    <glyph glyph-name="emacron" unicode="&#x113;" horiz-adv-x="589" 
d="M509 91l-34 42q-2 3 -4.5 5t-4 3t-4 1t-3.5 0.5t-4 -0.5t-4 -1.5l-5 -2.5l-6 -3q-64 -32 -127 -32q-48 0 -86 31t-49 77h354q13 0 17.5 5.5t4.5 20.5q0 119 -65 201t-184 82q-109 0 -186.5 -78t-77.5 -188t78 -187.5t191 -77.5q58 0 113.5 19t88.5 52q12 11 -3 31z
M418 297h-236q6 46 36.5 80t83.5 34q51 0 79.5 -33.5t36.5 -80.5zM427 619h-243q-14 0 -19 5t-5 19v46q0 14 5 19t19 5h243q14 0 19 -5t5 -19v-46q0 -14 -5 -19t-19 -5z" />
    <glyph glyph-name="Ebreve" unicode="&#x114;" horiz-adv-x="638" 
d="M555 0h-452q-14 0 -19 5t-5 19v652q0 14 5.5 19t18.5 5h452q14 0 19 -5t5 -19v-73q0 -14 -5 -19t-19 -5h-334v-166h320q14 0 19 -5t5 -19v-73q0 -14 -5 -19t-19 -5h-320v-171h334q14 0 19 -5t5 -19v-73q0 -14 -5 -19t-19 -5zM327 786q-114 0 -154 90q-13 31 5 40l40 21
q19 10 28 -9q14 -32 29.5 -45t51.5 -13t51 12.5t31 45.5q9 19 28 9l40 -21q17 -9 4 -40q-40 -90 -154 -90z" />
    <glyph glyph-name="ebreve" unicode="&#x115;" horiz-adv-x="589" 
d="M509 91l-34 42q-2 3 -4.5 5t-4 3t-4 1t-3.5 0.5t-4 -0.5t-4 -1.5l-5 -2.5l-6 -3q-64 -32 -127 -32q-48 0 -86 31t-49 77h354q13 0 17.5 5.5t4.5 20.5q0 119 -65 201t-184 82q-109 0 -186.5 -78t-77.5 -188t78 -187.5t191 -77.5q58 0 113.5 19t88.5 52q12 11 -3 31z
M418 297h-236q6 46 36.5 80t83.5 34q51 0 79.5 -33.5t36.5 -80.5zM303 595q-114 0 -154 90q-13 31 5 40l40 21q19 10 28 -9q14 -32 29.5 -45t51.5 -13t51 12.5t31 45.5q9 19 28 9l40 -21q17 -9 4 -40q-40 -90 -154 -90z" />
    <glyph glyph-name="Edotaccent" unicode="&#x116;" horiz-adv-x="638" 
d="M555 0h-452q-14 0 -19 5t-5 19v652q0 14 5.5 19t18.5 5h452q14 0 19 -5t5 -19v-73q0 -14 -5 -19t-19 -5h-334v-166h320q14 0 19 -5t5 -19v-73q0 -14 -5 -19t-19 -5h-320v-171h334q14 0 19 -5t5 -19v-73q0 -14 -5 -19t-19 -5zM257 856q0 33 22.5 56.5t55.5 23.5
t56.5 -23.5t23.5 -56.5t-23.5 -56t-56.5 -23t-55.5 23t-22.5 56z" />
    <glyph glyph-name="edotaccent" unicode="&#x117;" horiz-adv-x="589" 
d="M509 91l-34 42q-2 3 -4.5 5t-4 3t-4 1t-3.5 0.5t-4 -0.5t-4 -1.5l-5 -2.5l-6 -3q-64 -32 -127 -32q-48 0 -86 31t-49 77h354q13 0 17.5 5.5t4.5 20.5q0 119 -65 201t-184 82q-109 0 -186.5 -78t-77.5 -188t78 -187.5t191 -77.5q58 0 113.5 19t88.5 52q12 11 -3 31z
M418 297h-236q6 46 36.5 80t83.5 34q51 0 79.5 -33.5t36.5 -80.5zM224 665q0 33 22.5 56.5t55.5 23.5t56.5 -23.5t23.5 -56.5t-23.5 -56t-56.5 -23t-55.5 23t-22.5 56z" />
    <glyph glyph-name="Eogonek" unicode="&#x118;" horiz-adv-x="643" 
d="M573 0q-22 -10 -46 -34t-24 -53q0 -73 55 -73q11 0 45 2q15 0 19.5 -3.5t4.5 -17.5v-18q0 -13 -4.5 -17.5t-19.5 -6.5q-27 -3 -54 -3q-52 0 -85 28.5t-33 85.5q0 64 59 110h-385q-14 0 -19 5t-5 19v652q0 14 5 19t19 5h451q14 0 19.5 -5t5.5 -19v-73q0 -14 -5.5 -19
t-19.5 -5h-333v-166h308q14 0 19 -5t5 -19v-73q0 -14 -5 -19t-19 -5h-308v-171h333q14 0 19.5 -5t5.5 -19v-73q0 -20 -8 -24z" />
    <glyph glyph-name="eogonek" unicode="&#x119;" horiz-adv-x="589" 
d="M340 -9q-50 -37 -50 -78q0 -73 58 -73q11 0 45 2q14 0 19 -3.5t5 -17.5v-18q0 -13 -5 -17.5t-19 -6.5q-27 -3 -54 -3q-53 0 -87 28.5t-34 85.5q0 59 48 103q-97 14 -161 87.5t-64 173.5q0 110 77.5 188t186.5 78q118 0 183.5 -79t65.5 -187v-17q0 -15 -4.5 -20.5
t-17.5 -5.5h-354q11 -46 49 -77t86 -31q63 0 127 32q20 9 25 6q5 -2 10 -8l34 -42q15 -20 4 -31q-62 -60 -173 -69zM182 297h236q-8 47 -36.5 80.5t-79.5 33.5q-53 0 -83.5 -34t-36.5 -80z" />
    <glyph glyph-name="Ecaron" unicode="&#x11a;" horiz-adv-x="647" 
d="M555 0h-452q-14 0 -19 5t-5 19v652q0 14 5.5 19t18.5 5h452q14 0 19 -5t5 -19v-73q0 -14 -5 -19t-19 -5h-334v-166h320q14 0 19 -5t5 -19v-73q0 -14 -5 -19t-19 -5h-320v-171h334q14 0 19 -5t5 -19v-73q0 -14 -5 -19t-19 -5zM353 764h-57q-17 1 -33 24l-92 132
q-15 24 10 24h53q22 0 36 -24l55 -88l54 88q13 24 37 24h52q25 0 10 -24l-91 -132q-17 -23 -34 -24z" />
    <glyph glyph-name="ecaron" unicode="&#x11b;" horiz-adv-x="589" 
d="M509 91l-34 42q-2 3 -4.5 5t-4 3t-4 1t-3.5 0.5t-4 -0.5t-4 -1.5l-5 -2.5l-6 -3q-64 -32 -127 -32q-48 0 -86 31t-49 77h354q13 0 17.5 5.5t4.5 20.5q0 119 -65 201t-184 82q-109 0 -186.5 -78t-77.5 -188t78 -187.5t191 -77.5q58 0 113.5 19t88.5 52q12 11 -3 31z
M418 297h-236q6 46 36.5 80t83.5 34q51 0 79.5 -33.5t36.5 -80.5zM324 573h-57q-17 1 -33 24l-92 132q-15 24 10 24h53q23 0 36 -24l55 -88l54 88q14 24 37 24h52q25 0 10 -24l-91 -132q-17 -23 -34 -24z" />
    <glyph glyph-name="Gcircumflex" unicode="&#x11c;" horiz-adv-x="745" 
d="M403 590q99 0 171 -75q17 -17 34 2l54 59q10 11 11 17.5t-8 16.5q-49 47 -119.5 75t-142.5 28q-148 0 -253.5 -107t-105.5 -256t105.5 -256t253.5 -107q74 0 147 28.5t122 76.5q16 16 16 36v230q0 14 -5 19t-19 5h-238q-14 0 -19 -5t-5 -19v-72q0 -14 5 -19.5t19 -5.5
h120v-105q-61 -46 -143 -46q-95 0 -155 73t-60 167q0 96 60 168t155 72zM358 944h57q17 -1 34 -24l91 -132q15 -24 -10 -24h-52q-24 0 -37 24l-54 88l-55 -88q-14 -24 -36 -24h-53q-25 0 -10 24l92 132q16 23 33 24z" />
    <glyph glyph-name="gcircumflex" unicode="&#x11d;" horiz-adv-x="638" 
d="M429 69v-41q0 -159 -138 -159q-64 0 -153 36q-12 5 -16.5 2t-8.5 -17l-17 -71q-3 -14 -0.5 -19t14.5 -10q96 -37 203 -37q249 0 249 292v440q0 14 -5 19t-19 5h-40q-10 0 -15.5 -5t-12.5 -19l-17 -50q-77 85 -182 85q-99 0 -164.5 -78t-65.5 -187q0 -111 65.5 -188.5
t164.5 -77.5q57 0 99.5 27t58.5 53zM301 403q54 0 91.5 -43t37.5 -105t-37 -104.5t-92 -42.5q-54 0 -91 42.5t-37 104.5q0 63 37 105.5t91 42.5zM291 753h57q17 -1 34 -24l91 -132q15 -24 -10 -24h-52q-23 0 -37 24l-54 88l-55 -88q-13 -24 -36 -24h-53q-25 0 -10 24l92 132
q16 23 33 24z" />
    <glyph glyph-name="Gbreve" unicode="&#x11e;" horiz-adv-x="745" 
d="M403 590q99 0 171 -75q17 -17 34 2l54 59q10 11 11 17.5t-8 16.5q-49 47 -119.5 75t-142.5 28q-148 0 -253.5 -107t-105.5 -256t105.5 -256t253.5 -107q74 0 147 28.5t122 76.5q16 16 16 36v230q0 14 -5 19t-19 5h-238q-14 0 -19 -5t-5 -19v-72q0 -14 5 -19.5t19 -5.5
h120v-105q-61 -46 -143 -46q-95 0 -155 73t-60 167q0 96 60 168t155 72zM385 786q-114 0 -154 90q-13 31 5 40l40 21q19 10 28 -9q14 -32 29.5 -45t51.5 -13t51 12.5t31 45.5q9 19 28 9l40 -21q17 -9 4 -40q-40 -90 -154 -90z" />
    <glyph glyph-name="gbreve" unicode="&#x11f;" horiz-adv-x="638" 
d="M315 595q-114 0 -154 90q-13 31 5 40l40 21q19 10 28 -9q14 -32 29.5 -45t51.5 -13t51 12.5t31 45.5q9 19 28 9l40 -21q17 -9 4 -40q-40 -90 -154 -90zM429 69v-41q0 -159 -138 -159q-64 0 -153 36q-12 5 -16.5 2t-8.5 -17l-17 -71q-3 -14 -0.5 -19t14.5 -10
q96 -37 203 -37q249 0 249 292v440q0 14 -5 19t-19 5h-40q-10 0 -15.5 -5t-12.5 -19l-17 -50q-77 85 -182 85q-99 0 -164.5 -78t-65.5 -187q0 -111 65.5 -188.5t164.5 -77.5q57 0 99.5 27t58.5 53zM301 403q54 0 91.5 -43t37.5 -105t-37 -104.5t-92 -42.5q-54 0 -91 42.5
t-37 104.5q0 63 37 105.5t91 42.5z" />
    <glyph glyph-name="Gdotaccent" unicode="&#x120;" horiz-adv-x="745" 
d="M403 590q99 0 171 -75q17 -17 34 2l54 59q10 11 11 17.5t-8 16.5q-49 47 -119.5 75t-142.5 28q-148 0 -253.5 -107t-105.5 -256t105.5 -256t253.5 -107q74 0 147 28.5t122 76.5q16 16 16 36v230q0 14 -5 19t-19 5h-238q-14 0 -19 -5t-5 -19v-72q0 -14 5 -19.5t19 -5.5
h120v-105q-61 -46 -143 -46q-95 0 -155 73t-60 167q0 96 60 168t155 72zM310 856q0 33 22.5 56.5t55.5 23.5t56.5 -23.5t23.5 -56.5t-23.5 -56t-56.5 -23t-55.5 23t-22.5 56z" />
    <glyph glyph-name="gdotaccent" unicode="&#x121;" horiz-adv-x="638" 
d="M429 69v-41q0 -159 -138 -159q-64 0 -153 36q-12 5 -16.5 2t-8.5 -17l-17 -71q-3 -14 -0.5 -19t14.5 -10q96 -37 203 -37q249 0 249 292v440q0 14 -5 19t-19 5h-40q-10 0 -15.5 -5t-12.5 -19l-17 -50q-77 85 -182 85q-99 0 -164.5 -78t-65.5 -187q0 -111 65.5 -188.5
t164.5 -77.5q57 0 99.5 27t58.5 53zM301 403q54 0 91.5 -43t37.5 -105t-37 -104.5t-92 -42.5q-54 0 -91 42.5t-37 104.5q0 63 37 105.5t91 42.5zM230 665q0 33 22.5 56.5t55.5 23.5t56.5 -23.5t23.5 -56.5t-23.5 -56t-56.5 -23t-55.5 23t-22.5 56z" />
    <glyph glyph-name="uni0122" unicode="&#x122;" horiz-adv-x="745" 
d="M403 -252h-3q-35 1 -59 25.5t-24 59.5q0 36 24.5 61.5t60.5 25.5q40 0 65.5 -31t25.5 -84q0 -70 -43 -128.5t-105 -87.5q-9 -6 -14 2l-24 37q-5 9 4 15q76 47 92 105zM403 590q-95 0 -155 -72t-60 -168q0 -94 60 -167t155 -73q82 0 143 46v105h-120q-14 0 -19 5.5
t-5 19.5v72q0 14 5 19t19 5h238q14 0 19 -5t5 -19v-230q0 -20 -16 -36q-49 -48 -122 -76.5t-147 -28.5q-148 0 -253.5 107t-105.5 256t105.5 256t253.5 107q72 0 142.5 -28t119.5 -75q9 -10 8 -16.5t-11 -17.5l-54 -59q-17 -19 -34 -2q-72 75 -171 75z" />
    <glyph glyph-name="uni0123" unicode="&#x123;" horiz-adv-x="638" 
d="M316 750h3q35 -1 59 -25.5t24 -59.5q0 -36 -24.5 -61t-60.5 -25q-41 0 -66.5 30.5t-25.5 83.5q0 71 43.5 129.5t104.5 87.5q12 4 15 -3l24 -37q6 -8 -5 -15q-76 -48 -91 -105zM429 69v-41q0 -159 -138 -159q-64 0 -153 36q-12 5 -16.5 2t-8.5 -17l-17 -71
q-3 -14 -0.5 -19t14.5 -10q96 -37 203 -37q249 0 249 292v440q0 14 -5 19t-19 5h-40q-10 0 -15.5 -5t-12.5 -19l-17 -50q-77 85 -182 85q-99 0 -164.5 -78t-65.5 -187q0 -111 65.5 -188.5t164.5 -77.5q57 0 99.5 27t58.5 53zM301 403q54 0 91.5 -43t37.5 -105t-37 -104.5
t-92 -42.5q-54 0 -91 42.5t-37 104.5q0 63 37 105.5t91 42.5z" />
    <glyph glyph-name="Hcircumflex" unicode="&#x124;" horiz-adv-x="759" 
d="M534 409v267q0 14 5 19t19 5h94q14 0 19 -5t5 -19v-652q0 -14 -5 -19t-19 -5h-94q-14 0 -19 5t-5 19v262h-310v-262q0 -14 -5 -19t-19 -5h-94q-14 0 -19 5t-5 19v652q0 14 5 19t19 5h94q14 0 19 -5t5 -19v-267h310zM349 944h57q17 -1 34 -24l91 -132q15 -24 -10 -24h-52
q-23 0 -37 24l-54 88l-55 -88q-13 -24 -36 -24h-53q-25 0 -10 24l92 132q16 23 33 24z" />
    <glyph glyph-name="hcircumflex" unicode="&#x125;" 
d="M214 457v257q0 14 -5 19t-19 5h-86q-14 0 -19 -5t-5 -19v-458v-232q0 -14 5 -19t19 -5h86q14 0 19 5t5 19v234q0 143 96 143q49 0 71 -34t22 -108v-235q0 -14 5 -19t19 -5h86q13 0 18.5 5t5.5 19v263q0 126 -51 179.5t-142 53.5q-73 0 -130 -63zM119 944h57q17 -1 34 -24
l91 -132q15 -24 -10 -24h-52q-23 0 -37 24l-54 88l-55 -88q-14 -24 -36 -24h-53q-25 0 -10 24l92 132q16 23 33 24z" />
    <glyph glyph-name="Hbar" unicode="&#x126;" horiz-adv-x="743" 
d="M729 492h-60v-468q0 -14 -5.5 -19t-19.5 -5h-93q-14 0 -19 5t-5 19v262h-310v-262q0 -14 -5 -19t-19 -5h-94q-14 0 -19 5t-5 19v468h-60q-14 0 -19 5t-5 19v38q0 14 5 19t19 5h60v98q0 14 5 19t19 5h94q14 0 19 -5t5 -19v-98h310v98q0 14 5 19t19 5h93q14 0 19.5 -5
t5.5 -19v-98h60q14 0 19 -5t5 -19v-38q0 -14 -5 -19t-19 -5zM527 409v83h-310v-83h310z" />
    <glyph glyph-name="hbar" unicode="&#x127;" horiz-adv-x="622" 
d="M112 640v59q0 14 5 19t19 5h86q14 0 19 -5t5 -19v-59h81q14 0 19 -5t5 -19v-39q0 -14 -5 -19t-19 -5h-81v-96q61 63 129 63q92 0 141.5 -54t49.5 -181v-261q0 -14 -5 -19t-19 -5h-85q-14 0 -19 5t-5 19v234q0 75 -21.5 109t-69.5 34q-96 0 -96 -147v-230q0 -14 -5 -19
t-19 -5h-86q-14 0 -19 5t-5 19v529h-38q-14 0 -19 5t-5 19v39q0 14 5 19t19 5h38z" />
    <glyph glyph-name="Itilde" unicode="&#x128;" horiz-adv-x="297" 
d="M77 24v652q0 14 5 19t19 5h94q14 0 19 -5t5 -19v-652q0 -14 -5 -19t-19 -5h-94q-14 0 -19 5t-5 19zM218 887q27 0 41 36q5 13 11.5 15.5t19.5 -2.5l34 -15q13 -5 16 -12t-2 -20q-36 -91 -113 -91q-43 0 -85 26q-7 4 -19 11t-16.5 9.5t-12 5t-14.5 2.5q-12 0 -23.5 -10.5
t-17.5 -25.5q-5 -13 -11 -15.5t-20 2.5l-33 15q-14 5 -17 12t3 20q36 91 113 91q42 0 85 -27q6 -4 18.5 -11t16.5 -9t11.5 -4.5t14.5 -2.5z" />
    <glyph glyph-name="itilde" unicode="&#x129;" horiz-adv-x="292" 
d="M80 24v461q0 14 5 19t19 5h85q14 0 19 -5t5 -19v-461q0 -14 -5 -19t-19 -5h-85q-14 0 -19 5t-5 19zM216 696q27 0 41 36q5 13 11.5 15.5t19.5 -2.5l34 -15q13 -5 16 -12t-2 -20q-36 -91 -113 -91q-43 0 -85 26q-7 4 -19 11t-16.5 9.5t-12 5t-14.5 2.5q-12 0 -23.5 -10.5
t-17.5 -25.5q-5 -13 -11 -15.5t-20 2.5l-33 15q-14 5 -17 12t3 20q36 91 113 91q42 0 85 -27q6 -4 18.5 -11t16.5 -9t11.5 -4.5t14.5 -2.5z" />
    <glyph glyph-name="Imacron" unicode="&#x12a;" horiz-adv-x="299" 
d="M78 24v652q0 14 5 19t19 5h94q14 0 19 -5t5 -19v-652q0 -14 -5 -19t-19 -5h-94q-14 0 -19 5t-5 19zM271 810h-243q-14 0 -19 5t-5 19v46q0 14 5 19t19 5h243q14 0 19 -5t5 -19v-46q0 -14 -5 -19t-19 -5z" />
    <glyph glyph-name="imacron" unicode="&#x12b;" horiz-adv-x="292" 
d="M80 24v461q0 14 5 19t19 5h85q14 0 19 -5t5 -19v-461q0 -14 -5 -19t-19 -5h-85q-14 0 -19 5t-5 19zM268 619h-243q-14 0 -19 5t-5 19v46q0 14 5 19t19 5h243q14 0 19 -5t5 -19v-46q0 -14 -5 -19t-19 -5z" />
    <glyph glyph-name="Ibreve" unicode="&#x12c;" horiz-adv-x="306" 
d="M82 24v652q0 14 5 19t19 5h94q14 0 19 -5t5 -19v-652q0 -14 -5 -19t-19 -5h-94q-14 0 -19 5t-5 19zM153 786q-114 0 -154 90q-13 31 5 40l40 21q19 10 28 -9q14 -32 29.5 -45t51.5 -13t51 12.5t31 45.5q9 19 28 9l40 -21q17 -9 4 -40q-40 -90 -154 -90z" />
    <glyph glyph-name="ibreve" unicode="&#x12d;" horiz-adv-x="297" 
d="M82 24v461q0 14 5 19t19 5h85q14 0 19 -5t5 -19v-461q0 -14 -5 -19t-19 -5h-85q-14 0 -19 5t-5 19zM148 595q-114 0 -154 90q-13 31 5 40l40 21q19 10 28 -9q14 -32 29.5 -45t51.5 -13t51 12.5t31 45.5q9 19 28 9l40 -21q17 -9 4 -40q-40 -90 -154 -90z" />
    <glyph glyph-name="Iogonek" unicode="&#x12e;" horiz-adv-x="299" 
d="M78 26v650q0 14 5.5 19t19.5 5h93q14 0 19 -5t5 -19v-652q0 -14 -5 -19t-19 -5h-5q-22 -10 -45.5 -34t-23.5 -53q0 -73 55 -73q11 0 45 2q14 0 19 -3.5t5 -17.5v-18q0 -13 -5 -17.5t-19 -6.5q-27 -3 -54 -3q-52 0 -85 28.5t-33 85.5q0 68 66 113h-15q-13 0 -18 5t-5 18z
" />
    <glyph glyph-name="iogonek" unicode="&#x12f;" horiz-adv-x="291" 
d="M80 26v459q0 14 5 19t19 5h85q14 0 19 -5t5 -19v-461q0 -14 -4 -18.5t-16 -5.5q-22 -10 -46 -34t-24 -53q0 -73 55 -73q11 0 45 2q15 0 19.5 -3.5t4.5 -17.5v-18q0 -13 -4.5 -17.5t-19.5 -6.5q-27 -3 -54 -3q-52 0 -85 28.5t-33 85.5q0 68 66 113h-14q-13 0 -18 4.5
t-5 18.5zM69 665q0 33 22.5 56.5t55.5 23.5t56.5 -23.5t23.5 -56.5t-23.5 -56t-56.5 -23t-55.5 23t-22.5 56z" />
    <glyph glyph-name="Idotaccent" unicode="&#x130;" horiz-adv-x="322" 
d="M89 24v652q0 14 5 19t19 5h94q14 0 19 -5t5 -19v-652q0 -14 -5 -19t-19 -5h-94q-14 0 -19 5t-5 19zM82 857q0 33 22.5 56.5t55.5 23.5t56.5 -23.5t23.5 -56.5t-23.5 -56t-56.5 -23t-55.5 23t-22.5 56z" />
    <glyph glyph-name="dotlessi" unicode="&#x131;" horiz-adv-x="297" 
d="M82 24v461q0 14 5 19t19 5h85q14 0 19 -5t5 -19v-461q0 -14 -5 -19t-19 -5h-85q-14 0 -19 5t-5 19z" />
    <glyph glyph-name="IJ" unicode="&#x132;" horiz-adv-x="749" 
d="M82 24v652q0 14 5 19t19 5h94q14 0 19 -5t5 -19v-652q0 -14 -5 -19t-19 -5h-94q-14 0 -19 5t-5 19zM416 592h128v-320q0 -88 -44.5 -124.5t-154.5 -36.5q-30 0 -27 -24l8 -76q2 -15 7 -19.5t23 -4.5q160 2 245 67.5t85 217.5v404q0 14 -5 19t-19 5h-246q-14 0 -19 -5
t-5 -19v-60q0 -14 5 -19t19 -5z" />
    <glyph glyph-name="ij" unicode="&#x133;" horiz-adv-x="703" 
d="M95 24v461q0 14 5 19t19 5h85q14 0 19 -5t5 -19v-461q0 -14 -5 -19t-19 -5h-85q-14 0 -19 5t-5 19zM82 665q0 33 22.5 56.5t55.5 23.5t56.5 -23.5t23.5 -56.5t-23.5 -56t-56.5 -23t-55.5 23t-22.5 56zM472 665q0 33 22.5 56.5t55.5 23.5t56.5 -23.5t23.5 -56.5t-23.5 -56
t-56.5 -23t-55.5 23t-22.5 56zM360 426v59q0 24 25 24h209q14 0 19 -5t5 -19v-498q0 -106 -50.5 -164.5t-148.5 -58.5q-59 0 -99 26q-11 7 -13 12t0 18l11 61q3 18 8.5 20t21.5 -6q23 -12 56 -12q81 0 81 109v404v6h-100q-25 0 -25 24z" />
    <glyph glyph-name="Jcircumflex" unicode="&#x134;" horiz-adv-x="482" 
d="M133 592h128v-320q0 -88 -44.5 -124.5t-154.5 -36.5q-30 0 -27 -24l8 -76q2 -15 7 -19.5t23 -4.5q160 2 245 67.5t85 217.5v404q0 14 -5 19t-19 5h-246q-14 0 -19 -5t-5 -19v-60q0 -14 5 -19t19 -5zM230 944h57q17 -1 34 -24l91 -132q15 -24 -10 -24h-52q-24 0 -37 24
l-54 88l-55 -88q-14 -24 -36 -24h-53q-25 0 -10 24l92 132q16 23 33 24z" />
    <glyph glyph-name="jcircumflex" unicode="&#x135;" horiz-adv-x="421" 
d="M53 426v59q0 24 24 24h209q14 0 19 -5t5 -19v-498q0 -106 -50.5 -164.5t-148.5 -58.5q-58 0 -99 26q-10 7 -12 12t0 18l10 61q3 18 9 20.5t22 -6.5q23 -12 55 -12q82 0 82 109v404v6h-101q-24 0 -24 24zM154 753h57q17 -1 34 -24l91 -132q15 -24 -10 -24h-52
q-24 0 -37 24l-54 88l-55 -88q-14 -24 -36 -24h-53q-25 0 -10 24l92 132q16 23 33 24z" />
    <glyph glyph-name="uni0136" unicode="&#x136;" horiz-adv-x="677" 
d="M357 366l297 -342q21 -24 -10 -24h-119q-11 0 -17 4.5t-18 19.5l-266 309v-309q0 -14 -5 -19t-19 -5h-94q-14 0 -19 5t-5 19v652q0 14 5 19t19 5h94q14 0 19 -5t5 -19v-282l255 282q13 15 19 19.5t17 4.5h118q31 0 11 -24zM351 -252h-3q-35 1 -59.5 25.5t-24.5 59.5
q0 36 24.5 61.5t60.5 25.5q41 0 66.5 -31t25.5 -84q0 -70 -43 -128.5t-105 -87.5q-9 -5 -15 2l-23 37q-5 9 4 15q76 47 92 105z" />
    <glyph glyph-name="uni0137" unicode="&#x137;" horiz-adv-x="577" 
d="M345 270l202 -246q21 -24 -10 -24h-118q-11 0 -17 4.5t-19 19.5l-173 214v-214q0 -14 -5 -19t-19 -5h-85q-14 0 -19 5t-5 19v675q0 14 5 19t19 5h85q14 0 19 -5t5 -19v-406l161 192q17 24 35 24h119q13 0 16 -7.5t-5 -16.5zM304 -252h-3q-35 1 -59.5 25.5t-24.5 59.5
q0 36 24.5 61.5t60.5 25.5q41 0 66.5 -31t25.5 -84q0 -70 -43 -128.5t-105 -87.5q-9 -5 -15 2l-23 37q-5 9 4 15q76 47 92 105z" />
    <glyph glyph-name="kgreenlandic" unicode="&#x138;" horiz-adv-x="577" 
d="M345 270l202 -246q21 -24 -10 -24h-118q-11 0 -17 4.5t-19 19.5l-173 214v-214q0 -14 -5 -19t-19 -5h-85q-14 0 -19 5t-5 19v461q0 14 5 19t19 5h85q14 0 19 -5t5 -19v-192l161 192q17 24 35 24h119q13 0 16 -7.5t-5 -16.5z" />
    <glyph glyph-name="Lacute" unicode="&#x139;" horiz-adv-x="571" 
d="M223 121h293q14 0 19 -5t5 -19v-73q0 -14 -5 -19t-19 -5h-411q-14 0 -19 5t-5 19v652q0 14 5 19t19 5h94q14 0 19 -5t5 -19v-555zM310 836l-71 -56q-17 -15 -38 -15h-73q-27 0 -2 28l125 137q16 19 34 -8l32 -53q6 -10 5 -17t-12 -16z" />
    <glyph glyph-name="lacute" unicode="&#x13a;" horiz-adv-x="272" 
d="M71 24v690q0 14 5 19t19 5h85q14 0 19.5 -5t5.5 -19v-690q0 -14 -5.5 -19t-19.5 -5h-85q-14 0 -19 5t-5 19zM272 836l-71 -56q-16 -15 -38 -15h-73q-27 0 -2 28l125 137q16 19 34 -8l32 -53q6 -10 5 -17t-12 -16z" />
    <glyph glyph-name="uni013B" unicode="&#x13b;" horiz-adv-x="571" 
d="M318 -252h-4q-35 1 -59 25.5t-24 59.5q0 36 24.5 61.5t60.5 25.5q41 0 66.5 -31t25.5 -84q0 -70 -43 -128.5t-105 -87.5q-10 -5 -15 2l-24 37q-4 9 5 15q76 47 92 105zM223 121h293q14 0 19 -5t5 -19v-73q0 -14 -5 -19t-19 -5h-411q-14 0 -19 5t-5 19v652q0 14 5 19t19 5
h94q14 0 19 -5t5 -19v-555z" />
    <glyph glyph-name="uni013C" unicode="&#x13c;" horiz-adv-x="269" 
d="M137 -252h-3q-35 1 -59.5 25.5t-24.5 59.5q0 36 24.5 61.5t60.5 25.5q41 0 66.5 -31t25.5 -84q0 -70 -43 -128.5t-105 -87.5q-9 -5 -15 2l-23 37q-5 9 4 15q76 47 92 105zM68 24v690q0 14 5 19t19 5h85q14 0 19.5 -5t5.5 -19v-690q0 -14 -5.5 -19t-19.5 -5h-85
q-14 0 -19 5t-5 19z" />
    <glyph glyph-name="Lcaron" unicode="&#x13d;" horiz-adv-x="580" 
d="M463 531h-4q-35 1 -59 25.5t-24 59.5q0 36 24.5 61.5t60.5 25.5q41 0 66.5 -31t25.5 -84q0 -70 -43 -128.5t-105 -87.5q-10 -5 -15 2l-24 37q-4 9 5 15q77 49 92 105zM223 121h293q14 0 19 -5t5 -19v-73q0 -14 -5 -19t-19 -5h-411q-14 0 -19 5t-5 19v652q0 14 5 19t19 5
h94q14 0 19 -5t5 -19v-555z" />
    <glyph glyph-name="lcaron" unicode="&#x13e;" horiz-adv-x="390" 
d="M354 566h-4q-35 1 -59 25.5t-24 59.5q0 36 24.5 61.5t60.5 25.5q41 0 66.5 -31t25.5 -84q0 -70 -43 -128.5t-105 -87.5q-10 -5 -15 2l-24 37q-4 9 5 15q77 49 92 105zM68 24v690q0 14 5 19t19 5h85q14 0 19.5 -5t5.5 -19v-690q0 -14 -5.5 -19t-19.5 -5h-85q-14 0 -19 5
t-5 19z" />
    <glyph glyph-name="Ldot" unicode="&#x13f;" horiz-adv-x="569" 
d="M223 121h293q14 0 19 -5t5 -19v-73q0 -14 -5 -19t-19 -5h-411q-14 0 -19 5t-5 19v652q0 14 5 19t19 5h94q14 0 19 -5t5 -19v-555zM384 343q0 33 22.5 56.5t55.5 23.5t56.5 -23.5t23.5 -56.5t-23.5 -56t-56.5 -23t-55.5 23t-22.5 56z" />
    <glyph glyph-name="ldot" unicode="&#x140;" horiz-adv-x="466" 
d="M82 24v690q0 14 5 19t19 5h85q14 0 19.5 -5t5.5 -19v-690q0 -14 -5.5 -19t-19.5 -5h-85q-14 0 -19 5t-5 19zM298 346q0 33 22.5 56.5t55.5 23.5t56.5 -23.5t23.5 -56.5t-23.5 -56t-56.5 -23t-55.5 23t-22.5 56z" />
    <glyph glyph-name="Lslash" unicode="&#x141;" horiz-adv-x="601" 
d="M252 121h294q14 0 19 -5t5 -19v-73q0 -14 -5 -19t-19 -5h-412q-14 0 -19 5t-5 19v214l-44 -15q-13 -5 -19.5 -2t-11.5 16l-12 34q-8 23 15 31l72 25v349q0 14 5 19t19 5h94q14 0 19 -5t5 -19v-299l140 50q13 5 19.5 1.5t11.5 -16.5l11 -33q4 -14 1.5 -20t-15.5 -11
l-168 -60v-167z" />
    <glyph glyph-name="lslash" unicode="&#x142;" horiz-adv-x="374" 
d="M118 24v232l-58 -20q-13 -5 -19.5 -2t-11.5 16l-12 34q-7 23 15 31l86 30v354q0 14 5 19t19 5h85q14 0 19.5 -5t5.5 -19v-307l62 22q14 4 20 1t11 -16l12 -34q8 -23 -15 -31l-90 -31v-279q0 -14 -5.5 -19t-19.5 -5h-85q-14 0 -19 5t-5 19z" />
    <glyph glyph-name="Nacute" unicode="&#x143;" horiz-adv-x="775" 
d="M224 426v-402q0 -14 -5 -19t-19 -5h-94q-14 0 -19 5t-5 19v680q0 9 9 9h9q7 0 17 -8l435 -427v398q0 14 5 19t19 5h93q14 0 19.5 -5t5.5 -19v-680q0 -9 -9 -9h-9q-8 0 -18 9zM487 836l-71 -56q-16 -15 -38 -15h-73q-27 0 -2 28l125 137q16 19 34 -8l32 -53q6 -10 5 -17
t-12 -16z" />
    <glyph glyph-name="nacute" unicode="&#x144;" 
d="M175 485l17 -50q22 26 38.5 41.5t47.5 29.5t67 14q91 0 141.5 -53.5t50.5 -179.5v-263q0 -14 -5 -19t-19 -5h-85q-14 0 -19 5t-5 19v235q0 74 -22 108t-71 34q-97 0 -97 -143v-234q0 -14 -5 -19t-19 -5h-85q-14 0 -19 5t-5 19v232v229q0 14 5 19t19 5h42q10 0 15.5 -5
t12.5 -19zM402 645l-71 -56q-17 -15 -38 -15h-73q-27 0 -2 28l125 137q16 19 34 -8l32 -53q6 -10 5 -17t-12 -16z" />
    <glyph glyph-name="uni0145" unicode="&#x145;" horiz-adv-x="775" 
d="M395 -252h-3q-35 1 -59 25.5t-24 59.5q0 36 24.5 61.5t60.5 25.5q40 0 65.5 -31t25.5 -84q0 -70 -43 -128.5t-105 -87.5q-9 -6 -14 2l-24 37q-5 9 4 15q76 47 92 105zM224 426v-402q0 -14 -5 -19t-19 -5h-94q-14 0 -19 5t-5 19v680q0 9 9 9h9q7 0 17 -8l435 -427v398
q0 14 5 19t19 5h93q14 0 19.5 -5t5.5 -19v-680q0 -9 -9 -9h-9q-8 0 -18 9z" />
    <glyph glyph-name="uni0146" unicode="&#x146;" 
d="M316 -252h-4q-35 1 -59 25.5t-24 59.5q0 36 24.5 61.5t60.5 25.5q41 0 66.5 -31t25.5 -84q0 -70 -43 -128.5t-105 -87.5q-10 -5 -15 2l-24 37q-4 9 5 15q76 47 92 105zM175 485l17 -50q22 26 38.5 41.5t47.5 29.5t67 14q91 0 141.5 -53.5t50.5 -179.5v-263q0 -14 -5 -19
t-19 -5h-85q-14 0 -19 5t-5 19v235q0 74 -22 108t-71 34q-97 0 -97 -143v-234q0 -14 -5 -19t-19 -5h-85q-14 0 -19 5t-5 19v232v229q0 14 5 19t19 5h42q10 0 15.5 -5t12.5 -19z" />
    <glyph glyph-name="Ncaron" unicode="&#x147;" horiz-adv-x="775" 
d="M224 426v-402q0 -14 -5 -19t-19 -5h-94q-14 0 -19 5t-5 19v680q0 9 9 9h9q7 0 17 -8l435 -427v398q0 14 5 19t19 5h93q14 0 19.5 -5t5.5 -19v-680q0 -9 -9 -9h-9q-8 0 -18 9zM408 764h-57q-17 1 -33 24l-92 132q-15 24 10 24h53q23 0 36 -24l55 -88l54 88q14 24 37 24h52
q25 0 10 -24l-91 -132q-17 -23 -34 -24z" />
    <glyph glyph-name="ncaron" unicode="&#x148;" 
d="M192 435l-17 50q-7 14 -12.5 19t-15.5 5h-42q-14 0 -19 -5t-5 -19v-229v-232q0 -14 5 -19t19 -5h85q14 0 19 5t5 19v234q0 143 97 143q49 0 71 -34t22 -108v-235q0 -14 5 -19t19 -5h85q14 0 19 5t5 19v263q0 126 -50.5 179.5t-141.5 53.5q-36 0 -67 -14t-47.5 -29.5
t-38.5 -41.5zM335 573h-57q-17 1 -33 24l-92 132q-15 24 10 24h53q22 0 36 -24l55 -88l54 88q13 24 37 24h52q25 0 10 -24l-91 -132q-17 -23 -34 -24z" />
    <glyph glyph-name="napostrophe" unicode="&#x149;" horiz-adv-x="627" 
d="M81 677h-3q-35 1 -59 25.5t-24 59.5q0 36 24.5 61.5t60.5 25.5q41 0 66.5 -31t25.5 -84q0 -70 -43.5 -128.5t-104.5 -87.5q-11 -5 -15 2l-24 37q-5 9 5 15q76 48 91 105zM219 435l-17 50q-7 14 -12.5 19t-15.5 5h-42q-14 0 -19 -5t-5 -19v-229v-232q0 -14 5 -19t19 -5h85
q14 0 19 5t5 19v234q0 143 97 143q49 0 71 -34t22 -108v-235q0 -14 5 -19t19 -5h85q14 0 19 5t5 19v263q0 126 -50.5 179.5t-141.5 53.5q-36 0 -67 -14t-47.5 -29.5t-38.5 -41.5z" />
    <glyph glyph-name="Eng" unicode="&#x14a;" horiz-adv-x="775" 
d="M551 93l-327 333v-402q0 -14 -5 -19t-19 -5h-94q-14 0 -19 5t-5 19v680q0 9 9 9h9q7 0 17 -8l435 -427v398q0 14 5 19t19 5h93q14 0 19.5 -5t5.5 -19v-668q-2 -135 -88.5 -201t-241.5 -66q-17 0 -22.5 4.5t-7.5 19.5l-8 76q-3 25 27 25q117 0 156.5 45.5t41.5 181.5z" />
    <glyph glyph-name="eng" unicode="&#x14b;" 
d="M537 287v-300q0 -106 -50.5 -164.5t-148.5 -58.5q-58 0 -99 26q-10 7 -12 12t0 18l11 61q2 18 8 20.5t22 -6.5q23 -12 56 -12q80 0 80 109v267q0 74 -22 108t-71 34q-97 0 -97 -143v-234q0 -14 -5 -19t-19 -5h-85q-14 0 -19 5t-5 19v232v229q0 14 5 19t19 5h42
q10 0 15.5 -5t12.5 -19l17 -50q22 26 38.5 41.5t47.5 29.5t67 14q91 0 141.5 -53.5t50.5 -179.5z" />
    <glyph glyph-name="Omacron" unicode="&#x14c;" horiz-adv-x="807" 
d="M44 350q0 149 105.5 256t253.5 107t254 -107t106 -256t-106 -256t-254 -107t-253.5 107t-105.5 256zM188 350q0 -94 60 -167t155 -73q97 0 156.5 72.5t59.5 167.5q0 96 -59.5 168t-156.5 72q-95 0 -155 -72t-60 -168zM525 810h-243q-14 0 -19 5t-5 19v46q0 14 5 19t19 5
h243q14 0 19 -5t5 -19v-46q0 -14 -5 -19t-19 -5z" />
    <glyph glyph-name="omacron" unicode="&#x14d;" horiz-adv-x="612" 
d="M41 254q0 110 78 188t187 78t187 -78t78 -188t-77.5 -187.5t-187.5 -77.5t-187.5 77.5t-77.5 187.5zM306 105q55 0 93.5 43t38.5 106t-38.5 105t-93.5 42t-94 -42t-39 -105t39 -106t94 -43zM428 619h-243q-14 0 -19 5t-5 19v46q0 14 5 19t19 5h243q14 0 19 -5t5 -19v-46
q0 -14 -5 -19t-19 -5z" />
    <glyph glyph-name="Obreve" unicode="&#x14e;" horiz-adv-x="807" 
d="M44 350q0 149 105.5 256t253.5 107t254 -107t106 -256t-106 -256t-254 -107t-253.5 107t-105.5 256zM188 350q0 -94 60 -167t155 -73q97 0 156.5 72.5t59.5 167.5q0 96 -59.5 168t-156.5 72q-95 0 -155 -72t-60 -168zM404 786q-114 0 -154 90q-13 31 5 40l40 21
q19 10 28 -9q14 -32 29.5 -45t51.5 -13t51 12.5t31 45.5q9 19 28 9l40 -21q17 -9 4 -40q-40 -90 -154 -90z" />
    <glyph glyph-name="obreve" unicode="&#x14f;" horiz-adv-x="612" 
d="M41 254q0 110 78 188t187 78t187 -78t78 -188t-77.5 -187.5t-187.5 -77.5t-187.5 77.5t-77.5 187.5zM306 105q55 0 93.5 43t38.5 106t-38.5 105t-93.5 42t-94 -42t-39 -105t39 -106t94 -43zM306 595q-114 0 -154 90q-13 31 5 40l40 21q19 10 28 -9q14 -32 29.5 -45
t51.5 -13t51 12.5t31 45.5q9 19 28 9l40 -21q17 -9 4 -40q-40 -90 -154 -90z" />
    <glyph glyph-name="Ohungarumlaut" unicode="&#x150;" horiz-adv-x="807" 
d="M44 350q0 149 105.5 256t253.5 107t254 -107t106 -256t-106 -256t-254 -107t-253.5 107t-105.5 256zM188 350q0 -94 60 -167t155 -73q97 0 156.5 72.5t59.5 167.5q0 96 -59.5 168t-156.5 72q-95 0 -155 -72t-60 -168zM439 860l-67 -81q-9 -15 -39 -15h-61q-26 0 -1 28
l124 139q16 19 34 -8l14 -21q11 -21 -4 -42zM593 860l-66 -81q-10 -15 -39 -15h-61q-28 0 -1 28l124 139q16 20 34 -8l13 -21q7 -11 6.5 -20t-10.5 -22z" />
    <glyph glyph-name="ohungarumlaut" unicode="&#x151;" horiz-adv-x="612" 
d="M41 254q0 110 78 188t187 78t187 -78t78 -188t-77.5 -187.5t-187.5 -77.5t-187.5 77.5t-77.5 187.5zM306 105q55 0 93.5 43t38.5 106t-38.5 105t-93.5 42t-94 -42t-39 -105t39 -106t94 -43zM339 669l-67 -81q-9 -15 -39 -15h-61q-26 0 -1 28l124 139q16 19 34 -8l14 -21
q11 -21 -4 -42zM493 669l-66 -81q-10 -15 -39 -15h-61q-28 0 -1 28l124 139q16 20 34 -8l13 -21q7 -11 6.5 -20t-10.5 -22z" />
    <glyph glyph-name="OE" unicode="&#x152;" horiz-adv-x="1115" 
d="M188 350q0 -95 59.5 -167.5t154.5 -72.5q97 0 156 72.5t59 167.5q0 96 -59 168t-156 72q-95 0 -154.5 -72t-59.5 -168zM1008 292h-252q-15 -94 -83 -172l360 1q14 0 19 -5t5 -19v-73q0 -14 -5 -19t-19 -5h-455q-28 0 -88.5 -6.5t-87.5 -6.5q-148 0 -253 107t-105 256
t105 256t253 107q26 0 87 -6.5t89 -6.5h455q14 0 19 -5t5 -19v-73q0 -14 -5 -19t-19 -5h-319h-41q29 -29 52 -73.5t29 -92.5h254q14 0 19 -5t5 -19v-73q0 -14 -5 -19t-19 -5z" />
    <glyph glyph-name="oe" unicode="&#x153;" horiz-adv-x="959" 
d="M558 211v-23q10 -41 46 -63t79 -22q64 0 127 32q20 9 25 6q5 -2 10 -8l34 -42q15 -20 4 -31q-35 -35 -90 -53t-113 -18q-112 0 -189 75q-77 -75 -185 -75q-110 0 -187.5 77.5t-77.5 187.5t78 188t187 78q107 0 185 -75q78 75 184 75q81 0 139.5 -44.5t84 -107
t25.5 -131.5q0 -15 -4.5 -20.5t-17.5 -5.5h-344zM561 321v-24h227q-8 48 -36.5 81t-79.5 33q-81 0 -111 -90zM429 229v50q-5 55 -38.5 88.5t-84.5 33.5q-55 0 -94 -42t-39 -105t39 -106t94 -43q51 0 84.5 34.5t38.5 89.5z" />
    <glyph glyph-name="Racute" unicode="&#x154;" horiz-adv-x="661" 
d="M604 490q0 -153 -150 -198l174 -261q8 -17 1.5 -24t-22.5 -7h-87q-25 0 -41 24l-169 254h-87v-254q0 -14 -5 -19t-19 -5h-94q-14 0 -19 5t-5 19v652q0 14 5 19t19 5h247q46 0 88 -10.5t80 -33.5t61 -65.5t23 -100.5zM223 397h124q119 0 119 93q0 92 -119 92h-124v-185z
M428 836l-71 -56q-17 -15 -38 -15h-73q-27 0 -2 28l125 137q16 19 34 -8l32 -53q6 -10 5 -17t-12 -16z" />
    <glyph glyph-name="racute" unicode="&#x155;" horiz-adv-x="422" 
d="M368 388q-76 0 -115 -41t-39 -102v-221q0 -14 -5 -19t-19 -5h-85q-14 0 -19 5t-5 19v461q0 14 5 19t19 5h42q10 0 15.5 -5t12.5 -19l26 -67q28 49 67.5 75.5t117.5 26.5q16 0 19.5 -4.5t1.5 -17.5l-13 -87q-2 -14 -7 -18.5t-19 -4.5zM371 645l-71 -56q-17 -15 -38 -15
h-73q-27 0 -2 28l125 137q16 19 34 -8l32 -53q6 -10 5 -17t-12 -16z" />
    <glyph glyph-name="uni0156" unicode="&#x156;" horiz-adv-x="661" 
d="M347 -252h-3q-35 1 -59.5 25.5t-24.5 59.5q0 36 24.5 61.5t60.5 25.5q41 0 66.5 -31t25.5 -84q0 -70 -43 -128.5t-105 -87.5q-9 -5 -15 2l-23 37q-5 9 4 15q76 47 92 105zM604 490q0 -153 -150 -198l174 -261q8 -17 1.5 -24t-22.5 -7h-87q-25 0 -41 24l-169 254h-87v-254
q0 -14 -5 -19t-19 -5h-94q-14 0 -19 5t-5 19v652q0 14 5 19t19 5h247q46 0 88 -10.5t80 -33.5t61 -65.5t23 -100.5zM223 397h124q119 0 119 93q0 92 -119 92h-124v-185z" />
    <glyph glyph-name="uni0157" unicode="&#x157;" horiz-adv-x="405" 
d="M140 -252h-4q-35 1 -59 25.5t-24 59.5q0 36 24.5 61.5t60.5 25.5q41 0 66.5 -31t25.5 -84q0 -70 -43 -128.5t-105 -87.5q-10 -5 -15 2l-24 37q-4 9 5 15q76 47 92 105zM351 388q-76 0 -115 -41t-39 -102v-221q0 -14 -5 -19t-19 -5h-85q-14 0 -19 5t-5 19v461q0 14 5 19
t19 5h42q10 0 15.5 -5t12.5 -19l26 -67q28 49 68 75.5t117 26.5q16 0 19.5 -4.5t1.5 -17.5l-13 -87q-2 -14 -7 -18.5t-19 -4.5z" />
    <glyph glyph-name="Rcaron" unicode="&#x158;" horiz-adv-x="661" 
d="M604 490q0 -153 -150 -198l174 -261q8 -17 1.5 -24t-22.5 -7h-87q-25 0 -41 24l-169 254h-87v-254q0 -14 -5 -19t-19 -5h-94q-14 0 -19 5t-5 19v652q0 14 5 19t19 5h247q46 0 88 -10.5t80 -33.5t61 -65.5t23 -100.5zM223 397h124q119 0 119 93q0 92 -119 92h-124v-185z
M350 764h-57q-17 1 -33 24l-92 132q-15 24 10 24h53q23 0 36 -24l55 -88l54 88q14 24 37 24h52q25 0 10 -24l-91 -132q-17 -23 -34 -24z" />
    <glyph glyph-name="rcaron" unicode="&#x159;" horiz-adv-x="395" 
d="M345 388q-76 0 -115 -41t-39 -102v-221q0 -14 -5 -19t-19 -5h-85q-14 0 -19 5t-5 19v461q0 14 5 19t19 5h42q10 0 15.5 -5t12.5 -19l26 -67q28 49 68 75.5t117 26.5q16 0 19.5 -4.5t1.5 -17.5l-13 -87q-2 -14 -7 -18.5t-19 -4.5zM246 573h-57q-17 1 -33 24l-92 132
q-15 24 10 24h53q23 0 36 -24l55 -88l54 88q14 24 37 24h52q25 0 10 -24l-91 -132q-17 -23 -34 -24z" />
    <glyph glyph-name="Sacute" unicode="&#x15a;" horiz-adv-x="640" 
d="M329 588q-133 0 -133 -96q0 -41 36 -57t122 -26q50 -6 88 -17t74.5 -33t56.5 -61.5t20 -94.5q0 -89 -69 -151.5t-193 -62.5q-163 0 -272 75q-11 8 -11.5 15.5t6.5 19.5l35 59q13 23 33 11q89 -57 199 -57q134 0 134 84q0 46 -38.5 65t-126.5 30q-232 28 -232 196
q0 37 14 74t43 71.5t82 56.5t122 22q73 0 128 -18t118 -57q11 -7 11.5 -15t-6.5 -19l-35 -59q-13 -24 -33 -12q-47 32 -86 44.5t-87 12.5zM432 836l-71 -56q-17 -15 -38 -15h-73q-27 0 -2 28l125 137q16 19 34 -8l32 -53q6 -10 5 -17t-12 -16z" />
    <glyph glyph-name="sacute" unicode="&#x15b;" horiz-adv-x="512" 
d="M251 92q47 0 72.5 15t25.5 40q0 20 -26.5 31t-83.5 19q-92 12 -144 47t-52 110t57 120.5t150 45.5q97 0 194 -57q12 -7 12.5 -15t-6.5 -19l-25 -43q-8 -14 -13 -16.5t-19 4.5q-66 43 -135 43q-89 0 -89 -55q0 -22 26 -32.5t84 -17.5q92 -12 143.5 -46.5t51.5 -110.5
q0 -75 -58.5 -120.5t-155.5 -45.5q-112 0 -208 65q-11 7 -11.5 15t6.5 19l25 43q8 14 13 17t20 -5q67 -51 146 -51zM370 645l-71 -56q-17 -15 -38 -15h-73q-27 0 -2 28l125 137q16 19 34 -8l32 -53q6 -10 5 -17t-12 -16z" />
    <glyph glyph-name="Scircumflex" unicode="&#x15c;" horiz-adv-x="640" 
d="M329 588q-133 0 -133 -96q0 -41 36 -57t122 -26q50 -6 88 -17t74.5 -33t56.5 -61.5t20 -94.5q0 -89 -69 -151.5t-193 -62.5q-163 0 -272 75q-11 8 -11.5 15.5t6.5 19.5l35 59q13 23 33 11q89 -57 199 -57q134 0 134 84q0 46 -38.5 65t-126.5 30q-232 28 -232 196
q0 37 14 74t43 71.5t82 56.5t122 22q73 0 128 -18t118 -57q11 -7 11.5 -15t-6.5 -19l-35 -59q-13 -24 -33 -12q-47 32 -86 44.5t-87 12.5zM291 943h57q17 -1 34 -24l91 -132q15 -24 -10 -24h-52q-23 0 -37 24l-54 88l-55 -88q-13 -24 -36 -24h-53q-25 0 -10 24l92 132
q16 23 33 24z" />
    <glyph glyph-name="scircumflex" unicode="&#x15d;" horiz-adv-x="512" 
d="M251 92q47 0 72.5 15t25.5 40q0 20 -26.5 31t-83.5 19q-92 12 -144 47t-52 110t57 120.5t150 45.5q97 0 194 -57q12 -7 12.5 -15t-6.5 -19l-25 -43q-8 -14 -13 -16.5t-19 4.5q-66 43 -135 43q-89 0 -89 -55q0 -22 26 -32.5t84 -17.5q92 -12 143.5 -46.5t51.5 -110.5
q0 -75 -58.5 -120.5t-155.5 -45.5q-112 0 -208 65q-11 7 -11.5 15t6.5 19l25 43q8 14 13 17t20 -5q67 -51 146 -51zM226 753h57q17 -1 34 -24l91 -132q15 -24 -10 -24h-52q-24 0 -37 24l-54 88l-55 -88q-14 -24 -36 -24h-53q-25 0 -10 24l92 132q16 23 33 24z" />
    <glyph glyph-name="Scedilla" unicode="&#x15e;" horiz-adv-x="632" 
d="M321 588q-134 0 -134 -96q0 -41 36 -57t122 -26q50 -6 88 -17t74.5 -33t56.5 -61.5t20 -94.5q0 -88 -68 -150.5t-189 -63.5l-3 -34q53 0 82 -26.5t29 -73.5t-30 -74.5t-86 -27.5q-42 0 -94 41q-14 12 -2 25l14 19q6 8 11 8t14 -5q34 -19 67 -19q35 0 35 33q0 37 -43 37
h-51q-19 0 -19 22l19 78q-116 9 -210 72q-12 7 -12.5 15t6.5 20l35 59q13 23 33 11q89 -57 191 -57q134 0 134 84q0 46 -38.5 65t-126.5 30q-232 27 -232 196q0 37 14 74t43 71.5t82 56.5t122 22q72 0 126.5 -18t118.5 -57q18 -11 6 -34l-36 -59q-13 -24 -32 -12
q-85 57 -173 57z" />
    <glyph glyph-name="scedilla" unicode="&#x15f;" horiz-adv-x="512" 
d="M196 -85l18 78q-93 14 -162 61q-11 7 -11.5 15t6.5 19l25 43q8 14 13 17t20 -5q67 -51 146 -51q47 0 72.5 15t25.5 40q0 20 -26.5 31t-83.5 19q-92 12 -144 47t-52 110t57 120.5t150 45.5q110 0 205 -64q11 -7 11.5 -15t-5.5 -19l-26 -43q-12 -25 -32 -12q-77 50 -145 50
q-89 0 -89 -55q0 -22 26 -32.5t84 -17.5q94 -13 144.5 -47t50.5 -110q0 -73 -55 -117.5t-147 -47.5l-4 -34q53 0 82 -26.5t29 -73.5t-30 -74.5t-86 -27.5q-42 0 -93 41q-15 12 -3 25l14 19q6 8 11 8t14 -5q38 -19 67 -19q35 0 35 33q0 37 -43 37h-51q-18 0 -18 22z" />
    <glyph glyph-name="Scaron" unicode="&#x160;" horiz-adv-x="642" 
d="M331 588q-133 0 -133 -96q0 -41 36 -57t122 -26q50 -6 88 -17t74.5 -33t56.5 -61.5t20 -94.5q0 -89 -69 -151.5t-193 -62.5q-162 0 -272 75q-11 8 -11.5 15.5t6.5 19.5l35 59q13 23 33 11q89 -57 199 -57q134 0 134 84q0 46 -38.5 65t-126.5 30q-232 28 -232 196
q0 37 14 74t43 71.5t82 56.5t122 22q73 0 128 -18t118 -57q11 -7 11.5 -15t-6.5 -19l-35 -59q-13 -24 -33 -12q-47 32 -86 44.5t-87 12.5zM344 764h-57q-17 1 -33 24l-92 132q-15 24 10 24h53q23 0 36 -24l55 -88l54 88q14 24 37 24h52q25 0 10 -24l-91 -132
q-17 -23 -34 -24z" />
    <glyph glyph-name="scaron" unicode="&#x161;" horiz-adv-x="512" 
d="M251 92q47 0 72.5 15t25.5 40q0 20 -26.5 31t-83.5 19q-92 12 -144 47t-52 110t57 120.5t150 45.5q97 0 194 -57q12 -7 12.5 -15t-6.5 -19l-25 -43q-8 -14 -13 -16.5t-19 4.5q-66 43 -135 43q-89 0 -89 -55q0 -22 26 -32.5t84 -17.5q92 -12 143.5 -46.5t51.5 -110.5
q0 -75 -58.5 -120.5t-155.5 -45.5q-112 0 -208 65q-11 7 -11.5 15t6.5 19l25 43q8 14 13 17t20 -5q67 -51 146 -51zM279 573h-57q-17 1 -33 24l-92 132q-15 24 10 24h53q22 0 36 -24l55 -88l54 88q13 24 37 24h52q25 0 10 -24l-91 -132q-17 -23 -34 -24z" />
    <glyph glyph-name="uni0162" unicode="&#x162;" horiz-adv-x="626" 
d="M310 -252h-4q-35 1 -59 25.5t-24 59.5q0 36 24.5 61.5t60.5 25.5q41 0 66.5 -31t25.5 -84q0 -70 -43 -128.5t-105 -87.5q-10 -5 -15 2l-24 37q-5 9 5 15q75 47 92 105zM34 700h557q14 0 19.5 -5t5.5 -19v-79q0 -14 -5.5 -19t-19.5 -5h-207v-549q0 -14 -5 -19t-19 -5h-94
q-14 0 -19 5t-5 19v549h-208q-14 0 -19 5t-5 19v79q0 14 5 19t19 5z" />
    <glyph glyph-name="uni0163" unicode="&#x163;" horiz-adv-x="444" 
d="M195 -252h-4q-35 1 -59 25.5t-24 59.5q0 36 24.5 61.5t60.5 25.5q41 0 66.5 -31t25.5 -84q0 -70 -43 -128.5t-105 -87.5q-10 -5 -15 2l-24 37q-4 9 5 15q76 47 92 105zM393 14q-41 -25 -98 -25q-98 0 -148.5 58t-50.5 163v194h-30q-14 0 -19.5 5t-5.5 19v57q0 14 5.5 19
t19.5 5h30v95q0 14 5 19t19 5h84q14 0 19.5 -5t5.5 -19v-95h140q14 0 19 -5t5 -19v-57q0 -14 -5 -19t-19 -5h-140v-187q0 -109 81 -109q32 0 54 11q16 9 22 6.5t9 -20.5l11 -60q2 -13 -0.5 -18.5t-12.5 -12.5z" />
    <glyph glyph-name="Tcaron" unicode="&#x164;" horiz-adv-x="626" 
d="M34 700h557q14 0 19.5 -5t5.5 -19v-79q0 -14 -5.5 -19t-19.5 -5h-207v-549q0 -14 -5 -19t-19 -5h-94q-14 0 -19 5t-5 19v549h-208q-14 0 -19 5t-5 19v79q0 14 5 19t19 5zM341 764h-57q-17 1 -33 24l-92 132q-15 24 10 24h53q22 0 36 -24l55 -88l54 88q13 24 37 24h52
q25 0 10 -24l-91 -132q-17 -23 -34 -24z" />
    <glyph glyph-name="tcaron" unicode="&#x165;" horiz-adv-x="496" 
d="M507 676h-3q-36 1 -60 25.5t-24 59.5q0 36 24.5 61.5t60.5 25.5q41 0 66.5 -31t25.5 -84q0 -70 -43 -128.5t-105 -87.5q-10 -5 -15 2l-24 37q-4 9 5 15q77 49 92 105zM393 14q-41 -25 -98 -25q-98 0 -148.5 58t-50.5 163v194h-30q-14 0 -19.5 5t-5.5 19v57q0 14 5.5 19
t19.5 5h30v95q0 14 5 19t19 5h84q14 0 19.5 -5t5.5 -19v-95h140q14 0 19 -5t5 -19v-57q0 -14 -5 -19t-19 -5h-140v-187q0 -109 81 -109q32 0 54 11q16 9 22 6.5t9 -20.5l11 -60q2 -13 -0.5 -18.5t-12.5 -12.5z" />
    <glyph glyph-name="Tbar" unicode="&#x166;" horiz-adv-x="628" 
d="M575 322h-190v-298q0 -14 -5 -19t-19 -5h-94q-14 0 -19 5t-5 19v298h-190q-14 0 -19 5t-5 19v66q0 14 5.5 19t18.5 5h190v137h-209q-14 0 -19 5t-5 19v79q0 14 5 19t19 5h560q14 0 19 -5t5 -19v-79q0 -14 -5 -19t-19 -5h-209v-137h190q13 0 18.5 -5t5.5 -19v-66
q0 -14 -5 -19t-19 -5z" />
    <glyph glyph-name="tbar" unicode="&#x167;" horiz-adv-x="475" 
d="M396 216h-140q0 -18 6 -44q15 -64 75 -64q29 0 55 12q16 8 22 5.5t9 -19.5l10 -61q2 -8 1.5 -13.5t-3.5 -8.5t-10 -8q-41 -26 -99 -26q-158 0 -191 151q-6 31 -8 76h-55q-14 0 -19.5 5t-5.5 19v57q0 14 5.5 19t19.5 5h55v83h-55q-14 0 -19.5 5t-5.5 19v57q0 14 5.5 19
t19.5 5h55v85q0 14 5 19t19 5h84q14 0 19.5 -5t5.5 -19v-85h140q14 0 19 -5t5 -19v-57q0 -14 -5 -19t-19 -5h-140v-83h140q14 0 19 -5t5 -19v-57q0 -14 -5 -19t-19 -5z" />
    <glyph glyph-name="Utilde" unicode="&#x168;" horiz-adv-x="724" 
d="M362 -13q-129 0 -213.5 79t-84.5 222v388q0 14 5 19t19 5h94q14 0 19 -5t5 -19v-383q0 -183 156 -183t156 183v383q0 14 5 19t19 5h94q14 0 19 -5t5 -19v-388q0 -143 -84.5 -222t-213.5 -79zM431 887q27 0 41 36q5 13 11.5 15.5t19.5 -2.5l34 -15q13 -5 16 -12t-2 -20
q-36 -91 -113 -91q-43 0 -85 26q-7 4 -19 11t-16.5 9.5t-12 5t-14.5 2.5q-12 0 -23.5 -10.5t-17.5 -25.5q-5 -13 -11 -15.5t-20 2.5l-33 15q-14 5 -17 12t3 20q36 91 113 91q41 0 85 -27q6 -4 18.5 -11t16.5 -9t11.5 -4.5t14.5 -2.5z" />
    <glyph glyph-name="utilde" unicode="&#x169;" 
d="M408 74l17 -50q7 -14 12.5 -19t15.5 -5h42q14 0 19 5t5 19v229v232q0 14 -5 19t-19 5h-85q-14 0 -19 -5t-5 -19v-234q0 -143 -96 -143q-49 0 -71.5 34t-22.5 108v235q0 14 -5 19t-19 5h-85q-14 0 -19 -5t-5 -19v-263q0 -126 51 -179.5t142 -53.5q36 0 67 14t47.5 29.5
t37.5 41.5zM364 696q27 0 41 36q5 13 11.5 15.5t19.5 -2.5l34 -15q13 -5 16 -12t-2 -20q-36 -91 -113 -91q-43 0 -85 26q-7 4 -19 11t-16.5 9.5t-12 5t-14.5 2.5q-12 0 -23.5 -10.5t-17.5 -25.5q-5 -13 -11 -15.5t-20 2.5l-33 15q-14 5 -17 12t3 20q36 91 113 91
q42 0 85 -27q6 -4 18.5 -11t16.5 -9t11.5 -4.5t14.5 -2.5z" />
    <glyph glyph-name="Umacron" unicode="&#x16a;" horiz-adv-x="724" 
d="M362 -13q-129 0 -213.5 79t-84.5 222v388q0 14 5 19t19 5h94q14 0 19 -5t5 -19v-383q0 -183 156 -183t156 183v383q0 14 5 19t19 5h94q14 0 19 -5t5 -19v-388q0 -143 -84.5 -222t-213.5 -79zM484 810h-243q-14 0 -19 5t-5 19v46q0 14 5 19t19 5h243q14 0 19 -5t5 -19v-46
q0 -14 -5 -19t-19 -5z" />
    <glyph glyph-name="umacron" unicode="&#x16b;" 
d="M408 74l17 -50q7 -14 12.5 -19t15.5 -5h42q14 0 19 5t5 19v229v232q0 14 -5 19t-19 5h-85q-14 0 -19 -5t-5 -19v-234q0 -143 -96 -143q-49 0 -71.5 34t-22.5 108v235q0 14 -5 19t-19 5h-85q-14 0 -19 -5t-5 -19v-263q0 -126 51 -179.5t142 -53.5q36 0 67 14t47.5 29.5
t37.5 41.5zM414 619h-243q-14 0 -19 5t-5 19v46q0 14 5 19t19 5h243q14 0 19 -5t5 -19v-46q0 -14 -5 -19t-19 -5z" />
    <glyph glyph-name="Ubreve" unicode="&#x16c;" horiz-adv-x="724" 
d="M362 -13q-129 0 -213.5 79t-84.5 222v388q0 14 5 19t19 5h94q14 0 19 -5t5 -19v-383q0 -183 156 -183t156 183v383q0 14 5 19t19 5h94q14 0 19 -5t5 -19v-388q0 -143 -84.5 -222t-213.5 -79zM362 786q-114 0 -154 90q-13 31 5 40l40 21q19 10 28 -9q14 -32 29.5 -45
t51.5 -13t51 12.5t31 45.5q9 19 28 9l40 -21q17 -9 4 -40q-40 -90 -154 -90z" />
    <glyph glyph-name="ubreve" unicode="&#x16d;" 
d="M408 74l17 -50q7 -14 12.5 -19t15.5 -5h42q14 0 19 5t5 19v229v232q0 14 -5 19t-19 5h-85q-14 0 -19 -5t-5 -19v-234q0 -143 -96 -143q-49 0 -71.5 34t-22.5 108v235q0 14 -5 19t-19 5h-85q-14 0 -19 -5t-5 -19v-263q0 -126 51 -179.5t142 -53.5q36 0 67 14t47.5 29.5
t37.5 41.5zM294 595q-114 0 -154 90q-13 31 5 40l40 21q19 10 28 -9q14 -32 29.5 -45t51.5 -13t51 12.5t31 45.5q9 19 28 9l40 -21q17 -9 4 -40q-40 -90 -154 -90z" />
    <glyph glyph-name="Uring" unicode="&#x16e;" horiz-adv-x="724" 
d="M362 -13q-129 0 -213.5 79t-84.5 222v388q0 14 5 19t19 5h94q14 0 19 -5t5 -19v-383q0 -183 156 -183t156 183v383q0 14 5 19t19 5h94q14 0 19 -5t5 -19v-388q0 -143 -84.5 -222t-213.5 -79zM362 765q-48 0 -80.5 33t-32.5 81t32.5 80.5t80.5 32.5q47 0 80 -32.5
t33 -80.5t-33 -81t-80 -33zM362 829q20 0 32 15t12 35t-11.5 34.5t-32.5 14.5t-33 -15t-12 -34q0 -20 12 -35t33 -15z" />
    <glyph glyph-name="uring" unicode="&#x16f;" 
d="M408 74l17 -50q7 -14 12.5 -19t15.5 -5h42q14 0 19 5t5 19v229v232q0 14 -5 19t-19 5h-85q-14 0 -19 -5t-5 -19v-234q0 -143 -96 -143q-49 0 -71.5 34t-22.5 108v235q0 14 -5 19t-19 5h-85q-14 0 -19 -5t-5 -19v-263q0 -126 51 -179.5t142 -53.5q36 0 67 14t47.5 29.5
t37.5 41.5zM294 574q-48 0 -80.5 33t-32.5 81t32.5 80.5t80.5 32.5q47 0 80 -32.5t33 -80.5t-33 -81t-80 -33zM294 638q20 0 32 15t12 35t-11.5 34.5t-32.5 14.5t-33 -15t-12 -34q0 -20 12 -35t33 -15z" />
    <glyph glyph-name="Uhungarumlaut" unicode="&#x170;" horiz-adv-x="724" 
d="M362 -13q-129 0 -213.5 79t-84.5 222v388q0 14 5 19t19 5h94q14 0 19 -5t5 -19v-383q0 -183 156 -183t156 183v383q0 14 5 19t19 5h94q14 0 19 -5t5 -19v-388q0 -143 -84.5 -222t-213.5 -79zM385 860l-67 -81q-9 -15 -39 -15h-61q-26 0 -1 28l124 139q16 19 34 -8l14 -21
q11 -21 -4 -42zM539 860l-66 -81q-10 -15 -39 -15h-61q-28 0 -1 28l124 139q16 20 34 -8l13 -21q7 -11 6.5 -20t-10.5 -22z" />
    <glyph glyph-name="uhungarumlaut" unicode="&#x171;" 
d="M408 74l17 -50q7 -14 12.5 -19t15.5 -5h42q14 0 19 5t5 19v229v232q0 14 -5 19t-19 5h-85q-14 0 -19 -5t-5 -19v-234q0 -143 -96 -143q-49 0 -71.5 34t-22.5 108v235q0 14 -5 19t-19 5h-85q-14 0 -19 -5t-5 -19v-263q0 -126 51 -179.5t142 -53.5q36 0 67 14t47.5 29.5
t37.5 41.5zM322 669l-67 -81q-9 -15 -39 -15h-61q-26 0 -1 28l124 139q16 19 34 -8l14 -21q11 -21 -4 -42zM476 669l-66 -81q-10 -15 -39 -15h-61q-28 0 -1 28l124 139q16 20 34 -8l13 -21q7 -11 6.5 -20t-10.5 -22z" />
    <glyph glyph-name="Uogonek" unicode="&#x172;" horiz-adv-x="724" 
d="M272 -112q0 55 49 102q-114 12 -185.5 89.5t-71.5 208.5v388q0 14 5 19t19 5h94q14 0 19 -5t5 -19v-383q0 -183 156 -183t156 183v383q0 14 5 19t19 5h94q14 0 19 -5t5 -19v-388q0 -133 -74 -211t-189 -88q-52 -35 -52 -78q0 -73 54 -73q11 0 45 2q15 0 20 -3.5t5 -16.5
v-19q0 -13 -5 -17.5t-20 -6.5q-27 -3 -54 -3q-52 0 -85 28.5t-33 85.5z" />
    <glyph glyph-name="uogonek" unicode="&#x173;" horiz-adv-x="634" 
d="M434 11l-26 63q-21 -26 -37.5 -41.5t-47.5 -29.5t-67 -14q-91 0 -142 53.5t-51 179.5v263q0 14 5 19t19 5h85q14 0 19 -5t5 -19v-235q0 -74 22.5 -108t71.5 -34q96 0 96 143v234q0 14 5 19t19 5h85q14 0 19 -5t5 -19v-461q0 -14 -4.5 -19t-16.5 -5q-69 -36 -69 -87
q0 -73 55 -73q7 0 45 2q14 0 19 -3.5t5 -17.5v-18q0 -13 -5 -17.5t-19 -6.5q-27 -3 -54 -3q-53 0 -86 28.5t-33 85.5q0 68 73 118z" />
    <glyph glyph-name="Wcircumflex" unicode="&#x174;" horiz-adv-x="963" 
d="M305 283l-139 393q-4 14 -10.5 19t-20.5 5h-115q-13 0 -15.5 -5t3.5 -19l265 -666q11 -24 17 -24h11q7 0 17 24l164 431l164 -431q10 -24 17 -24h11q6 0 17 24l265 666q6 14 3.5 19t-15.5 5h-115q-14 0 -20.5 -5t-10.5 -19l-139 -393l-151 406q-9 24 -17 24h-18
q-8 0 -17 -24zM453 944h57q17 -1 34 -24l91 -132q15 -24 -10 -24h-52q-23 0 -37 24l-54 88l-55 -88q-13 -24 -36 -24h-53q-25 0 -10 24l92 132q16 23 33 24z" />
    <glyph glyph-name="wcircumflex" unicode="&#x175;" horiz-adv-x="746" 
d="M226 260l-72 229q-6 20 -29 20h-102q-13 0 -15.5 -5.5t3.5 -18.5l159 -471q9 -24 19 -24h7q10 0 22 24l155 312l154 -312q13 -24 22 -24h8q11 0 19 24l159 471q6 13 3.5 18.5t-15.5 5.5h-102q-25 0 -31 -24l-70 -225l-121 239q-2 3 -4.5 7.5t-3.5 6.5t-3.5 4.5t-5 3.5
t-5.5 1h-7q-3 0 -5.5 -1t-4 -2t-4 -4t-3.5 -4.5t-3 -5.5l-3 -6zM345 753h57q17 -1 34 -24l91 -132q15 -24 -10 -24h-52q-23 0 -37 24l-54 88l-55 -88q-13 -24 -36 -24h-53q-25 0 -10 24l92 132q16 23 33 24z" />
    <glyph glyph-name="Ycircumflex" unicode="&#x176;" horiz-adv-x="660" 
d="M8 676l253 -417v-235q0 -14 5.5 -19t19.5 -5h89q14 0 19 5t5 19v235l253 417q15 24 -11 24h-106q-12 0 -17.5 -4.5t-13.5 -19.5l-174 -294l-170 294q-9 14 -15 19t-17 5h-108q-25 0 -12 -24zM302 944h57q17 -1 34 -24l91 -132q15 -24 -10 -24h-52q-23 0 -37 24l-54 88
l-55 -88q-14 -24 -36 -24h-53q-25 0 -10 24l92 132q16 23 33 24z" />
    <glyph glyph-name="ycircumflex" unicode="&#x177;" horiz-adv-x="544" 
d="M273 205l124 280q8 15 13.5 19.5t17.5 4.5h97q13 0 15.5 -5t-3.5 -19l-302 -665q-8 -15 -13.5 -19.5t-17.5 -4.5h-97q-13 0 -15.5 5t3.5 19l107 236l-195 429q-12 24 11 24h97q12 0 18 -5t14 -19l125 -280h1zM246 753h57q17 -1 34 -24l91 -132q15 -24 -10 -24h-52
q-24 0 -37 24l-54 88l-55 -88q-14 -24 -36 -24h-53q-25 0 -10 24l92 132q16 23 33 24z" />
    <glyph glyph-name="Ydieresis" unicode="&#x178;" horiz-adv-x="660" 
d="M8 676l253 -417v-235q0 -14 5.5 -19t19.5 -5h89q14 0 19 5t5 19v235l253 417q15 24 -11 24h-106q-12 0 -17.5 -4.5t-13.5 -19.5l-174 -294l-170 294q-9 14 -15 19t-17 5h-108q-25 0 -12 -24zM161 857q0 27 18.5 46t45.5 19q28 0 47 -19t19 -46q0 -28 -19 -46t-47 -18
q-27 0 -45.5 18t-18.5 46zM370 857q0 27 18 46t45 19q28 0 47 -19t19 -46q0 -28 -19 -46t-47 -18q-27 0 -45 18t-18 46z" />
    <glyph glyph-name="Zacute" unicode="&#x179;" horiz-adv-x="610" 
d="M557 0h-533q-9 0 -9 9v12q0 4 8 18l357 540h-314q-14 0 -19 5.5t-5 18.5v73q0 14 5 19t19 5h521q9 0 9 -9v-12q0 -4 -8 -18l-357 -540h326q14 0 19 -5t5 -19v-73q0 -14 -5 -19t-19 -5zM427 836l-71 -56q-16 -15 -38 -15h-73q-27 0 -2 28l125 137q16 19 34 -8l32 -53
q6 -10 5 -17t-12 -16z" />
    <glyph glyph-name="zacute" unicode="&#x17a;" horiz-adv-x="493" 
d="M438 0h-406q-9 0 -9 9v10q0 7 8 20l236 353h-198q-14 0 -19.5 5.5t-5.5 19.5v68q0 14 5.5 19t19.5 5h391q9 0 9 -9v-10q0 -7 -8 -20l-231 -354h208q14 0 19 -5t5 -19v-68q0 -14 -5 -19t-19 -5zM371 645l-71 -56q-17 -15 -38 -15h-73q-27 0 -2 28l125 137q16 19 34 -8
l32 -53q6 -10 5 -17t-12 -16z" />
    <glyph glyph-name="Zdotaccent" unicode="&#x17b;" horiz-adv-x="610" 
d="M557 0h-533q-9 0 -9 9v12q0 4 8 18l357 540h-314q-14 0 -19 5.5t-5 18.5v73q0 14 5 19t19 5h521q9 0 9 -9v-12q0 -4 -8 -18l-357 -540h326q14 0 19 -5t5 -19v-73q0 -14 -5 -19t-19 -5zM236 856q0 33 22.5 56.5t55.5 23.5t56.5 -23.5t23.5 -56.5t-23.5 -56t-56.5 -23
t-55.5 23t-22.5 56z" />
    <glyph glyph-name="zdotaccent" unicode="&#x17c;" horiz-adv-x="493" 
d="M438 0h-406q-9 0 -9 9v10q0 7 8 20l236 353h-198q-14 0 -19.5 5.5t-5.5 19.5v68q0 14 5.5 19t19.5 5h391q9 0 9 -9v-10q0 -7 -8 -20l-231 -354h208q14 0 19 -5t5 -19v-68q0 -14 -5 -19t-19 -5zM179 665q0 33 22.5 56.5t55.5 23.5t56.5 -23.5t23.5 -56.5t-23.5 -56
t-56.5 -23t-55.5 23t-22.5 56z" />
    <glyph glyph-name="Zcaron" unicode="&#x17d;" horiz-adv-x="610" 
d="M557 0h-533q-9 0 -9 9v12q0 4 8 18l357 540h-314q-14 0 -19 5.5t-5 18.5v73q0 14 5 19t19 5h521q9 0 9 -9v-12q0 -4 -8 -18l-357 -540h326q14 0 19 -5t5 -19v-73q0 -14 -5 -19t-19 -5zM335 764h-57q-17 1 -33 24l-92 132q-15 24 10 24h53q22 0 36 -24l55 -88l54 88
q13 24 37 24h52q25 0 10 -24l-91 -132q-17 -23 -34 -24z" />
    <glyph glyph-name="zcaron" unicode="&#x17e;" horiz-adv-x="493" 
d="M438 0h-406q-9 0 -9 9v10q0 7 8 20l236 353h-198q-14 0 -19.5 5.5t-5.5 19.5v68q0 14 5.5 19t19.5 5h391q9 0 9 -9v-10q0 -7 -8 -20l-231 -354h208q14 0 19 -5t5 -19v-68q0 -14 -5 -19t-19 -5zM282 573h-57q-17 1 -33 24l-92 132q-15 24 10 24h53q23 0 36 -24l55 -88
l54 88q14 24 37 24h52q25 0 10 -24l-91 -132q-17 -23 -34 -24z" />
    <glyph glyph-name="longs" unicode="&#x17f;" horiz-adv-x="419" 
d="M98 507v31q0 106 50.5 164.5t148.5 58.5q57 0 96 -24q10 -7 12.5 -12.5t0.5 -18.5l-11 -60q-3 -18 -9 -20.5t-22 6.5q-21 10 -52 10q-81 0 -81 -109v-509q0 -14 -5 -19t-19 -5h-85q-14 0 -19 5t-5 19v378h-55q-14 0 -19 5t-5 19v57q0 14 5 19t19 5h55z" />
    <glyph glyph-name="florin" unicode="&#x192;" horiz-adv-x="486" 
d="M295 402v-415q0 -108 -49.5 -165.5t-142.5 -57.5q-58 0 -99 26q-10 7 -12 12t0 18l11 61q2 18 8 20.5t22 -6.5q23 -12 56 -12q73 0 73 109v410h-88q-14 0 -19 5t-5 19v57q0 14 5 19t19 5h88v31q0 106 50.5 164.5t148.5 58.5q58 0 99 -26q16 -10 13 -30l-11 -61
q-3 -18 -9 -20.5t-22 6.5q-22 12 -55 12q-81 0 -81 -109v-26h140q14 0 19 -5t5 -19v-57q0 -14 -5 -19t-19 -5h-140z" />
    <glyph glyph-name="Aringacute" unicode="&#x1fa;" horiz-adv-x="743" 
d="M373 475h-2l-100 -210h202zM393 690l344 -666q4 -9 -0.5 -16.5t-14.5 -7.5h-111q-12 0 -17.5 4.5t-13.5 19.5l-59 120h-298l-60 -120q-11 -24 -31 -24h-111q-10 0 -14.5 7.5t-0.5 16.5l345 666l3 6t3 5.5t2.5 4t2.5 4t2 2.5t2.5 1.5t3.5 0.5h3q2 0 4 -1t4 -3.5t3.5 -4.5
t4 -7t4.5 -8zM371 765q-48 0 -80.5 33t-32.5 81t32.5 80.5t80.5 32.5q47 0 80 -32.5t33 -80.5t-33 -81t-80 -33zM371 829q20 0 32 15t12 35t-11.5 34.5t-32.5 14.5t-33 -15t-12 -34q0 -20 12 -35t33 -15zM490 1108l-71 -56q-17 -15 -38 -15h-73q-27 0 -2 28l125 137
q16 19 34 -8l32 -53q6 -10 5 -17t-12 -16z" />
    <glyph glyph-name="aringacute" unicode="&#x1fb;" horiz-adv-x="565" 
d="M123 392q-13 -2 -18 3t-8 20l-15 57q-7 24 14 29q17 4 73.5 11.5t102.5 7.5q74 0 121 -15.5t70.5 -49.5t31.5 -74.5t8 -104.5v-252q0 -14 -5 -19t-19 -5h-50q-9 0 -14.5 5t-11.5 19l-9 36q-20 -19 -37 -31.5t-56 -26t-86 -13.5q-71 0 -123 43.5t-52 123.5q0 78 54 120
t135 42q74 0 141 -23q0 61 -21 86t-83 25q-73 0 -143 -14zM263 224q-47 0 -68.5 -19.5t-21.5 -48.5q0 -25 21 -46t64 -21q56 0 112 61v53q-70 21 -107 21zM282 574q-48 0 -80.5 33t-32.5 81t32.5 80.5t80.5 32.5q47 0 80 -32.5t33 -80.5t-33 -81t-80 -33zM282 638
q20 0 32 15t12 35t-11.5 34.5t-32.5 14.5t-33 -15t-12 -34q0 -20 12 -35t33 -15zM396 924l-71 -56q-16 -15 -38 -15h-73q-27 0 -2 28l125 137q16 19 34 -8l32 -53q6 -10 5 -17t-12 -16z" />
    <glyph glyph-name="AEacute" unicode="&#x1fc;" horiz-adv-x="993" 
d="M446 0q-14 0 -19 5t-5 19v120h-192l-67 -120q-10 -24 -31 -24h-111q-10 0 -14.5 7.5t-0.5 16.5l375 649q18 25 24 27h505q14 0 19 -5t5 -19v-73q0 -14 -5 -19t-19 -5h-334v-166h309q14 0 19 -5t5 -19v-73q0 -14 -5 -19t-19 -5h-309v-171h334q14 0 19 -5t5 -19v-73
q0 -14 -5 -19t-19 -5h-464zM422 495l-127 -230h127v230zM683 836l-71 -56q-16 -15 -38 -15h-73q-27 0 -2 28l125 137q16 19 34 -8l32 -53q6 -10 5 -17t-12 -16z" />
    <glyph glyph-name="aeacute" unicode="&#x1fd;" horiz-adv-x="918" 
d="M379 295v20q-3 50 -26.5 70.5t-82.5 20.5q-73 0 -143 -14q-21 -3 -27 22l-14 58q-4 13 -1 19.5t15 9.5q17 4 75.5 11.5t104.5 7.5q58 0 95 -14.5t71 -55.5q82 70 189 70q61 0 110 -25.5t78.5 -67t44.5 -90t15 -99.5v-4q0 -12 -4.5 -17.5t-17.5 -5.5h-345v-16
q15 -40 49.5 -66t76.5 -26q65 0 127 32q15 7 22 7t13 -9l34 -42q15 -20 4 -31q-34 -34 -90.5 -52.5t-116.5 -18.5q-119 0 -189 101q-34 -36 -97.5 -68.5t-132.5 -32.5q-72 0 -123.5 42t-51.5 122t51 122.5t131 42.5q30 0 79 -6.5t77 -16.5zM379 150v53q-68 21 -123 21
q-47 0 -71 -19.5t-24 -48.5q0 -26 19 -46.5t62 -20.5q32 0 73.5 18t63.5 43zM520 319v-22h227q-7 48 -34.5 81t-80.5 33q-84 0 -112 -92zM555 645l-71 -56q-16 -15 -38 -15h-73q-27 0 -2 28l125 137q16 19 34 -8l32 -53q6 -10 5 -17t-12 -16z" />
    <glyph glyph-name="Oslashacute" unicode="&#x1fe;" horiz-adv-x="807" 
d="M44 350q0 149 105.5 256t253.5 107q61 0 125 -23l17 33q9 20 30 20h43q34 0 22 -25l-36 -68q70 -50 114.5 -127.5t44.5 -172.5q0 -149 -106 -256t-254 -107q-67 0 -130 26l-19 -36q-9 -20 -30 -20h-43q-33 0 -21 24l37 72q-71 51 -112 129t-41 168zM619 350
q0 107 -76 183l-212 -409q36 -14 72 -14q97 0 156.5 72.5t59.5 167.5zM188 350q0 -100 72 -178l210 407q-37 11 -67 11q-95 0 -155.5 -72.5t-59.5 -167.5zM531 836l-71 -56q-16 -15 -38 -15h-73q-27 0 -2 28l125 137q16 19 34 -8l32 -53q6 -10 5 -17t-12 -16z" />
    <glyph glyph-name="oslashacute" unicode="&#x1ff;" horiz-adv-x="612" 
d="M35 254q0 110 78.5 188t187.5 78q45 0 81 -14l14 28q11 20 31 20h43q33 0 21 -24l-33 -63q50 -37 79 -93t29 -120q0 -110 -78 -187.5t-187 -77.5q-38 0 -84 13l-14 -27q-9 -20 -31 -20h-42q-34 0 -21 24l31 64q-48 36 -76.5 92t-28.5 119zM301 105q55 0 93.5 43t38.5 106
q0 54 -36 96l-124 -240q12 -5 28 -5zM168 254q0 -51 33 -95l124 238q-14 4 -24 4q-55 0 -94 -42.5t-39 -104.5zM413 645l-71 -56q-16 -15 -38 -15h-73q-27 0 -2 28l125 137q16 19 34 -8l32 -53q6 -10 5 -17t-12 -16z" />
    <glyph glyph-name="uni0218" unicode="&#x218;" horiz-adv-x="640" 
d="M331 -252h-4q-35 1 -59 25.5t-24 59.5q0 36 24.5 61.5t60.5 25.5q41 0 66.5 -31t25.5 -84q0 -70 -43 -128.5t-105 -87.5q-10 -5 -15 2l-24 37q-4 9 5 15q76 47 92 105zM329 588q-133 0 -133 -96q0 -41 36 -57t122 -26q50 -6 88 -17t74.5 -33t56.5 -61.5t20 -94.5
q0 -89 -69 -151.5t-193 -62.5q-163 0 -272 75q-11 8 -11.5 15.5t6.5 19.5l35 59q13 23 33 11q89 -57 199 -57q134 0 134 84q0 46 -38.5 65t-126.5 30q-232 28 -232 196q0 37 14 74t43 71.5t82 56.5t122 22q73 0 128 -18t118 -57q11 -7 11.5 -15t-6.5 -19l-35 -59
q-13 -24 -33 -12q-47 32 -86 44.5t-87 12.5z" />
    <glyph glyph-name="uni0219" unicode="&#x219;" horiz-adv-x="512" 
d="M266 -252h-3q-35 1 -59.5 25.5t-24.5 59.5q0 36 24.5 61.5t60.5 25.5q41 0 66.5 -31t25.5 -84q0 -70 -43 -128.5t-105 -87.5q-10 -5 -15 2l-23 37q-5 9 4 15q76 47 92 105zM251 92q47 0 72.5 15t25.5 40q0 20 -26.5 31t-83.5 19q-92 12 -144 47t-52 110t57 120.5
t150 45.5q97 0 194 -57q12 -7 12.5 -15t-6.5 -19l-25 -43q-8 -14 -13 -16.5t-19 4.5q-66 43 -135 43q-89 0 -89 -55q0 -22 26 -32.5t84 -17.5q92 -12 143.5 -46.5t51.5 -110.5q0 -75 -58.5 -120.5t-155.5 -45.5q-112 0 -208 65q-11 7 -11.5 15t6.5 19l25 43q8 14 13 17
t20 -5q67 -51 146 -51z" />
    <glyph glyph-name="uni021A" unicode="&#x21a;" horiz-adv-x="626" 
d="M310 -252h-4q-35 1 -59 25.5t-24 59.5q0 36 24.5 61.5t60.5 25.5q41 0 66.5 -31t25.5 -84q0 -70 -43 -128.5t-105 -87.5q-10 -5 -15 2l-24 37q-5 9 5 15q75 47 92 105zM34 700h557q14 0 19.5 -5t5.5 -19v-79q0 -14 -5.5 -19t-19.5 -5h-207v-549q0 -14 -5 -19t-19 -5h-94
q-14 0 -19 5t-5 19v549h-208q-14 0 -19 5t-5 19v79q0 14 5 19t19 5z" />
    <glyph glyph-name="uni021B" unicode="&#x21b;" horiz-adv-x="444" 
d="M204 -252h-4q-35 1 -59 25.5t-24 59.5q0 36 24.5 61.5t60.5 25.5q41 0 66.5 -31t25.5 -84q0 -70 -43 -128.5t-105 -87.5q-10 -5 -15 2l-24 37q-4 9 5 15q76 47 92 105zM393 14q-41 -25 -98 -25q-98 0 -148.5 58t-50.5 163v194h-30q-14 0 -19.5 5t-5.5 19v57q0 14 5.5 19
t19.5 5h30v95q0 14 5 19t19 5h84q14 0 19.5 -5t5.5 -19v-95h140q14 0 19 -5t5 -19v-57q0 -14 -5 -19t-19 -5h-140v-187q0 -109 81 -109q32 0 54 11q16 9 22 6.5t9 -20.5l11 -60q2 -13 -0.5 -18.5t-12.5 -12.5z" />
    <glyph glyph-name="circumflex" unicode="&#x2c6;" horiz-adv-x="397" 
d="M170 753h57q17 -1 34 -24l91 -132q15 -24 -10 -24h-52q-24 0 -37 24l-54 88l-55 -88q-14 -24 -36 -24h-53q-25 0 -10 24l92 132q16 23 33 24z" />
    <glyph glyph-name="caron" unicode="&#x2c7;" horiz-adv-x="397" 
d="M227 573h-57q-17 1 -33 24l-92 132q-15 24 10 24h53q22 0 36 -24l55 -88l54 88q13 24 37 24h52q25 0 10 -24l-91 -132q-17 -23 -34 -24z" />
    <glyph glyph-name="uni02C9" unicode="&#x2c9;" horiz-adv-x="396" 
d="M320 619h-243q-14 0 -19 5t-5 19v46q0 14 5 19t19 5h243q14 0 19 -5t5 -19v-46q0 -14 -5 -19t-19 -5z" />
    <glyph glyph-name="breve" unicode="&#x2d8;" horiz-adv-x="385" 
d="M192 595q-114 0 -154 90q-13 31 5 40l40 21q19 10 28 -9q14 -32 29.5 -45t51.5 -13t51 12.5t31 45.5q9 19 28 9l40 -21q17 -9 4 -40q-40 -90 -154 -90z" />
    <glyph glyph-name="dotaccent" unicode="&#x2d9;" horiz-adv-x="227" 
d="M35 665q0 33 22.5 56.5t55.5 23.5t56.5 -23.5t23.5 -56.5t-23.5 -56t-56.5 -23t-55.5 23t-22.5 56z" />
    <glyph glyph-name="ring" unicode="&#x2da;" horiz-adv-x="302" 
d="M151 574q-48 0 -80.5 33t-32.5 81t32.5 80.5t80.5 32.5q47 0 80 -32.5t33 -80.5t-33 -81t-80 -33zM151 638q20 0 32 15t12 35t-11.5 34.5t-32.5 14.5t-33 -15t-12 -34q0 -20 12 -35t33 -15z" />
    <glyph glyph-name="ogonek" unicode="&#x2db;" horiz-adv-x="260" 
d="M109 11l66 -11q-23 -10 -47 -34t-24 -53q0 -73 55 -73q11 0 45 2q15 0 19.5 -3.5t4.5 -17.5v-18q0 -13 -4.5 -17.5t-19.5 -6.5q-27 -3 -54 -3q-52 0 -85 28.5t-33 85.5q0 72 77 121z" />
    <glyph glyph-name="tilde" unicode="&#x2dc;" horiz-adv-x="452" 
d="M296 696q27 0 41 36q5 13 11.5 15.5t19.5 -2.5l34 -15q13 -5 16 -12t-2 -20q-36 -91 -113 -91q-43 0 -85 26q-7 4 -19 11t-16.5 9.5t-12 5t-14.5 2.5q-12 0 -23.5 -10.5t-17.5 -25.5q-5 -13 -11 -15.5t-20 2.5l-33 15q-14 5 -17 12t3 20q36 91 113 91q42 0 85 -27
q6 -4 18.5 -11t16.5 -9t11.5 -4.5t14.5 -2.5z" />
    <glyph glyph-name="hungarumlaut" unicode="&#x2dd;" horiz-adv-x="404" 
d="M213 669l-67 -81q-9 -15 -39 -15h-61q-26 0 -1 28l124 139q16 19 34 -8l14 -21q11 -21 -4 -42zM367 669l-66 -81q-10 -15 -39 -15h-61q-28 0 -1 28l124 139q16 20 34 -8l13 -21q7 -11 6.5 -20t-10.5 -22z" />
    <glyph glyph-name="uni0394" unicode="&#x394;" horiz-adv-x="763" 
d="M741 0h-718q-14 0 -17 5.5t4 21.5l348 659q2 4 5 9.5t4.5 7.5t3.5 5t4 4t5 1h3q3 0 5 -1t4 -4t3.5 -5t4.5 -7.5t5 -9.5l349 -659q7 -16 4 -21.5t-17 -5.5zM549 121l-167 326l-167 -326h334z" />
    <glyph glyph-name="uni03A9" unicode="&#x3a9;" horiz-adv-x="850" 
d="M641 350q0 96 -59.5 168t-156.5 72q-95 0 -155.5 -72.5t-60.5 -167.5q1 -93 86 -204q38 -57 38 -82v-40q0 -14 -5 -19t-19 -5h-243q-14 0 -19 5t-5 19v73q0 14 5 19t19 5h114q-59 44 -87 108t-28 121q0 149 106 256t254 107t254 -107t106 -256q0 -56 -30 -120.5
t-89 -108.5h119q14 0 19 -5t5 -19v-73q0 -14 -5 -19t-19 -5h-248q-14 0 -19 5t-5 19v40q0 25 38 82q45 59 67.5 105t22.5 99z" />
    <glyph glyph-name="uni03BC" unicode="&#x3bc;" horiz-adv-x="616" 
d="M440 24l-17 50q-26 -29 -40.5 -43t-44.5 -28t-66 -14q-35 0 -58 17v-186q0 -14 -5 -19t-19 -5h-85q-14 0 -19 5t-5 19v665q0 14 5 19t19 5h85q14 0 19 -5t5 -19v-235q0 -72 20 -107t71 -35q96 0 96 147v230q0 13 5.5 18.5t18.5 5.5h86q14 0 19 -5t5 -19v-461
q0 -14 -5 -19t-19 -5h-42q-7 0 -12 3t-8 7t-9 14z" />
    <glyph glyph-name="pi" unicode="&#x3c0;" horiz-adv-x="752" 
d="M36 509h642q14 0 19 -5.5t5 -18.5v-73q0 -14 -5 -19t-19 -5h-141v-171q0 -109 81 -109q32 0 55 11q16 9 22 6.5t8 -20.5l11 -60q4 -21 -12 -31q-39 -25 -98 -25q-98 0 -149 58t-51 163v178h-129v-364q0 -14 -5 -19t-19 -5h-85q-14 0 -19 5t-5 19v364h-106q-14 0 -19.5 5
t-5.5 19v73q0 14 5.5 19t19.5 5z" />
    <glyph glyph-name="Wgrave" unicode="&#x1e80;" horiz-adv-x="963" 
d="M305 283l-139 393q-4 14 -10.5 19t-20.5 5h-115q-13 0 -15.5 -5t3.5 -19l265 -666q11 -24 17 -24h11q7 0 17 24l164 431l164 -431q10 -24 17 -24h11q6 0 17 24l265 666q6 14 3.5 19t-15.5 5h-115q-14 0 -20.5 -5t-10.5 -19l-139 -393l-151 406q-9 24 -17 24h-18
q-8 0 -17 -24zM408 780l-71 56q-11 9 -12 16t5 17l32 53q18 27 34 8l125 -137q25 -28 -2 -28h-73q-22 0 -38 15z" />
    <glyph glyph-name="wgrave" unicode="&#x1e81;" horiz-adv-x="746" 
d="M226 260l-72 229q-6 20 -29 20h-102q-13 0 -15.5 -5.5t3.5 -18.5l159 -471q9 -24 19 -24h7q10 0 22 24l155 312l154 -312q13 -24 22 -24h8q11 0 19 24l159 471q6 13 3.5 18.5t-15.5 5.5h-102q-25 0 -31 -24l-70 -225l-121 239q-2 3 -4.5 7.5t-3.5 6.5t-3.5 4.5t-5 3.5
t-5.5 1h-7q-3 0 -5.5 -1t-4 -2t-4 -4t-3.5 -4.5t-3 -5.5l-3 -6zM300 589l-71 56q-11 9 -12 16t5 17l32 53q18 27 34 8l125 -137q25 -28 -2 -28h-73q-22 0 -38 15z" />
    <glyph glyph-name="Wacute" unicode="&#x1e82;" horiz-adv-x="963" 
d="M166 676l139 -393l151 406q9 24 17 24h18q8 0 17 -24l151 -406l139 393q4 14 10.5 19t20.5 5h115q13 0 15.5 -5t-3.5 -19l-265 -666q-11 -24 -17 -24h-11q-7 0 -17 24l-164 431l-164 -431q-10 -24 -17 -24h-11q-6 0 -17 24l-265 666q-6 14 -3.5 19t15.5 5h115
q14 0 20.5 -5t10.5 -19zM611 836l-71 -56q-16 -15 -38 -15h-73q-27 0 -2 28l125 137q16 19 34 -8l32 -53q6 -10 5 -17t-12 -16z" />
    <glyph glyph-name="wacute" unicode="&#x1e83;" horiz-adv-x="746" 
d="M154 489l72 -229l121 239l3 6t3 5.5t3.5 4.5t4 4t4 2t5.5 1h7q3 0 5.5 -1t5 -3.5t3.5 -4.5t3.5 -6.5t4.5 -7.5l121 -239l70 225q6 24 31 24h102q13 0 15.5 -5.5t-3.5 -18.5l-159 -471q-8 -24 -19 -24h-8q-9 0 -22 24l-154 312l-155 -312q-12 -24 -22 -24h-7q-10 0 -19 24
l-159 471q-6 13 -3.5 18.5t15.5 5.5h102q23 0 29 -20zM498 645l-71 -56q-17 -15 -38 -15h-73q-27 0 -2 28l125 137q16 19 34 -8l32 -53q6 -10 5 -17t-12 -16z" />
    <glyph glyph-name="Wdieresis" unicode="&#x1e84;" horiz-adv-x="963" 
d="M305 283l-139 393q-4 14 -10.5 19t-20.5 5h-115q-13 0 -15.5 -5t3.5 -19l265 -666q11 -24 17 -24h11q7 0 17 24l164 431l164 -431q10 -24 17 -24h11q6 0 17 24l265 666q6 14 3.5 19t-15.5 5h-115q-14 0 -20.5 -5t-10.5 -19l-139 -393l-151 406q-9 24 -17 24h-18
q-8 0 -17 -24zM316 857q0 27 18.5 46t45.5 19q28 0 47 -19t19 -46q0 -28 -19 -46t-47 -18q-27 0 -45.5 18t-18.5 46zM525 857q0 27 18 46t45 19q28 0 47 -19t19 -46q0 -28 -19 -46t-47 -18q-27 0 -45 18t-18 46z" />
    <glyph glyph-name="wdieresis" unicode="&#x1e85;" horiz-adv-x="746" 
d="M226 260l-72 229q-6 20 -29 20h-102q-13 0 -15.5 -5.5t3.5 -18.5l159 -471q9 -24 19 -24h7q10 0 22 24l155 312l154 -312q13 -24 22 -24h8q11 0 19 24l159 471q6 13 3.5 18.5t-15.5 5.5h-102q-25 0 -31 -24l-70 -225l-121 239q-2 3 -4.5 7.5t-3.5 6.5t-3.5 4.5t-5 3.5
t-5.5 1h-7q-3 0 -5.5 -1t-4 -2t-4 -4t-3.5 -4.5t-3 -5.5l-3 -6zM206 666q0 27 18.5 46t45.5 19q28 0 47 -19t19 -46q0 -28 -19 -46t-47 -18q-27 0 -45.5 18t-18.5 46zM415 666q0 27 18 46t45 19q28 0 47 -19t19 -46q0 -28 -19 -46t-47 -18q-27 0 -45 18t-18 46z" />
    <glyph glyph-name="Ygrave" unicode="&#x1ef2;" horiz-adv-x="660" 
d="M8 676l253 -417v-235q0 -14 5.5 -19t19.5 -5h89q14 0 19 5t5 19v235l253 417q15 24 -11 24h-106q-12 0 -17.5 -4.5t-13.5 -19.5l-174 -294l-170 294q-9 14 -15 19t-17 5h-108q-25 0 -12 -24zM303 780l-71 56q-11 9 -12 16t5 17l32 53q18 27 34 8l125 -137q25 -28 -2 -28
h-73q-21 0 -38 15z" />
    <glyph glyph-name="ygrave" unicode="&#x1ef3;" horiz-adv-x="544" 
d="M273 205l124 280q8 15 13.5 19.5t17.5 4.5h97q13 0 15.5 -5t-3.5 -19l-302 -665q-8 -15 -13.5 -19.5t-17.5 -4.5h-97q-13 0 -15.5 5t3.5 19l107 236l-195 429q-12 24 11 24h97q12 0 18 -5t14 -19l125 -280h1zM246 589l-71 56q-11 9 -12 16t5 17l32 53q18 27 34 8
l125 -137q25 -28 -2 -28h-73q-22 0 -38 15z" />
    <glyph glyph-name="endash" unicode="&#x2013;" horiz-adv-x="428" 
d="M356 231h-283q-14 0 -19.5 5t-5.5 19v56q0 14 5.5 19t19.5 5h283q14 0 19 -5t5 -19v-56q0 -13 -5 -18.5t-19 -5.5z" />
    <glyph glyph-name="emdash" unicode="&#x2014;" horiz-adv-x="597" 
d="M525 231h-452q-14 0 -19.5 5t-5.5 19v56q0 14 5.5 19t19.5 5h452q14 0 19 -5t5 -19v-56q0 -13 -5.5 -18.5t-18.5 -5.5z" />
    <glyph glyph-name="quoteleft" unicode="&#x2018;" horiz-adv-x="289" 
d="M146 551h4q35 -1 59 -25.5t24 -59.5q0 -36 -24.5 -61.5t-60.5 -25.5q-41 0 -66.5 31t-25.5 84q0 70 43 128.5t105 87.5q10 5 15 -3l24 -36q4 -10 -5 -15q-77 -49 -92 -105z" />
    <glyph glyph-name="quoteright" unicode="&#x2019;" horiz-adv-x="289" 
d="M143 541h-4q-35 1 -59 25.5t-24 59.5q0 36 24.5 61.5t60.5 25.5q41 0 66.5 -31t25.5 -84q0 -70 -43 -128.5t-105 -87.5q-10 -5 -15 2l-24 37q-4 9 5 15q77 49 92 105z" />
    <glyph glyph-name="quotesinglbase" unicode="&#x201a;" horiz-adv-x="289" 
d="M143 -11h-4q-35 1 -59 25.5t-24 59.5q0 36 24.5 61.5t60.5 25.5q41 0 66.5 -31t25.5 -84q0 -71 -43 -129.5t-105 -86.5q-10 -5 -15 2l-24 37q-4 8 5 15q76 47 92 105z" />
    <glyph glyph-name="quotedblleft" unicode="&#x201c;" horiz-adv-x="511" 
d="M368 551h4q35 -1 59 -25.5t24 -59.5q0 -36 -24.5 -61.5t-60.5 -25.5q-41 0 -66.5 31t-25.5 84q0 70 43 128.5t105 87.5q10 5 15 -2l24 -37q4 -9 -5 -15q-76 -47 -92 -105zM146 551h4q35 -1 59 -25.5t24 -59.5q0 -36 -24.5 -61.5t-60.5 -25.5q-41 0 -66.5 31t-25.5 84
q0 70 43 128.5t105 87.5q10 5 15 -2l24 -37q4 -9 -5 -15q-76 -47 -92 -105z" />
    <glyph glyph-name="quotedblright" unicode="&#x201d;" horiz-adv-x="511" 
d="M143 541h-4q-35 1 -59 25.5t-24 59.5q0 36 24.5 61.5t60.5 25.5q41 0 66.5 -31t25.5 -84q0 -70 -43 -128.5t-105 -87.5q-10 -5 -15 2l-24 37q-4 9 5 15q77 49 92 105zM365 541h-4q-35 1 -59 25.5t-24 59.5q0 36 24.5 61.5t60.5 25.5q41 0 66.5 -31t25.5 -84
q0 -70 -43 -128.5t-105 -87.5q-10 -5 -15 2l-24 37q-4 9 5 15q77 49 92 105z" />
    <glyph glyph-name="quotedblbase" unicode="&#x201e;" horiz-adv-x="511" 
d="M143 -11h-4q-35 1 -59 25.5t-24 59.5q0 36 24.5 61.5t60.5 25.5q41 0 66.5 -31t25.5 -84q0 -71 -43 -129.5t-105 -86.5q-10 -5 -15 2l-24 37q-4 8 5 15q76 47 92 105zM365 -11h-4q-35 1 -59 25.5t-24 59.5q0 36 24.5 61.5t60.5 25.5q41 0 66.5 -31t25.5 -84
q0 -71 -43 -129.5t-105 -86.5q-10 -5 -15 2l-24 37q-4 8 5 15q76 47 92 105z" />
    <glyph glyph-name="dagger" unicode="&#x2020;" horiz-adv-x="422" 
d="M354 396h-89l-12 -471q0 -14 -5 -19t-19 -5h-37q-14 0 -19 5t-5 19l-12 471h-89q-14 0 -19 5t-5 19v56q0 14 5.5 19t18.5 5h88v176q0 14 5 19t19 5h63q14 0 19.5 -5t5.5 -19v-176h87q14 0 19 -5t5 -19v-56q0 -14 -5 -19t-19 -5z" />
    <glyph glyph-name="daggerdbl" unicode="&#x2021;" horiz-adv-x="425" 
d="M356 108h-88v-183q0 -14 -5 -19t-19 -5h-63q-14 0 -19 5t-5 19v183h-88q-14 0 -19 5.5t-5 19.5v55q0 14 5 19t19 5h88v211h-88q-14 0 -19 5.5t-5 19.5v55q0 14 5 19t19 5h88v149q0 14 5 19t19 5h63q14 0 19 -5t5 -19v-149h88q14 0 19 -5t5 -19v-55q0 -14 -5 -19.5
t-19 -5.5h-88v-211h88q14 0 19 -5t5 -19v-55q0 -14 -5 -19.5t-19 -5.5z" />
    <glyph glyph-name="bullet" unicode="&#x2022;" horiz-adv-x="288" 
d="M35 342q0 46 31 78t77 32t78.5 -32t32.5 -78t-32.5 -77.5t-78.5 -31.5t-77 31.5t-31 77.5z" />
    <glyph glyph-name="ellipsis" unicode="&#x2026;" horiz-adv-x="764" 
d="M56 74q0 36 24.5 61.5t60.5 25.5t61.5 -25.5t25.5 -61.5t-25.5 -60.5t-61.5 -24.5t-60.5 24.5t-24.5 60.5zM296 74q0 36 24.5 61.5t60.5 25.5t61.5 -25.5t25.5 -61.5t-25.5 -60.5t-61.5 -24.5t-60.5 24.5t-24.5 60.5zM536 74q0 36 25 61.5t60 25.5q36 0 61.5 -25.5
t25.5 -61.5t-25.5 -60.5t-61.5 -24.5q-35 0 -60 24.5t-25 60.5z" />
    <glyph glyph-name="perthousand" unicode="&#x2030;" horiz-adv-x="1260" 
d="M205 355q-77 0 -124.5 47t-47.5 132t47.5 132t124.5 47t124.5 -47t47.5 -132t-47.5 -132t-124.5 -47zM205 433q34 0 55 28t21 73t-21 73t-55 28t-54.5 -28t-20.5 -73t20.5 -73t54.5 -28zM720 676l-467 -659q-13 -17 -31 -17h-63q-33 0 -16 24l467 659q13 17 31 17h63
q33 0 16 -24zM658 -2q-77 0 -124.5 47t-47.5 132t47.5 132t124.5 47t124 -46.5t47 -132.5t-47 -132.5t-124 -46.5zM658 76q34 0 54.5 28t20.5 73t-20.5 73t-54.5 28t-55 -28t-21 -73t21 -73t55 -28zM1055 -2q-77 0 -124.5 47t-47.5 132t47.5 132t124.5 47t124 -46.5
t47 -132.5t-47 -132.5t-124 -46.5zM1055 76q34 0 54.5 28t20.5 73t-20.5 73t-54.5 28t-55 -28t-21 -73t21 -73t55 -28z" />
    <glyph glyph-name="guilsinglleft" unicode="&#x2039;" horiz-adv-x="339" 
d="M43 301l162 183q10 10 15.5 11t17.5 -6l52 -30q20 -13 5 -33l-133 -172l133 -172q15 -20 -5 -33l-52 -30q-12 -7 -17.5 -6t-15.5 11l-162 183q-19 21 -19 43v8q0 22 19 43z" />
    <glyph glyph-name="guilsinglright" unicode="&#x203a;" horiz-adv-x="339" 
d="M135 484l162 -183q18 -22 18 -43v-8q0 -21 -18 -43l-162 -183q-17 -17 -34 -5l-52 30q-19 12 -5 33l134 172l-134 172q-14 21 5 33l52 30q17 12 34 -5z" />
    <glyph glyph-name="fraction" unicode="&#x2044;" horiz-adv-x="509" 
d="M476 676l-335 -656q-11 -20 -31 -20h-42q-34 0 -22 24l336 656q9 20 31 20h42q33 0 21 -24z" />
    <glyph glyph-name="uni2070" unicode="&#x2070;" horiz-adv-x="0" 
 />
    <glyph glyph-name="uni2080" unicode="&#x2080;" horiz-adv-x="315" 
 />
    <glyph glyph-name="one.denom" unicode="&#x2081;" horiz-adv-x="194" 
d="M21 266l63 33q19 11 26 11h40q11 0 11 -11v-288q0 -11 -11 -11h-56q-11 0 -11 11v200l-57 -7q-11 0 -11 11v39q0 8 6 12z" />
    <glyph glyph-name="uni2083" unicode="&#x2083;" horiz-adv-x="0" 
 />
    <glyph glyph-name="uni2086" unicode="&#x2086;" horiz-adv-x="0" 
 />
    <glyph glyph-name="uni2088" unicode="&#x2088;" horiz-adv-x="0" 
 />
    <glyph glyph-name="peseta" unicode="&#x20a7;" horiz-adv-x="1544" 
 />
    <glyph glyph-name="Euro" unicode="&#x20ac;" horiz-adv-x="640" 
d="M490 237h-223q22 -55 65 -91t106 -36q52 0 93 19q23 10 31 -14l24 -68q11 -27 -8 -33q-64 -27 -140 -27q-113 0 -199.5 70.5t-119.5 179.5h-81q-14 0 -19 5.5t-5 18.5v13q0 14 5 19.5t19 5.5h67q-5 32 -5 61l1 25h-63q-14 0 -19 5.5t-5 18.5v13q0 14 5 19.5t19 5.5h72
q26 118 115 192t213 74q70 0 140 -27q19 -6 9 -33l-25 -68q-8 -24 -31 -14q-41 19 -93 19q-72 0 -117.5 -39.5t-65.5 -103.5h235q14 0 19.5 -5.5t5.5 -19.5v-13q0 -14 -5.5 -19t-19.5 -5h-245l-1 -25q0 -29 5 -61h241q14 0 19.5 -5.5t5.5 -19.5v-13q0 -14 -5.5 -19t-19.5 -5
z" />
    <glyph glyph-name="uni2113" unicode="&#x2113;" horiz-adv-x="479" 
d="M108 218l-50 -15q-27 -9 -30 14l-3 16q-4 23 13 29q28 8 70 22v207q0 109 35.5 164.5t138.5 55.5q75 0 116 -44.5t38.5 -111.5t-36.5 -145q-30 -58 -80.5 -96t-138.5 -71v-31q0 -83 36 -120.5t110 -37.5q36 0 63 19q15 10 21.5 7t9.5 -21l2 -14q2 -8 1.5 -13.5t-3.5 -8.5
t-10 -8q-41 -26 -99 -26q-97 0 -150.5 60t-53.5 160v9zM343 442q23 51 27.5 96t-17 76.5t-71.5 31.5q-54 0 -77.5 -35.5t-23.5 -119.5v-180q125 52 162 131z" />
    <glyph glyph-name="trademark" unicode="&#x2122;" horiz-adv-x="898" 
d="M23 700h310q13 0 13 -12v-52q0 -13 -13 -13h-112v-297q0 -11 -14 -11h-59q-7 0 -9.5 2t-2.5 9v297h-113q-13 0 -13 13v52q0 12 13 12zM761 516l-124 -195q-11 -14 -15 -14h-6q-4 0 -13 14l-123 193l-22 -186q-1 -6 -2 -8.5t-3.5 -3.5t-8.5 -1h-53q-15 0 -12 13l46 375
q1 5 5 5h4q3 0 7 -5l178 -277l179 277q2 5 7 5h4q4 0 5 -5l46 -375q3 -13 -13 -13h-53q-8 0 -10 2.5t-3 10.5z" />
    <glyph glyph-name="Omega" unicode="&#x2126;" horiz-adv-x="850" 
d="M641 350q0 96 -59.5 168t-156.5 72q-95 0 -155.5 -72.5t-60.5 -167.5q1 -93 86 -204q38 -57 38 -82v-40q0 -14 -5 -19t-19 -5h-243q-14 0 -19 5t-5 19v73q0 14 5 19t19 5h114q-59 44 -87 108t-28 121q0 149 106 256t254 107t254 -107t106 -256q0 -56 -30 -120.5
t-89 -108.5h119q14 0 19 -5t5 -19v-73q0 -14 -5 -19t-19 -5h-248q-14 0 -19 5t-5 19v40q0 25 38 82q45 59 67.5 105t22.5 99z" />
    <glyph glyph-name="estimated" unicode="&#x212e;" horiz-adv-x="789" 
d="M196 521v-131h396v135q-74 104 -197 104q-64 0 -115.5 -30.5t-83.5 -77.5zM730 306h-534v-129q33 -48 84 -78t115 -30q108 0 189 85q11 11 17.5 11t16.5 -11l27 -30q10 -11 10 -18t-10 -17q-106 -103 -250 -103q-148 0 -254 107t-106 257q0 149 106 256t254 107t254 -107
t106 -256v-20q0 -14 -5.5 -19t-19.5 -5z" />
    <glyph glyph-name="oneeighth" unicode="&#x215b;" horiz-adv-x="693" 
d="M537 676l-339 -656q-11 -20 -31 -20h-42q-33 0 -21 24l338 656q11 20 31 20h42q34 0 22 -24zM61 656l64 33q19 11 26 11h39q12 0 12 -11v-288q0 -11 -12 -11h-58q-11 0 -11 11v197l-54 -6q-12 -1 -12 10v42q0 7 6 12zM515 -13q-58 0 -89.5 27t-31.5 67q0 31 18 51t35 26
v2q-7 4 -16 11t-19 23.5t-10 34.5q0 42 28.5 68t84.5 26q57 0 86 -26t29 -68q0 -26 -15.5 -44.5t-29.5 -24.5v-2q17 -6 35 -26t18 -51q0 -40 -32.5 -67t-90.5 -27zM515 134q-55 -10 -55 -49q0 -19 14 -30.5t41 -11.5q28 0 43 11.5t15 30.5q0 39 -58 49zM515 267
q-23 0 -35.5 -11.5t-12.5 -30.5q0 -32 48 -41q50 9 50 41q0 19 -13 30.5t-37 11.5z" />
    <glyph glyph-name="threeeighths" unicode="&#x215c;" horiz-adv-x="735" 
d="M579 676l-339 -656q-9 -20 -30 -20h-43q-33 0 -21 24l339 656q9 20 30 20h43q33 0 21 -24zM558 -13q-58 0 -90 27t-32 67q0 31 18 51t35 26v2q-7 4 -16 11t-19 23.5t-10 34.5q0 42 28.5 68t85.5 26q56 0 85 -26t29 -68q0 -26 -15.5 -44t-28.5 -25v-2q16 -6 34 -26t18 -51
q0 -40 -32 -67t-90 -27zM558 134q-56 -10 -56 -49q0 -19 14.5 -30.5t41.5 -11.5t42 11.5t15 30.5q0 39 -57 49zM558 267q-23 0 -36 -11.5t-13 -30.5q0 -32 49 -41q49 9 49 41q0 19 -13 30.5t-36 11.5zM170 380q-63 0 -110 47q-8 6 1 15l34 37q8 10 17 2q28 -28 58 -28
q22 0 36 9.5t14 23.5q0 29 -50 29h-29q-12 0 -12 11v40q0 13 12 13h29q50 0 50 28q0 14 -14 24t-36 10q-29 0 -58 -29q-8 -7 -17 2l-34 37q-9 9 -1 16q46 46 110 46q46 0 82.5 -24.5t36.5 -71.5t-43 -70v-1q43 -23 43 -70q0 -46 -36.5 -71t-82.5 -25z" />
    <glyph glyph-name="fiveeighths" unicode="&#x215d;" horiz-adv-x="731" 
d="M575 676l-339 -656q-11 -20 -31 -20h-42q-33 0 -21 24l338 656q11 20 31 20h42q34 0 22 -24zM553 -13q-58 0 -89.5 27t-31.5 67q0 31 18 51t35 26v2q-7 4 -16 11t-19 23.5t-10 34.5q0 42 28.5 68t84.5 26q57 0 86 -26t29 -68q0 -26 -15.5 -44.5t-29.5 -24.5v-2
q17 -6 35 -26t18 -51q0 -40 -32.5 -67t-90.5 -27zM553 134q-55 -10 -55 -49q0 -19 14 -30.5t41 -11.5q28 0 43 11.5t15 30.5q0 39 -58 49zM553 267q-23 0 -35.5 -11.5t-12.5 -30.5q0 -32 48 -41q50 9 50 41q0 19 -13 30.5t-37 11.5zM101 700h155q10 0 10 -11v-34
q0 -12 -10 -12h-115l-8 -60h37q118 0 118 -100q0 -52 -34.5 -79t-88.5 -27q-57 0 -106 47q-6 7 2 15l23 25q8 10 15 1q32 -30 66 -30q58 0 58 46q0 45 -57 45h-85q-13 0 -11 11l19 152q2 11 12 11z" />
    <glyph glyph-name="seveneighths" unicode="&#x215e;" horiz-adv-x="672" 
d="M516 676l-339 -656q-9 -20 -30 -20h-43q-33 0 -21 24l339 656q9 20 30 20h43q33 0 21 -24zM495 -13q-58 0 -90 27t-32 67q0 31 18 51t35 26v2q-7 4 -16 11t-19 23.5t-10 34.5q0 42 28.5 68t85.5 26q56 0 85 -26t29 -68q0 -26 -15.5 -44t-28.5 -25v-2q16 -6 34 -26t18 -51
q0 -40 -32 -67t-90 -27zM495 134q-56 -10 -56 -49q0 -19 14.5 -30.5t41.5 -11.5t42 11.5t15 30.5q0 39 -57 49zM495 267q-23 0 -36 -11.5t-13 -30.5q0 -32 49 -41q49 9 49 41q0 19 -13 30.5t-36 11.5zM293 693v-5q0 -5 -4 -12l-155 -275q-6 -11 -17 -11h-46q-6 0 -9 3t-1 8
l131 234h-126q-11 1 -11 11v43q0 11 11 11h219q8 0 8 -7z" />
    <glyph glyph-name="partialdiff" unicode="&#x2202;" horiz-adv-x="622" 
d="M260 457q127 0 175 -79q0 95 -37.5 153.5t-103.5 58.5q-82 0 -147 -62q-12 -10 -18.5 -9t-16.5 12l-50 54q-10 11 -11 17.5t8 16.5q99 94 224 94q79 0 137.5 -30.5t91 -84.5t48 -120t15.5 -146q0 -75 -12.5 -133t-42.5 -108t-86.5 -77t-138.5 -27q-112 0 -182.5 73
t-70.5 178q0 104 62 161.5t156 57.5zM303 106q60 0 91.5 36t31.5 84q0 50 -35 85t-88 35q-50 0 -85.5 -33.5t-35.5 -83.5q0 -54 33 -88.5t88 -34.5z" />
    <glyph glyph-name="Delta" unicode="&#x2206;" horiz-adv-x="762" 
d="M740 0h-718q-14 0 -17 5.5t4 21.5l348 659q2 4 5 9.5t4.5 7.5t3.5 5t4 4t5 1h3q3 0 5 -1t4 -4t3.5 -5t4.5 -7.5t5 -9.5l349 -659q7 -16 4 -21.5t-17 -5.5zM548 121l-167 326l-166 -326h333z" />
    <glyph glyph-name="product" unicode="&#x220f;" horiz-adv-x="658" 
d="M224 579v-555q0 -14 -5 -19t-19 -5h-94q-14 0 -19 5t-5 19v652q0 14 5 19t19 5h446q14 0 19.5 -5t5.5 -19v-652q0 -14 -5.5 -19t-19.5 -5h-93q-14 0 -19 5t-5 19v555h-211z" />
    <glyph glyph-name="summation" unicode="&#x2211;" horiz-adv-x="613" 
d="M415 330l-135 -209h253q14 0 19 -5t5 -19v-73q0 -14 -5 -19t-19 -5h-452q-14 0 -19 5t-5 19l218 324l-218 328q0 14 5 19t19 5h452q14 0 19 -5t5 -19v-73q0 -14 -5 -19t-19 -5h-253l135 -212q10 -20 0 -37z" />
    <glyph glyph-name="minus" unicode="&#x2212;" horiz-adv-x="590" 
d="M516 240h-442q-14 0 -19 5t-5 19v47q0 14 5 19t19 5h442q14 0 19 -5t5 -19v-47q0 -14 -5 -19t-19 -5z" />
    <glyph glyph-name="uni2215" unicode="&#x2215;" horiz-adv-x="522" 
d="M478 676l-335 -656q-11 -20 -31 -20h-42q-33 0 -21 24l335 656q11 20 31 20h42q35 0 21 -24z" />
    <glyph glyph-name="uni2219" unicode="&#x2219;" horiz-adv-x="287" 
d="M48 342q0 40 27.5 68t66.5 28q40 0 68 -28t28 -68t-28 -67t-68 -27q-39 0 -66.5 27t-27.5 67z" />
    <glyph glyph-name="radical" unicode="&#x221a;" horiz-adv-x="705" 
d="M681 572h-121l-277 -560q-2 -3 -4.5 -8t-4 -7t-3.5 -4.5t-4 -3.5t-4 -1h-3q-2 0 -4 1t-4 3.5t-3.5 4.5t-4 7t-4.5 8l-231 473q-12 24 12 24h97q20 0 31 -24l113 -244l211 435q13 24 32 24h176q14 0 19 -5t5 -19v-80q0 -14 -5 -19t-19 -5z" />
    <glyph glyph-name="infinity" unicode="&#x221e;" horiz-adv-x="686" 
d="M653 369q0 -107 -49 -165.5t-125 -58.5q-56 0 -93 33t-49 63h-4q-8 -14 -21 -29.5t-43 -33.5t-63 -18q-78 0 -125.5 52t-47.5 158q0 104 48 156.5t125 52.5q47 0 80.5 -27.5t46.5 -53.5h5q10 30 47.5 63t93.5 33q76 0 125 -58t49 -167zM380 369q22 -107 91 -107
q35 0 57.5 28.5t22.5 78.5t-22.5 79t-57.5 29q-69 0 -91 -108zM134 369q0 -43 22 -67.5t57 -24.5q61 0 78 92q-17 93 -78 93q-35 0 -57 -24.5t-22 -68.5z" />
    <glyph glyph-name="integral" unicode="&#x222b;" horiz-adv-x="474" 
d="M160 -8v498q0 106 50.5 164.5t148.5 58.5q58 0 99 -26q10 -7 12 -12t0 -18l-10 -61q-3 -18 -9 -20.5t-22 6.5q-25 12 -55 12q-82 0 -82 -109v-498q0 -106 -50.5 -164.5t-148.5 -58.5q-57 0 -99 26q-10 7 -12 12t0 18l11 61q2 17 8 19.5t22 -5.5q26 -12 56 -12
q81 0 81 109z" />
    <glyph glyph-name="approxequal" unicode="&#x2248;" horiz-adv-x="562" 
d="M264 354q-2 2 -9.5 7.5t-10 7t-8.5 6t-9 6t-8.5 4t-9.5 3.5t-9 2t-10 1q-24 0 -77 -61q-10 -9 -17 -8.5t-17 10.5l-35 39q-17 18 1 34q38 41 70.5 62.5t73.5 21.5q42 0 101 -46q3 -2 9 -6.5t9 -6.5t8 -5.5t8 -5t7.5 -4t7.5 -4t7.5 -2.5t8.5 -1.5t9 -0.5q25 0 77 60
q17 17 34 -1l35 -39q17 -18 -1 -34q-38 -41 -70.5 -62.5t-73.5 -21.5q-44 0 -101 45zM272 157q-1 1 -8 6t-8 6t-7 5l-7.5 5t-6.5 4t-7.5 4t-7 3t-7.5 2.5t-7 1t-8 0.5q-24 0 -77 -61q-10 -9 -17 -8.5t-17 10.5l-35 38q-17 18 1 35q39 41 71 62t73 21q44 0 101 -45
q41 -31 60 -35q7 -1 14 -1q26 0 76 60q10 10 17.5 9.5t17.5 -10.5l35 -39q17 -18 -2 -34q-39 -41 -71 -62.5t-73 -21.5q-43 0 -100 45z" />
    <glyph glyph-name="notequal" unicode="&#x2260;" horiz-adv-x="577" 
d="M114 24l77 196h-117q-14 0 -19 5t-5 19v56q0 14 5 19t19 5h158l36 92h-194q-14 0 -19 5.5t-5 19.5v55q0 14 5 19t19 5h235l63 160q11 20 31 20h38q24 0 24 -14q-5 -15 -65 -166h103q14 0 19 -5t5 -19v-56q0 -14 -5 -19t-19 -5h-143l-37 -92h180q14 0 19 -5t5 -19v-56
q0 -14 -5 -19t-19 -5h-221l-78 -200q-11 -20 -31 -20h-38q-31 0 -21 24z" />
    <glyph glyph-name="lessequal" unicode="&#x2264;" horiz-adv-x="573" 
d="M106 536l341 147q24 11 24 -10v-80q0 -23 -24 -33l-222 -94l222 -94q24 -10 24 -33v-80q0 -12 -5.5 -14t-18.5 4l-341 147q-23 12 -23 29v82q0 17 23 29zM487 65h-398q-14 0 -19 5t-5 19v61q0 14 5 19.5t19 5.5h398q14 0 19.5 -5.5t5.5 -19.5v-61q0 -14 -5.5 -19
t-19.5 -5z" />
    <glyph glyph-name="greaterequal" unicode="&#x2265;" horiz-adv-x="573" 
d="M126 683l341 -147q23 -11 24 -29v-82q-1 -18 -24 -29l-341 -147q-14 -6 -19 -4t-5 14v80q0 23 24 33l223 94l-223 94q-24 10 -24 33v80q0 21 24 10zM484 65h-398q-14 0 -19 5t-5 19v61q0 14 5 19.5t19 5.5h398q14 0 19 -5.5t5 -19.5v-61q0 -14 -5 -19t-19 -5z" />
    <glyph glyph-name="lozenge" unicode="&#x25ca;" horiz-adv-x="690" 
d="M179 350l166 -190l167 190l-167 190zM638 309l-258 -295q-18 -21 -33 -21h-4q-15 0 -33 21l-257 295q-41 41 0 82l257 295q18 21 33 21h4q15 0 33 -21l258 -295q41 -41 0 -82z" />
    <glyph glyph-name="two.num" horiz-adv-x="313" 
d="M235 559l-64 -95h83q7 0 9 -2t2 -9v-52q0 -11 -11 -11h-208q-3 0 -3 4v5q0 4 4 9l117 154q15 20 19 38.5t-4 30t-25 11.5q-35 0 -61 -26q-7 -8 -17 2l-31 33q-8 9 0 16q48 46 109 46q46 0 73.5 -25t28 -59t-20.5 -70z" />
    <glyph glyph-name="one.num" horiz-adv-x="247" 
d="M37 656l64 33q19 11 26 11h39q12 0 12 -11v-288q0 -11 -12 -11h-55q-12 0 -12 11v200l-56 -7q-12 0 -12 11v39q0 7 6 12z" />
    <glyph glyph-name="three.num" horiz-adv-x="304" 
d="M148 380q-63 0 -110 47q-8 6 1 15l29 31q8 10 17 2q31 -31 63 -31q26 0 38 13t12 29q0 15 -13.5 24t-37.5 9h-29q-11 0 -11 11v32q0 12 11 12h29q24 0 37.5 9t13.5 24q0 16 -12 29t-38 13q-32 0 -63 -31q-9 -7 -17 1l-29 32q-9 9 -1 16q46 46 110 46q46 0 82.5 -24.5
t36.5 -71.5q0 -45 -43 -70v-1q43 -25 43 -70q0 -46 -36.5 -71t-82.5 -25z" />
    <glyph glyph-name="_0127" horiz-adv-x="780" 
d="M108 750h564q16 0 21.5 -5.5t5.5 -21.5v-763q0 -16 -5.5 -21.5t-21.5 -5.5h-564q-16 0 -21.5 5.5t-5.5 21.5v763q0 16 5.5 21.5t21.5 5.5zM390 254l105 -105q20 -21 39 0l49 50q12 11 12 19t-12 20l-104 105l104 105q12 11 12 19.5t-12 19.5l-49 49q-19 22 -39 0
l-105 -105l-105 105q-12 12 -20 12t-19 -12l-50 -49q-20 -19 0 -39l105 -105l-105 -105q-20 -21 0 -39l50 -50q11 -11 19 -11t20 11z" />
    <glyph glyph-name="four.num" horiz-adv-x="302" 
d="M155 700h59q10 0 10 -11v-166h40q10 0 10 -12v-37q0 -12 -10 -12h-40v-61q0 -11 -10 -11h-47q-7 0 -9 2t-2 9v61h-129q-11 0 -11 12v25q0 9 7 19l123 177q3 5 9 5zM156 608l-61 -85h61v85z" />
    <glyph glyph-name="five.num" horiz-adv-x="276" 
d="M69 700h156q10 0 10 -11v-34q0 -12 -10 -12h-116l-7 -60h37q118 0 118 -100q0 -52 -34.5 -79t-88.5 -27q-59 0 -106 47q-6 7 1 15l24 25q7 9 15 1q32 -30 66 -30q57 0 57 46q0 45 -57 45h-85q-12 0 -10 11l19 152q2 11 11 11z" />
    <glyph glyph-name="six.num" horiz-adv-x="291" 
d="M171 595q43 0 72 -27t29 -76t-32.5 -82.5t-85.5 -33.5q-130 0 -130 160q0 78 32.5 127.5t103.5 49.5q59 0 104 -44q6 -7 -2 -15l-24 -27q-9 -9 -16 0q-27 26 -67 26q-29 0 -46.5 -26t-17.5 -67q26 35 80 35zM151 433q25 0 39 15.5t14 39.5q0 23 -15 38t-38 15
q-25 0 -40.5 -15t-15.5 -39q0 -22 14.5 -38t41.5 -16z" />
    <glyph glyph-name="seven.num" horiz-adv-x="284" 
d="M266 693v-4q0 -6 -4 -13l-155 -275q-6 -11 -17 -11h-46q-6 0 -9 3t-1 8l131 234h-126q-11 1 -11 11v43q0 11 11 11h219q8 0 8 -7z" />
    <glyph glyph-name="eight.num" horiz-adv-x="295" 
d="M147 377q-58 0 -89.5 27t-31.5 67q0 31 18 51t34 26v2q-7 4 -15.5 11t-18.5 23.5t-10 34.5q0 42 28.5 68t84.5 26q57 0 85.5 -26t28.5 -68q0 -26 -15.5 -44t-28.5 -25v-2q16 -6 34 -26t18 -51q0 -40 -32 -67t-90 -27zM147 524q-56 -10 -56 -49q0 -19 14.5 -30.5
t41.5 -11.5t42.5 11.5t15.5 30.5q0 39 -58 49zM147 657q-23 0 -36 -11.5t-13 -30.5q0 -32 49 -41q50 9 50 41q0 19 -13.5 30.5t-36.5 11.5z" />
    <glyph glyph-name="nine.num" horiz-adv-x="293" 
d="M126 494q-43 0 -72 27t-29 76t32.5 82.5t84.5 33.5q73 0 101.5 -43t28.5 -117q0 -79 -32 -128t-104 -49q-59 0 -103 44q-7 7 1 15l25 28q9 8 16 0q29 -27 66 -27q30 0 47 26t17 67q-23 -35 -79 -35zM146 656q-25 0 -39.5 -15.5t-14.5 -39.5q0 -22 15.5 -37t38.5 -15
q25 0 40.5 15t15.5 38q0 22 -14.5 38t-41.5 16z" />
    <glyph glyph-name="zero.num" horiz-adv-x="315" 
d="M25 545q0 73 34 120.5t99 47.5t98.5 -47t33.5 -121t-33.5 -121t-98.5 -47t-99 47.5t-34 120.5zM102 545q0 -42 16.5 -69.5t39.5 -27.5t39.5 27.5t16.5 69.5q0 41 -16.5 69t-39.5 28t-39.5 -28t-16.5 -69z" />
    <glyph glyph-name="two.denom" horiz-adv-x="274" 
d="M216 169l-65 -95h83q7 0 9.5 -2t2.5 -9v-52q0 -11 -12 -11h-207q-4 0 -4 4v5q0 2 4 9l118 154q15 20 19 38.5t-4 30t-25 11.5q-35 0 -61 -26q-8 -8 -17 2l-31 33q-8 9 -1 16q48 46 110 46q46 0 73.5 -25t28 -59t-20.5 -70z" />
    <glyph glyph-name="three.denom" horiz-adv-x="278" 
d="M136 -11q-64 0 -110 46q-7 7 1 16l29 31q9 9 17 2q31 -31 63 -31q26 0 38 12.5t12 29.5q0 15 -13.5 24t-36.5 9h-29q-12 0 -12 11v32q0 12 12 12h29q23 0 36.5 9t13.5 24q0 17 -12 29.5t-38 12.5q-31 0 -63 -32q-9 -8 -17 2l-29 31q-8 11 -1 16q47 47 110 47
q46 0 82.5 -25t36.5 -72q0 -46 -43 -69v-1q43 -23 43 -70t-36.5 -71.5t-82.5 -24.5z" />
    <glyph glyph-name="nine.denom" horiz-adv-x="297" 
d="M126 105q-43 0 -72 27t-29 76t32.5 82.5t84.5 33.5q73 0 101.5 -43t28.5 -117q0 -79 -32 -128t-104 -49q-59 0 -103 44q-7 7 1 15l25 27q9 9 16 0q27 -26 66 -26q30 0 47 26t17 67q-23 -35 -79 -35zM146 267q-25 0 -39.5 -15.5t-14.5 -39.5q0 -23 15.5 -38t38.5 -15
q25 0 40.5 15t15.5 39q0 22 -14.5 38t-41.5 16z" />
    <glyph glyph-name="four.denom" horiz-adv-x="302" 
d="M155 310h59q10 0 10 -11v-166h40q10 0 10 -12v-37q0 -12 -10 -12h-40v-61q0 -11 -10 -11h-47q-7 0 -9 2t-2 9v61h-129q-11 0 -11 12v25q0 9 7 19l123 177q3 5 9 5zM156 218l-61 -85h61v85z" />
    <glyph glyph-name="eight.denom" horiz-adv-x="294" 
d="M146 -13q-58 0 -89.5 27t-31.5 67q0 31 18 51t34 26v2q-7 4 -15.5 11t-18.5 23.5t-10 34.5q0 42 28.5 68t84.5 26q57 0 86 -26t29 -68q0 -26 -15.5 -44t-29.5 -25v-2q17 -6 35 -26t18 -51q0 -40 -32.5 -67t-90.5 -27zM146 134q-56 -10 -56 -49q0 -19 14.5 -30.5
t41.5 -11.5t42.5 11.5t15.5 30.5q0 39 -58 49zM146 267q-23 0 -35.5 -11.5t-12.5 -30.5q0 -32 48 -41q50 9 50 41q0 19 -13 30.5t-37 11.5z" />
    <glyph glyph-name="seven.denom" horiz-adv-x="280" 
d="M266 303v-5q0 -5 -4 -12l-155 -275q-6 -11 -17 -11h-46q-6 0 -9 3t-1 8l131 234h-126q-11 1 -11 11v43q0 11 11 11h219q8 0 8 -7z" />
    <glyph glyph-name="six.denom" horiz-adv-x="293" 
d="M171 206q43 0 72 -27t29 -76t-32.5 -82.5t-84.5 -33.5q-130 0 -130 160q0 79 32 128t104 49q59 0 104 -44q6 -7 -2 -15l-24 -28q-10 -7 -17 0q-27 27 -66 27q-30 0 -47 -26t-17 -67q23 35 79 35zM152 44q24 0 38.5 15.5t14.5 39.5q0 23 -15 37.5t-38 14.5
q-25 0 -40.5 -15t-15.5 -38q0 -22 14.5 -38t41.5 -16z" />
    <glyph glyph-name="five.denom" horiz-adv-x="276" 
d="M69 310h156q10 0 10 -11v-34q0 -12 -10 -12h-116l-7 -60h37q118 0 118 -100q0 -52 -34.5 -79t-88.5 -27q-59 0 -106 47q-6 7 1 15l24 25q7 9 15 1q32 -30 66 -30q57 0 57 46q0 45 -57 45h-85q-12 0 -10 11l19 152q2 11 11 11z" />
    <glyph glyph-name="zero.tf" horiz-adv-x="664" 
d="M190 350q0 -48 6.5 -88t22 -76t44.5 -56t69 -20t69 20t44.5 56t22 76t6.5 88t-6.5 88t-22 76t-44.5 56t-69 20t-69 -20t-44.5 -56t-22 -76t-6.5 -88zM46 350q0 158 73 260.5t213 102.5t213 -102t73 -261t-73 -261t-213 -102t-213 102.5t-73 260.5z" />
    <glyph glyph-name="one.tf" horiz-adv-x="385" 
d="M47 602l122 74q34 24 51 24h57q14 0 19 -5t5 -19v-652q0 -14 -5 -19t-19 -5h-93q-14 0 -19.5 5t-5.5 19v499l-101 -14q-14 0 -19 5t-5 18v44q0 17 13 26z" />
    <glyph glyph-name="two.tf" horiz-adv-x="559" 
d="M467 388l-207 -267h238q14 0 19 -5t5 -19v-73q0 -14 -5 -19t-19 -5h-460q-9 0 -9 9v13q0 6 9 19l312 398q43 55 18 103t-90 48q-88 0 -157 -71q-11 -10 -17.5 -9t-16.5 12l-50 54q-10 11 -11 17.5t8 16.5q105 103 244 103q61 0 111 -20.5t79 -54.5t41 -75.5t1.5 -88
t-43.5 -86.5z" />
    <glyph glyph-name="three.tf" horiz-adv-x="586" 
d="M291 297h-99q-14 0 -19 5t-5 19v66q0 14 5 19t19 5h89q55 0 81.5 24.5t26.5 56.5q0 98 -114 98q-46 0 -74 -16.5t-61 -52.5q-17 -17 -34 3l-48 52q-10 12 -11 17.5t8 16.5q53 52 102.5 77.5t117.5 25.5q35 0 70 -7.5t69 -23.5t59.5 -40t41 -59.5t15.5 -77.5
q0 -50 -26.5 -89.5t-64.5 -60.5v-1q109 -52 109 -154q0 -105 -76 -159t-197 -54q-128 0 -233 103q-9 10 -8 16.5t11 16.5l47 53q18 18 35 2q68 -68 148 -68q71 0 101.5 26t30.5 76q0 36 -30.5 60.5t-85.5 24.5z" />
    <glyph glyph-name="four.tf" horiz-adv-x="646" 
d="M373 700h112q14 0 19 -5t5 -19v-410h81q14 0 19 -5t5 -19v-60q0 -14 -5 -19.5t-19 -5.5h-81v-133q0 -14 -5 -19t-19 -5h-85q-14 0 -19 5t-5 19v133h-312q-14 0 -19 5.5t-5 19.5v65q0 21 14 39l303 406q6 8 16 8zM376 524l-194 -258h194v258z" />
    <glyph glyph-name="five.tf" horiz-adv-x="579" 
d="M128 700h343q14 0 19 -5t5 -19v-73q0 -14 -5 -19t-19 -5h-257l-19 -138h89q259 0 259 -219q0 -116 -76 -175.5t-196 -59.5q-128 0 -233 103q-9 10 -8 16t11 17l47 53q18 18 34 2q36 -34 69 -51t80 -17q132 0 132 106q0 102 -131 102h-187q-28 0 -25 24l44 334
q2 15 6 19.5t18 4.5z" />
    <glyph glyph-name="six.tf" horiz-adv-x="622" 
d="M362 457q94 0 156 -57.5t62 -161.5q0 -105 -70.5 -178t-182.5 -73q-82 0 -138.5 27t-86.5 77t-42.5 108t-12.5 133q0 80 15.5 146t48 120t91 84.5t137.5 30.5q125 0 222 -93q9 -10 8 -16t-11 -18l-50 -54q-10 -11 -16.5 -12t-17.5 9q-33 32 -66 46.5t-80 14.5
q-66 0 -103.5 -58.5t-37.5 -153.5q48 79 175 79zM319 106q56 0 88.5 34.5t32.5 88.5q0 50 -35.5 83.5t-85.5 33.5q-53 0 -88 -35t-35 -85q0 -48 31.5 -84t91.5 -36z" />
    <glyph glyph-name="seven.001" horiz-adv-x="568" 
d="M564 683v-5q0 -10 -10 -27l-346 -627q-14 -24 -39 -24h-98q-33 0 -23 24l301 546h-295q-14 2 -19 6t-5 18v82q0 14 5 19t19 5h491q19 0 19 -17z" />
    <glyph glyph-name="eight.tf" horiz-adv-x="603" 
d="M302 -13q-126 0 -195 57.5t-69 146.5q0 64 39 108.5t74 56.5v6q-16 9 -35 24t-40 50t-21 74q0 91 62 147t186 56q122 0 183.5 -56t61.5 -147q0 -39 -21 -74t-39.5 -50.5t-35.5 -24.5v-5q35 -12 74 -56.5t39 -108.5q0 -90 -68 -147t-195 -57zM302 306q-126 -26 -126 -106
q0 -41 33 -67.5t93 -26.5q59 0 92 26.5t33 67.5q0 80 -125 106zM302 594q-51 0 -80 -25.5t-29 -66.5q0 -71 109 -91q52 10 80 33.5t28 57.5q0 41 -28.5 66.5t-79.5 25.5z" />
    <glyph glyph-name="nine.tf" horiz-adv-x="620" 
d="M262 243q-94 0 -156.5 57.5t-62.5 161.5q0 105 71 178t183 73q82 0 138.5 -27t86.5 -77t42.5 -108t12.5 -133q0 -80 -15.5 -146t-48 -120t-91 -84.5t-137.5 -30.5q-125 0 -224 94q-9 10 -8 16.5t11 17.5l50 54q10 11 16.5 12t17.5 -9q65 -62 148 -62q66 0 103.5 58.5
t37.5 153.5q-48 -79 -175 -79zM304 594q-55 0 -87.5 -34.5t-32.5 -88.5q0 -50 35 -83.5t85 -33.5q53 0 88.5 35t35.5 85q0 49 -31.5 84.5t-92.5 35.5z" />
    <glyph glyph-name="parenleft.case" horiz-adv-x="407" 
d="M33 343q0 143 69 249.5t190 170.5q22 12 36 -11l37 -64q15 -27 -17 -43q-86 -41 -133 -119.5t-47 -182.5t47 -182.5t133 -119.5q32 -16 17 -43l-37 -64q-14 -23 -36 -11q-121 64 -190 170.5t-69 249.5z" />
    <glyph glyph-name="parenright.case" horiz-adv-x="407" 
d="M380 343q0 -143 -69 -249.5t-190 -170.5q-22 -12 -36 11l-37 64q-15 27 17 43q86 41 133 119.5t47 182.5t-47 182.5t-133 119.5q-32 16 -17 43l37 64q14 23 36 11q121 -64 190 -170.5t69 -249.5z" />
    <glyph glyph-name="hyphen.case" horiz-adv-x="430" 
d="M353 302h-276q-14 0 -19 5.5t-5 19.5v55q0 14 5 19t19 5h276q14 0 19 -5t5 -19v-56q0 -14 -5 -19t-19 -5z" />
    <glyph glyph-name="bracketleft.case" horiz-adv-x="386" 
d="M328 -17v-64q0 -14 -5 -19t-19 -5h-199q-14 0 -19 5t-5 19v849q0 14 5 19t19 5h199q14 0 19 -5t5 -19v-64q0 -14 -5 -19t-19 -5h-100v-673h100q14 0 19 -5t5 -19z" />
    <glyph glyph-name="bracketright.case" horiz-adv-x="385" 
d="M57 -81v64q0 14 5.5 19t19.5 5h99v673h-99q-14 0 -19.5 5t-5.5 19v64q0 14 5.5 19t19.5 5h199q14 0 19 -5t5 -19v-849q0 -14 -5 -19t-19 -5h-199q-14 0 -19.5 5t-5.5 19z" />
    <glyph glyph-name="braceleft.case" horiz-adv-x="449" 
d="M33 320v74q0 20 21 28q81 25 81 69v79q0 251 253 251q14 0 19 -5t5 -19v-75q0 -14 -5 -19t-19 -5q-52 0 -83.5 -30t-31.5 -98v-79q0 -51 -26.5 -86t-60.5 -45v-6q34 -10 60.5 -45t26.5 -86v-79q0 -128 115 -128q15 0 19.5 -5t4.5 -19v-75q0 -14 -5 -19t-19 -5
q-253 0 -253 251v79q0 44 -81 69q-21 8 -21 28z" />
    <glyph glyph-name="bar.case" horiz-adv-x="272" 
d="M80 -65v850q0 14 5 19t19 5h63q14 0 19.5 -5t5.5 -19v-850q0 -14 -5.5 -19t-19.5 -5h-63q-14 0 -19 5t-5 19z" />
    <glyph glyph-name="braceright.case" horiz-adv-x="449" 
d="M416 394v-74q0 -20 -22 -28q-80 -26 -80 -69v-79q0 -251 -253 -251q-14 0 -19.5 5t-5.5 19v75q0 14 5 19t20 5q52 0 83.5 30t31.5 98v79q0 51 26 86t60 45v6q-34 10 -60 45t-26 86v79q0 67 -32 97.5t-83 30.5q-15 0 -20 5t-5 19v75q0 14 5.5 19t19.5 5q253 0 253 -251
v-79q0 -43 80 -69q22 -8 22 -28z" />
    <glyph glyph-name="brokenbar.case" horiz-adv-x="255" 
d="M82 -52v347q0 14 5 19t19 5h43q14 0 19.5 -5t5.5 -19v-347q0 -14 -5.5 -19t-19.5 -5h-43q-14 0 -19 5t-5 19zM82 437v311q0 14 5 19t19 5h43q14 0 19.5 -5t5.5 -19v-311q0 -14 -5.5 -19t-19.5 -5h-43q-14 0 -19 5t-5 19z" />
    <glyph glyph-name="guillemotleft.case" horiz-adv-x="586" 
d="M51 418l162 183q17 17 34 5l52 -30q19 -12 5 -33l-133 -172l133 -172q14 -21 -5 -33l-52 -30q-17 -12 -34 5l-162 183q-18 22 -18 43v8q0 21 18 43zM288 418l162 183q17 17 34 5l52 -30q19 -12 5 -33l-134 -172l134 -172q14 -21 -5 -33l-52 -30q-17 -12 -34 5l-162 183
q-18 22 -18 43v8q0 21 18 43z" />
    <glyph glyph-name="guillemotright.case" horiz-adv-x="586" 
d="M373 601l162 -183q18 -22 18 -43v-8q0 -21 -18 -43l-162 -183q-17 -17 -34 -5l-52 30q-19 12 -5 33l134 172l-134 172q-14 21 5 33l52 30q17 12 34 -5zM136 601l162 -183q18 -22 18 -43v-8q0 -21 -18 -43l-162 -183q-17 -17 -34 -5l-52 30q-18 13 -5 33l134 172l-134 172
q-14 21 5 33l52 30q17 12 34 -5z" />
    <glyph glyph-name="endash.case" horiz-adv-x="428" 
d="M356 302h-283q-14 0 -19.5 5.5t-5.5 19.5v55q0 14 5.5 19t19.5 5h283q14 0 19 -5t5 -19v-56q0 -14 -5 -19t-19 -5z" />
    <glyph glyph-name="emdash.case" horiz-adv-x="597" 
d="M525 302h-452q-14 0 -19.5 5.5t-5.5 19.5v55q0 14 5.5 19t19.5 5h452q14 0 19 -5t5 -19v-56q0 -14 -5.5 -19t-18.5 -5z" />
    <glyph glyph-name="bullet.case" horiz-adv-x="288" 
d="M35 357q0 46 31 78t77 32t78.5 -32t32.5 -78t-32.5 -77.5t-78.5 -31.5t-77 31.5t-31 77.5z" />
    <glyph glyph-name="guilsinglleft.case" horiz-adv-x="339" 
d="M43 418l162 183q10 10 15.5 11t17.5 -6l52 -30q20 -13 5 -33l-133 -172l133 -172q15 -20 -5 -33l-52 -30q-12 -7 -17.5 -6t-15.5 11l-162 183q-19 21 -19 43v8q0 22 19 43z" />
    <glyph glyph-name="guilsinglright.case" horiz-adv-x="339" 
d="M135 601l162 -183q18 -22 18 -43v-8q0 -21 -18 -43l-162 -183q-17 -17 -34 -5l-52 30q-19 12 -5 33l134 172l-134 172q-14 21 5 33l52 30q17 12 34 -5z" />
    <glyph glyph-name="periodcentered.case" horiz-adv-x="288" 
d="M51 357q0 39 27 66.5t65 27.5q40 0 67 -27.5t27 -66.5t-27 -66t-67 -27q-38 0 -65 27t-27 66z" />
    <glyph glyph-name="two.superior" horiz-adv-x="313" 
d="M235 641l-64 -95h83q7 0 9 -2t2 -9v-52q0 -11 -11 -11h-208q-3 0 -3 4v5q0 5 4 9l117 154q15 20 19 38.5t-4 30t-25 11.5q-35 0 -61 -26q-7 -8 -17 2l-31 33q-8 9 0 16q48 46 109 46q46 0 73.5 -25t28 -59t-20.5 -70z" />
    <glyph glyph-name="one.superior" horiz-adv-x="247" 
d="M37 738l64 33q19 11 26 11h39q12 0 12 -11v-288q0 -11 -12 -11h-54q-12 0 -12 11v201l-57 -6q-12 0 -12 11v37q0 7 6 12z" />
    <glyph glyph-name="zerosuperior" horiz-adv-x="332" 
d="M33 627q0 73 34 120.5t99 47.5t99 -47.5t34 -120.5t-34 -120.5t-99 -47.5t-99 47.5t-34 120.5zM106 627q0 -44 16 -73t44 -29t44 29t16 73q0 47 -16 74.5t-44 27.5t-44 -27.5t-16 -74.5z" />
    <glyph glyph-name="foursuperior" horiz-adv-x="302" 
d="M155 782h59q10 0 10 -11v-166h40q10 0 10 -12v-37q0 -12 -10 -12h-40v-61q0 -11 -10 -11h-47q-7 0 -9 2t-2 9v61h-129q-11 0 -11 12v25q0 9 7 19l123 177q3 5 9 5zM156 690l-61 -85h61v85z" />
    <glyph glyph-name="fivessuperior" horiz-adv-x="276" 
d="M69 782h156q10 0 10 -11v-34q0 -12 -10 -12h-116l-7 -60h37q118 0 118 -100q0 -52 -34.5 -79t-88.5 -27q-59 0 -106 47q-6 7 1 15l24 25q7 9 15 1q32 -30 66 -30q57 0 57 46q0 45 -57 45h-85q-12 0 -10 11l19 152q2 11 11 11z" />
    <glyph glyph-name="sixsuperior" horiz-adv-x="291" 
d="M171 677q43 0 72 -27t29 -76t-32.5 -82.5t-85.5 -33.5q-130 0 -130 160q0 78 32.5 127.5t103.5 49.5q59 0 104 -44q6 -7 -2 -15l-24 -27q-9 -9 -16 0q-27 26 -67 26q-29 0 -46.5 -26t-17.5 -67q26 35 80 35zM151 515q25 0 39 15.5t14 39.5q0 23 -15 38t-38 15
q-25 0 -40.5 -15t-15.5 -39q0 -22 14.5 -38t41.5 -16z" />
    <glyph glyph-name="sevensuperior" horiz-adv-x="284" 
d="M266 775v-5q0 -5 -4 -12l-155 -275q-6 -11 -17 -11h-46q-6 0 -9 3t-1 8l131 234h-126q-11 1 -11 11v43q0 11 11 11h219q8 0 8 -7z" />
    <glyph glyph-name="eightsuperior" horiz-adv-x="295" 
d="M147 459q-58 0 -89.5 27t-31.5 67q0 31 18 51t34 26v2q-7 4 -15.5 11t-18.5 23.5t-10 34.5q0 42 28.5 68t84.5 26q57 0 85.5 -26t28.5 -68q0 -26 -15.5 -44t-28.5 -25v-2q16 -6 34 -26t18 -51q0 -40 -32 -67t-90 -27zM147 606q-56 -10 -56 -49q0 -19 14.5 -30.5
t41.5 -11.5t42.5 11.5t15.5 30.5q0 39 -58 49zM147 739q-23 0 -36 -11.5t-13 -30.5q0 -32 49 -41q50 9 50 41q0 19 -13.5 30.5t-36.5 11.5z" />
    <glyph glyph-name="ninesuperior" horiz-adv-x="293" 
d="M126 576q-43 0 -72 27t-29 76t32.5 82.5t84.5 33.5q73 0 101.5 -43t28.5 -117q0 -79 -32 -128t-104 -49q-59 0 -103 44q-7 7 1 15l25 28q9 8 16 0q29 -27 66 -27q30 0 47 26t17 67q-23 -35 -79 -35zM146 738q-25 0 -39.5 -15.5t-14.5 -39.5q0 -22 15.5 -37t38.5 -15
q25 0 40.5 15t15.5 38q0 22 -14.5 38t-41.5 16z" />
    <glyph glyph-name="zeroinferior" horiz-adv-x="315" 
d="M25 5q0 73 34 120.5t99 47.5t98.5 -47t33.5 -121t-33.5 -121t-98.5 -47t-99 47.5t-34 120.5zM98 5q0 -44 17 -73t43 -29t43 29t17 73t-17 73t-43 29t-43 -29t-17 -73z" />
    <glyph glyph-name="twoinferior" horiz-adv-x="274" 
d="M216 19l-65 -95h83q7 0 9.5 -2t2.5 -9v-52q0 -11 -12 -11h-207q-4 0 -4 4v5q0 2 4 9l118 154q15 20 19 38.5t-4 30t-25 11.5q-35 0 -61 -26q-8 -8 -17 2l-31 33q-8 9 -1 16q48 46 110 46q46 0 73.5 -25t28 -59t-20.5 -70z" />
    <glyph glyph-name="threeinferior" horiz-adv-x="278" 
d="M136 -160q-63 0 -110 47q-7 6 1 15l29 31q9 10 17 2q31 -31 63 -31q26 0 38 12.5t12 29.5q0 15 -13.5 24t-36.5 9h-29q-12 0 -12 11v32q0 12 12 12h29q23 0 36.5 9t13.5 24q0 17 -12 29.5t-38 12.5q-32 0 -63 -31q-8 -8 -17 1l-29 32q-8 9 -1 16q46 46 110 46
q46 0 82.5 -24.5t36.5 -71.5t-43 -70v-1q43 -23 43 -70q0 -46 -36.5 -71t-82.5 -25z" />
    <glyph glyph-name="nineinferior" horiz-adv-x="297" 
d="M126 -46q-43 0 -72 27t-29 76t32.5 82.5t84.5 33.5q73 0 101.5 -43t28.5 -117q0 -79 -32 -128t-104 -49q-59 0 -103 44q-7 7 1 15l25 28q9 8 16 0q29 -27 66 -27q30 0 47 26t17 67q-23 -35 -79 -35zM146 116q-25 0 -39.5 -15.5t-14.5 -39.5q0 -22 15.5 -37t38.5 -15
q25 0 40.5 15t15.5 38q0 22 -14.5 38t-41.5 16z" />
    <glyph glyph-name="fourinferior" horiz-adv-x="302" 
d="M155 160h59q10 0 10 -11v-166h40q10 0 10 -12v-37q0 -12 -10 -12h-40v-61q0 -11 -10 -11h-47q-7 0 -9 2t-2 9v61h-129q-11 0 -11 12v25q0 9 7 19l123 177q3 5 9 5zM156 68l-61 -85h61v85z" />
    <glyph glyph-name="eightinferior" horiz-adv-x="294" 
d="M146 -163q-58 0 -89.5 27t-31.5 67q0 31 18 51t34 26v2q-7 4 -15.5 11t-18.5 23.5t-10 34.5q0 42 28.5 68t84.5 26q57 0 86 -26t29 -68q0 -26 -15.5 -44t-29.5 -25v-2q17 -6 35 -26t18 -51q0 -40 -32.5 -67t-90.5 -27zM146 -16q-56 -10 -56 -49q0 -19 14.5 -30.5
t41.5 -11.5t42.5 11.5t15.5 30.5q0 39 -58 49zM146 117q-23 0 -35.5 -11.5t-12.5 -30.5q0 -32 48 -41q50 9 50 41q0 19 -13 30.5t-37 11.5z" />
    <glyph glyph-name="seveninferior" horiz-adv-x="280" 
d="M266 153v-5q0 -5 -4 -12l-155 -275q-6 -11 -17 -11h-46q-6 0 -9 3t-1 8l131 234h-126q-11 1 -11 11v43q0 11 11 11h219q8 0 8 -7z" />
    <glyph glyph-name="sixinferior" horiz-adv-x="293" 
d="M171 55q43 0 72 -27t29 -76t-32.5 -82.5t-84.5 -33.5q-130 0 -130 160q0 79 32 128t104 49q59 0 104 -44q6 -7 -2 -15l-24 -27q-10 -8 -17 0q-26 26 -66 26q-30 0 -47 -26t-17 -67q23 35 79 35zM152 -107q24 0 38.5 15.5t14.5 39.5q0 23 -15 38t-38 15q-25 0 -40.5 -15
t-15.5 -39q0 -22 14.5 -38t41.5 -16z" />
    <glyph glyph-name="fiveinferior" horiz-adv-x="276" 
d="M69 160h156q10 0 10 -11v-34q0 -12 -10 -12h-116l-7 -60h37q118 0 118 -100q0 -52 -34.5 -79t-88.5 -27q-59 0 -106 47q-6 7 1 15l24 25q7 9 15 1q32 -30 66 -30q57 0 57 46q0 45 -57 45h-85q-12 0 -10 11l19 152q2 11 11 11z" />
    <glyph glyph-name="oneinferior" horiz-adv-x="194" 
d="M21 116l63 33q19 11 26 11h40q11 0 11 -11v-288q0 -11 -11 -11h-55q-11 0 -11 11v201l-58 -6q-11 0 -11 11v37q0 8 6 12z" />
    <glyph glyph-name="zero.denom" horiz-adv-x="315" 
d="M25 155q0 73 34 120.5t99 47.5t98.5 -47t33.5 -121t-33.5 -121t-98.5 -47t-99 47.5t-34 120.5zM102 155q0 -42 16.5 -69.5t39.5 -27.5t39.5 27.5t16.5 69.5q0 41 -16.5 69t-39.5 28t-39.5 -28t-16.5 -69z" />
    <glyph glyph-name="threesuperior" horiz-adv-x="304" 
d="M148 462q-63 0 -110 47q-8 6 1 15l29 31q8 10 17 2q31 -31 63 -31q26 0 38 13t12 29q0 15 -13.5 24t-37.5 9h-29q-11 0 -11 11v32q0 12 11 12h29q24 0 37.5 9t13.5 24q0 16 -12 29t-38 13q-32 0 -63 -31q-9 -7 -17 1l-29 32q-9 9 -1 16q46 46 110 46q46 0 82.5 -24.5
t36.5 -71.5q0 -45 -43 -70v-1q43 -25 43 -70q0 -46 -36.5 -71t-82.5 -25z" />
    </font>
</defs>
</svg>
